<svg xmlns="http://www.w3.org/2000/svg" xmlns:xlink="http://www.w3.org/1999/xlink" width="88" height="93.503" viewBox="0 0 88 93.503">
  <defs>
    <clipPath id="clip-path">
      <rect id="Rectángulo_347210" data-name="Rectángulo 347210" width="75.374" height="83.35" fill="none"/>
    </clipPath>
  </defs>
  <g id="Grupo_997755" data-name="Grupo 997755" transform="translate(-626 -7917)">
    <path id="Trazado_710239" data-name="Trazado 710239" d="M44,0A44,44,0,1,1,0,44,44,44,0,0,1,44,0Z" transform="translate(626 7917)" fill="#d2e1f1"/>
    <g id="Grupo_1004088" data-name="Grupo 1004088" transform="translate(633.217 7927.153)">
      <g id="Grupo_1004087" data-name="Grupo 1004087" clip-path="url(#clip-path)">
        <path id="Trazado_713484" data-name="Trazado 713484" d="M5.038,41.971,4.9,42.1a5.055,5.055,0,0,0-1.378,1.214l-.135.135A9.01,9.01,0,0,0,.069,50.062C-.052,57.819.068,65.579,0,73.338a9.666,9.666,0,0,0,2.052,6.474A8.4,8.4,0,0,0,8.544,83.3c10.728.079,21.456.036,32.184.026A16.1,16.1,0,0,0,43.21,83.2a9.382,9.382,0,0,0,6.7-4.749c1.121-1.8,1.123-3.84,1.2-5.821.122-3.048.068-6.106.024-9.158-.065-4.5.213-9-.159-13.492a9.714,9.714,0,0,0-1.48-4.346A18.027,18.027,0,0,0,45.98,41.9c-1.483-1.337-3.018-2.618-4.429-4.04a8.654,8.654,0,0,1-2.192-3.443,15.484,15.484,0,0,1-.312-4.185c-.02-.375-.511-1.225.6-.724.193.087.325-.159.434-.319.166.1.305.14.3-.136a2.756,2.756,0,0,0,.839-.872q0-.064,0-.128c.6-.487.461-1.226.468-1.817a29.916,29.916,0,0,0-.117-5.247,2.259,2.259,0,0,0-1.816-2.039c-.607-.1-.721-.364-.735-.92-.074-2.981.131-5.96-.126-8.945A3.776,3.776,0,0,0,35.04,5.35q-9.612-.15-19.229.012a3.707,3.707,0,0,0-3.667,3.751c-.022,2.939-.017,5.878,0,8.817,0,.5,0,.832-.658.93a1.8,1.8,0,0,0-1.368.745c-.1.122-.643-.2-.335.335a2.375,2.375,0,0,0-.344,1.314c.025,1.81.04,3.621-.008,5.43a2.7,2.7,0,0,0,.9,2.339c-.035.116.013.153.124.131a1.371,1.371,0,0,0,1.046.326c.7-.012.647.342.645.811a17.74,17.74,0,0,1-.517,4.429c-.089.028-.173.06-.123.182a7.556,7.556,0,0,1-2.176,3.206c-1.456,1.257-2.934,2.49-4.286,3.862M69.98,10.941c-.107-1.413.065-3.191-.127-4.979a6.224,6.224,0,0,0-1.293-3.29A6.648,6.648,0,0,0,62.078.081c-2.876.394-5.62,3.268-5.562,6.232.052,2.661.012,5.325.009,7.987,0,.557.183,1.262-.086,1.632-.294.405-1.042.082-1.588.148a4.039,4.039,0,0,0-3.717,3.851c.066,2.941.027,5.885.012,8.827a1.9,1.9,0,0,0,.2.865A3.923,3.923,0,0,0,55.485,32.2c.9-.089,1.065.227,1.063,1.078-.027,11.6-.007,23.205-.016,34.808a7.264,7.264,0,0,0,1.126,3.851,9.826,9.826,0,0,1,1.569,5.574c-.047,1.428-.017,2.858-.007,4.287.008,1.084.442,1.529,1.5,1.535q2.438.014,4.876,0a1.515,1.515,0,0,0,1.692-1.687c.009-1.962.03-3.924,0-5.885a4.572,4.572,0,0,1,.741-2.529,12.477,12.477,0,0,0,1.964-6.728c-.034-11.126,0-22.253-.036-33.379,0-.8.232-.992.964-.925a2.841,2.841,0,0,0,1.4-.069c1.953-.844,2.958-1.8,3.023-4.393.06-2.381,0-4.764.023-7.146a6.457,6.457,0,0,0-.392-2.085,3.214,3.214,0,0,0-1.525-1.84,4.8,4.8,0,0,0-2.775-.587c-.619.081-.732-.174-.714-.739.043-1.344.014-2.69.014-4.4" transform="translate(0 0)" fill="#fff"/>
        <path id="Trazado_713485" data-name="Trazado 713485" d="M41.223,54.218a2.759,2.759,0,0,1-.839.872c-.123,0-.289-.1-.3.136-.109.16-.242.406-.435.319-1.112-.5-.621.348-.6.724a15.485,15.485,0,0,0,.312,4.185A8.656,8.656,0,0,0,41.55,63.9c1.41,1.423,2.946,2.7,4.429,4.041A18.013,18.013,0,0,1,49.5,71.665a9.716,9.716,0,0,1,1.48,4.346c.372,4.493.094,8.995.159,13.492.044,3.052.1,6.11-.023,9.158-.079,1.981-.08,4.026-1.2,5.822a9.382,9.382,0,0,1-6.7,4.749,16.121,16.121,0,0,1-2.482.132c-10.728.01-21.456.053-32.184-.026a8.4,8.4,0,0,1-6.491-3.492A9.667,9.667,0,0,1,0,99.371c.068-7.758-.053-15.519.069-23.276A9.009,9.009,0,0,1,3.39,69.484c.118.029.163-.017.135-.134A5.058,5.058,0,0,1,4.9,68.135c.117.031.159-.016.134-.131,1.352-1.372,2.83-2.6,4.286-3.862A7.561,7.561,0,0,0,11.5,60.936l.123-.182a17.732,17.732,0,0,0,.517-4.429c0-.469.053-.823-.645-.811a1.37,1.37,0,0,1-1.046-.326l-.124-.131a2.7,2.7,0,0,1-.9-2.34c.047-1.809.033-3.621.008-5.43a2.374,2.374,0,0,1,.344-1.314.3.3,0,0,0,.335-.335,1.794,1.794,0,0,1,1.368-.745c.658-.1.66-.429.658-.93-.014-2.939-.019-5.878,0-8.817a3.706,3.706,0,0,1,3.667-3.751q9.612-.161,19.229-.012A3.776,3.776,0,0,1,38.9,35.121c.257,2.985.053,5.965.126,8.945.014.556.128.823.735.92a2.259,2.259,0,0,1,1.816,2.04,29.947,29.947,0,0,1,.117,5.247c-.008.591.128,1.33-.468,1.817L41.1,54.1l.12.114M8.94,68.138a27.942,27.942,0,0,0-4.634,4.3A6.236,6.236,0,0,0,2.73,76.478c-.029,7.867-.012,15.735-.012,23.6a5.88,5.88,0,0,0,.171,1.635c.739,2.619,3.054,4.845,5.64,4.913,5.846.152,11.7.031,17.551.022,5.094.01,10.188-.033,15.28.055a6.854,6.854,0,0,0,5.048-2.088,6.681,6.681,0,0,0,2.04-5.043c.018-7.166.006-14.331.008-21.5a10.382,10.382,0,0,0-.512-3.5l-.123-.183c-.564-2.12-2.327-3.287-3.8-4.639-1.792-1.643-3.714-3.149-5.366-4.942a6.583,6.583,0,0,1-1.47-2.513l-.125-.182a4.966,4.966,0,0,0-.4-1.062,15.834,15.834,0,0,1-.3-4.7c.006-.662-.174-.819-.825-.817-6.461.025-12.922.015-19.383.015-1.335,0-1.4,0-1.314,1.361.061.954-.347,1.9.006,2.847a2.032,2.032,0,0,0-.394.777,10.162,10.162,0,0,1-.561,1.768,14.08,14.08,0,0,1-3.307,4.347l-.136.134A5.013,5.013,0,0,0,9.076,68l-.136.134M25.535,44.8c3.36,0,6.72-.014,10.079.013.573,0,.756-.121.748-.726-.035-2.743-.013-5.487-.016-8.231,0-1.291-.52-1.817-1.8-1.817q-9.029,0-18.059,0c-1.246,0-1.661.406-1.663,1.633-.006,2.8.015,5.6-.016,8.4-.006.581.132.749.731.744,3.331-.031,6.663-.015,10-.015m.092,2.69c-4.231,0-8.462.01-12.693-.011-.571,0-.854.055-.821.748.064,1.342.037,2.689.009,4.034-.01.465.111.621.6.621q12.861-.021,25.721,0c.49,0,.612-.155.6-.621-.028-1.316-.044-2.635,0-3.95.024-.643-.137-.844-.817-.838-4.2.034-8.406.017-12.608.017" transform="translate(0 -26.033)"/>
        <path id="Trazado_713486" data-name="Trazado 713486" d="M322.211,10.941c0,1.711.029,3.057-.014,4.4-.018.565.094.82.714.739a4.8,4.8,0,0,1,2.775.587,3.213,3.213,0,0,1,1.525,1.84,6.453,6.453,0,0,1,.392,2.085c-.028,2.382.037,4.766-.023,7.146-.065,2.591-1.07,3.549-3.023,4.393a2.841,2.841,0,0,1-1.4.069c-.732-.067-.966.129-.964.925.031,11.126,0,22.253.036,33.379a12.477,12.477,0,0,1-1.964,6.728,4.572,4.572,0,0,0-.741,2.529c.028,1.961.007,3.923,0,5.885a1.515,1.515,0,0,1-1.692,1.687q-2.438.011-4.877,0c-1.057-.006-1.491-.451-1.5-1.535-.01-1.429-.041-2.86.007-4.287a9.826,9.826,0,0,0-1.569-5.574,7.262,7.262,0,0,1-1.126-3.851c.009-11.6-.011-23.205.016-34.808,0-.85-.167-1.166-1.063-1.078a3.923,3.923,0,0,1-4.136-2.577,1.9,1.9,0,0,1-.2-.865c.016-2.943.054-5.886-.012-8.827a4.039,4.039,0,0,1,3.717-3.851c.546-.066,1.294.257,1.588-.148.269-.37.085-1.075.086-1.632,0-2.662.043-5.326-.009-7.987-.058-2.964,2.686-5.838,5.561-6.232a6.648,6.648,0,0,1,6.481,2.592,6.224,6.224,0,0,1,1.293,3.29c.192,1.788.02,3.566.127,4.979M319.52,50.2c0-5.716-.015-11.432.019-17.148,0-.718-.191-.865-.873-.85q-3.235.071-6.472,0c-.658-.015-.761.191-.76.791q.033,17.526.026,35.052a4.137,4.137,0,0,0,.079.73,8.651,8.651,0,0,0,1.215,2.749,13.219,13.219,0,0,1,1.394,7.075c-.047,2.135-.01,2.118,2.148,2.064.468-.012.547-.169.54-.58-.022-1.232.035-2.467-.018-3.7a8.553,8.553,0,0,1,1.418-5.048,8.4,8.4,0,0,0,1.282-4.663q0-8.238,0-16.475m-4.059-31.433q-3.864,0-7.728,0c-1.173,0-1.66.466-1.663,1.6q-.012,3.78,0,7.56c0,1.107.485,1.6,1.583,1.6q7.811.01,15.623,0c1.149,0,1.62-.481,1.623-1.643q.01-3.7,0-7.392c0-1.273-.448-1.722-1.711-1.724q-3.864-.006-7.728,0m-4.013-8.048c0,1.595.012,3.189-.008,4.784-.005.423.1.587.557.583,2.322-.021,4.644-.026,6.966,0,.545.007.564-.25.562-.662-.011-2.546,0-5.091-.009-7.637a11.052,11.052,0,0,0-.141-1.9,4.008,4.008,0,0,0-7.942.637c.08,1.394.016,2.8.014,4.2" transform="translate(-252.231 0)"/>
        <path id="Trazado_713487" data-name="Trazado 713487" d="M57.9,116.311a.3.3,0,0,1-.335.335c-.309-.531.233-.214.335-.335" transform="translate(-47.782 -96.706)" fill="#020201"/>
        <path id="Trazado_713488" data-name="Trazado 713488" d="M237.8,172.406c.013-.239.178-.141.3-.136,0,.276-.136.235-.3.136" transform="translate(-197.72 -143.213)" fill="#fcfcfc"/>
        <path id="Trazado_713489" data-name="Trazado 713489" d="M243.98,166.584l-.12-.114.122-.014q0,.064,0,.128" transform="translate(-202.757 -138.399)" fill="#fcfcfc"/>
        <path id="Trazado_713490" data-name="Trazado 713490" d="M61.2,172.193l.124.131c-.111.022-.159-.016-.124-.131" transform="translate(-50.876 -143.169)" fill="#020201"/>
        <path id="Trazado_713491" data-name="Trazado 713491" d="M68.272,205.991l-.123.182c-.05-.122.034-.154.123-.182" transform="translate(-56.65 -171.27)" fill="#020201"/>
        <path id="Trazado_713492" data-name="Trazado 713492" d="M29.23,249.006c.026.115-.016.162-.134.131l.134-.131" transform="translate(-24.192 -207.035)" fill="#fcfcfc"/>
        <path id="Trazado_713493" data-name="Trazado 713493" d="M20.25,256.987c.027.118-.017.164-.135.135l.135-.135" transform="translate(-16.725 -213.671)" fill="#fcfcfc"/>
        <path id="Trazado_713494" data-name="Trazado 713494" d="M87.393,179.3c-.352-.945.055-1.893-.006-2.847C87.3,175.1,87.365,175.1,88.7,175.1c6.461,0,12.922.01,19.382-.015.651,0,.832.154.825.817a15.835,15.835,0,0,0,.3,4.7,4.953,4.953,0,0,1,.4,1.062c-.04.117.036.154.125.181a6.588,6.588,0,0,0,1.47,2.513c1.652,1.793,3.574,3.3,5.366,4.942,1.475,1.353,3.239,2.52,3.8,4.639-.044.118.034.154.123.183a10.382,10.382,0,0,1,.512,3.5c0,7.166.01,14.331-.008,21.5a6.681,6.681,0,0,1-2.04,5.043,6.855,6.855,0,0,1-5.048,2.088c-5.092-.089-10.187-.046-15.281-.055l.688-2.634c3.274-.011,6.547,0,9.821-.038a9.4,9.4,0,0,0,7.321-3.849c1.647-1.987,1.766-4.4,1.821-6.752.113-4.839.067-9.682.012-14.523a9.69,9.69,0,0,0-5.08-8.838c.036-.107,0-.143-.1-.1a2.126,2.126,0,0,1-.575-.091,11.125,11.125,0,0,0-4.668-.8c-4.365-.038-8.73-.029-13.094-.038a38.569,38.569,0,0,0-4.88-6.927,8.6,8.6,0,0,0-2.49-2.29" transform="translate(-72.542 -145.569)" fill="#ffd04e"/>
        <path id="Trazado_713495" data-name="Trazado 713495" d="M28.233,200.136a8.6,8.6,0,0,1,2.49,2.29,38.568,38.568,0,0,1,4.88,6.927c-2.269.009-4.539.047-6.807.02a9.687,9.687,0,0,0-6.5,2.043,8.619,8.619,0,0,0-3.494,6.69c-.056,5.464.041,10.929-.043,16.392a9.569,9.569,0,0,0,2.115,6.417,8.719,8.719,0,0,0,6.749,3.423c4.173.078,8.349.037,12.523.046l-.688,2.634c-5.851.01-11.7.13-17.551-.022-2.586-.067-4.9-2.294-5.64-4.913a5.887,5.887,0,0,1-.171-1.636c0-7.867-.017-15.735.012-23.6a6.235,6.235,0,0,1,1.577-4.039,27.927,27.927,0,0,1,4.633-4.3c.115.026.159-.02.136-.134a5.012,5.012,0,0,1,1.378-1.211c.115.026.159-.02.136-.134a14.079,14.079,0,0,0,3.307-4.347,10.164,10.164,0,0,0,.561-1.769,2.028,2.028,0,0,1,.394-.777" transform="translate(-13.382 -166.402)" fill="#ffe68b"/>
        <path id="Trazado_713496" data-name="Trazado 713496" d="M98.588,58.23c-3.332,0-6.664-.016-10,.015-.6.006-.737-.163-.731-.744.031-2.8.01-5.6.016-8.4,0-1.227.418-1.632,1.664-1.633q9.03,0,18.059,0c1.279,0,1.8.526,1.8,1.817,0,2.744-.019,5.488.016,8.231.008.605-.175.731-.748.726-3.36-.028-6.719-.014-10.079-.014m6.776-5.37v-.67c0-2.092,0-2.077-2.088-2.043-.459.007-.633.112-.613.6.037.919.011,1.841.011,2.762,0,2.149,0,2.138,2.171,2.042.386-.017.544-.1.527-.514-.03-.724-.008-1.45-.008-2.176m-8.071-.095v.753c0,2.087,0,2.087,2.1,2.021a1.13,1.13,0,0,1,.167,0c.328.039.432-.111.429-.431-.012-1.506-.007-3.013,0-4.52,0-.243-.015-.441-.343-.431-.749.024-1.623-.195-2.206.124-.429.235-.094,1.185-.141,1.814-.016.222,0,.446,0,.669m-2.691.166v-.753c0-2.086,0-2.086-2.1-2.02a1.128,1.128,0,0,1-.167,0c-.329-.039-.431.112-.428.432.012,1.507.007,3.013,0,4.52,0,.243.016.442.343.431.749-.024,1.623.194,2.206-.125.429-.235.094-1.185.141-1.815.017-.222,0-.446,0-.669" transform="translate(-73.052 -39.467)" fill="#fcaa19"/>
        <path id="Trazado_713497" data-name="Trazado 713497" d="M85.374,127.2c4.2,0,8.406.017,12.608-.017.679-.006.84.195.817.838-.049,1.315-.033,2.634,0,3.95.01.466-.112.621-.6.621q-12.86-.021-25.721,0c-.49,0-.611-.155-.6-.621.028-1.344.055-2.692-.009-4.034-.033-.694.25-.751.821-.748,4.231.021,8.462.011,12.693.011" transform="translate(-59.746 -105.744)" fill="#e28327"/>
        <path id="Trazado_713498" data-name="Trazado 713498" d="M219.929,214.282c-.089-.028-.166-.064-.125-.182Z" transform="translate(-182.746 -178.013)" fill="#020201"/>
        <path id="Trazado_713499" data-name="Trazado 713499" d="M62.156,241.028c.023.114-.02.16-.136.134l.136-.134" transform="translate(-51.566 -200.402)" fill="#020201"/>
        <path id="Trazado_713500" data-name="Trazado 713500" d="M53.177,249.009c.023.114-.02.16-.136.134l.136-.134" transform="translate(-44.101 -207.038)" fill="#020201"/>
        <path id="Trazado_713501" data-name="Trazado 713501" d="M283.777,287.113c-.089-.029-.167-.065-.123-.183l.123.183" transform="translate(-235.833 -238.567)" fill="#020201"/>
        <path id="Trazado_713502" data-name="Trazado 713502" d="M359.332,209.018q0,8.238,0,16.475a8.392,8.392,0,0,1-1.282,4.663,8.553,8.553,0,0,0-1.418,5.048c.053,1.231,0,2.465.018,3.7.007.411-.073.568-.54.58-2.159.054-2.2.071-2.149-2.064a13.22,13.22,0,0,0-1.394-7.075,8.647,8.647,0,0,1-1.215-2.749,4.139,4.139,0,0,1-.08-.73q-.008-17.526-.025-35.052c0-.6.1-.806.759-.791q3.234.074,6.472,0c.682-.015.877.132.873.85-.034,5.716-.019,11.432-.019,17.148" transform="translate(-292.043 -158.822)" fill="#e1e7f7"/>
        <path id="Trazado_713503" data-name="Trazado 713503" d="M328.778,111.315q3.864,0,7.728,0c1.263,0,1.709.451,1.711,1.724q.006,3.7,0,7.392c0,1.162-.474,1.642-1.623,1.643q-7.812.008-15.623,0c-1.1,0-1.579-.49-1.583-1.6q-.012-3.78,0-7.56c0-1.135.49-1.6,1.664-1.6q3.864-.008,7.728,0m-4.014,5.382c0-.728,0-1.456,0-2.185,0-.885-.732-.544-1.039-.467-.548.137-1.516-.631-1.617.468-.133,1.444-.025,2.91-.035,4.366-.006.82.66.558.957.473.575-.165,1.5.644,1.709-.475a12.032,12.032,0,0,0,.025-2.18m5.381,0c0-.728,0-1.456,0-2.185,0-.885-.733-.543-1.039-.466-.548.137-1.516-.632-1.616.468-.132,1.444-.034,2.91-.032,4.366,0,.885.732.543,1.039.467.548-.137,1.446.63,1.627-.469a13.614,13.614,0,0,0,.022-2.181m2.692-.066v.756c0,2.151,0,2.14,2.162,2.009.392-.024.539-.132.534-.534-.017-1.456-.014-2.913,0-4.369,0-.359-.126-.466-.485-.5-2.211-.184-2.21-.193-2.21,1.961Z" transform="translate(-265.548 -92.552)" fill="#afafaf"/>
        <path id="Trazado_713504" data-name="Trazado 713504" d="M351.242,23.726c0-1.4.064-2.8-.016-4.2a4.008,4.008,0,0,1,7.942-.637,11.055,11.055,0,0,1,.141,1.9c.007,2.546,0,5.091.009,7.637,0,.412-.018.669-.562.662-2.322-.029-4.644-.024-6.966,0-.457,0-.562-.16-.557-.583.02-1.594.008-3.189.01-4.784" transform="translate(-292.022 -13.01)" fill="#636363"/>
        <path id="Trazado_713505" data-name="Trazado 713505" d="M53.3,289.849c-4.175-.009-8.35.033-12.524-.046a8.719,8.719,0,0,1-6.749-3.423,9.569,9.569,0,0,1-2.115-6.417c.085-5.463-.013-10.928.043-16.392a8.618,8.618,0,0,1,3.494-6.69,9.687,9.687,0,0,1,6.5-2.043c2.269.027,4.538-.011,6.807-.02,4.365.009,8.73,0,13.094.038a11.123,11.123,0,0,1,4.668.8,2.127,2.127,0,0,0,.575.091.172.172,0,0,0,.1.1,9.691,9.691,0,0,1,5.08,8.838c.055,4.841.1,9.684-.012,14.523-.055,2.355-.174,4.764-1.821,6.752a9.4,9.4,0,0,1-7.321,3.849c-3.273.04-6.547.028-9.821.038m.829-2.75c3.081.006,6.163.036,9.244.009a6.058,6.058,0,0,0,4.172-1.915,7.171,7.171,0,0,0,2.07-5.466c-.027-4.847-.006-9.7-.012-14.543a16.576,16.576,0,0,0-.134-1.823,6.425,6.425,0,0,0-6.267-5.777c-4.253-.15-8.515-.021-12.773-.012-3.319.018-6.635-.147-9.957.1a6.2,6.2,0,0,0-4.746,2.885,5.013,5.013,0,0,0-1.085,2.876c-.02,5.795,0,11.59-.013,17.384a4.985,4.985,0,0,0,.179,1.3,6.494,6.494,0,0,0,5.637,4.96c4.556.164,9.123.027,13.685.016" transform="translate(-26.533 -211.868)"/>
        <path id="Trazado_713506" data-name="Trazado 713506" d="M240.728,260.349a.172.172,0,0,1-.1-.1c.108-.04.141,0,.1.1" transform="translate(-200.065 -216.367)" fill="#020201"/>
        <path id="Trazado_713507" data-name="Trazado 713507" d="M178.371,66.04c0,.725-.021,1.452.008,2.176.017.413-.141.5-.527.514-2.172.1-2.171.106-2.171-2.042,0-.921.026-1.842-.011-2.761-.02-.487.154-.591.613-.6,2.088-.033,2.088-.048,2.088,2.044q0,.335,0,.669" transform="translate(-146.06 -52.646)"/>
        <path id="Trazado_713508" data-name="Trazado 713508" d="M143.429,65.782c0-.223-.014-.447,0-.669.047-.63-.289-1.58.141-1.814.583-.319,1.457-.1,2.206-.124.327-.01.343.188.342.431,0,1.507-.008,3.013,0,4.52,0,.32-.1.47-.429.431a1.154,1.154,0,0,0-.167,0c-2.1.066-2.1.066-2.1-2.021v-.753" transform="translate(-119.188 -52.484)"/>
        <path id="Trazado_713509" data-name="Trazado 713509" d="M114.558,66.115c0,.223.014.447,0,.669-.046.63.289,1.58-.141,1.815-.583.319-1.457.1-2.206.125-.327.011-.343-.188-.343-.431,0-1.507.008-3.013,0-4.52,0-.32.1-.47.428-.432a1.126,1.126,0,0,0,.167,0c2.1-.066,2.1-.066,2.1,2.02v.753" transform="translate(-93.008 -52.65)"/>
        <path id="Trazado_713510" data-name="Trazado 713510" d="M337.889,129.507a12.023,12.023,0,0,1-.025,2.18c-.21,1.119-1.134.31-1.709.475-.3.086-.963.348-.958-.473.01-1.456-.1-2.922.035-4.366.1-1.1,1.069-.331,1.617-.468.307-.077,1.037-.418,1.039.467,0,.728,0,1.456,0,2.185" transform="translate(-278.673 -105.361)"/>
        <path id="Trazado_713511" data-name="Trazado 713511" d="M369.8,129.5a13.6,13.6,0,0,1-.022,2.181c-.181,1.1-1.079.333-1.627.469-.307.077-1.038.419-1.039-.467,0-1.456-.1-2.922.032-4.366.1-1.1,1.069-.332,1.616-.468.307-.077,1.037-.419,1.039.466,0,.728,0,1.456,0,2.185" transform="translate(-305.206 -105.36)"/>
        <path id="Trazado_713512" data-name="Trazado 713512" d="M399.215,129.495v-.672c0-2.155,0-2.145,2.21-1.961.359.03.488.138.485.5-.013,1.456-.016,2.913,0,4.369,0,.4-.142.51-.534.534-2.163.13-2.162.142-2.162-2.009Z" transform="translate(-331.926 -105.416)"/>
        <path id="Trazado_713513" data-name="Trazado 713513" d="M67.533,300.5c-4.563.011-9.129.147-13.685-.016a6.494,6.494,0,0,1-5.637-4.96,4.985,4.985,0,0,1-.179-1.3c.008-5.795-.008-11.59.013-17.384a5.013,5.013,0,0,1,1.085-2.876,6.2,6.2,0,0,1,4.746-2.885c3.322-.252,6.639-.086,9.957-.1a1.987,1.987,0,0,0,.2.714c.2.722.751,1.307.812,2.081a3.813,3.813,0,0,0-.723.782c-1.407,1.906-2.853,3.783-4.275,5.679-1.276,1.7-2.688,3.324-3.347,5.4a9.332,9.332,0,0,0,3.3,10.283,9.16,9.16,0,0,0,6.189,1.942,15.786,15.786,0,0,1,1.886-.2l-.339,2.842" transform="translate(-39.936 -225.273)" fill="#ffa32a"/>
        <path id="Trazado_713514" data-name="Trazado 713514" d="M145.465,300.389l.339-2.842a12.228,12.228,0,0,0,4.765-3.118,9.384,9.384,0,0,0,2.26-6.284,8.027,8.027,0,0,0-.634-3.184c0-.216.049-.457-.263-.514a11.351,11.351,0,0,0-2.134-3.312c-1.73-2.351-3.517-4.659-5.283-6.982a1.353,1.353,0,0,0-1.739-.494c-.061-.774-.61-1.359-.812-2.081a1.987,1.987,0,0,1-.2-.714c4.258-.009,8.521-.138,12.773.012a6.425,6.425,0,0,1,6.267,5.777,16.575,16.575,0,0,1,.134,1.823c.006,4.848-.016,9.7.012,14.543a7.171,7.171,0,0,1-2.07,5.466,6.059,6.059,0,0,1-4.172,1.915c-3.081.027-6.163,0-9.244-.009" transform="translate(-117.868 -225.158)" fill="#e28327"/>
        <path id="Trazado_713515" data-name="Trazado 713515" d="M104.481,287.078a1.353,1.353,0,0,1,1.739.494c1.766,2.323,3.553,4.632,5.283,6.982a11.34,11.34,0,0,1,2.134,3.312c-.113.274.087.388.263.514a8.031,8.031,0,0,1,.634,3.184,9.385,9.385,0,0,1-2.26,6.284,12.226,12.226,0,0,1-4.765,3.118,15.862,15.862,0,0,0-1.886.2,9.158,9.158,0,0,1-6.189-1.942,9.332,9.332,0,0,1-3.3-10.283c.659-2.081,2.072-3.7,3.347-5.4,1.421-1.9,2.868-3.772,4.275-5.679a3.8,3.8,0,0,1,.723-.782m2.029,5.393c-.241-.362-.474-.73-.724-1.086-.544-.774-.864-.759-1.438.017-1.288,1.742-2.615,3.458-3.873,5.221a8.361,8.361,0,0,0-1.85,3.04c-.577,2.829-.06,5.311,2.232,7.289a6.459,6.459,0,0,0,7,.857,1.62,1.62,0,0,0,.729-.337,7.171,7.171,0,0,0,3.15-4.936,5.52,5.52,0,0,0-.773-4.074,67.1,67.1,0,0,0-4.455-5.992" transform="translate(-79.572 -238.578)" fill="#010000"/>
        <path id="Trazado_713516" data-name="Trazado 713516" d="M202.2,352.26c-.176-.126-.376-.24-.263-.514.312.057.261.3.263.514" transform="translate(-167.87 -292.458)" fill="#dc8026"/>
        <path id="Trazado_713517" data-name="Trazado 713517" d="M121.2,326.892a6.459,6.459,0,0,1-7-.857c-2.292-1.978-2.809-4.46-2.232-7.289a8.36,8.36,0,0,1,1.85-3.04c1.259-1.763,2.585-3.478,3.873-5.221.574-.777.894-.792,1.438-.017.25.356.483.724.724,1.086a2.663,2.663,0,0,0,.118.818,47.646,47.646,0,0,1,1.388,11.112,18.435,18.435,0,0,1-.157,3.409" transform="translate(-92.913 -257.66)" fill="#e1e6f6"/>
        <path id="Trazado_713518" data-name="Trazado 713518" d="M161.147,335.075a18.434,18.434,0,0,0,.157-3.409,47.647,47.647,0,0,0-1.388-11.112,2.663,2.663,0,0,1-.118-.818,67.071,67.071,0,0,1,4.455,5.992,5.52,5.52,0,0,1,.773,4.074,7.172,7.172,0,0,1-3.15,4.936,1.619,1.619,0,0,1-.729.337" transform="translate(-132.861 -265.843)" fill="#c7cdf0"/>
      </g>
    </g>
  </g>
</svg>
