<svg id="Grupo_1005313" data-name="Grupo 1005313" xmlns="http://www.w3.org/2000/svg" xmlns:xlink="http://www.w3.org/1999/xlink" width="319" height="227.109" viewBox="0 0 319 227.109">
  <defs>
    <clipPath id="clip-path">
      <rect id="Rectángulo_347544" data-name="Rectángulo 347544" width="319" height="227.109" fill="none"/>
    </clipPath>
    <clipPath id="clip-path-6">
      <rect id="Rectángulo_347524" data-name="Rectángulo 347524" width="69.166" height="15.329" fill="none"/>
    </clipPath>
    <clipPath id="clip-path-7">
      <rect id="Rectángulo_347525" data-name="Rectángulo 347525" width="1.738" height="6.811" fill="none"/>
    </clipPath>
    <clipPath id="clip-path-10">
      <rect id="Rectángulo_347530" data-name="Rectángulo 347530" width="0.274" height="0.186" fill="none"/>
    </clipPath>
    <clipPath id="clip-path-11">
      <rect id="Rectángulo_347531" data-name="Rectángulo 347531" width="0.992" height="1.071" fill="none"/>
    </clipPath>
    <clipPath id="clip-path-12">
      <rect id="Rectángulo_347532" data-name="Rectángulo 347532" width="2.706" height="2.295" fill="none"/>
    </clipPath>
    <clipPath id="clip-path-13">
      <rect id="Rectángulo_347533" data-name="Rectángulo 347533" width="1.64" height="1.391" fill="none"/>
    </clipPath>
    <clipPath id="clip-path-14">
      <rect id="Rectángulo_347534" data-name="Rectángulo 347534" width="5.608" height="6.814" fill="none"/>
    </clipPath>
    <clipPath id="clip-path-15">
      <rect id="Rectángulo_347535" data-name="Rectángulo 347535" width="6.559" height="6.864" fill="none"/>
    </clipPath>
    <clipPath id="clip-path-16">
      <rect id="Rectángulo_347536" data-name="Rectángulo 347536" width="4.301" height="3.649" fill="none"/>
    </clipPath>
    <clipPath id="clip-path-17">
      <rect id="Rectángulo_347537" data-name="Rectángulo 347537" width="2.057" height="1.745" fill="none"/>
    </clipPath>
    <clipPath id="clip-path-18">
      <rect id="Rectángulo_347538" data-name="Rectángulo 347538" width="2.643" height="2.643" fill="none"/>
    </clipPath>
    <clipPath id="clip-path-19">
      <rect id="Rectángulo_347539" data-name="Rectángulo 347539" width="19.331" height="19.94" fill="none"/>
    </clipPath>
    <clipPath id="clip-path-21">
      <rect id="Rectángulo_347541" data-name="Rectángulo 347541" width="1.278" height="1.296" fill="none"/>
    </clipPath>
  </defs>
  <g id="Grupo_1005312" data-name="Grupo 1005312" clip-path="url(#clip-path)">
    <g id="Grupo_1005260" data-name="Grupo 1005260">
      <g id="Grupo_1005259" data-name="Grupo 1005259" clip-path="url(#clip-path)">
        <path id="Trazado_715300" data-name="Trazado 715300" d="M243.086,242.36a7.265,7.265,0,0,0,4.329-6.721,6.828,6.828,0,1,0-13.627-.063,7.253,7.253,0,0,0,4.342,6.785c-10.485,1.579-10.01,12.976-10.01,12.976l24.8.114s.566-11.52-9.829-13.09" transform="translate(-114.352 -114.464)" fill="#ebebeb"/>
        <path id="Trazado_715301" data-name="Trazado 715301" d="M369.789,29.572l3.909.864a3.4,3.4,0,0,1,4.15-2.587,3.239,3.239,0,0,1,2.617,2.7,3.588,3.588,0,0,1-.978,3.1c-.9.947-2.577,1.619-5.109.573l-1.948,8.814,3.866.854,1.141-5.163a7.731,7.731,0,0,0,7.051-6.178c1.263-5.716-3.569-8.177-5.764-8.662-1.678-.371-7.484-1.229-8.934,5.684" transform="translate(-185.37 -11.852)" fill="#ebebeb"/>
        <rect id="Rectángulo_347511" data-name="Rectángulo 347511" width="3.752" height="4.017" transform="translate(185.837 36.662) rotate(-77.541)" fill="#ebebeb"/>
        <path id="Trazado_715302" data-name="Trazado 715302" d="M84.247,77.71l3.058-1.33a2.834,2.834,0,0,1,1.532-3.774,2.7,2.7,0,0,1,3.083.537,2.987,2.987,0,0,1,.859,2.571c-.147,1.08-.945,2.352-3.164,2.885l3,6.894,3.024-1.315L93.88,80.142a6.438,6.438,0,0,0,1.732-7.613c-1.944-4.471-6.405-3.766-8.122-3.02-1.313.571-5.646,2.833-3.242,8.2" transform="translate(-41.874 -34.567)" fill="#f5f5f5"/>
        <rect id="Rectángulo_347512" data-name="Rectángulo 347512" width="3.346" height="3.125" transform="matrix(0.917, -0.399, 0.399, 0.917, 51.348, 52.352)" fill="#f5f5f5"/>
        <path id="Trazado_715303" data-name="Trazado 715303" d="M253.786,315.709l3.044,1.362a2.833,2.833,0,0,1,3.82-1.413,2.7,2.7,0,0,1,1.682,2.639,2.988,2.988,0,0,1-1.32,2.368c-.9.62-2.374.888-4.264-.391l-3.071,6.862,3.009,1.347,1.8-4.02a6.438,6.438,0,0,0,6.79-3.854c1.991-4.451-1.537-7.27-3.246-8.034-1.306-.584-5.9-2.26-8.243,3.135" transform="translate(-127.165 -156.333)" fill="#f5f5f5"/>
        <rect id="Rectángulo_347513" data-name="Rectángulo 347513" width="3.125" height="3.346" transform="translate(124.595 175.066) rotate(-65.895)" fill="#f5f5f5"/>
      </g>
    </g>
    <g id="Grupo_1005262" data-name="Grupo 1005262">
      <g id="Grupo_1005261" data-name="Grupo 1005261" clip-path="url(#clip-path)">
        <path id="Trazado_715304" data-name="Trazado 715304" d="M320.644,444.082c0,.072-71.05.13-158.674.13-87.655,0-158.69-.058-158.69-.13s71.035-.13,158.69-.13c87.624,0,158.674.058,158.674.13" transform="translate(-1.644 -222.547)" fill="#263238"/>
      </g>
    </g>
    <g id="Grupo_1005264" data-name="Grupo 1005264">
      <g id="Grupo_1005263" data-name="Grupo 1005263" clip-path="url(#clip-path)">
        <path id="Trazado_715305" data-name="Trazado 715305" d="M474.132,317.658l.564,50.551a5.272,5.272,0,0,0,10.539-.339l0-50.092Z" transform="translate(-237.676 -159.237)" fill="#e0e0e0"/>
        <path id="Trazado_715306" data-name="Trazado 715306" d="M476.994,369.634l.056,24.078a4.459,4.459,0,0,0,8.914-.287l-.175-23.7Z" transform="translate(-239.11 -185.292)" fill="#93d5ff"/>
        <path id="Trazado_715307" data-name="Trazado 715307" d="M484.12,321.252H468.649a1.09,1.09,0,0,1-1.09-1.09V311.5a1.09,1.09,0,0,1,1.09-1.09H484.12a1.09,1.09,0,0,1,1.09,1.09v8.663a1.09,1.09,0,0,1-1.09,1.09" transform="translate(-234.381 -155.604)" fill="#b0c0d2"/>
        <rect id="Rectángulo_347516" data-name="Rectángulo 347516" width="5.863" height="26.144" transform="translate(239.438 172.386)" fill="#fafafa"/>
        <path id="Trazado_715308" data-name="Trazado 715308" d="M485.831,371.674a.953.953,0,0,1-.008-.139c0-.1-.005-.229-.008-.391,0-.357-.01-.856-.017-1.493-.008-1.309-.021-3.182-.036-5.513-.014-4.68-.034-11.194-.057-18.609l.128.128-5.861,0c.257-.26.071-.067.129-.123v1q0,.5,0,1,0,1,0,1.981,0,1.963,0,3.848c0,2.509-.007,4.9-.011,7.132-.016,4.456-.03,8.283-.04,11.17l-.075-.075,4.3.041,1.155.018.3.007a.656.656,0,0,1,.107.008.392.392,0,0,1-.093.007l-.288.008-1.138.018-4.344.042h-.074v-.075c-.01-2.887-.024-6.714-.04-11.17,0-2.233-.007-4.624-.011-7.132q0-1.882,0-3.848,0-.982,0-1.981v-2.006c.058-.06-.131.123.131-.137l5.861,0h.128v.128c-.023,7.45-.043,14-.057,18.7-.016,2.319-.028,4.182-.037,5.483-.007.625-.012,1.115-.017,1.465,0,.155-.006.278-.008.375a.6.6,0,0,1-.008.122" transform="translate(-240.53 -173.144)" fill="#263238"/>
        <path id="Trazado_715309" data-name="Trazado 715309" d="M472.688,321.6c-.072,0-.13-2.363-.13-5.277s.058-5.278.13-5.278.13,2.363.13,5.278-.058,5.277-.13,5.277" transform="translate(-236.887 -155.922)" fill="#263238"/>
        <path id="Trazado_715310" data-name="Trazado 715310" d="M477.685,321.6c-.072,0-.13-2.363-.13-5.277s.058-5.278.13-5.278.13,2.363.13,5.278-.058,5.277-.13,5.277" transform="translate(-239.392 -155.922)" fill="#263238"/>
        <path id="Trazado_715311" data-name="Trazado 715311" d="M482.682,321.6c-.072,0-.13-2.363-.13-5.277s.058-5.278.13-5.278.13,2.363.13,5.278-.058,5.277-.13,5.277" transform="translate(-241.896 -155.922)" fill="#263238"/>
        <path id="Trazado_715312" data-name="Trazado 715312" d="M487.679,321.6c-.072,0-.13-2.363-.13-5.277s.058-5.278.13-5.278.13,2.363.13,5.278-.058,5.277-.13,5.277" transform="translate(-244.401 -155.922)" fill="#263238"/>
        <path id="Trazado_715313" data-name="Trazado 715313" d="M492.676,321.6c-.072,0-.13-2.363-.13-5.277s.058-5.278.13-5.278.13,2.363.13,5.278-.058,5.277-.13,5.277" transform="translate(-246.906 -155.922)" fill="#263238"/>
        <path id="Trazado_715314" data-name="Trazado 715314" d="M497.674,321.6c-.072,0-.13-2.363-.13-5.277s.058-5.278.13-5.278.13,2.363.13,5.278-.058,5.277-.13,5.277" transform="translate(-249.412 -155.922)" fill="#263238"/>
        <path id="Trazado_715315" data-name="Trazado 715315" d="M485.223,375.426h-.478a.761.761,0,0,1-.761-.761v-13.84a.761.761,0,0,1,.761-.761h.478a.761.761,0,0,1,.76.761v13.84a.761.761,0,0,1-.76.761" transform="translate(-242.614 -180.495)" fill="#e0e0e0"/>
        <path id="Trazado_715316" data-name="Trazado 715316" d="M485.984,353.5a1.007,1.007,0,1,1-1.007-1.007,1.006,1.006,0,0,1,1.007,1.007" transform="translate(-242.608 -176.701)" fill="#12263f"/>
        <path id="Trazado_715317" data-name="Trazado 715317" d="M515.683,317.658l.564,50.551a5.272,5.272,0,0,0,10.539-.339l0-50.092Z" transform="translate(-258.505 -159.237)" fill="#e0e0e0"/>
        <path id="Trazado_715318" data-name="Trazado 715318" d="M518.545,369.634l.056,24.078a4.46,4.46,0,0,0,8.915-.287l-.175-23.7Z" transform="translate(-259.939 -185.292)" fill="#93d5ff"/>
        <path id="Trazado_715319" data-name="Trazado 715319" d="M525.671,321.252H510.2a1.09,1.09,0,0,1-1.09-1.09V311.5a1.09,1.09,0,0,1,1.09-1.09h15.472a1.09,1.09,0,0,1,1.09,1.09v8.663a1.09,1.09,0,0,1-1.09,1.09" transform="translate(-255.21 -155.604)" fill="#b0c0d2"/>
        <rect id="Rectángulo_347517" data-name="Rectángulo 347517" width="5.863" height="26.144" transform="translate(260.16 172.386)" fill="#fafafa"/>
        <path id="Trazado_715320" data-name="Trazado 715320" d="M527.382,371.674a.959.959,0,0,1-.008-.139c0-.1,0-.229-.008-.391,0-.357-.01-.856-.017-1.493-.008-1.309-.021-3.182-.036-5.513-.014-4.68-.034-11.194-.057-18.609l.128.128-5.861,0c.257-.26.071-.067.129-.123v1q0,.5,0,1,0,1,0,1.981,0,1.963,0,3.848c0,2.509-.007,4.9-.011,7.132-.016,4.456-.03,8.283-.04,11.17l-.074-.075,4.3.041,1.155.018.3.007a.652.652,0,0,1,.107.008.392.392,0,0,1-.093.007l-.288.008-1.138.018-4.344.042h-.075v-.075c-.01-2.887-.024-6.714-.04-11.17,0-2.233-.007-4.624-.011-7.132q0-1.882,0-3.848,0-.982,0-1.981v-2.006c.059-.06-.131.123.131-.137l5.861,0h.128v.128c-.023,7.45-.043,14-.057,18.7-.015,2.319-.028,4.182-.036,5.483-.007.625-.013,1.115-.017,1.465,0,.155-.007.278-.008.375a.6.6,0,0,1-.008.122" transform="translate(-261.359 -173.144)" fill="#263238"/>
        <path id="Trazado_715321" data-name="Trazado 715321" d="M514.238,321.6c-.072,0-.13-2.363-.13-5.277s.058-5.278.13-5.278.13,2.363.13,5.278-.058,5.277-.13,5.277" transform="translate(-257.715 -155.922)" fill="#263238"/>
        <path id="Trazado_715322" data-name="Trazado 715322" d="M519.235,321.6c-.072,0-.13-2.363-.13-5.277s.058-5.278.13-5.278.13,2.363.13,5.278-.058,5.277-.13,5.277" transform="translate(-260.22 -155.922)" fill="#263238"/>
        <path id="Trazado_715323" data-name="Trazado 715323" d="M524.233,321.6c-.072,0-.13-2.363-.13-5.277s.058-5.278.13-5.278.13,2.363.13,5.278-.058,5.277-.13,5.277" transform="translate(-262.725 -155.922)" fill="#263238"/>
        <path id="Trazado_715324" data-name="Trazado 715324" d="M529.23,321.6c-.072,0-.13-2.363-.13-5.277s.058-5.278.13-5.278.13,2.363.13,5.278-.058,5.277-.13,5.277" transform="translate(-265.23 -155.922)" fill="#263238"/>
        <path id="Trazado_715325" data-name="Trazado 715325" d="M534.227,321.6c-.072,0-.13-2.363-.13-5.277s.058-5.278.13-5.278.13,2.363.13,5.278-.058,5.277-.13,5.277" transform="translate(-267.735 -155.922)" fill="#263238"/>
        <path id="Trazado_715326" data-name="Trazado 715326" d="M539.224,321.6c-.072,0-.13-2.363-.13-5.277s.058-5.278.13-5.278.13,2.363.13,5.278-.058,5.277-.13,5.277" transform="translate(-270.24 -155.922)" fill="#263238"/>
        <path id="Trazado_715327" data-name="Trazado 715327" d="M526.774,375.426H526.3a.761.761,0,0,1-.761-.761v-13.84a.761.761,0,0,1,.761-.761h.478a.761.761,0,0,1,.76.761v13.84a.761.761,0,0,1-.76.761" transform="translate(-263.443 -180.495)" fill="#e0e0e0"/>
        <path id="Trazado_715328" data-name="Trazado 715328" d="M527.535,353.5a1.007,1.007,0,1,1-1.007-1.007,1.006,1.006,0,0,1,1.007,1.007" transform="translate(-263.437 -176.701)" fill="#12263f"/>
        <path id="Trazado_715329" data-name="Trazado 715329" d="M557.234,317.658l.564,50.551a5.272,5.272,0,0,0,10.539-.339l0-50.092Z" transform="translate(-279.334 -159.237)" fill="#e0e0e0"/>
        <path id="Trazado_715330" data-name="Trazado 715330" d="M560.1,369.634l.056,24.078a4.46,4.46,0,0,0,8.915-.287l-.175-23.7Z" transform="translate(-280.768 -185.292)" fill="#93d5ff"/>
        <path id="Trazado_715331" data-name="Trazado 715331" d="M567.222,321.252H551.751a1.09,1.09,0,0,1-1.09-1.09V311.5a1.09,1.09,0,0,1,1.09-1.09h15.472a1.09,1.09,0,0,1,1.09,1.09v8.663a1.09,1.09,0,0,1-1.09,1.09" transform="translate(-276.039 -155.604)" fill="#b0c0d2"/>
        <rect id="Rectángulo_347518" data-name="Rectángulo 347518" width="5.863" height="26.144" transform="translate(280.882 172.386)" fill="#fafafa"/>
        <path id="Trazado_715332" data-name="Trazado 715332" d="M568.933,371.674a.959.959,0,0,1-.008-.139c0-.1-.005-.229-.008-.391,0-.357-.01-.856-.017-1.493-.008-1.309-.021-3.182-.036-5.513-.015-4.68-.034-11.194-.057-18.609l.128.128-5.861,0c.257-.26.071-.067.129-.123v1q0,.5,0,1,0,1,0,1.981,0,1.963,0,3.848c0,2.509-.008,4.9-.011,7.132-.016,4.456-.029,8.283-.04,11.17l-.075-.075,4.3.041,1.155.018.3.007a.657.657,0,0,1,.107.008.392.392,0,0,1-.093.007l-.288.008-1.138.018-4.344.042H563v-.075c-.01-2.887-.024-6.714-.04-11.17,0-2.233-.007-4.624-.011-7.132q0-1.882,0-3.848,0-.982,0-1.981v-2.006c.058-.06-.131.123.131-.137l5.861,0h.128v.128c-.023,7.45-.043,14-.057,18.7-.016,2.319-.028,4.182-.037,5.483-.007.625-.013,1.115-.017,1.465,0,.155-.006.278-.008.375a.6.6,0,0,1-.008.122" transform="translate(-282.188 -173.144)" fill="#263238"/>
        <path id="Trazado_715333" data-name="Trazado 715333" d="M555.789,321.6c-.072,0-.13-2.363-.13-5.277s.058-5.278.13-5.278.13,2.363.13,5.278-.058,5.277-.13,5.277" transform="translate(-278.544 -155.922)" fill="#263238"/>
        <path id="Trazado_715334" data-name="Trazado 715334" d="M560.786,321.6c-.072,0-.13-2.363-.13-5.277s.058-5.278.13-5.278.13,2.363.13,5.278-.058,5.277-.13,5.277" transform="translate(-281.049 -155.922)" fill="#263238"/>
        <path id="Trazado_715335" data-name="Trazado 715335" d="M565.783,321.6c-.072,0-.13-2.363-.13-5.277s.058-5.278.13-5.278.13,2.363.13,5.278-.058,5.277-.13,5.277" transform="translate(-283.554 -155.922)" fill="#263238"/>
        <path id="Trazado_715336" data-name="Trazado 715336" d="M570.781,321.6c-.072,0-.13-2.363-.13-5.277s.058-5.278.13-5.278.13,2.363.13,5.278-.058,5.277-.13,5.277" transform="translate(-286.059 -155.922)" fill="#263238"/>
        <path id="Trazado_715337" data-name="Trazado 715337" d="M575.778,321.6c-.072,0-.13-2.363-.13-5.277s.058-5.278.13-5.278.13,2.363.13,5.278-.058,5.277-.13,5.277" transform="translate(-288.564 -155.922)" fill="#263238"/>
        <path id="Trazado_715338" data-name="Trazado 715338" d="M580.775,321.6c-.072,0-.13-2.363-.13-5.277s.058-5.278.13-5.278.13,2.363.13,5.278-.058,5.277-.13,5.277" transform="translate(-291.069 -155.922)" fill="#263238"/>
        <path id="Trazado_715339" data-name="Trazado 715339" d="M568.325,375.426h-.478a.761.761,0,0,1-.761-.761v-13.84a.761.761,0,0,1,.761-.761h.478a.761.761,0,0,1,.76.761v13.84a.761.761,0,0,1-.76.761" transform="translate(-284.272 -180.495)" fill="#e0e0e0"/>
        <path id="Trazado_715340" data-name="Trazado 715340" d="M569.086,353.5a1.007,1.007,0,1,1-1.007-1.007,1.006,1.006,0,0,1,1.007,1.007" transform="translate(-284.266 -176.701)" fill="#12263f"/>
        <rect id="Rectángulo_347519" data-name="Rectángulo 347519" width="75.985" height="3.452" transform="translate(225.014 217.823)" fill="#455a64"/>
        <rect id="Rectángulo_347520" data-name="Rectángulo 347520" width="3.902" height="34.011" transform="translate(294.719 185.277)" fill="#455a64"/>
        <rect id="Rectángulo_347521" data-name="Rectángulo 347521" width="3.902" height="34.011" transform="translate(226.945 185.277)" fill="#455a64"/>
        <path id="Trazado_715341" data-name="Trazado 715341" d="M526.984,436.668c0,.072-16.969.13-37.9.13s-37.9-.058-37.9-.13,16.965-.13,37.9-.13,37.9.058,37.9.13" transform="translate(-226.175 -218.83)" fill="#263238"/>
        <rect id="Rectángulo_347522" data-name="Rectángulo 347522" width="75.401" height="1.726" transform="translate(225.11 184.414)" fill="#455a64"/>
        <path id="Trazado_715342" data-name="Trazado 715342" d="M526.65,371.375s-.006-.151-.011-.44-.008-.721-.016-1.286l.027.027c-7.348.058-38.32.1-75.4.1h0l.13-.13v1.726l-.13-.13,53.337.053,16.131.039,4.39.019,1.146.009c.259,0,.4.009.4.009s-.125.006-.378.009l-1.128.009-4.36.019-16.1.039-53.435.053h-.13v-.13c0-.545,0-1.135,0-1.726v-.13h.134c37.078,0,68.05.044,75.4.1h.027v.027c-.007.572-.012,1-.015,1.3s-.011.425-.011.425" transform="translate(-226.14 -185.235)" fill="#263238"/>
      </g>
    </g>
    <g id="Grupo_1005272" data-name="Grupo 1005272">
      <g id="Grupo_1005271" data-name="Grupo 1005271" clip-path="url(#clip-path)">
        <path id="Trazado_715343" data-name="Trazado 715343" d="M482.438,174.509H408.145a3.191,3.191,0,0,1-3.265-3.111V68.316a3.191,3.191,0,0,1,3.265-3.111h74.292a3.191,3.191,0,0,1,3.265,3.111V171.4a3.191,3.191,0,0,1-3.265,3.111" transform="translate(-202.961 -32.686)" fill="#455a64"/>
        <g id="Grupo_1005267" data-name="Grupo 1005267" transform="translate(207.743 123.024)" opacity="0.3">
          <g id="Grupo_1005266" data-name="Grupo 1005266">
            <g id="Grupo_1005265" data-name="Grupo 1005265" clip-path="url(#clip-path-6)">
              <path id="Trazado_715344" data-name="Trazado 715344" d="M417.175,262.012l67.773-.266.776-9.4-2.076-5.667-67.089,7.523Z" transform="translate(-416.558 -246.683)"/>
            </g>
          </g>
        </g>
        <path id="Trazado_715345" data-name="Trazado 715345" d="M485.047,173.266H413.082V74.471h72.641Z" transform="translate(-207.072 -37.331)" fill="#fff"/>
        <path id="Trazado_715346" data-name="Trazado 715346" d="M489.365,70.279H452.119V62.631a3.155,3.155,0,0,1,3.155-3.155h30.937a3.155,3.155,0,0,1,3.155,3.155Z" transform="translate(-226.641 -29.814)" fill="#263238"/>
        <path id="Trazado_715347" data-name="Trazado 715347" d="M489.437,51.329h-9.48l1.108,8.126h7.141Z" transform="translate(-240.596 -25.731)" fill="#263238"/>
        <path id="Trazado_715348" data-name="Trazado 715348" d="M489.379,59.4c0,.043-7.267.078-16.23.078s-16.231-.035-16.231-.078,7.265-.078,16.231-.078,16.23.035,16.23.078" transform="translate(-229.047 -29.736)" fill="#455a64"/>
        <path id="Trazado_715349" data-name="Trazado 715349" d="M453.712,70.782c-.043,0-.078-1.528-.078-3.413s.035-3.413.078-3.413.078,1.528.078,3.413-.035,3.413-.078,3.413" transform="translate(-227.4 -32.06)" fill="#455a64"/>
        <path id="Trazado_715350" data-name="Trazado 715350" d="M524.308,69.793a30.636,30.636,0,0,1-.078-3.1,30.628,30.628,0,0,1,.078-3.1,30.7,30.7,0,0,1,.078,3.1,30.7,30.7,0,0,1-.078,3.1" transform="translate(-262.789 -31.88)" fill="#455a64"/>
        <path id="Trazado_715351" data-name="Trazado 715351" d="M487.292,78.825c0,.043-7.46.078-16.659.078s-16.662-.035-16.662-.078,7.458-.078,16.662-.078,16.659.035,16.659.078" transform="translate(-227.569 -39.475)" fill="#455a64"/>
        <g id="Grupo_1005270" data-name="Grupo 1005270" transform="translate(262.528 32.753)" opacity="0.3">
          <g id="Grupo_1005269" data-name="Grupo 1005269">
            <g id="Grupo_1005268" data-name="Grupo 1005268" clip-path="url(#clip-path-7)">
              <path id="Trazado_715352" data-name="Trazado 715352" d="M526.607,65.675l1.542,4.572v2.24H526.41Z" transform="translate(-526.41 -65.675)"/>
            </g>
          </g>
        </g>
        <path id="Trazado_715353" data-name="Trazado 715353" d="M500.812,106.932H474.945a1.209,1.209,0,0,1-1.209-1.209v-.584a1.209,1.209,0,0,1,1.209-1.209h25.867a1.209,1.209,0,0,1,1.209,1.209v.584a1.209,1.209,0,0,1-1.209,1.209" transform="translate(-237.477 -52.099)" fill="#3076b6"/>
        <path id="Trazado_715354" data-name="Trazado 715354" d="M461.987,132.484H427.462a1.209,1.209,0,0,1-1.209-1.209v-.584a1.209,1.209,0,0,1,1.209-1.209h34.525a1.209,1.209,0,0,1,1.209,1.209v.584a1.209,1.209,0,0,1-1.209,1.209" transform="translate(-213.675 -64.907)" fill="#e0e0e0"/>
        <path id="Trazado_715355" data-name="Trazado 715355" d="M427.513,141.853h0a.745.745,0,0,0,.74.751h42.46a.751.751,0,0,0,0-1.5h-42.46a.745.745,0,0,0-.74.751" transform="translate(-214.306 -70.732)" fill="#e0e0e0"/>
        <path id="Trazado_715356" data-name="Trazado 715356" d="M427.513,149.171h0a.7.7,0,0,0,.626.751h35.942a.763.763,0,0,0,0-1.5H428.139a.7.7,0,0,0-.626.751" transform="translate(-214.306 -74.401)" fill="#e0e0e0"/>
        <path id="Trazado_715357" data-name="Trazado 715357" d="M427.513,164.079h0a.7.7,0,0,0,.626.751h35.942a.763.763,0,0,0,0-1.5H428.139a.7.7,0,0,0-.626.751" transform="translate(-214.306 -81.874)" fill="#e0e0e0"/>
        <path id="Trazado_715358" data-name="Trazado 715358" d="M427.513,156.426h0a.76.76,0,0,0,.77.751h44.189a.751.751,0,1,0,0-1.5H428.283a.76.76,0,0,0-.77.751" transform="translate(-214.306 -78.038)" fill="#e0e0e0"/>
        <path id="Trazado_715359" data-name="Trazado 715359" d="M449.242,184.426h-21.78a1.209,1.209,0,0,1-1.209-1.209v-.584a1.209,1.209,0,0,1,1.209-1.209h21.78a1.209,1.209,0,0,1,1.209,1.209v.584a1.209,1.209,0,0,1-1.209,1.209" transform="translate(-213.675 -90.945)" fill="#e0e0e0"/>
        <path id="Trazado_715360" data-name="Trazado 715360" d="M427.364,193.795h0a.751.751,0,0,0,.752.751H471.27a.751.751,0,1,0,0-1.5H428.116a.751.751,0,0,0-.752.751" transform="translate(-214.232 -96.77)" fill="#e0e0e0"/>
        <path id="Trazado_715361" data-name="Trazado 715361" d="M427.364,201.113h0c0,.414.247.751.552.751H459.6c.3,0,.552-.336.552-.751s-.247-.751-.552-.751h-31.68c-.305,0-.552.336-.552.751" transform="translate(-214.232 -100.439)" fill="#e0e0e0"/>
        <path id="Trazado_715362" data-name="Trazado 715362" d="M427.364,216.021h0c0,.414.247.751.552.751H459.6c.3,0,.552-.336.552-.751s-.247-.751-.552-.751h-31.68c-.305,0-.552.336-.552.751" transform="translate(-214.232 -107.912)" fill="#e0e0e0"/>
        <path id="Trazado_715363" data-name="Trazado 715363" d="M427.364,208.368h0a.717.717,0,0,0,.678.751h38.949a.754.754,0,0,0,0-1.5H428.042a.717.717,0,0,0-.678.751" transform="translate(-214.232 -104.075)" fill="#e0e0e0"/>
        <path id="Trazado_715364" data-name="Trazado 715364" d="M449.242,235.055h-21.78a1.209,1.209,0,0,1-1.209-1.209v-.584a1.209,1.209,0,0,1,1.209-1.209h21.78a1.209,1.209,0,0,1,1.209,1.209v.584a1.209,1.209,0,0,1-1.209,1.209" transform="translate(-213.675 -116.325)" fill="#e0e0e0"/>
        <path id="Trazado_715365" data-name="Trazado 715365" d="M427.364,244.424h0a.751.751,0,0,0,.752.751H471.27a.751.751,0,1,0,0-1.5H428.116a.751.751,0,0,0-.752.751" transform="translate(-214.232 -122.15)" fill="#e0e0e0"/>
        <path id="Trazado_715366" data-name="Trazado 715366" d="M427.364,251.742h0c0,.414.247.751.552.751H459.6c.3,0,.552-.336.552-.751s-.247-.751-.552-.751h-31.68c-.305,0-.552.336-.552.751" transform="translate(-214.232 -125.818)" fill="#e0e0e0"/>
        <path id="Trazado_715367" data-name="Trazado 715367" d="M427.364,259h0a.717.717,0,0,0,.678.751h38.949a.754.754,0,0,0,0-1.5H428.042a.717.717,0,0,0-.678.751" transform="translate(-214.232 -129.455)" fill="#e0e0e0"/>
        <path id="Trazado_715368" data-name="Trazado 715368" d="M443.259,100.111a6.794,6.794,0,1,1-6.794-6.794,6.794,6.794,0,0,1,6.794,6.794" transform="translate(-215.388 -46.778)" fill="#e0e0e0"/>
        <path id="Trazado_715369" data-name="Trazado 715369" d="M534.31,188.385h-3.452a1.755,1.755,0,0,1-1.755-1.754v-3.452a1.755,1.755,0,0,1,1.755-1.754h3.452a1.754,1.754,0,0,1,1.755,1.754v3.452a1.754,1.754,0,0,1-1.755,1.754" transform="translate(-265.232 -90.945)" fill="#e0e0e0"/>
        <path id="Trazado_715370" data-name="Trazado 715370" d="M534.31,240.618h-3.452a1.755,1.755,0,0,1-1.755-1.754v-3.452a1.755,1.755,0,0,1,1.755-1.754h3.452a1.755,1.755,0,0,1,1.755,1.755v3.452a1.754,1.754,0,0,1-1.755,1.754" transform="translate(-265.232 -117.129)" fill="#e0e0e0"/>
        <path id="Trazado_715371" data-name="Trazado 715371" d="M534.31,135.707h-3.452a1.754,1.754,0,0,1-1.755-1.754V130.5a1.754,1.754,0,0,1,1.755-1.754h3.452a1.754,1.754,0,0,1,1.755,1.754v3.452a1.754,1.754,0,0,1-1.755,1.754" transform="translate(-265.232 -64.539)" fill="#e0e0e0"/>
        <path id="Trazado_715372" data-name="Trazado 715372" d="M530.989,134.438l.665-.665,1.282,1.14,2.517-2.422.617.665-3.229,3.039Z" transform="translate(-266.177 -66.416)" fill="#fff"/>
        <path id="Trazado_715373" data-name="Trazado 715373" d="M530.988,185.557l.665-.665,1.282,1.14,2.517-2.422.617.665-3.229,3.039Z" transform="translate(-266.177 -92.041)" fill="#fff"/>
        <path id="Trazado_715374" data-name="Trazado 715374" d="M440.769,103.582a1.853,1.853,0,0,0,1.1-1.715,1.742,1.742,0,1,0-3.476-.016,1.85,1.85,0,0,0,1.108,1.731c-2.675.4-2.553,3.31-2.553,3.31l6.325.029s.144-2.938-2.507-3.339" transform="translate(-219.037 -50.132)" fill="#fff"/>
      </g>
    </g>
    <path id="Trazado_715375" data-name="Trazado 715375" d="M108.583,278.094l-2.957-4.686,42.352-24.769,2.795,5.636Z" transform="translate(-52.949 -124.639)" fill="#e0e0e0"/>
    <g id="Grupo_1005274" data-name="Grupo 1005274">
      <g id="Grupo_1005273" data-name="Grupo 1005273" clip-path="url(#clip-path)">
        <path id="Trazado_715376" data-name="Trazado 715376" d="M108.5,277.911s.074-.049.215-.132l.628-.365,2.414-1.384,8.924-5.082,29.944-16.969-.052.17-2.764-5.573-.031-.063.182.054-42.389,24.705.019-.078,2.166,3.491.557.907c.125.205.187.317.187.317s-.067-.092-.2-.289l-.573-.883-2.236-3.484-.031-.049.05-.029,42.315-24.833.12-.07.062.125.031.063,2.763,5.574.054.11-.107.06L120.68,271.122l-8.936,5-2.408,1.339-.622.341c-.14.076-.209.108-.209.108" transform="translate(-52.87 -124.456)" fill="#263238"/>
        <path id="Trazado_715377" data-name="Trazado 715377" d="M135.966,359.766l4.124-2.589,2.288,3.569-4.21,3.2-2.837-1.373Z" transform="translate(-67.839 -179.048)" fill="#e0e0e0"/>
        <rect id="Rectángulo_347527" data-name="Rectángulo 347527" width="38.793" height="9.787" transform="translate(71.6 170.719) rotate(-17.926)" fill="#263238"/>
        <path id="Trazado_715378" data-name="Trazado 715378" d="M102.1,214.978s.133.051.383.127a18.687,18.687,0,0,0,8.5.423c5.056-.906,7.3-2.059,11.592-4.72s6.944-7.629,7.523-8.872a14.417,14.417,0,0,0,.58-4.258" transform="translate(-51.179 -99.094)" fill="#e0e0e0"/>
        <path id="Trazado_715379" data-name="Trazado 715379" d="M37.113,126.063l22.226,38.524,20.1-12L58.1,113.467Z" transform="translate(-18.604 -56.88)" fill="#e0e0e0"/>
        <path id="Trazado_715380" data-name="Trazado 715380" d="M39.577,175.843s-18.032,29.3-6.4,60.03a82.329,82.329,0,0,0,12.551,22.4,57.807,57.807,0,0,0,28.415,19.16c5.1,1.549,11.039,3.314,12.834,3.7,3.335.715,8.337.476,4.526-5.955s-15.667-15.96-12.836-30.491l1.64-5-9.29,5.955s2.144,4.288-.477,5.956-19.3-7.623-24.3-25.727c-4.449-16.1-2.167-29.3.785-35.442a4.3,4.3,0,0,1,5.46-2.186,9.148,9.148,0,0,1,2.915,2.039l8.468-7.528L45.532,164.719Z" transform="translate(-14.672 -82.571)" fill="#e0e0e0"/>
        <path id="Trazado_715381" data-name="Trazado 715381" d="M65.57,188.493c.062-.036,1.889,3.033,4.079,6.852s3.917,6.946,3.855,6.982-1.889-3.032-4.08-6.853-3.917-6.945-3.855-6.981" transform="translate(-32.869 -94.489)" fill="#263238"/>
        <path id="Trazado_715382" data-name="Trazado 715382" d="M37.113,125.178l1.243-4.964L52.875,111.7l5.227.881Z" transform="translate(-18.604 -55.994)" fill="#263238"/>
        <path id="Trazado_715383" data-name="Trazado 715383" d="M21.4,89.227,3.28,58.011l14.189-8.127L35.915,80.713Z" transform="translate(-1.644 -25.006)" fill="#263238"/>
        <path id="Trazado_715384" data-name="Trazado 715384" d="M16.142,49.4,2.4,57.332a1.482,1.482,0,0,1-2.024-.543l-.174-.3a1.481,1.481,0,0,1,.542-2.024l13.746-7.936a1.482,1.482,0,0,1,2.024.543l.174.3a1.482,1.482,0,0,1-.542,2.024" transform="translate(0 -23.224)" fill="#263238"/>
        <path id="Trazado_715385" data-name="Trazado 715385" d="M82.924,203.535l3.3,6.316,19.341-11.819L102.4,191.9Z" transform="translate(-41.568 -96.198)" fill="#263238"/>
        <path id="Trazado_715386" data-name="Trazado 715386" d="M97.386,208.4,96.1,206.274l29.07-17.521,1.912,2.661Z" transform="translate(-48.175 -94.619)" fill="#455a64"/>
        <path id="Trazado_715387" data-name="Trazado 715387" d="M96.991,212.73h0a1.322,1.322,0,0,1,.466-1.831l29.916-17.335a1.494,1.494,0,1,1,1.489,2.589l-30.091,17.04a1.322,1.322,0,0,1-1.78-.463" transform="translate(-48.523 -96.93)" fill="#263238"/>
        <path id="Trazado_715388" data-name="Trazado 715388" d="M106.877,311.782l2.647,4.552,13.657-8.363-2.223-4.447Z" transform="translate(-53.576 -152.152)" fill="#455a64"/>
        <path id="Trazado_715389" data-name="Trazado 715389" d="M102.2,286.879l-2.541-4.023L151.428,253l2.753,4.235Z" transform="translate(-49.958 -126.826)" fill="#263238"/>
        <path id="Trazado_715390" data-name="Trazado 715390" d="M142.4,343.892l3.981,6.315,18.712-12.04a2.878,2.878,0,0,0,.915-3.894h0a2.879,2.879,0,0,0-3.841-1.058Z" transform="translate(-71.381 -166.862)" fill="#455a64"/>
        <path id="Trazado_715391" data-name="Trazado 715391" d="M184.562,337.5a1.237,1.237,0,1,1-1.237-1.237,1.237,1.237,0,0,1,1.237,1.237" transform="translate(-91.278 -168.563)" fill="#e0e0e0"/>
        <path id="Trazado_715392" data-name="Trazado 715392" d="M42.9,377.465,70.24,342.736a8.557,8.557,0,0,1,15.28,5.172c.068,5.052.285,11.508.921,14.261,1.118,4.839,6.555,10.613,14.672,12.174s33.556,3.121,33.556,3.121v5.619H49.607Z" transform="translate(-21.503 -170.173)" fill="#e0e0e0"/>
        <path id="Trazado_715393" data-name="Trazado 715393" d="M42.9,377.354s.153.121.443.359l1.289,1.064,5.011,4.158-.031-.011,85.062-.079-.127.127c0-1.764,0-3.684,0-5.619l.121.128c-5.424-.341-11.113-.75-16.9-1.233-4-.341-7.959-.7-11.846-1.178a55.789,55.789,0,0,1-5.762-.925,21.41,21.41,0,0,1-5.365-2.062,18.019,18.019,0,0,1-7.733-7.893,5.713,5.713,0,0,1-.268-.634c-.078-.216-.174-.425-.237-.646a12.887,12.887,0,0,1-.337-1.328c-.166-.894-.262-1.788-.347-2.677-.165-1.779-.253-3.541-.324-5.281s-.109-3.46-.134-5.157a8.984,8.984,0,0,0-1.132-4.763,8.469,8.469,0,0,0-7.937-4.212,8.453,8.453,0,0,0-5.818,2.952c-.466.555-.906,1.138-1.352,1.7l-5.113,6.477L48.6,370.172,44.385,375.5l-1.1,1.386c-.25.313-.385.473-.385.473s.117-.159.359-.471l1.078-1.385c.957-1.223,2.361-3.019,4.17-5.331l15.4-19.636,5.113-6.509c.449-.564.882-1.142,1.357-1.71a8.669,8.669,0,0,1,14.109,1.278,9.221,9.221,0,0,1,1.168,4.873q.04,2.543.139,5.151c.072,1.738.162,3.5.328,5.268a14.786,14.786,0,0,0,1.171,5.205,17.781,17.781,0,0,0,7.63,7.773,21.158,21.158,0,0,0,5.3,2.035,55.684,55.684,0,0,0,5.735.919c3.881.472,7.834.835,11.836,1.176,5.781.483,11.468.893,16.889,1.235l.12.008v.121c0,1.935,0,3.854,0,5.619v.128h-.128l-85.062-.078h-.018l-.013-.011-5-4.219-1.265-1.075c-.283-.24-.418-.363-.418-.363" transform="translate(-21.503 -170.062)" fill="#263238"/>
        <rect id="Rectángulo_347528" data-name="Rectángulo 347528" width="107.035" height="13.988" transform="translate(21.392 207.292)" fill="#e0e0e0"/>
        <path id="Trazado_715394" data-name="Trazado 715394" d="M111.528,349.7a5.443,5.443,0,1,1-5.443-5.443,5.443,5.443,0,0,1,5.443,5.443" transform="translate(-50.45 -172.57)" fill="#455a64"/>
        <path id="Trazado_715395" data-name="Trazado 715395" d="M102.84,230.824c.09.47,0,2.781,0,2.781l1.724,1.11,1.655,13.873,9.332-1.352-1.889-13.631,1.309-2.079-.622-2.564Z" transform="translate(-51.552 -114.775)" fill="#e0e0e0"/>
        <path id="Trazado_715396" data-name="Trazado 715396" d="M125.36,222.79a23.658,23.658,0,0,1,.9,2.6l2.1.42,6.623,11.871,8.113-4.1-6.634-12.056,1.09-2.312-1.92-2.491Z" transform="translate(-62.841 -108.638)" fill="#e0e0e0"/>
        <path id="Trazado_715397" data-name="Trazado 715397" d="M145.956,208.778c.39.277,1.921,2.012,1.921,2.012l2.013-.387,10.7,8.39,5.9-6.919-10.778-8.556-.488-2.407-2.449-.988Z" transform="translate(-73.166 -100.218)" fill="#e0e0e0"/>
        <path id="Trazado_715398" data-name="Trazado 715398" d="M54.82,157.06a12.3,12.3,0,1,1-12.3-12.3,12.3,12.3,0,0,1,12.3,12.3" transform="translate(-15.148 -72.566)" fill="#263238"/>
        <path id="Trazado_715399" data-name="Trazado 715399" d="M54.843,161.585a7.619,7.619,0,1,1-7.619-7.619,7.619,7.619,0,0,1,7.619,7.619" transform="translate(-19.853 -77.181)" fill="#455a64"/>
        <path id="Trazado_715400" data-name="Trazado 715400" d="M18.589,51.854c.035.062-3.139,1.931-7.09,4.172s-7.184,4.009-7.22,3.947,3.139-1.93,7.091-4.173,7.184-4.008,7.219-3.946" transform="translate(-2.145 -25.993)" fill="#455a64"/>
        <path id="Trazado_715401" data-name="Trazado 715401" d="M53.282,111.915c.035.062-3.139,1.931-7.09,4.172s-7.184,4.009-7.219,3.947,3.139-1.931,7.091-4.172,7.183-4.009,7.218-3.946" transform="translate(-19.536 -56.101)" fill="#455a64"/>
        <path id="Trazado_715402" data-name="Trazado 715402" d="M115.122,238.344a39.261,39.261,0,0,1-4.454.739,39.258,39.258,0,0,1-4.489.482,39.354,39.354,0,0,1,4.454-.739,39.377,39.377,0,0,1,4.489-.482" transform="translate(-53.226 -119.472)" fill="#263238"/>
        <path id="Trazado_715403" data-name="Trazado 715403" d="M119.269,265.02c-.017.044-.539-.171-1.419-.358a10.41,10.41,0,0,0-3.486-.123,11.33,11.33,0,0,0-1.875.437,10.111,10.111,0,0,0-1.448.619c-.795.42-1.235.772-1.265.735-.011-.014.091-.111.286-.277a6.136,6.136,0,0,1,.89-.618,8.64,8.64,0,0,1,1.458-.685,10.2,10.2,0,0,1,1.919-.468,9.313,9.313,0,0,1,3.562.2,6.368,6.368,0,0,1,1.025.35c.234.1.359.17.352.187" transform="translate(-55.029 -132.438)" fill="#263238"/>
        <path id="Trazado_715404" data-name="Trazado 715404" d="M139.125,226.565a38.453,38.453,0,0,1-3.828,2.3,38.426,38.426,0,0,1-3.956,2.075,38.59,38.59,0,0,1,3.829-2.3,38.616,38.616,0,0,1,3.955-2.075" transform="translate(-65.839 -113.572)" fill="#263238"/>
        <path id="Trazado_715405" data-name="Trazado 715405" d="M152.6,249.571c0,.047-.544.029-1.4.166a9.2,9.2,0,0,0-5.689,3.309c-.54.674-.792,1.155-.834,1.132-.016-.008.035-.133.143-.355a5.905,5.905,0,0,1,.545-.889,8.436,8.436,0,0,1,5.81-3.38,5.839,5.839,0,0,1,1.042-.034,1.1,1.1,0,0,1,.38.051" transform="translate(-72.524 -125.076)" fill="#263238"/>
        <path id="Trazado_715406" data-name="Trazado 715406" d="M159.75,206.338a7.4,7.4,0,0,1-.782,1.093L157,210l-1.941,2.588a7.32,7.32,0,0,1-.841,1.048,6.5,6.5,0,0,1,.691-1.154c.459-.692,1.119-1.63,1.885-2.639s1.491-1.9,2.033-2.525a6.494,6.494,0,0,1,.925-.977" transform="translate(-77.305 -103.434)" fill="#263238"/>
        <path id="Trazado_715407" data-name="Trazado 715407" d="M180.817,224.054a8.19,8.19,0,0,0-1.371.347,5.827,5.827,0,0,0-2.567,2.143,12.222,12.222,0,0,0-1.413,3.108,9.721,9.721,0,0,1-.463,1.358,6.652,6.652,0,0,1,.287-1.41,10.581,10.581,0,0,1,1.374-3.2,5.6,5.6,0,0,1,2.717-2.169,3.652,3.652,0,0,1,1.046-.2.967.967,0,0,1,.389.029" transform="translate(-87.724 -112.3)" fill="#263238"/>
        <path id="Trazado_715408" data-name="Trazado 715408" d="M140.124,366.952a21.535,21.535,0,0,1-3.5-4.891,92.922,92.922,0,0,1,3.5,4.891" transform="translate(-68.488 -181.496)" fill="#263238"/>
        <path id="Trazado_715409" data-name="Trazado 715409" d="M150.138,415.317c0,.072-23.936.13-53.457.13s-53.462-.058-53.462-.13,23.931-.13,53.462-.13,53.457.058,53.457.13" transform="translate(-21.666 -208.127)" fill="#263238"/>
      </g>
    </g>
    <g id="Grupo_1005306" data-name="Grupo 1005306">
      <g id="Grupo_1005305" data-name="Grupo 1005305" clip-path="url(#clip-path)">
        <path id="Trazado_715410" data-name="Trazado 715410" d="M190.431.288a46.009,46.009,0,0,0-30.163,84.1l-.029-.01c-.123-.082.113,13.06.113,13.06l14.542-6.67A46.006,46.006,0,1,0,190.431.288" transform="translate(-70.03 -0.021)" fill="#f5f5f5"/>
        <path id="Trazado_715411" data-name="Trazado 715411" d="M229.62,51.324a40.73,40.73,0,1,1-40.73-40.73,40.73,40.73,0,0,1,40.73,40.73" transform="translate(-74.27 -5.311)" fill="#e0e0e0"/>
        <path id="Trazado_715412" data-name="Trazado 715412" d="M229.49,51.217s-.014-.224-.03-.66-.011-1.087-.087-1.936a41.084,41.084,0,0,0-1.162-7.347,40.383,40.383,0,0,0-1.672-5.11,39.313,39.313,0,0,0-2.834-5.729,41.169,41.169,0,0,0-10.334-11.55A40.551,40.551,0,0,0,196.259,11.3a41.3,41.3,0,0,0-15.918.186,43.364,43.364,0,0,0-5.431,1.55,40.726,40.726,0,0,0-18.88,14.161,40.039,40.039,0,0,0-3.31,5.33c-.5.93-.927,1.9-1.363,2.871-.392.989-.8,1.978-1.12,3a39.523,39.523,0,0,0-1.547,6.282,43.872,43.872,0,0,0-.531,6.535,43.9,43.9,0,0,0,.529,6.537,39.643,39.643,0,0,0,1.546,6.284c.323,1.023.728,2.012,1.12,3,.437.97.863,1.941,1.363,2.872a39.974,39.974,0,0,0,3.311,5.331A40.726,40.726,0,0,0,174.91,89.4a43.366,43.366,0,0,0,5.431,1.549,41.314,41.314,0,0,0,15.92.186,40.555,40.555,0,0,0,17.11-7.589A41.15,41.15,0,0,0,223.7,72a39.317,39.317,0,0,0,2.834-5.729,40.5,40.5,0,0,0,1.672-5.109,41.123,41.123,0,0,0,1.162-7.347c.076-.849.06-1.5.087-1.936s.03-.66.03-.66,0,.224,0,.661.006,1.088-.061,1.938a39.812,39.812,0,0,1-2.771,12.5,39.276,39.276,0,0,1-2.825,5.757,41.224,41.224,0,0,1-10.346,11.623A40.691,40.691,0,0,1,196.3,91.348a41.48,41.48,0,0,1-16.008-.168,43.547,43.547,0,0,1-5.464-1.553,40.944,40.944,0,0,1-19.006-14.24,40.173,40.173,0,0,1-3.333-5.364c-.5-.936-.933-1.914-1.373-2.89-.394-1-.8-1.991-1.128-3.021a39.872,39.872,0,0,1-1.556-6.324,44.13,44.13,0,0,1-.533-6.579,44.029,44.029,0,0,1,.535-6.576,39.784,39.784,0,0,1,1.557-6.322c.326-1.029.734-2.024,1.128-3.019.44-.976.869-1.953,1.372-2.89a40.283,40.283,0,0,1,3.333-5.362,40.94,40.94,0,0,1,19-14.236,43.5,43.5,0,0,1,5.463-1.553,41.479,41.479,0,0,1,16.006-.169,40.7,40.7,0,0,1,17.183,7.653A41.217,41.217,0,0,1,223.828,30.36a39.274,39.274,0,0,1,2.825,5.757,39.813,39.813,0,0,1,2.772,12.5c.068.85.043,1.5.061,1.938s0,.661,0,.661" transform="translate(-74.14 -5.203)" fill="#263238"/>
        <g id="Grupo_1005277" data-name="Grupo 1005277" transform="translate(141.243 37.274)" opacity="0.3">
          <g id="Grupo_1005276" data-name="Grupo 1005276">
            <g id="Grupo_1005275" data-name="Grupo 1005275" clip-path="url(#clip-path-10)">
              <path id="Trazado_715413" data-name="Trazado 715413" d="M283.215,74.86c.013.022.028.043.041.066l.232-.186Z" transform="translate(-283.215 -74.74)" fill="#ff725e"/>
            </g>
          </g>
        </g>
        <path id="Trazado_715414" data-name="Trazado 715414" d="M228.813,61.913c-.931-2.415-3.976-6.883-7.124-8.8-6.269-3.824-14.541-4.1-20.746-.171s-10,11.085-10.675,18.4a18.013,18.013,0,0,0,1.809,10.453c2.128,3.8,6.057,6.32,10.185,7.717a23.792,23.792,0,0,0,13.667.657,18.178,18.178,0,0,0,10.924-8c2.254-3.788,2.894-6.732,3.254-11.126a25.666,25.666,0,0,0-1.295-9.123" transform="translate(-95.325 -25.122)" fill="#4db1f0"/>
        <g id="Grupo_1005280" data-name="Grupo 1005280" transform="translate(106.048 59.021)" opacity="0.3">
          <g id="Grupo_1005279" data-name="Grupo 1005279">
            <g id="Grupo_1005278" data-name="Grupo 1005278" clip-path="url(#clip-path-11)">
              <path id="Trazado_715415" data-name="Trazado 715415" d="M213.6,118.558a.357.357,0,0,0-.217-.16.535.535,0,0,0-.432-.013l-.009,0-.013,0h.006a.451.451,0,0,0-.242.195.385.385,0,0,0,.031.443c.1.123.5.412.661.388s.064-.355.156-.483a.371.371,0,0,0,.059-.375" transform="translate(-212.642 -118.347)" fill="#fff"/>
            </g>
          </g>
        </g>
        <g id="Grupo_1005283" data-name="Grupo 1005283" transform="translate(99.722 46.317)" opacity="0.3">
          <g id="Grupo_1005282" data-name="Grupo 1005282">
            <g id="Grupo_1005281" data-name="Grupo 1005281" clip-path="url(#clip-path-12)">
              <path id="Trazado_715416" data-name="Trazado 715416" d="M202.583,93.45a.972.972,0,0,0-.591-.435,1.464,1.464,0,0,0-1.179-.036l-.024.006-.035.009.017,0a1.229,1.229,0,0,0-.659.532,1.048,1.048,0,0,0,.085,1.208,1.275,1.275,0,0,0,1.165.422,1.638,1.638,0,0,0,1.061-.682,1.01,1.01,0,0,0,.161-1.021" transform="translate(-199.958 -92.873)" fill="#fff"/>
            </g>
          </g>
        </g>
        <g id="Grupo_1005286" data-name="Grupo 1005286" transform="translate(126.999 49.449)" opacity="0.3">
          <g id="Grupo_1005285" data-name="Grupo 1005285">
            <g id="Grupo_1005284" data-name="Grupo 1005284" clip-path="url(#clip-path-13)">
              <path id="Trazado_715417" data-name="Trazado 715417" d="M256.245,99.5a.591.591,0,0,0-.359-.264.887.887,0,0,0-.714-.021l-.014,0-.022.006.01,0a.745.745,0,0,0-.4.322.635.635,0,0,0,.051.732.773.773,0,0,0,.706.256.992.992,0,0,0,.643-.413.612.612,0,0,0,.1-.619" transform="translate(-254.653 -99.153)" fill="#fff"/>
            </g>
          </g>
        </g>
        <g id="Grupo_1005289" data-name="Grupo 1005289" transform="translate(119.024 29.2)" opacity="0.2">
          <g id="Grupo_1005288" data-name="Grupo 1005288">
            <g id="Grupo_1005287" data-name="Grupo 1005287" clip-path="url(#clip-path-14)">
              <path id="Trazado_715418" data-name="Trazado 715418" d="M240.707,58.62a2.419,2.419,0,0,0-1.348,1.23,3.642,3.642,0,0,0-.66,2.856c0,.021,0,.041,0,.061s0,.059.005.091v-.043a3.053,3.053,0,0,0,.976,1.866,2.607,2.607,0,0,0,2.985.381,3.171,3.171,0,0,0,1.6-2.634,4.069,4.069,0,0,0-1.147-2.919,2.51,2.51,0,0,0-2.411-.889" transform="translate(-238.661 -58.55)" fill="#fff"/>
            </g>
          </g>
        </g>
        <g id="Grupo_1005292" data-name="Grupo 1005292" transform="translate(99.919 51.44)" opacity="0.2">
          <g id="Grupo_1005291" data-name="Grupo 1005291">
            <g id="Grupo_1005290" data-name="Grupo 1005290" clip-path="url(#clip-path-15)">
              <path id="Trazado_715419" data-name="Trazado 715419" d="M200.81,103.94a2.629,2.629,0,0,0-.432,1.937,3.96,3.96,0,0,0,1.2,2.955c.013.018.028.035.042.052l.062.077-.027-.038a3.321,3.321,0,0,0,2.034,1.051,2.836,2.836,0,0,0,2.9-1.525,3.45,3.45,0,0,0-.225-3.342,4.426,4.426,0,0,0-2.844-1.883,2.729,2.729,0,0,0-2.7.715" transform="translate(-200.353 -103.145)" fill="#fff"/>
            </g>
          </g>
        </g>
        <g id="Grupo_1005295" data-name="Grupo 1005295" transform="translate(127.531 44.144)" opacity="0.3">
          <g id="Grupo_1005294" data-name="Grupo 1005294">
            <g id="Grupo_1005293" data-name="Grupo 1005293" clip-path="url(#clip-path-16)">
              <path id="Trazado_715420" data-name="Trazado 715420" d="M259.892,89.432a1.547,1.547,0,0,0-.94-.692,2.328,2.328,0,0,0-1.874-.056l-.038.01-.056.014.026,0a1.951,1.951,0,0,0-1.048.845,1.668,1.668,0,0,0,.134,1.92,2.029,2.029,0,0,0,1.852.671,2.6,2.6,0,0,0,1.688-1.084,1.6,1.6,0,0,0,.256-1.623" transform="translate(-255.719 -88.515)" fill="#fff"/>
            </g>
          </g>
        </g>
        <g id="Grupo_1005298" data-name="Grupo 1005298" transform="translate(112.773 32.952)" opacity="0.2">
          <g id="Grupo_1005297" data-name="Grupo 1005297">
            <g id="Grupo_1005296" data-name="Grupo 1005296" clip-path="url(#clip-path-17)">
              <path id="Trazado_715421" data-name="Trazado 715421" d="M228.124,66.513a.739.739,0,0,0-.449-.331,1.114,1.114,0,0,0-.9-.027l-.018,0-.027.007.013,0a.937.937,0,0,0-.5.4.8.8,0,0,0,.065.918.971.971,0,0,0,.885.321,1.248,1.248,0,0,0,.807-.519.767.767,0,0,0,.122-.777" transform="translate(-226.128 -66.074)" fill="#fff"/>
            </g>
          </g>
        </g>
        <g id="Grupo_1005301" data-name="Grupo 1005301" transform="translate(115.417 28.205)" opacity="0.2">
          <g id="Grupo_1005300" data-name="Grupo 1005300">
            <g id="Grupo_1005299" data-name="Grupo 1005299" clip-path="url(#clip-path-18)">
              <path id="Trazado_715422" data-name="Trazado 715422" d="M234.072,57.878a1.321,1.321,0,1,1-1.322-1.322,1.322,1.322,0,0,1,1.322,1.322" transform="translate(-231.429 -56.556)" fill="#fff"/>
            </g>
          </g>
        </g>
        <g id="Grupo_1005304" data-name="Grupo 1005304" transform="translate(105.144 36.453)" opacity="0.3">
          <g id="Grupo_1005303" data-name="Grupo 1005303">
            <g id="Grupo_1005302" data-name="Grupo 1005302" clip-path="url(#clip-path-19)">
              <path id="Trazado_715423" data-name="Trazado 715423" d="M230.162,83.368a9.665,9.665,0,1,1-19.331,0c0-5.338,5.084-10.274,10.423-10.274s8.908,4.936,8.908,10.274" transform="translate(-210.831 -73.094)"/>
            </g>
          </g>
        </g>
        <path id="Trazado_715424" data-name="Trazado 715424" d="M193.034,81.685a.982.982,0,0,1-.06-.256l-.123-.743c-.025-.165-.053-.345-.082-.539s-.034-.414-.053-.645c-.029-.464-.091-.992-.073-1.578,0-.294,0-.6,0-.92s.042-.651.063-.995c.03-.69.152-1.417.261-2.185a24.176,24.176,0,0,1,3.692-9.315c.446-.634.856-1.247,1.307-1.77.22-.265.419-.532.636-.768l.628-.672c.389-.439.8-.781,1.135-1.1.173-.156.329-.306.481-.434l.429-.336.6-.457a.994.994,0,0,1,.219-.145c.005.007-.059.071-.187.187l-.566.494-.412.351c-.147.133-.3.287-.464.447-.327.327-.723.675-1.1,1.119l-.611.677c-.211.237-.4.505-.619.771-.439.524-.838,1.137-1.275,1.768a24.865,24.865,0,0,0-3.657,9.225c-.115.759-.244,1.478-.283,2.161-.025.341-.068.669-.077.985s-.013.62-.019.912c-.03.582.019,1.107.034,1.568.012.23.015.446.031.643l.06.539c.029.3.054.547.074.747a1.022,1.022,0,0,1,.008.264" transform="translate(-96.568 -29.489)" fill="#fff"/>
        <path id="Trazado_715425" data-name="Trazado 715425" d="M190.434.276s.262.025.773.087l.952.118.613.077.7.123,1.658.3,1.98.459c.713.177,1.468.412,2.283.639.8.26,1.659.549,2.555.875a48.7,48.7,0,0,1,5.774,2.64,47.626,47.626,0,0,1,6.308,4.151,46.173,46.173,0,0,1,11.907,13.915,48.493,48.493,0,0,1,2.3,4.711,47.658,47.658,0,0,1,1.789,5.177,46.084,46.084,0,0,1-13.441,46.7,49.024,49.024,0,0,1-5.67,4.383,46.32,46.32,0,0,1-20.854,7.341,47.347,47.347,0,0,1-7.669.079,43.966,43.966,0,0,1-7.679-1.193l.084-.008-.286.131-14.268,6.513a.129.129,0,0,1-.171-.063.131.131,0,0,1-.012-.052q-.046-3.318-.091-6.585-.015-1.634-.03-3.254l-.006-1.617,0-.807.006-.4.006-.2.005-.1,0-.056,0-.035.006-.024c.007-.015-.012.018.018-.04a.135.135,0,0,1,.181-.039l-.027-.013.029.01-.114.226a45.824,45.824,0,0,1-20.391-41.693,45.869,45.869,0,0,1,17.852-33.2,47.408,47.408,0,0,1,6.542-4.219,48.927,48.927,0,0,1,6.34-2.764A46.327,46.327,0,0,1,181.137.192a49.5,49.5,0,0,1,6.909-.128l1.782.152c.4.036.6.06.6.06s-.205-.008-.607-.036L188.044.111a51.111,51.111,0,0,0-6.9.171A46.556,46.556,0,0,0,170.44,2.672a49,49,0,0,0-6.313,2.772,47.472,47.472,0,0,0-6.51,4.22A45.924,45.924,0,0,0,160.2,84.216a.128.128,0,0,1-.114.226l-.028-.01h0a.062.062,0,0,1,.042-.117h0c.183.075.1.03.116.06l0,.044,0,.1-.007.2-.006.4,0,.8q0,.806.006,1.616.016,1.62.031,3.253.046,3.266.092,6.584l-.183-.115L174.4,90.74l.286-.131a.127.127,0,0,1,.084-.008,43.694,43.694,0,0,0,7.636,1.187,47.053,47.053,0,0,0,7.627-.077,46.094,46.094,0,0,0,20.741-7.294,48.894,48.894,0,0,0,5.641-4.357,45.845,45.845,0,0,0,15.1-35.041A44.238,44.238,0,0,0,229.83,33.6a47.568,47.568,0,0,0-1.774-5.157,48.246,48.246,0,0,0-2.282-4.7A46.1,46.1,0,0,0,213.937,9.857,47.611,47.611,0,0,0,207.66,5.7a48.863,48.863,0,0,0-5.751-2.654c-.893-.328-1.744-.62-2.546-.884-.812-.23-1.565-.47-2.276-.65l-1.974-.47L193.46.732l-.7-.129L192.153.52,191.2.39c-.51-.071-.77-.114-.77-.114" transform="translate(-69.946 0)" fill="#263238"/>
        <path id="Trazado_715426" data-name="Trazado 715426" d="M166.142,38.3a2.723,2.723,0,0,1-.291.32c-.193.207-.5.491-.858.889a38.969,38.969,0,0,0-2.922,3.472,37.5,37.5,0,0,0-7.113,28.26,39.064,39.064,0,0,0,.93,4.441c.13.521.264.916.335,1.189a2.679,2.679,0,0,1,.1.419,2.643,2.643,0,0,1-.154-.4c-.087-.269-.237-.66-.383-1.178a34.606,34.606,0,0,1-1.014-4.44,36.81,36.81,0,0,1,7.149-28.4,34.529,34.529,0,0,1,3-3.431c.373-.388.69-.661.895-.856a2.663,2.663,0,0,1,.327-.282" transform="translate(-77.348 -19.201)" fill="#fff"/>
        <path id="Trazado_715427" data-name="Trazado 715427" d="M295.978,73.963a1.88,1.88,0,0,1,.092.35c.054.257.125.594.213,1.015q.068.335.149.735c.047.27.082.566.128.883.082.635.207,1.355.251,2.16q.046.6.1,1.262c.031.439.025.9.039,1.371.042.949-.013,1.961-.051,3.027a40.588,40.588,0,0,1-3.117,13.461c-.435.974-.83,1.908-1.285,2.741-.221.419-.417.834-.638,1.214l-.642,1.091c-.393.7-.823,1.3-1.175,1.83-.181.264-.342.515-.5.737l-.456.595-.638.818a1.879,1.879,0,0,1-.236.274,1.917,1.917,0,0,1,.2-.306l.6-.845.436-.607c.155-.225.31-.479.484-.746.34-.54.756-1.136,1.138-1.843l.625-1.094c.215-.382.405-.8.621-1.215.444-.833.83-1.765,1.256-2.736a41.756,41.756,0,0,0,3.1-13.383c.044-1.059.107-2.066.074-3.01-.01-.471,0-.928-.024-1.364s-.055-.856-.08-1.257c-.032-.8-.145-1.521-.212-2.155-.039-.317-.067-.612-.106-.883l-.126-.737c-.069-.423-.124-.763-.166-1.022a1.892,1.892,0,0,1-.04-.361" transform="translate(-144.473 -37.077)" fill="#fff"/>
      </g>
    </g>
    <g id="Grupo_1005311" data-name="Grupo 1005311">
      <g id="Grupo_1005310" data-name="Grupo 1005310" clip-path="url(#clip-path)">
        <path id="Trazado_715428" data-name="Trazado 715428" d="M354.715,132.275a34.79,34.79,0,0,0,2.381-5.5,12.142,12.142,0,0,0,.435-5.927c-.061-.3-.66-2.321-.963-2.337-.216-.012.06,1.832-.076,2a10.293,10.293,0,0,0-2.062,5.755,27.1,27.1,0,0,0,.285,6.013" transform="translate(-177.64 -59.406)" fill="#263238"/>
        <path id="Trazado_715429" data-name="Trazado 715429" d="M339.569,120.519c.928-4.933-1.169-9.586-6.127-10.377l-.463-.047a8.974,8.974,0,0,0-9.725,7.318c-.781,4.28-1.588,9.02-1.792,11.338-.421,4.8,4.3,6.025,4.3,6.025s-.418,7.45-.418,7.45l11.461-4.873Z" transform="translate(-161.131 -55.167)" fill="#ffc09d"/>
        <path id="Trazado_715430" data-name="Trazado 715430" d="M330.006,158.477a11.634,11.634,0,0,0,6.425-1.219,5.78,5.78,0,0,1-6.51,2.905Z" transform="translate(-165.385 -78.831)" fill="#ff9b6c"/>
        <path id="Trazado_715431" data-name="Trazado 715431" d="M327.026,132.868a.688.688,0,0,0,.591.757.657.657,0,0,0,.767-.546.687.687,0,0,0-.59-.757.658.658,0,0,0-.768.547" transform="translate(-163.931 -66.327)" fill="#263238"/>
        <path id="Trazado_715432" data-name="Trazado 715432" d="M326.728,128.412c.076.1.633-.234,1.369-.158s1.239.5,1.328.416c.043-.036-.027-.206-.245-.4a1.888,1.888,0,0,0-1.052-.443,1.815,1.815,0,0,0-1.1.237c-.243.151-.337.3-.3.349" transform="translate(-163.78 -64.073)" fill="#263238"/>
        <path id="Trazado_715433" data-name="Trazado 715433" d="M339.508,134.86a.688.688,0,0,0,.591.757.657.657,0,0,0,.767-.546.688.688,0,0,0-.59-.757.658.658,0,0,0-.768.547" transform="translate(-170.188 -67.325)" fill="#263238"/>
        <path id="Trazado_715434" data-name="Trazado 715434" d="M341.134,130.46c.076.1.634-.234,1.369-.158s1.239.5,1.328.416c.043-.036-.026-.205-.245-.4a1.888,1.888,0,0,0-1.052-.444,1.813,1.813,0,0,0-1.1.237c-.243.151-.337.3-.3.349" transform="translate(-171.002 -65.1)" fill="#263238"/>
        <path id="Trazado_715435" data-name="Trazado 715435" d="M332.871,135.74a4.909,4.909,0,0,0-1.174-.336c-.186-.038-.361-.094-.38-.225a.963.963,0,0,1,.182-.545l.7-1.376a24.7,24.7,0,0,0,1.625-3.621,24.821,24.821,0,0,0-1.913,3.482c-.236.484-.462.946-.677,1.387a1.092,1.092,0,0,0-.172.728.475.475,0,0,0,.281.306,1.286,1.286,0,0,0,.315.076,4.846,4.846,0,0,0,1.212.123" transform="translate(-165.948 -64.984)" fill="#263238"/>
        <path id="Trazado_715436" data-name="Trazado 715436" d="M341.822,124.645c.053.207.8.187,1.651.377.857.174,1.53.5,1.662.329.06-.081-.042-.282-.305-.5a2.944,2.944,0,0,0-2.524-.538c-.33.1-.506.237-.484.336" transform="translate(-171.35 -62.269)" fill="#263238"/>
        <path id="Trazado_715437" data-name="Trazado 715437" d="M327.825,123.514c.113.18.638.057,1.249.11.612.032,1.115.226,1.252.062.06-.079,0-.255-.214-.436a1.816,1.816,0,0,0-2.015-.139c-.233.151-.321.316-.272.4" transform="translate(-164.327 -61.593)" fill="#263238"/>
        <path id="Trazado_715438" data-name="Trazado 715438" d="M355.634,138.016c.085-.027,3.391-.644,2.958,2.622s-3.624,2.158-3.617,2.063.659-4.685.659-4.685" transform="translate(-177.944 -69.154)" fill="#ffc09d"/>
        <path id="Trazado_715439" data-name="Trazado 715439" d="M357.3,142.739c.015-.008.052.047.142.1a.574.574,0,0,0,.424.065,1.42,1.42,0,0,0,.819-1.177,1.9,1.9,0,0,0-.051-.836.664.664,0,0,0-.37-.493.291.291,0,0,0-.357.111c-.056.085-.044.154-.062.157s-.063-.064-.019-.195a.37.37,0,0,1,.156-.188.437.437,0,0,1,.326-.041.807.807,0,0,1,.528.586,1.947,1.947,0,0,1,.076.937,1.49,1.49,0,0,1-1.017,1.3.615.615,0,0,1-.509-.155c-.09-.094-.1-.17-.086-.174" transform="translate(-179.108 -70.296)" fill="#ff9b6c"/>
        <path id="Trazado_715440" data-name="Trazado 715440" d="M330.767,111.8c-.487-.366,1.34-1.851,2.721-2.256,2.087-.612,5.159-.736,6.894.033a7.939,7.939,0,0,1,4.557,4.4,12.96,12.96,0,0,1,.513,6.755,3.938,3.938,0,0,1-.742,1.928c-.558.657-1.5.987-1.6,1.988a1.38,1.38,0,0,1-.48.948c-.687.55-1.333-.15-1.583-.8a9.541,9.541,0,0,1-.256-4.389,9.609,9.609,0,0,1,.646-3.073c.236-.521.566-1,.773-1.532a1.98,1.98,0,0,0,0-1.662,2.048,2.048,0,0,0-.227-.305,3.435,3.435,0,0,0-3.284-1.121c-1.929.39-5.2.916-5.935.177a5.071,5.071,0,0,1-1.251-1.689Z" transform="translate(-165.769 -54.663)" fill="#263238"/>
        <path id="Trazado_715441" data-name="Trazado 715441" d="M336.8,144.407a.281.281,0,0,1,.219-.015.26.26,0,0,1,.109.165,1.643,1.643,0,0,1-.337,1.549l-.011.012a1.091,1.091,0,0,1-1.811-.416l-.2-.57,2.031-.724" transform="translate(-167.816 -72.373)" fill="#ff9b6c"/>
        <path id="Trazado_715442" data-name="Trazado 715442" d="M335.142,145.881c-.027.006.182.355.765.484a.924.924,0,0,0,.484-.031,1.064,1.064,0,0,0,.483-.283,1.955,1.955,0,0,0,.44-1.154,2.254,2.254,0,0,0,.006-.33.468.468,0,0,0-.161-.346.39.39,0,0,0-.377-.018l-.263.1-.9.362a3.733,3.733,0,0,0-.81.385,3.76,3.76,0,0,0,.864-.243l.917-.32c.164-.051.386-.167.445-.1.087.062.083.293.065.489a1.847,1.847,0,0,1-.372,1.037.9.9,0,0,1-.393.247.778.778,0,0,1-.4.05,1.918,1.918,0,0,1-.788-.334" transform="translate(-167.835 -72.267)" fill="#263238"/>
        <path id="Trazado_715443" data-name="Trazado 715443" d="M314.267,413.147l.382,9.742s-9.774,3.66-9.878,5.467l18.915-.063.027-15.2Z" transform="translate(-152.777 -207.076)" fill="#263238"/>
        <path id="Trazado_715444" data-name="Trazado 715444" d="M335.375,431.024a.772.772,0,0,1,.537.88.742.742,0,0,1-.867.54.815.815,0,0,1-.564-.935.771.771,0,0,1,.965-.461" transform="translate(-167.657 -216.051)" fill="#e0e0e0"/>
        <path id="Trazado_715445" data-name="Trazado 715445" d="M323.678,442.036l-.057-1.533-18.114.633s-.841.37-.744.962Z" transform="translate(-152.77 -220.818)" fill="#455a64"/>
        <path id="Trazado_715446" data-name="Trazado 715446" d="M323.962,432.46c0,.092.465.133.921.428s.7.683.784.646c.085-.018-.054-.57-.612-.918s-1.113-.241-1.092-.156" transform="translate(-162.398 -216.743)" fill="#fff"/>
        <path id="Trazado_715447" data-name="Trazado 715447" d="M319.99,434.168c-.021.09.38.245.695.635s.407.8.5.8c.087.014.149-.527-.252-1s-.94-.518-.942-.429" transform="translate(-160.406 -217.623)" fill="#fff"/>
        <path id="Trazado_715448" data-name="Trazado 715448" d="M317,437.375c.084.019.211-.442-.028-.948s-.671-.705-.71-.628.229.347.419.764.227.8.319.811" transform="translate(-158.534 -218.452)" fill="#fff"/>
        <path id="Trazado_715449" data-name="Trazado 715449" d="M324.28,427.739c.039.084.462-.045.984-.011s.93.2.977.118-.345-.407-.96-.439-1.047.26-1,.332" transform="translate(-162.555 -214.252)" fill="#fff"/>
        <path id="Trazado_715450" data-name="Trazado 715450" d="M366.281,412.51l.964,11.058-1.759,8.966a1.137,1.137,0,0,0,1.951.99c1.586-1.73,7.39-8.122,7.275-8.927-.134-.933-.242-11.732-.242-11.732Z" transform="translate(-183.202 -206.785)" fill="#263238"/>
        <path id="Trazado_715451" data-name="Trazado 715451" d="M367.458,445.281l8.205-10.031.03.469a1.71,1.71,0,0,1-.334,1.134c-.65.872-2.5,3.24-6.889,8.07a1.138,1.138,0,0,1-1.012.359" transform="translate(-184.202 -218.185)" fill="#455a64"/>
        <g id="Grupo_1005309" data-name="Grupo 1005309" transform="translate(188.712 213.507)" opacity="0.6">
          <g id="Grupo_1005308" data-name="Grupo 1005308">
            <g id="Grupo_1005307" data-name="Grupo 1005307" clip-path="url(#clip-path-21)">
              <path id="Trazado_715452" data-name="Trazado 715452" d="M378.645,428.246a.688.688,0,0,0-.131.909.662.662,0,0,0,.9.137.726.726,0,0,0,.133-.964.686.686,0,0,0-.952-.039" transform="translate(-378.398 -428.115)" fill="#fff"/>
            </g>
          </g>
        </g>
        <path id="Trazado_715453" data-name="Trazado 715453" d="M369.583,444.161a2.454,2.454,0,0,0-2.318-.961c-.011-.026.123-.122.38-.175a1.813,1.813,0,0,1,1.793.744c.144.219.172.382.145.392" transform="translate(-184.105 -222.068)" fill="#fff"/>
        <path id="Trazado_715454" data-name="Trazado 715454" d="M368.406,447.706a3.389,3.389,0,0,0-2.1-.483,1.261,1.261,0,0,1,1.146-.168c.664.149,1.013.617.957.651" transform="translate(-183.622 -224.079)" fill="#fff"/>
        <path id="Trazado_715455" data-name="Trazado 715455" d="M371.41,440.184a5.85,5.85,0,0,0-3.186-1.021,3.109,3.109,0,0,1,3.186,1.021" transform="translate(-184.586 -220.085)" fill="#fff"/>
        <path id="Trazado_715456" data-name="Trazado 715456" d="M371.676,434.171c-.025.068-.654-.148-1.452-.126s-1.417.254-1.445.187a2.823,2.823,0,0,1,2.9-.061" transform="translate(-184.863 -217.458)" fill="#fff"/>
        <path id="Trazado_715457" data-name="Trazado 715457" d="M371.216,427.591a3.615,3.615,0,0,0-2.953.292c-.02-.022.092-.169.338-.333a2.476,2.476,0,0,1,2.218-.219c.273.112.412.234.4.26" transform="translate(-184.604 -214.132)" fill="#fff"/>
        <path id="Trazado_715458" data-name="Trazado 715458" d="M369.276,424.181a.964.964,0,0,1-.042-.418,2.924,2.924,0,0,1,.262-1.119,1.3,1.3,0,0,1,.514-.652.458.458,0,0,1,.521.069.746.746,0,0,1,.208.489,1.608,1.608,0,0,1-1.311,1.574,1.863,1.863,0,0,1-1.89-.856.645.645,0,0,1-.065-.535.447.447,0,0,1,.452-.267,1.586,1.586,0,0,1,.754.332,3.244,3.244,0,0,1,.811.812.98.98,0,0,1,.195.372,5.173,5.173,0,0,0-1.1-1.04,1.478,1.478,0,0,0-.664-.274.239.239,0,0,0-.247.144.441.441,0,0,0,.063.35,1.664,1.664,0,0,0,1.647.723,1.4,1.4,0,0,0,1.132-1.321.535.535,0,0,0-.13-.347.246.246,0,0,0-.286-.042,1.168,1.168,0,0,0-.446.544,4.342,4.342,0,0,0-.376,1.462" transform="translate(-184.192 -211.513)" fill="#fff"/>
        <path id="Trazado_715459" data-name="Trazado 715459" d="M307.27,256.139a47.068,47.068,0,0,0-1.138,12.953c.19,2.464,7.494,71.822,7.494,71.822H325.05l-3.211-65.195.919.2s6.127,27.318,6.627,31.741c.449,3.975,5.617,32.857,5.617,32.857l10.262.118-3.278-38.2-3.814-36.657-1.435-10.67Z" transform="translate(-153.413 -127.881)" fill="#263238"/>
        <path id="Trazado_715460" data-name="Trazado 715460" d="M335.4,274.282a2.153,2.153,0,0,1-.468.264,5.421,5.421,0,0,1-1.39.487,2.938,2.938,0,0,1-1.034.007,2.128,2.128,0,0,1-1.081-.519,2.565,2.565,0,0,1-.655-1.147c-.133-.436-.208-.889-.3-1.35-.358-1.849-.6-3.536-.742-4.762-.071-.612-.118-1.109-.144-1.453a2.321,2.321,0,0,1-.014-.537,2.334,2.334,0,0,1,.106.526c.059.39.132.872.218,1.441.184,1.217.451,2.9.808,4.739a4.448,4.448,0,0,0,.874,2.383,2.332,2.332,0,0,0,1.938.5,6.327,6.327,0,0,0,1.379-.4,2.529,2.529,0,0,1,.506-.18" transform="translate(-165.205 -132.978)" fill="#263238"/>
        <path id="Trazado_715461" data-name="Trazado 715461" d="M333.684,265.849c0-.01.073-.058.23-.068a1,1,0,0,1,.628.2,1.121,1.121,0,0,1,.473.867,1.113,1.113,0,0,1-1.895.711,1.123,1.123,0,0,1-.214-.964,1,1,0,0,1,.34-.565c.126-.1.215-.11.219-.1a1.27,1.27,0,0,0-.394.7.98.98,0,0,0,.213.788.91.91,0,0,0,1.511-.567.981.981,0,0,0-.358-.734,1.266,1.266,0,0,0-.755-.266" transform="translate(-166.867 -133.231)" fill="#263238"/>
        <path id="Trazado_715462" data-name="Trazado 715462" d="M361.424,271.5a1.208,1.208,0,0,1-.382.06,7.173,7.173,0,0,1-1.053.012,10.2,10.2,0,0,1-6.3-2.654,7.08,7.08,0,0,1-.727-.762c-.157-.193-.237-.3-.224-.315.032-.028.392.385,1.062.951a11.315,11.315,0,0,0,6.2,2.613c.873.084,1.42.053,1.422.1" transform="translate(-176.821 -134.266)" fill="#263238"/>
        <path id="Trazado_715463" data-name="Trazado 715463" d="M309.935,266.332a5.08,5.08,0,0,1-.519,1.145,12.724,12.724,0,0,1-1.734,2.415,11.693,11.693,0,0,1-2.2,1.879,4.054,4.054,0,0,1-1.034.55,10.772,10.772,0,0,1,.955-.693,14.743,14.743,0,0,0,2.13-1.906,15.807,15.807,0,0,0,1.756-2.336,12.307,12.307,0,0,1,.644-1.052" transform="translate(-152.616 -133.508)" fill="#263238"/>
        <path id="Trazado_715464" data-name="Trazado 715464" d="M258.134,155.785l-.682-1.575s-.584-2.5-.8-3.1a11.994,11.994,0,0,0-1.582-2.651,16.484,16.484,0,0,1-2.769-2.51c-.361-.629-.711-1.367-.711-1.367a1.011,1.011,0,0,0-.742.93,11.315,11.315,0,0,0,.844,3l-3.47,3.608a8.331,8.331,0,0,0,1.588,3.056c.9.756,1.96,1.217,2.171,1.493s.718.989.718.989Z" transform="translate(-124.433 -72.475)" fill="#ffc09d"/>
        <path id="Trazado_715465" data-name="Trazado 715465" d="M252.281,147.089l-5.6-14.371-1.215.457,5.522,14.273Z" transform="translate(-123.049 -66.53)" fill="#263238"/>
        <path id="Trazado_715466" data-name="Trazado 715466" d="M249.065,149.043a.875.875,0,0,0-1.126.793c-.087,1.036.619,1.191.619,1.191a1.337,1.337,0,0,0-.149,1.72,1.666,1.666,0,0,0-.33,1.595l.325.624.769-.4s2.046,1.178,2.876.617l.294-.387a.7.7,0,0,0,.709-.342c.2-.417.231-.407-.319-1.164a8.936,8.936,0,0,0-2.2-1.673s1.044.266,1.33-.17.149-.938-.778-1.5a10.749,10.749,0,0,0-2.019-.906" transform="translate(-124.285 -74.701)" fill="#ffc09d"/>
        <path id="Trazado_715467" data-name="Trazado 715467" d="M249.019,149.025a3.836,3.836,0,0,0,.368.153c.24.1.592.242,1.022.461a7.665,7.665,0,0,1,.693.395,2.19,2.19,0,0,1,.671.619.665.665,0,0,1,.1.456.572.572,0,0,1-.253.4,1.084,1.084,0,0,1-.532.094,2.894,2.894,0,0,1-.587-.08l-.472-.111.418.247A10.358,10.358,0,0,1,252.334,153a2.955,2.955,0,0,1,.394.471,2.32,2.32,0,0,1,.315.524.36.36,0,0,1-.046.26l-.07.147a.581.581,0,0,1-.079.118.64.64,0,0,1-.539.174l-.051-.005-.029.038-.294.388.02-.019-.11.055a1.374,1.374,0,0,1-.692.062,3.734,3.734,0,0,1-.7-.166,7.755,7.755,0,0,1-1.286-.57l-.04-.022-.039.02-.768.4.108.034-.326-.623,0,.01a1.573,1.573,0,0,1,.308-1.521l.034-.04-.024-.043a1.536,1.536,0,0,1-.224-.9,1.21,1.21,0,0,1,.35-.744l.075-.073-.1-.028a.778.778,0,0,1-.464-.395,1.253,1.253,0,0,1-.128-.559,1.506,1.506,0,0,1,.072-.5.723.723,0,0,1,.249-.326.968.968,0,0,1,.557-.156c.137,0,.208.013.209.007a.539.539,0,0,0-.208-.04.961.961,0,0,0-.594.136.781.781,0,0,0-.286.35,1.565,1.565,0,0,0-.091.528,1.336,1.336,0,0,0,.126.606.877.877,0,0,0,.533.461l-.025-.1a1.321,1.321,0,0,0-.4.819,1.664,1.664,0,0,0,.23.979l.01-.083a1.856,1.856,0,0,0-.393.761,1.615,1.615,0,0,0,.041.908v0l0,.005.322.625.037.071.071-.037.77-.4h-.079a7.845,7.845,0,0,0,1.315.587,3.87,3.87,0,0,0,.731.175,1.526,1.526,0,0,0,.782-.075l.137-.07.009,0,.01-.014.294-.387-.08.033a.8.8,0,0,0,.69-.229.712.712,0,0,0,.105-.157l.072-.151a.53.53,0,0,0,.055-.373,2.347,2.347,0,0,0-.343-.578,3.1,3.1,0,0,0-.415-.491,10.3,10.3,0,0,0-1.925-1.349l-.054.136a3.009,3.009,0,0,0,.621.078,1.2,1.2,0,0,0,.6-.118.746.746,0,0,0,.185-1.042,2.266,2.266,0,0,0-.717-.644,7.279,7.279,0,0,0-.711-.384,9.946,9.946,0,0,0-1.044-.426c-.123-.042-.218-.071-.283-.09a.318.318,0,0,0-.1-.021" transform="translate(-124.239 -74.683)" fill="#ff9b6c"/>
        <path id="Trazado_715468" data-name="Trazado 715468" d="M249.307,156.838a7.788,7.788,0,0,1,3.747,1.87,1.734,1.734,0,0,0-.413-.478,5.439,5.439,0,0,0-2.7-1.349,1.734,1.734,0,0,0-.63-.043" transform="translate(-124.974 -78.614)" fill="#ff9b6c"/>
        <path id="Trazado_715469" data-name="Trazado 715469" d="M249.17,153.151c0,.046.521.063,1.121.282s1.05.479,1.078.437a2.273,2.273,0,0,0-1.021-.6,1.874,1.874,0,0,0-1.177-.121" transform="translate(-124.905 -76.75)" fill="#ff9b6c"/>
        <path id="Trazado_715470" data-name="Trazado 715470" d="M371.93,183.81s5.545,23.878,4.961,31.172-1.7,17.994-1.7,17.994l-7.8-.432.769-19.884-3.221-14.519Z" transform="translate(-182.94 -92.141)" fill="#e0e0e0"/>
        <path id="Trazado_715471" data-name="Trazado 715471" d="M329.881,164.032l5.388,3.764-5.984,23.943V213a56.229,56.229,0,0,1-10.346.82,55.163,55.163,0,0,1-8.381-1.629l-.015,0c-.94-.241-1.754-.463-2.337-.625l-1.669-.446-1.638-2.055.334-12.39-.188-2.23V171.78c1.064-1.972.619-5.234,2.767-5.873l9.446-3.337a5.224,5.224,0,0,0,4.727,2.708c3.476.017,6.7-3.412,6.7-3.412Z" transform="translate(-152.841 -81.141)" fill="#ffa031"/>
        <path id="Trazado_715472" data-name="Trazado 715472" d="M290.97,162.275l-3.31,1.635-8.369,2.824-13.9,8.766-4.042-11.934-8.668,3.153,6.357,17.093a6.527,6.527,0,0,0,8.4,3.843l11.253-4.281.193,13.648-.431,49.918,9.05.64.155-49.982c.144-12.358,3.31-35.322,3.31-35.322" transform="translate(-126.664 -81.346)" fill="#e0e0e0"/>
        <path id="Trazado_715473" data-name="Trazado 715473" d="M304.606,183.81a1.253,1.253,0,0,0-.019.236q-.009.257-.023.677c-.011.607-.026,1.454-.045,2.492-.026,2.1-.037,5.011-.007,8.222s.1,6.119.166,8.222c.039,1.038.071,1.884.094,2.491.014.281.026.506.035.677a1.22,1.22,0,0,0,.024.235,1.334,1.334,0,0,0,.009-.236c0-.171,0-.4,0-.678-.01-.606-.023-1.453-.041-2.491-.037-2.1-.085-5.01-.117-8.221s-.038-6.116-.042-8.22c0-1.038-.005-1.885-.007-2.492,0-.281-.007-.507-.009-.678a1.243,1.243,0,0,0-.014-.236" transform="translate(-152.638 -92.141)" fill="#263238"/>
        <path id="Trazado_715474" data-name="Trazado 715474" d="M354.769,200.115l1.263-13.313,5.757-12.915c.314-1.081-1.623-4.181-2.62-4.7l-7.628-3.838-2.209-2.609-2.159,8.37c-.651,2.524-1.075,6.574-1.608,13.244l-.746,14.767a31.221,31.221,0,0,0,.36,6.552l4.048,41.365s13.351,1.741,13.662-.068-8.12-46.851-8.12-46.851" transform="translate(-172.833 -81.577)" fill="#e0e0e0"/>
        <path id="Trazado_715475" data-name="Trazado 715475" d="M365.8,205.51c.07.009.723-4.7,1.458-10.518s1.274-10.542,1.2-10.551-.723,4.7-1.458,10.519-1.274,10.541-1.2,10.55" transform="translate(-183.368 -92.458)" fill="#263238"/>
        <path id="Trazado_715476" data-name="Trazado 715476" d="M352.407,167.853a.616.616,0,0,1,.035.2,5.76,5.76,0,0,1,.035.577,18.361,18.361,0,0,1-.123,2.137c-.1.9-.248,1.983-.437,3.187l-.29,1.9a1,1,0,0,1-.228.525.927.927,0,0,1-.514.284,3.047,3.047,0,0,1-1.1-.031l.124-.215a3.737,3.737,0,0,1,.515,1.878,12.636,12.636,0,0,1-.845,4.622,28.28,28.28,0,0,1-1.536,3.509l-.694,1.3-.572.952-.37.595a.837.837,0,0,1-.145.2.864.864,0,0,1,.1-.226c.089-.169.2-.373.326-.619l.53-.971.656-1.309a31.076,31.076,0,0,0,1.472-3.5,12.72,12.72,0,0,0,.811-4.527,3.607,3.607,0,0,0-.451-1.724l-.173-.264.3.049a2.815,2.815,0,0,0,1,.038.65.65,0,0,0,.547-.593c.108-.66.211-1.294.309-1.9.2-1.2.376-2.273.494-3.17s.18-1.62.2-2.118,0-.772.024-.774" transform="translate(-173.575 -84.142)" fill="#263238"/>
        <path id="Trazado_715477" data-name="Trazado 715477" d="M320.488,165.788c.02.009-.094.259-.251.733s-.356,1.172-.561,2.054-.425,1.944-.66,3.14l-.382,1.883a.651.651,0,0,0,.3.748,2.848,2.848,0,0,0,.952.318l.537.107-.541.154a1.4,1.4,0,0,0-.607.468,3.623,3.623,0,0,0-.41.761,7.742,7.742,0,0,0-.418,2.312,19.63,19.63,0,0,0,.031,2.218c.066.707.117,1.379.219,2,.083.626.17,1.209.275,1.737.179,1.061.368,1.912.492,2.5.052.27.1.5.133.682a.122.122,0,1,1-.052.013l-.182-.671c-.155-.583-.372-1.429-.576-2.491-.117-.527-.215-1.111-.308-1.74-.112-.626-.172-1.3-.245-2.016a19.146,19.146,0,0,1-.048-2.25,7.891,7.891,0,0,1,.43-2.395,2.164,2.164,0,0,1,1.224-1.393l0,.261a3.051,3.051,0,0,1-1.043-.361.929.929,0,0,1-.38-.447.993.993,0,0,1-.029-.571c.14-.653.273-1.281.4-1.878.25-1.193.488-2.256.718-3.135a18.419,18.419,0,0,1,.642-2.044,5.614,5.614,0,0,1,.237-.528c.06-.117.1-.176.1-.173" transform="translate(-159.495 -83.107)" fill="#263238"/>
        <path id="Trazado_715478" data-name="Trazado 715478" d="M377.533,261.975a3.231,3.231,0,0,1-.57.006l-1.6-.054-5.638-.264-.118-.005,0-.119c.066-1.811.141-3.867.22-6.039.163-3.806.309-7.25.418-9.789.065-1.223.118-2.227.157-2.965.022-.325.041-.591.056-.805a1.13,1.13,0,0,1,.037-.28,1.089,1.089,0,0,1,.016.282c0,.214,0,.481-.006.807-.018.739-.043,1.744-.072,2.969-.088,2.54-.207,5.985-.34,9.792-.089,2.172-.173,4.228-.247,6.038l-.114-.125,5.633.361,1.594.122a3.23,3.23,0,0,1,.566.069" transform="translate(-185.28 -121.14)" fill="#263238"/>
        <path id="Trazado_715479" data-name="Trazado 715479" d="M348.682,311.918h25.132a1.3,1.3,0,0,0,1.3-1.3V293.425a1.3,1.3,0,0,0-1.3-1.3H348.682a1.3,1.3,0,0,0-1.3,1.3v17.192a1.3,1.3,0,0,0,1.3,1.3" transform="translate(-174.137 -146.437)" fill="#455a64"/>
        <path id="Trazado_715480" data-name="Trazado 715480" d="M366.871,287.011a.531.531,0,0,1,.675.537c.024.552-.449,4.284-.449,4.284s-1.167,4.151-.851,4.616a.757.757,0,0,0,1.185.055c.159-.217,1.473-3.687,1.473-3.687l.338-1.887s-.677,5.976-.3,6.444a.653.653,0,0,0,1.049.049,13.357,13.357,0,0,0,.534-2.879l.614-3.526-.086,5.725s.07.639.57.66a.86.86,0,0,0,.834-.712l.7-5.93s-.232,3.85.026,4.051c.346.269.662.181.776-.115a37.98,37.98,0,0,0,.569-4.063l.318-6.592.238-1.819-6.327-.325-.016.447a24.921,24.921,0,0,0-2.972,2.565A8.081,8.081,0,0,0,364.81,287Z" transform="translate(-182.874 -141.312)" fill="#ffc09d"/>
        <rect id="Rectángulo_347542" data-name="Rectángulo 347542" width="2.993" height="8.821" transform="translate(171.747 150.134)" fill="#455a64"/>
        <path id="Trazado_715481" data-name="Trazado 715481" d="M343.561,307.934l-2.42-.736-.015,2.931,2.347-.541Z" transform="translate(-171.001 -153.994)" fill="#455a64"/>
        <path id="Trazado_715482" data-name="Trazado 715482" d="M347.07,309.768a9.816,9.816,0,0,1,1.579-.09l-.09.09c-.027-1.093-.044-2.7-.044-4.482,0-1.7.016-3.243.04-4.338l.093.093a11.164,11.164,0,0,1-1.723-.094,11.282,11.282,0,0,1,1.723-.093l.091,0,0,.1c.025,1.1.04,2.635.04,4.338,0,1.784-.017,3.389-.044,4.482l0,.092-.087,0a9.821,9.821,0,0,1-1.579-.09" transform="translate(-173.909 -150.813)" fill="#263238"/>
      </g>
    </g>
  </g>
</svg>
