<svg xmlns="http://www.w3.org/2000/svg" xmlns:xlink="http://www.w3.org/1999/xlink" width="1320" height="507" viewBox="0 0 1320 507">
  <defs>
    <clipPath id="clip-path">
      <rect id="Rectángulo_346465" data-name="Rectángulo 346465" width="1320" height="507" rx="20" transform="translate(144.333 70)" fill="#fceae8"/>
    </clipPath>
    <clipPath id="clip-path-2">
      <rect id="Rectángulo_346464" data-name="Rectángulo 346464" width="1369.035" height="599.53" fill="#008b8a"/>
    </clipPath>
    <clipPath id="clip-path-3">
      <rect id="Rectángulo_33768" data-name="Rectángulo 33768" width="550" height="431" transform="translate(-10438 -12832)" fill="none" stroke="#707070" stroke-width="1"/>
    </clipPath>
  </defs>
  <g id="Grupo_1006697" data-name="Grupo 1006697" transform="translate(-144.333 -71)">
    <path id="Trazado_710606" data-name="Trazado 710606" d="M713,351.75a8.99,8.99,0,1,1-8.992-8.99A8.992,8.992,0,0,1,713,351.75" transform="translate(487.367 203.771)" fill="#3076b6"/>
    <g id="Grupo_1002305" data-name="Grupo 1002305" transform="translate(11218.248 12512.086)">
      <path id="Trazado_99257" data-name="Trazado 99257" d="M416.049,103.656a.918.918,0,1,1-.918-.877A.9.9,0,0,1,416.049,103.656Z" transform="translate(-11447.97 -12119.038)" fill="#3076b6"/>
      <path id="Trazado_99258" data-name="Trazado 99258" d="M424.495,103.656a.918.918,0,1,1-.917-.877A.9.9,0,0,1,424.495,103.656Z" transform="translate(-11448.161 -12119.038)" fill="#3076b6"/>
      <path id="Trazado_99259" data-name="Trazado 99259" d="M432.941,103.656a.918.918,0,1,1-.917-.877A.9.9,0,0,1,432.941,103.656Z" transform="translate(-11448.352 -12119.038)" fill="#3076b6"/>
      <path id="Trazado_99260" data-name="Trazado 99260" d="M441.388,103.656a.918.918,0,1,1-.918-.877A.9.9,0,0,1,441.388,103.656Z" transform="translate(-11448.543 -12119.038)" fill="#3076b6"/>
      <path id="Trazado_99261" data-name="Trazado 99261" d="M449.834,103.656a.918.918,0,1,1-.917-.877A.9.9,0,0,1,449.834,103.656Z" transform="translate(-11448.733 -12119.038)" fill="#3076b6"/>
      <ellipse id="Elipse_3975" data-name="Elipse 3975" cx="0.917" cy="0.877" rx="0.917" ry="0.877" transform="translate(-11033.756 -12009.241)" fill="#3076b6"/>
      <path id="Trazado_99268" data-name="Trazado 99268" d="M424.495,111.164a.918.918,0,1,1-.917-.877A.9.9,0,0,1,424.495,111.164Z" transform="translate(-11448.161 -12119.528)" fill="#3076b6"/>
      <ellipse id="Elipse_3976" data-name="Elipse 3976" cx="0.917" cy="0.877" rx="0.917" ry="0.877" transform="translate(-11017.245 -12009.241)" fill="#3076b6"/>
      <path id="Trazado_99269" data-name="Trazado 99269" d="M441.388,111.164a.918.918,0,1,1-.918-.877A.9.9,0,0,1,441.388,111.164Z" transform="translate(-11448.543 -12119.528)" fill="#3076b6"/>
      <path id="Trazado_99270" data-name="Trazado 99270" d="M449.834,111.164a.918.918,0,1,1-.917-.877A.9.9,0,0,1,449.834,111.164Z" transform="translate(-11448.733 -12119.528)" fill="#3076b6"/>
      <path id="Trazado_99274" data-name="Trazado 99274" d="M416.049,118.672a.918.918,0,1,1-.918-.878A.9.9,0,0,1,416.049,118.672Z" transform="translate(-11447.97 -12120.019)" fill="#3076b6"/>
      <path id="Trazado_99275" data-name="Trazado 99275" d="M424.495,118.672a.918.918,0,1,1-.917-.878A.9.9,0,0,1,424.495,118.672Z" transform="translate(-11448.161 -12120.019)" fill="#3076b6"/>
      <path id="Trazado_99276" data-name="Trazado 99276" d="M432.941,118.672a.918.918,0,1,1-.917-.878A.9.9,0,0,1,432.941,118.672Z" transform="translate(-11448.352 -12120.019)" fill="#3076b6"/>
      <path id="Trazado_99277" data-name="Trazado 99277" d="M441.388,118.672a.918.918,0,1,1-.918-.878A.9.9,0,0,1,441.388,118.672Z" transform="translate(-11448.543 -12120.019)" fill="#3076b6"/>
      <path id="Trazado_99278" data-name="Trazado 99278" d="M449.834,118.672a.918.918,0,1,1-.917-.878A.9.9,0,0,1,449.834,118.672Z" transform="translate(-11448.733 -12120.019)" fill="#3076b6"/>
      <ellipse id="Elipse_3980" data-name="Elipse 3980" cx="0.917" cy="0.877" rx="0.917" ry="0.877" transform="translate(-11033.756 -11995.206)" fill="#3076b6"/>
      <path id="Trazado_99285" data-name="Trazado 99285" d="M424.495,126.18a.918.918,0,1,1-.917-.878A.9.9,0,0,1,424.495,126.18Z" transform="translate(-11448.161 -12120.509)" fill="#3076b6"/>
      <ellipse id="Elipse_3981" data-name="Elipse 3981" cx="0.917" cy="0.877" rx="0.917" ry="0.877" transform="translate(-11017.245 -11995.206)" fill="#3076b6"/>
      <path id="Trazado_99286" data-name="Trazado 99286" d="M441.388,126.18a.918.918,0,1,1-.918-.878A.9.9,0,0,1,441.388,126.18Z" transform="translate(-11448.543 -12120.509)" fill="#3076b6"/>
      <path id="Trazado_99287" data-name="Trazado 99287" d="M449.834,126.18a.918.918,0,1,1-.917-.878A.9.9,0,0,1,449.834,126.18Z" transform="translate(-11448.733 -12120.509)" fill="#3076b6"/>
      <ellipse id="Elipse_3985" data-name="Elipse 3985" cx="0.917" cy="0.877" rx="0.917" ry="0.877" transform="translate(-11033.756 -11988.189)" fill="#3076b6"/>
      <path id="Trazado_99291" data-name="Trazado 99291" d="M424.495,133.688a.918.918,0,1,1-.917-.878A.9.9,0,0,1,424.495,133.688Z" transform="translate(-11448.161 -12120.999)" fill="#3076b6"/>
      <ellipse id="Elipse_3986" data-name="Elipse 3986" cx="0.917" cy="0.877" rx="0.917" ry="0.877" transform="translate(-11017.245 -11988.189)" fill="#3076b6"/>
      <path id="Trazado_99292" data-name="Trazado 99292" d="M441.388,133.688a.918.918,0,1,1-.918-.878A.9.9,0,0,1,441.388,133.688Z" transform="translate(-11448.543 -12120.999)" fill="#3076b6"/>
      <path id="Trazado_99293" data-name="Trazado 99293" d="M449.834,133.688a.918.918,0,1,1-.917-.878A.9.9,0,0,1,449.834,133.688Z" transform="translate(-11448.733 -12120.999)" fill="#3076b6"/>
    </g>
    <rect id="Rectángulo_346463" data-name="Rectángulo 346463" width="1320" height="507" rx="20" transform="translate(144.333 71)" fill="#fceae8"/>
    <path id="Trazado_710607" data-name="Trazado 710607" d="M20,0H1300a20,20,0,0,1,20,20V487a20,20,0,0,1-20,20H20A20,20,0,0,1,0,487V20A20,20,0,0,1,20,0Z" transform="translate(144.333 71)" fill="#efefef"/>
    <g id="Grupo_998582" data-name="Grupo 998582" transform="translate(0 1)" clip-path="url(#clip-path)">
      <g id="Grupo_1002307" data-name="Grupo 1002307" transform="translate(130.266 27.66)">
        <g id="Grupo_1002306" data-name="Grupo 1002306" clip-path="url(#clip-path-2)">
          <path id="Trazado_710608" data-name="Trazado 710608" d="M240.761,109.982a2.6,2.6,0,1,1-2.6,2.6,2.6,2.6,0,0,1,2.6-2.6m-18.483,2.6a2.6,2.6,0,1,0,2.6-2.6,2.6,2.6,0,0,0-2.6,2.6m-15.874,0a2.6,2.6,0,1,0,2.6-2.6,2.6,2.6,0,0,0-2.6,2.6M5.2,96.871a2.585,2.585,0,0,0-.864-1.923c-.385,1.47-.761,2.944-1.1,4.434A2.6,2.6,0,0,0,5.2,96.871m185.324,15.71a2.6,2.6,0,1,0,2.6-2.6,2.6,2.6,0,0,0-2.6,2.6M2.6,115.177a2.6,2.6,0,1,0-1.359-4.806c-.186,1.338-.356,2.678-.5,4.028a2.587,2.587,0,0,0,1.859.778m76.787-2.6a2.6,2.6,0,1,0,2.6-2.6,2.6,2.6,0,0,0-2.6,2.6m47.632,0a2.6,2.6,0,1,0,2.6-2.6,2.6,2.6,0,0,0-2.6,2.6m-15.88,0a2.6,2.6,0,1,0,2.6-2.6,2.6,2.6,0,0,0-2.6,2.6m-15.875,0a2.6,2.6,0,1,0,2.6-2.6,2.6,2.6,0,0,0-2.6,2.6m47.635,0a2.6,2.6,0,1,0,2.6-2.6,2.593,2.593,0,0,0-2.6,2.6m79.379-15.71a2.6,2.6,0,1,0,2.6-2.6,2.607,2.607,0,0,0-2.6,2.6m-63.505,15.71a2.6,2.6,0,1,0,2.6-2.6,2.6,2.6,0,0,0-2.6,2.6m15.877,0a2.6,2.6,0,1,0,2.605-2.6,2.595,2.595,0,0,0-2.605,2.6m15.877-15.71a2.6,2.6,0,1,0,2.6-2.6,2.6,2.6,0,0,0-2.6,2.6m-47.627,0a2.6,2.6,0,1,0,2.6-2.6,2.6,2.6,0,0,0-2.6,2.6m15.874,0a2.6,2.6,0,1,0,2.6-2.6,2.6,2.6,0,0,0-2.6,2.6m-127.017,0a2.6,2.6,0,1,0,2.6-2.6,2.6,2.6,0,0,0-2.6,2.6m174.649,0a2.6,2.6,0,1,0,2.6-2.6,2.6,2.6,0,0,0-2.6,2.6m31.753,0a2.6,2.6,0,1,0,2.6-2.6,2.608,2.608,0,0,0-2.6,2.6m-63.508,0a2.6,2.6,0,1,0,2.605-2.6,2.6,2.6,0,0,0-2.605,2.6m-111.143,0a2.6,2.6,0,1,0,2.6-2.6,2.607,2.607,0,0,0-2.6,2.6m-15.872,0a2.6,2.6,0,1,0,2.6-2.6,2.6,2.6,0,0,0-2.6,2.6m31.753,0a2.6,2.6,0,1,0,2.6-2.6,2.6,2.6,0,0,0-2.6,2.6m47.632,0a2.6,2.6,0,1,0,2.6-2.6,2.6,2.6,0,0,0-2.6,2.6m-31.755,0a2.6,2.6,0,1,0,2.6-2.6,2.6,2.6,0,0,0-2.6,2.6m15.875,0a2.6,2.6,0,1,0,2.6-2.6,2.606,2.606,0,0,0-2.6,2.6m-95.262,0a2.6,2.6,0,1,0,2.6-2.6,2.6,2.6,0,0,0-2.6,2.6m47.629,15.71a2.6,2.6,0,1,0,2.6-2.6,2.6,2.6,0,0,0-2.6,2.6M47.633,128.293a2.6,2.6,0,1,0,2.6-2.6,2.6,2.6,0,0,0-2.6,2.6m-31.756,0a2.6,2.6,0,1,0,2.6-2.6,2.6,2.6,0,0,0-2.6,2.6m47.629,0a2.6,2.6,0,1,0,2.6-2.6,2.6,2.6,0,0,0-2.6,2.6M2.6,146.607a2.6,2.6,0,1,0,0-5.2,2.574,2.574,0,0,0-1.859.784c.144,1.353.313,2.687.5,4.025a2.6,2.6,0,0,0,1.359.394m76.787-18.314a2.6,2.6,0,1,0,2.6-2.6,2.6,2.6,0,0,0-2.6,2.6M174.649,144a2.6,2.6,0,1,0,2.605-2.6,2.6,2.6,0,0,0-2.605,2.6m-79.385-15.71a2.6,2.6,0,1,0,2.6-2.6,2.6,2.6,0,0,0-2.6,2.6M158.772,144a2.6,2.6,0,1,0,2.6-2.6,2.6,2.6,0,0,0-2.6,2.6m63.505,0a2.6,2.6,0,1,0,2.6-2.6,2.607,2.607,0,0,0-2.6,2.6m-31.752,0a2.6,2.6,0,1,0,2.6-2.6,2.6,2.6,0,0,0-2.6,2.6m47.632,0a2.6,2.6,0,1,0,2.6-2.6,2.608,2.608,0,0,0-2.6,2.6M206.4,144a2.6,2.6,0,1,0,2.6-2.6,2.6,2.6,0,0,0-2.6,2.6M31.755,128.293a2.6,2.6,0,1,0,2.6-2.6,2.6,2.6,0,0,0-2.6,2.6M0,128.293a2.6,2.6,0,1,0,2.6-2.6,2.6,2.6,0,0,0-2.6,2.6m15.877-15.712a2.6,2.6,0,1,0,2.6-2.6,2.6,2.6,0,0,0-2.6,2.6m222.28,15.712a2.6,2.6,0,1,0,2.6-2.6,2.6,2.6,0,0,0-2.6,2.6m-15.88,0a2.6,2.6,0,1,0,2.6-2.6,2.6,2.6,0,0,0-2.6,2.6M31.755,112.581a2.6,2.6,0,1,0,2.6-2.6,2.594,2.594,0,0,0-2.6,2.6m15.878,0a2.6,2.6,0,1,0,2.6-2.6,2.6,2.6,0,0,0-2.6,2.6M142.9,128.293a2.6,2.6,0,1,0,2.6-2.6,2.6,2.6,0,0,0-2.6,2.6m15.874,0a2.6,2.6,0,1,0,2.6-2.6,2.6,2.6,0,0,0-2.6,2.6m-47.633,0a2.6,2.6,0,1,0,2.6-2.6,2.6,2.6,0,0,0-2.6,2.6m95.265,0a2.6,2.6,0,1,0,2.6-2.6,2.6,2.6,0,0,0-2.6,2.6m-79.385,0a2.6,2.6,0,1,0,2.6-2.6,2.6,2.6,0,0,0-2.6,2.6m63.507,0a2.6,2.6,0,1,0,2.6-2.6,2.6,2.6,0,0,0-2.6,2.6m-15.877,0a2.6,2.6,0,1,0,2.605-2.6,2.6,2.6,0,0,0-2.605,2.6M79.387,18.314a2.6,2.6,0,1,0,2.6-2.6,2.594,2.594,0,0,0-2.6,2.6M206.4,65.446a2.6,2.6,0,1,0,2.6-2.6,2.592,2.592,0,0,0-2.6,2.6M127.018,34.027a2.6,2.6,0,1,0,2.6-2.6,2.6,2.6,0,0,0-2.6,2.6m-31.755,0a2.6,2.6,0,1,0,2.6-2.6,2.6,2.6,0,0,0-2.6,2.6m15.875,0a2.6,2.6,0,1,0,2.6-2.6,2.6,2.6,0,0,0-2.6,2.6m47.633,0a2.6,2.6,0,1,0,2.6-2.6,2.6,2.6,0,0,0-2.6,2.6m31.753,0a2.6,2.6,0,1,0,2.6-2.6,2.6,2.6,0,0,0-2.6,2.6m21.077,0a2.6,2.6,0,1,0-2.6,2.6,2.6,2.6,0,0,0,2.6-2.6M161.371,5.207a2.6,2.6,0,0,0,2.508-1.95c-1.664-.451-3.333-.881-5.029-1.27a2.749,2.749,0,0,0-.079.618,2.6,2.6,0,0,0,2.6,2.6m79.39,183.326a2.6,2.6,0,1,0,0,5.2,2.4,2.4,0,0,0,.839-.154c.583-.984,1.155-1.979,1.7-2.985a2.6,2.6,0,0,0-2.536-2.063M79.387,34.027a2.6,2.6,0,1,0,2.6-2.6,2.6,2.6,0,0,0-2.6,2.6m95.262,0a2.6,2.6,0,1,0,2.605-2.6,2.6,2.6,0,0,0-2.605,2.6m-127.015,0a2.6,2.6,0,1,0,2.6-2.6,2.6,2.6,0,0,0-2.6,2.6m15.872,0a2.6,2.6,0,1,0,2.6-2.6,2.607,2.607,0,0,0-2.6,2.6m79.393,0a2.6,2.6,0,1,0,2.6-2.6,2.6,2.6,0,0,0-2.6,2.6m47.627-15.713a2.6,2.6,0,1,0,2.6-2.6,2.595,2.595,0,0,0-2.6,2.6M111.139,2.605A2.6,2.6,0,1,0,113.739,0a2.6,2.6,0,0,0-2.6,2.605m63.51,15.709a2.6,2.6,0,1,0,2.605-2.6,2.594,2.594,0,0,0-2.605,2.6m-111.143,0a2.6,2.6,0,1,0,2.6-2.6,2.6,2.6,0,0,0-2.6,2.6M127.018,2.605A2.6,2.6,0,1,0,129.618,0a2.6,2.6,0,0,0-2.6,2.605m15.88,0A2.6,2.6,0,1,0,145.494,0a2.6,2.6,0,0,0-2.6,2.605m-45.037,2.6a2.6,2.6,0,0,0,2.6-2.6,2.143,2.143,0,0,0-.085-.618c-1.691.389-3.356.819-5.017,1.27a2.592,2.592,0,0,0,2.5,1.95m13.278,13.106a2.6,2.6,0,1,0,2.6-2.6,2.6,2.6,0,0,0-2.6,2.6m-15.875,0a2.6,2.6,0,1,0,2.6-2.6,2.6,2.6,0,0,0-2.6,2.6M142.9,144a2.6,2.6,0,1,0,2.6-2.6,2.6,2.6,0,0,0-2.6,2.6m0-125.689a2.6,2.6,0,1,0,2.6-2.6,2.592,2.592,0,0,0-2.6,2.6m15.874,0a2.6,2.6,0,1,0,2.6-2.6,2.594,2.594,0,0,0-2.6,2.6m-31.753,0a2.6,2.6,0,1,0,2.6-2.6,2.594,2.594,0,0,0-2.6,2.6m111.139,62.85a2.6,2.6,0,1,0,2.6-2.6,2.6,2.6,0,0,0-2.6,2.6m-79.385,0a2.6,2.6,0,1,0,2.6-2.6,2.6,2.6,0,0,0-2.6,2.6m-15.874,0a2.6,2.6,0,1,0,2.6-2.6,2.6,2.6,0,0,0-2.6,2.6m31.75,0a2.6,2.6,0,1,0,2.605-2.6,2.6,2.6,0,0,0-2.605,2.6m15.877,0a2.6,2.6,0,1,0,2.6-2.6,2.6,2.6,0,0,0-2.6,2.6m15.878,0a2.6,2.6,0,1,0,2.6-2.6,2.6,2.6,0,0,0-2.6,2.6m-79.385,0a2.6,2.6,0,1,0,2.6-2.6,2.6,2.6,0,0,0-2.6,2.6m-95.263,0a2.6,2.6,0,1,0,2.6-2.6,2.6,2.6,0,0,0-2.6,2.6m15.878,0a2.6,2.6,0,1,0,2.6-2.6,2.6,2.6,0,0,0-2.6,2.6m15.872,0a2.6,2.6,0,1,0,2.6-2.6,2.6,2.6,0,0,0-2.6,2.6m-47.629,0a2.6,2.6,0,1,0,2.6-2.6,2.6,2.6,0,0,0-2.6,2.6m95.262,0a2.6,2.6,0,1,0,2.6-2.6,2.6,2.6,0,0,0-2.6,2.6m-31.752,0a2.6,2.6,0,1,0,2.6-2.6,2.6,2.6,0,0,0-2.6,2.6m15.877,0a2.6,2.6,0,1,0,2.6-2.6,2.6,2.6,0,0,0-2.6,2.6M222.277,65.446a2.6,2.6,0,1,0,2.6-2.6,2.595,2.595,0,0,0-2.6,2.6m-63.505,0a2.6,2.6,0,1,0,2.6-2.6,2.591,2.591,0,0,0-2.6,2.6m-15.874,0a2.6,2.6,0,1,0,2.6-2.6,2.589,2.589,0,0,0-2.6,2.6m79.379,15.718a2.6,2.6,0,1,0,2.6-2.6,2.6,2.6,0,0,0-2.6,2.6M111.139,65.446a2.6,2.6,0,1,0,2.6-2.6,2.594,2.594,0,0,0-2.6,2.6m79.387,0a2.6,2.6,0,1,0,2.6-2.6,2.592,2.592,0,0,0-2.6,2.6m-15.877,0a2.6,2.6,0,1,0,2.605-2.6,2.591,2.591,0,0,0-2.605,2.6m-47.63,0a2.6,2.6,0,1,0,2.6-2.6,2.591,2.591,0,0,0-2.6,2.6m-79.385,0a2.6,2.6,0,1,0,2.6-2.6,2.592,2.592,0,0,0-2.6,2.6m-15.878,0a2.6,2.6,0,1,0,2.6-2.6,2.59,2.59,0,0,0-2.6,2.6m47.632,0a2.6,2.6,0,1,0,2.6-2.6,2.591,2.591,0,0,0-2.6,2.6m-15.881,0a2.6,2.6,0,1,0,2.6-2.6,2.6,2.6,0,0,0-2.6,2.6m31.758,0a2.6,2.6,0,1,0,2.6-2.6,2.593,2.593,0,0,0-2.6,2.6m52.83,172.826a2.6,2.6,0,1,0-2.6,2.6,2.6,2.6,0,0,0,2.6-2.6M68.71,49.737a2.6,2.6,0,1,0-2.6,2.6,2.6,2.6,0,0,0,2.6-2.6m187.925,60.245a2.6,2.6,0,1,0,1.856,4.417c-.142-1.356-.312-2.69-.5-4.028a2.591,2.591,0,0,0-1.358-.389M84.587,49.737a2.6,2.6,0,1,0-2.6,2.6,2.6,2.6,0,0,0,2.6-2.6m15.874,0a2.6,2.6,0,1,0-2.6,2.6,2.6,2.6,0,0,0,2.6-2.6m137.7,15.709a2.6,2.6,0,0,0,5.139.539c-.542-1-1.114-2-1.7-2.985a2.551,2.551,0,0,0-.839-.153,2.6,2.6,0,0,0-2.6,2.6m15.877,31.425a2.6,2.6,0,0,0,1.957,2.511c-.335-1.49-.708-2.964-1.1-4.434a2.582,2.582,0,0,0-.861,1.923M52.833,49.737a2.6,2.6,0,1,0-2.6,2.6,2.6,2.6,0,0,0,2.6-2.6m127.015,0a2.6,2.6,0,1,0-2.595,2.6,2.6,2.6,0,0,0,2.595-2.6m15.877,0a2.6,2.6,0,1,0-2.6,2.6,2.6,2.6,0,0,0,2.6-2.6m15.877,0a2.6,2.6,0,1,0-2.6,2.6,2.6,2.6,0,0,0,2.6-2.6m-47.629,0a2.6,2.6,0,1,0-2.6,2.6,2.6,2.6,0,0,0,2.6-2.6m-31.753,0a2.6,2.6,0,1,0-2.6,2.6,2.6,2.6,0,0,0,2.6-2.6m15.874,0a2.6,2.6,0,1,0-2.6,2.6,2.6,2.6,0,0,0,2.6-2.6m-31.753,0a2.6,2.6,0,1,0-2.6,2.6,2.6,2.6,0,0,0,2.6-2.6m-5.2,157.116a2.6,2.6,0,1,0,2.6-2.605,2.6,2.6,0,0,0-2.6,2.605m15.88,0a2.6,2.6,0,1,0,2.6-2.605,2.6,2.6,0,0,0-2.6,2.605m-31.755,0a2.6,2.6,0,1,0,2.6-2.605,2.6,2.6,0,0,0-2.6,2.605m63.508,0a2.6,2.6,0,1,0,2.6-2.605,2.6,2.6,0,0,0-2.6,2.605m-79.385,0a2.6,2.6,0,1,0,2.6-2.605,2.6,2.6,0,0,0-2.6,2.605m63.511,0a2.6,2.6,0,1,0,2.6-2.605,2.6,2.6,0,0,0-2.6,2.605m113.736-81.161a2.6,2.6,0,1,0,2.6,2.6,2.6,2.6,0,0,0-2.6-2.6M63.505,206.853a2.6,2.6,0,1,0,2.6-2.605,2.606,2.606,0,0,0-2.6,2.605m190.528-47.138a2.578,2.578,0,0,0,.861,1.921c.387-1.467.761-2.944,1.1-4.428a2.586,2.586,0,0,0-1.957,2.507m2.6-18.311a2.6,2.6,0,1,0,1.358,4.809c.186-1.338.356-2.672.5-4.025a2.58,2.58,0,0,0-1.856-.784m-29.159,65.449a2.6,2.6,0,1,0-2.6,2.6,2.6,2.6,0,0,0,2.6-2.6m-195.721,0a2.6,2.6,0,1,0,2.6-2.605,2.6,2.6,0,0,0-2.6,2.605m15.878,0a2.6,2.6,0,1,0,2.6-2.605,2.6,2.6,0,0,0-2.6,2.605m148.092,31.419a2.6,2.6,0,1,0-2.6,2.6,2.6,2.6,0,0,0,2.6-2.6M100.46,222.563a2.6,2.6,0,1,0-2.6,2.6,2.6,2.6,0,0,0,2.6-2.6m15.88,0a2.6,2.6,0,1,0-2.6,2.6,2.608,2.608,0,0,0,2.6-2.6m31.753,0a2.6,2.6,0,1,0-2.6,2.6,2.606,2.606,0,0,0,2.6-2.6m-15.874,0a2.6,2.6,0,1,0-2.6,2.6,2.607,2.607,0,0,0,2.6-2.6m-63.51,0a2.6,2.6,0,1,0-2.6,2.6,2.607,2.607,0,0,0,2.6-2.6m105.939-15.71a2.6,2.6,0,1,0,2.605-2.605,2.6,2.6,0,0,0-2.605,2.605m-90.062,15.71a2.6,2.6,0,1,0-2.6,2.6,2.6,2.6,0,0,0,2.6-2.6m-36.953,0a2.6,2.6,0,1,0,2.6-2.608,2.6,2.6,0,0,0-2.6,2.608m163.969,0a2.6,2.6,0,1,0-2.6,2.6,2.6,2.6,0,0,0,2.6-2.6M100.46,253.985a2.592,2.592,0,0,0-5.1-.662c1.661.453,3.333.889,5.017,1.279a2.158,2.158,0,0,0,.085-.618M127.018,144a2.6,2.6,0,1,0,2.6-2.6,2.6,2.6,0,0,0-2.6,2.6m52.83,78.56a2.6,2.6,0,1,0-2.595,2.6,2.606,2.606,0,0,0,2.595-2.6m-15.875,0a2.6,2.6,0,1,0-2.6,2.6,2.608,2.608,0,0,0,2.6-2.6m-2.6,28.82a2.6,2.6,0,0,0-2.6,2.6,2.772,2.772,0,0,0,.079.618c1.7-.391,3.365-.827,5.029-1.279a2.6,2.6,0,0,0-2.508-1.941m-34.353,2.6a2.6,2.6,0,1,0,2.6-2.6,2.6,2.6,0,0,0-2.6,2.6M227.476,49.737a2.6,2.6,0,1,0-2.6,2.6,2.594,2.594,0,0,0,2.6-2.6M111.139,253.985a2.6,2.6,0,1,0,2.6-2.6,2.6,2.6,0,0,0-2.6,2.6m36.955,0a2.6,2.6,0,1,0-2.6,2.6,2.6,2.6,0,0,0,2.6-2.6m31.755-15.713a2.6,2.6,0,1,0-2.595,2.6,2.6,2.6,0,0,0,2.595-2.6M18.474,68.042A2.6,2.6,0,1,0,17.628,63q-.863,1.485-1.692,2.985a2.6,2.6,0,0,0,2.539,2.057m13.281-18.3a2.6,2.6,0,1,0,2.6-2.6,2.6,2.6,0,0,0-2.6,2.6M132.22,238.272a2.6,2.6,0,1,0-2.6,2.6,2.6,2.6,0,0,0,2.6-2.6m-47.633,0a2.6,2.6,0,1,0-2.6,2.6,2.6,2.6,0,0,0,2.6-2.6m31.753,0a2.6,2.6,0,1,0-2.6,2.6,2.6,2.6,0,0,0,2.6-2.6m47.633,0a2.6,2.6,0,1,0-2.6,2.6,2.6,2.6,0,0,0,2.6-2.6m-63.513,0a2.6,2.6,0,1,0-2.6,2.6,2.6,2.6,0,0,0,2.6-2.6m-31.75,0a2.6,2.6,0,1,0-2.6,2.6,2.6,2.6,0,0,0,2.6-2.6m127.015-15.709a2.6,2.6,0,1,0-2.6,2.6,2.607,2.607,0,0,0,2.6-2.6M79.387,159.715a2.6,2.6,0,1,0,2.6-2.6,2.6,2.6,0,0,0-2.6,2.6m15.877,0a2.6,2.6,0,1,0,2.6-2.6,2.6,2.6,0,0,0-2.6,2.6m-31.758,0a2.6,2.6,0,1,0,2.6-2.6,2.6,2.6,0,0,0-2.6,2.6m63.513,0a2.6,2.6,0,1,0,2.6-2.6,2.6,2.6,0,0,0-2.6,2.6m15.88,0a2.6,2.6,0,1,0,2.6-2.6,2.595,2.595,0,0,0-2.6,2.6m-95.265,0a2.6,2.6,0,1,0,2.6-2.6,2.6,2.6,0,0,0-2.6,2.6m63.505,0a2.6,2.6,0,1,0,2.6-2.6,2.6,2.6,0,0,0-2.6,2.6m111.139,15.71a2.6,2.6,0,1,0,2.6-2.6,2.6,2.6,0,0,0-2.6,2.6M31.755,159.715a2.6,2.6,0,1,0,2.6-2.6,2.6,2.6,0,0,0-2.6,2.6M206.4,175.425a2.6,2.6,0,1,0,2.6-2.6,2.6,2.6,0,0,0-2.6,2.6m31.753,0a2.6,2.6,0,1,0,2.6-2.6,2.6,2.6,0,0,0-2.6,2.6m-222.28-15.71a2.6,2.6,0,1,0,2.6-2.6,2.6,2.6,0,0,0-2.6,2.6m-10.675,0a2.584,2.584,0,0,0-1.962-2.507c.336,1.484.713,2.961,1.1,4.428a2.581,2.581,0,0,0,.864-1.921M31.755,144a2.6,2.6,0,1,0,2.6-2.6,2.6,2.6,0,0,0-2.6,2.6m47.632,0a2.6,2.6,0,1,0,2.6-2.6,2.6,2.6,0,0,0-2.6,2.6m111.139,31.422a2.6,2.6,0,1,0,2.6-2.6,2.6,2.6,0,0,0-2.6,2.6M47.633,144a2.6,2.6,0,1,0,2.6-2.6,2.6,2.6,0,0,0-2.6,2.6m111.139,15.712a2.6,2.6,0,1,0,2.6-2.6,2.6,2.6,0,0,0-2.6,2.6M95.263,144a2.6,2.6,0,1,0,2.6-2.6,2.605,2.605,0,0,0-2.6,2.6m15.875,0a2.6,2.6,0,1,0,2.6-2.6,2.606,2.606,0,0,0-2.6,2.6m-47.633,0a2.6,2.6,0,1,0,2.6-2.6,2.607,2.607,0,0,0-2.6,2.6m127.02,15.712a2.6,2.6,0,1,0,2.6-2.6,2.6,2.6,0,0,0-2.6,2.6m15.878,0a2.6,2.6,0,1,0,2.6-2.6,2.6,2.6,0,0,0-2.6,2.6m-31.755,0a2.6,2.6,0,1,0,2.605-2.6,2.6,2.6,0,0,0-2.605,2.6M15.877,144a2.6,2.6,0,1,0,2.6-2.6,2.605,2.605,0,0,0-2.6,2.6m222.28,15.712a2.6,2.6,0,1,0,2.6-2.6,2.6,2.6,0,0,0-2.6,2.6m-15.88,0a2.6,2.6,0,1,0,2.6-2.6,2.6,2.6,0,0,0-2.6,2.6M206.4,191.137a2.6,2.6,0,1,0,2.6-2.6,2.6,2.6,0,0,0-2.6,2.6m-63.505,0a2.6,2.6,0,1,0,2.6-2.6,2.594,2.594,0,0,0-2.6,2.6m-15.88,0a2.6,2.6,0,1,0,2.6-2.6,2.6,2.6,0,0,0-2.6,2.6m31.753,0a2.6,2.6,0,1,0,2.6-2.6,2.6,2.6,0,0,0-2.6,2.6m-47.633,0a2.6,2.6,0,1,0,2.6-2.6,2.6,2.6,0,0,0-2.6,2.6m63.51,0a2.6,2.6,0,1,0,2.605-2.6,2.6,2.6,0,0,0-2.605,2.6m15.877,0a2.6,2.6,0,1,0,2.6-2.6,2.6,2.6,0,0,0-2.6,2.6m-158.77,0a2.6,2.6,0,1,0,2.6-2.6,2.6,2.6,0,0,0-2.6,2.6m15.878,0a2.6,2.6,0,1,0,2.6-2.6,2.6,2.6,0,0,0-2.6,2.6m47.63,0a2.6,2.6,0,1,0,2.6-2.6,2.6,2.6,0,0,0-2.6,2.6m95.262,15.716a2.6,2.6,0,1,0,2.6-2.605,2.6,2.6,0,0,0-2.6,2.605m31.752-15.716a2.6,2.6,0,1,0,2.6-2.6,2.6,2.6,0,0,0-2.6,2.6m-142.891,0a2.6,2.6,0,1,0,2.6-2.6,2.6,2.6,0,0,0-2.6,2.6m-15.881,0a2.6,2.6,0,1,0,2.6-2.6,2.6,2.6,0,0,0-2.6,2.6m-31.75-15.712a2.6,2.6,0,1,0,2.6-2.6,2.594,2.594,0,0,0-2.6,2.6m95.263,0a2.6,2.6,0,1,0,2.6-2.6,2.6,2.6,0,0,0-2.6,2.6m-15.88,0a2.6,2.6,0,1,0,2.6-2.6,2.6,2.6,0,0,0-2.6,2.6m-15.875,0a2.6,2.6,0,1,0,2.6-2.6,2.6,2.6,0,0,0-2.6,2.6m63.508,0a2.6,2.6,0,1,0,2.6-2.6,2.6,2.6,0,0,0-2.6,2.6m-15.874,0a2.6,2.6,0,1,0,2.6-2.6,2.593,2.593,0,0,0-2.6,2.6m-63.511,0a2.6,2.6,0,1,0,2.6-2.6,2.6,2.6,0,0,0-2.6,2.6M206.4,206.853a2.6,2.6,0,1,0,2.6-2.605,2.6,2.6,0,0,0-2.6,2.605M21.078,191.137a2.6,2.6,0,0,0-5.142-.54q.827,1.51,1.692,2.985a2.46,2.46,0,0,0,.846.154,2.6,2.6,0,0,0,2.6-2.6m-5.2-15.712a2.6,2.6,0,1,0,2.6-2.6,2.6,2.6,0,0,0-2.6,2.6m158.772,0a2.6,2.6,0,1,0,2.605-2.6,2.6,2.6,0,0,0-2.605,2.6m-127.015,0a2.6,2.6,0,1,0,2.6-2.6,2.6,2.6,0,0,0-2.6,2.6m15.872,0a2.6,2.6,0,1,0,2.6-2.6,2.6,2.6,0,0,0-2.6,2.6" transform="translate(-103 -58)" fill="#008f8b"/>
          <path id="Trazado_710609" data-name="Trazado 710609" d="M973.883,336.528a2.6,2.6,0,1,1-2.6,2.6,2.6,2.6,0,0,1,2.6-2.6m-18.482,2.6a2.6,2.6,0,1,0,2.6-2.6,2.6,2.6,0,0,0-2.6,2.6m-15.874,0a2.6,2.6,0,1,0,2.6-2.6,2.595,2.595,0,0,0-2.6,2.6m-201.2-15.71a2.584,2.584,0,0,0-.864-1.921c-.385,1.47-.761,2.943-1.1,4.434a2.6,2.6,0,0,0,1.96-2.513m185.324,15.71a2.6,2.6,0,1,0,2.6-2.6,2.6,2.6,0,0,0-2.6,2.6m-187.926,2.6a2.6,2.6,0,1,0-1.361-4.806c-.185,1.338-.354,2.679-.5,4.028a2.583,2.583,0,0,0,1.859.778m76.786-2.6a2.6,2.6,0,1,0,2.6-2.6,2.6,2.6,0,0,0-2.6,2.6m47.633,0a2.6,2.6,0,1,0,2.6-2.6,2.6,2.6,0,0,0-2.6,2.6m-15.88,0a2.6,2.6,0,1,0,2.6-2.6,2.6,2.6,0,0,0-2.6,2.6m-15.875,0a2.6,2.6,0,1,0,2.6-2.6,2.6,2.6,0,0,0-2.6,2.6m47.635,0a2.6,2.6,0,1,0,2.6-2.6,2.593,2.593,0,0,0-2.6,2.6m79.381-15.71a2.6,2.6,0,1,0,2.6-2.6,2.606,2.606,0,0,0-2.6,2.6M891.9,339.127a2.6,2.6,0,1,0,2.6-2.6,2.594,2.594,0,0,0-2.6,2.6m15.875,0a2.6,2.6,0,1,0,2.605-2.6,2.595,2.595,0,0,0-2.605,2.6m15.877-15.71a2.6,2.6,0,1,0,2.6-2.6,2.6,2.6,0,0,0-2.6,2.6m-47.627,0a2.6,2.6,0,1,0,2.6-2.6,2.6,2.6,0,0,0-2.6,2.6m15.875,0a2.6,2.6,0,1,0,2.6-2.6,2.6,2.6,0,0,0-2.6,2.6m-127.018,0a2.6,2.6,0,1,0,2.6-2.6,2.6,2.6,0,0,0-2.6,2.6m174.65,0a2.6,2.6,0,1,0,2.6-2.6,2.6,2.6,0,0,0-2.6,2.6m31.752,0a2.6,2.6,0,1,0,2.6-2.6,2.608,2.608,0,0,0-2.6,2.6m-63.508,0a2.6,2.6,0,1,0,2.605-2.6,2.6,2.6,0,0,0-2.605,2.6m-111.143,0a2.6,2.6,0,1,0,2.6-2.6,2.607,2.607,0,0,0-2.6,2.6m-15.871,0a2.6,2.6,0,1,0,2.6-2.6,2.6,2.6,0,0,0-2.6,2.6m31.75,0a2.6,2.6,0,1,0,2.6-2.6,2.6,2.6,0,0,0-2.6,2.6m47.633,0a2.6,2.6,0,1,0,2.6-2.6,2.6,2.6,0,0,0-2.6,2.6m-31.755,0a2.6,2.6,0,1,0,2.6-2.6,2.6,2.6,0,0,0-2.6,2.6m15.875,0a2.6,2.6,0,1,0,2.6-2.6,2.606,2.606,0,0,0-2.6,2.6m-95.262,0a2.6,2.6,0,1,0,2.6-2.6,2.6,2.6,0,0,0-2.6,2.6m47.629,15.71a2.6,2.6,0,1,0,2.6-2.6,2.6,2.6,0,0,0-2.6,2.6M780.757,354.84a2.6,2.6,0,1,0,2.6-2.6,2.6,2.6,0,0,0-2.6,2.6m-31.758,0a2.6,2.6,0,1,0,2.6-2.6,2.6,2.6,0,0,0-2.6,2.6m47.629,0a2.6,2.6,0,1,0,2.6-2.6,2.6,2.6,0,0,0-2.6,2.6m-60.906,18.314a2.6,2.6,0,1,0,0-5.2,2.577,2.577,0,0,0-1.859.786c.144,1.352.313,2.686.5,4.024a2.618,2.618,0,0,0,1.361.4m76.786-18.314a2.6,2.6,0,1,0,2.6-2.6,2.6,2.6,0,0,0-2.6,2.6m95.263,15.709a2.6,2.6,0,1,0,2.605-2.6,2.6,2.6,0,0,0-2.605,2.6M828.385,354.84a2.6,2.6,0,1,0,2.6-2.6,2.6,2.6,0,0,0-2.6,2.6m63.51,15.709a2.6,2.6,0,1,0,2.6-2.6,2.6,2.6,0,0,0-2.6,2.6m63.505,0a2.6,2.6,0,1,0,2.6-2.6,2.607,2.607,0,0,0-2.6,2.6m-31.753,0a2.6,2.6,0,1,0,2.6-2.6,2.607,2.607,0,0,0-2.6,2.6m47.632,0a2.6,2.6,0,1,0,2.6-2.6,2.61,2.61,0,0,0-2.6,2.6m-31.752,0a2.6,2.6,0,1,0,2.6-2.6,2.6,2.6,0,0,0-2.6,2.6M764.877,354.84a2.6,2.6,0,1,0,2.6-2.6,2.6,2.6,0,0,0-2.6,2.6m-31.755,0a2.6,2.6,0,1,0,2.6-2.6,2.6,2.6,0,0,0-2.6,2.6M749,339.127a2.6,2.6,0,1,0,2.6-2.6,2.6,2.6,0,0,0-2.6,2.6m222.28,15.713a2.6,2.6,0,1,0,2.6-2.6,2.6,2.6,0,0,0-2.6,2.6m-15.878,0a2.6,2.6,0,1,0,2.6-2.6,2.6,2.6,0,0,0-2.6,2.6M764.877,339.127a2.6,2.6,0,1,0,2.6-2.6,2.594,2.594,0,0,0-2.6,2.6m15.88,0a2.6,2.6,0,1,0,2.6-2.6,2.594,2.594,0,0,0-2.6,2.6M876.02,354.84a2.6,2.6,0,1,0,2.6-2.6,2.6,2.6,0,0,0-2.6,2.6m15.875,0a2.6,2.6,0,1,0,2.6-2.6,2.6,2.6,0,0,0-2.6,2.6m-47.635,0a2.6,2.6,0,1,0,2.6-2.6,2.6,2.6,0,0,0-2.6,2.6m95.266,0a2.6,2.6,0,1,0,2.6-2.6,2.6,2.6,0,0,0-2.6,2.6m-79.387,0a2.6,2.6,0,1,0,2.6-2.6,2.6,2.6,0,0,0-2.6,2.6m63.507,0a2.6,2.6,0,1,0,2.6-2.6,2.6,2.6,0,0,0-2.6,2.6m-15.877,0a2.6,2.6,0,1,0,2.605-2.6,2.6,2.6,0,0,0-2.605,2.6M812.507,244.861a2.6,2.6,0,1,0,2.6-2.6,2.6,2.6,0,0,0-2.6,2.6m127.02,47.132a2.6,2.6,0,1,0,2.6-2.6,2.59,2.59,0,0,0-2.6,2.6M860.14,260.574a2.6,2.6,0,1,0,2.6-2.605,2.6,2.6,0,0,0-2.6,2.605m-31.755,0a2.6,2.6,0,1,0,2.6-2.605,2.605,2.605,0,0,0-2.6,2.605m15.875,0a2.6,2.6,0,1,0,2.6-2.605,2.606,2.606,0,0,0-2.6,2.605m47.635,0a2.6,2.6,0,1,0,2.6-2.605,2.6,2.6,0,0,0-2.6,2.605m31.752,0a2.6,2.6,0,1,0,2.6-2.605,2.605,2.605,0,0,0-2.6,2.605m21.077,0a2.6,2.6,0,1,0-2.6,2.6,2.6,2.6,0,0,0,2.6-2.6m-50.231-28.82A2.6,2.6,0,0,0,897,229.8c-1.664-.451-3.333-.881-5.029-1.27a2.65,2.65,0,0,0-.077.618,2.6,2.6,0,0,0,2.6,2.6m79.39,183.324a2.6,2.6,0,1,0,0,5.2,2.419,2.419,0,0,0,.84-.156c.581-.982,1.154-1.977,1.7-2.985a2.6,2.6,0,0,0-2.536-2.063m-161.376-154.5a2.6,2.6,0,1,0,2.6-2.605,2.6,2.6,0,0,0-2.6,2.605m95.263,0a2.6,2.6,0,1,0,2.605-2.605,2.6,2.6,0,0,0-2.605,2.605m-127.014,0a2.6,2.6,0,1,0,2.6-2.605,2.6,2.6,0,0,0-2.6,2.605m15.871,0a2.6,2.6,0,1,0,2.6-2.605,2.607,2.607,0,0,0-2.6,2.605m79.393,0a2.6,2.6,0,1,0,2.6-2.605,2.6,2.6,0,0,0-2.6,2.605m47.627-15.713a2.6,2.6,0,1,0,2.6-2.6,2.6,2.6,0,0,0-2.6,2.6m-79.387-15.709a2.6,2.6,0,1,0,2.6-2.605,2.6,2.6,0,0,0-2.6,2.605m63.51,15.709a2.6,2.6,0,1,0,2.605-2.6,2.595,2.595,0,0,0-2.605,2.6m-111.143,0a2.6,2.6,0,1,0,2.6-2.6,2.6,2.6,0,0,0-2.6,2.6m63.513-15.709a2.6,2.6,0,1,0,2.6-2.605,2.6,2.6,0,0,0-2.6,2.605m15.88,0a2.6,2.6,0,1,0,2.6-2.605,2.6,2.6,0,0,0-2.6,2.605m-45.037,2.6a2.6,2.6,0,0,0,2.6-2.6,2.186,2.186,0,0,0-.083-.618c-1.692.389-3.356.819-5.018,1.27a2.593,2.593,0,0,0,2.5,1.95m13.278,13.106a2.6,2.6,0,1,0,2.6-2.6,2.6,2.6,0,0,0-2.6,2.6m-15.875,0a2.6,2.6,0,1,0,2.6-2.6,2.6,2.6,0,0,0-2.6,2.6M876.02,370.549a2.6,2.6,0,1,0,2.6-2.6,2.6,2.6,0,0,0-2.6,2.6m0-125.688a2.6,2.6,0,1,0,2.6-2.6,2.593,2.593,0,0,0-2.6,2.6m15.875,0a2.6,2.6,0,1,0,2.6-2.6,2.594,2.594,0,0,0-2.6,2.6m-31.755,0a2.6,2.6,0,1,0,2.6-2.6,2.6,2.6,0,0,0-2.6,2.6m111.139,62.85a2.6,2.6,0,1,0,2.6-2.6,2.6,2.6,0,0,0-2.6,2.6m-79.384,0a2.6,2.6,0,1,0,2.6-2.6,2.6,2.6,0,0,0-2.6,2.6m-15.875,0a2.6,2.6,0,1,0,2.6-2.6,2.6,2.6,0,0,0-2.6,2.6m31.75,0a2.6,2.6,0,1,0,2.605-2.6,2.6,2.6,0,0,0-2.605,2.6m15.877,0a2.6,2.6,0,1,0,2.6-2.6,2.6,2.6,0,0,0-2.6,2.6m15.88,0a2.6,2.6,0,1,0,2.6-2.6,2.6,2.6,0,0,0-2.6,2.6m-79.387,0a2.6,2.6,0,1,0,2.6-2.6,2.6,2.6,0,0,0-2.6,2.6m-95.263,0a2.6,2.6,0,1,0,2.6-2.6,2.6,2.6,0,0,0-2.6,2.6m15.88,0a2.6,2.6,0,1,0,2.6-2.6,2.6,2.6,0,0,0-2.6,2.6m15.871,0a2.6,2.6,0,1,0,2.6-2.6,2.6,2.6,0,0,0-2.6,2.6m-47.629,0a2.6,2.6,0,1,0,2.6-2.6,2.6,2.6,0,0,0-2.6,2.6m95.262,0a2.6,2.6,0,1,0,2.6-2.6,2.6,2.6,0,0,0-2.6,2.6m-31.753,0a2.6,2.6,0,1,0,2.6-2.6,2.6,2.6,0,0,0-2.6,2.6m15.878,0a2.6,2.6,0,1,0,2.6-2.6,2.6,2.6,0,0,0-2.6,2.6M955.4,291.993a2.6,2.6,0,1,0,2.6-2.6,2.592,2.592,0,0,0-2.6,2.6m-63.505,0a2.6,2.6,0,1,0,2.6-2.6,2.589,2.589,0,0,0-2.6,2.6m-15.875,0a2.6,2.6,0,1,0,2.6-2.6,2.588,2.588,0,0,0-2.6,2.6M955.4,307.711a2.6,2.6,0,1,0,2.6-2.6,2.6,2.6,0,0,0-2.6,2.6m-111.14-15.718a2.6,2.6,0,1,0,2.6-2.6,2.593,2.593,0,0,0-2.6,2.6m79.387,0a2.6,2.6,0,1,0,2.6-2.6,2.592,2.592,0,0,0-2.6,2.6m-15.877,0a2.6,2.6,0,1,0,2.605-2.6,2.589,2.589,0,0,0-2.605,2.6m-47.63,0a2.6,2.6,0,1,0,2.6-2.6,2.591,2.591,0,0,0-2.6,2.6m-79.384,0a2.6,2.6,0,1,0,2.6-2.6,2.589,2.589,0,0,0-2.6,2.6m-15.88,0a2.6,2.6,0,1,0,2.6-2.6,2.588,2.588,0,0,0-2.6,2.6m47.63,0a2.6,2.6,0,1,0,2.6-2.6,2.591,2.591,0,0,0-2.6,2.6m-15.88,0a2.6,2.6,0,1,0,2.6-2.6,2.594,2.594,0,0,0-2.6,2.6m31.758,0a2.6,2.6,0,1,0,2.6-2.6,2.592,2.592,0,0,0-2.6,2.6m52.83,172.826a2.6,2.6,0,1,0-2.6,2.6,2.6,2.6,0,0,0,2.6-2.6M801.832,276.284a2.6,2.6,0,1,0-2.6,2.6,2.6,2.6,0,0,0,2.6-2.6m187.923,60.243a2.6,2.6,0,1,0,1.859,4.417c-.144-1.355-.312-2.69-.5-4.028a2.6,2.6,0,0,0-1.361-.389M817.709,276.284a2.6,2.6,0,1,0-2.6,2.6,2.6,2.6,0,0,0,2.6-2.6m15.874,0a2.6,2.6,0,1,0-2.6,2.6,2.595,2.595,0,0,0,2.6-2.6m137.7,15.709a2.6,2.6,0,0,0,5.139.537c-.542-1-1.114-2-1.7-2.985a2.574,2.574,0,0,0-3.444,2.448m15.877,31.423a2.605,2.605,0,0,0,1.957,2.513c-.335-1.491-.707-2.964-1.094-4.434a2.577,2.577,0,0,0-.863,1.921m-201.2-47.132a2.6,2.6,0,1,0-2.6,2.6,2.6,2.6,0,0,0,2.6-2.6m127.017,0a2.6,2.6,0,1,0-2.6,2.6,2.6,2.6,0,0,0,2.6-2.6m15.877,0a2.6,2.6,0,1,0-2.6,2.6,2.6,2.6,0,0,0,2.6-2.6m15.875,0a2.6,2.6,0,1,0-2.6,2.6,2.6,2.6,0,0,0,2.6-2.6m-47.63,0a2.6,2.6,0,1,0-2.6,2.6,2.6,2.6,0,0,0,2.6-2.6m-31.75,0a2.6,2.6,0,1,0-2.6,2.6,2.6,2.6,0,0,0,2.6-2.6m15.872,0a2.6,2.6,0,1,0-2.6,2.6,2.6,2.6,0,0,0,2.6-2.6m-31.753,0a2.6,2.6,0,1,0-2.6,2.6,2.6,2.6,0,0,0,2.6-2.6m-5.2,157.116a2.6,2.6,0,1,0,2.6-2.605,2.6,2.6,0,0,0-2.6,2.605m15.88,0a2.6,2.6,0,1,0,2.6-2.605,2.6,2.6,0,0,0-2.6,2.605m-31.755,0a2.6,2.6,0,1,0,2.6-2.605,2.6,2.6,0,0,0-2.6,2.605m63.51,0a2.6,2.6,0,1,0,2.6-2.605,2.6,2.6,0,0,0-2.6,2.605m-79.388,0a2.6,2.6,0,1,0,2.6-2.605,2.6,2.6,0,0,0-2.6,2.605m63.513,0a2.6,2.6,0,1,0,2.6-2.605,2.6,2.6,0,0,0-2.6,2.605m113.735-81.162a2.6,2.6,0,1,0,2.6,2.6,2.6,2.6,0,0,0-2.6-2.6M796.627,433.4a2.6,2.6,0,1,0,2.6-2.605,2.6,2.6,0,0,0-2.6,2.605m190.528-47.138a2.575,2.575,0,0,0,.863,1.921c.388-1.467.76-2.946,1.094-4.429a2.588,2.588,0,0,0-1.957,2.508m2.6-18.312a2.6,2.6,0,1,0,1.361,4.809c.186-1.338.354-2.672.5-4.024a2.588,2.588,0,0,0-1.859-.786M960.6,433.4A2.6,2.6,0,1,0,958,436a2.6,2.6,0,0,0,2.595-2.6m-195.719,0a2.6,2.6,0,1,0,2.6-2.605,2.6,2.6,0,0,0-2.6,2.605m15.88,0a2.6,2.6,0,1,0,2.6-2.605,2.6,2.6,0,0,0-2.6,2.605m148.092,31.419a2.6,2.6,0,1,0-2.6,2.6,2.6,2.6,0,0,0,2.6-2.6m-95.266-15.71a2.6,2.6,0,1,0-2.6,2.6,2.6,2.6,0,0,0,2.6-2.6m15.88,0a2.6,2.6,0,1,0-2.6,2.6,2.607,2.607,0,0,0,2.6-2.6m31.753,0a2.6,2.6,0,1,0-2.6,2.6,2.605,2.605,0,0,0,2.6-2.6m-15.872,0a2.6,2.6,0,1,0-2.6,2.6,2.608,2.608,0,0,0,2.6-2.6m-63.512,0a2.6,2.6,0,1,0-2.6,2.6,2.607,2.607,0,0,0,2.6-2.6M907.77,433.4a2.6,2.6,0,1,0,2.605-2.605,2.6,2.6,0,0,0-2.605,2.605m-90.062,15.709a2.6,2.6,0,1,0-2.6,2.6,2.606,2.606,0,0,0,2.6-2.6m-36.952,0a2.6,2.6,0,1,0,2.6-2.608,2.6,2.6,0,0,0-2.6,2.608m163.967,0a2.6,2.6,0,1,0-2.6,2.6,2.6,2.6,0,0,0,2.6-2.6M833.582,480.532a2.593,2.593,0,0,0-5.1-.663c1.662.454,3.333.89,5.018,1.279a2.2,2.2,0,0,0,.083-.616M860.14,370.549a2.6,2.6,0,1,0,2.6-2.6,2.606,2.606,0,0,0-2.6,2.6m52.832,78.56a2.6,2.6,0,1,0-2.6,2.6,2.607,2.607,0,0,0,2.6-2.6m-15.878,0a2.6,2.6,0,1,0-2.6,2.6,2.606,2.606,0,0,0,2.6-2.6m-2.6,28.821a2.594,2.594,0,0,0-2.6,2.6,2.668,2.668,0,0,0,.077.616c1.7-.389,3.365-.825,5.029-1.279a2.6,2.6,0,0,0-2.508-1.939m-34.353,2.6a2.6,2.6,0,1,0,2.6-2.6,2.6,2.6,0,0,0-2.6,2.6M960.6,276.284a2.6,2.6,0,1,0-2.595,2.6,2.593,2.593,0,0,0,2.595-2.6M844.261,480.532a2.6,2.6,0,1,0,2.6-2.6,2.6,2.6,0,0,0-2.6,2.6m36.955,0a2.6,2.6,0,1,0-2.6,2.6,2.6,2.6,0,0,0,2.6-2.6m31.757-15.713a2.6,2.6,0,1,0-2.6,2.6,2.6,2.6,0,0,0,2.6-2.6M751.6,294.588a2.6,2.6,0,1,0,0-5.194,2.668,2.668,0,0,0-.848.151q-.863,1.485-1.691,2.985a2.594,2.594,0,0,0,2.539,2.057m13.281-18.3a2.6,2.6,0,1,0,2.6-2.6,2.6,2.6,0,0,0-2.6,2.6M865.343,464.819a2.6,2.6,0,1,0-2.6,2.6,2.6,2.6,0,0,0,2.6-2.6m-47.635,0a2.6,2.6,0,1,0-2.6,2.6,2.6,2.6,0,0,0,2.6-2.6m31.753,0a2.6,2.6,0,1,0-2.6,2.6,2.6,2.6,0,0,0,2.6-2.6m47.632,0a2.6,2.6,0,1,0-2.6,2.6,2.6,2.6,0,0,0,2.6-2.6m-63.512,0a2.6,2.6,0,1,0-2.6,2.6,2.6,2.6,0,0,0,2.6-2.6m-31.75,0a2.6,2.6,0,1,0-2.6,2.6,2.6,2.6,0,0,0,2.6-2.6m127.017-15.71a2.6,2.6,0,1,0-2.6,2.6,2.607,2.607,0,0,0,2.6-2.6M812.507,386.262a2.6,2.6,0,1,0,2.6-2.605,2.6,2.6,0,0,0-2.6,2.605m15.878,0a2.6,2.6,0,1,0,2.6-2.605,2.6,2.6,0,0,0-2.6,2.605m-31.758,0a2.6,2.6,0,1,0,2.6-2.605,2.6,2.6,0,0,0-2.6,2.605m63.513,0a2.6,2.6,0,1,0,2.6-2.605,2.6,2.6,0,0,0-2.6,2.605m15.88,0a2.6,2.6,0,1,0,2.6-2.605,2.6,2.6,0,0,0-2.6,2.605m-95.263,0a2.6,2.6,0,1,0,2.6-2.605,2.6,2.6,0,0,0-2.6,2.605m63.5,0a2.6,2.6,0,1,0,2.6-2.605,2.6,2.6,0,0,0-2.6,2.605m111.14,15.71a2.6,2.6,0,1,0,2.6-2.6,2.6,2.6,0,0,0-2.6,2.6m-190.524-15.71a2.6,2.6,0,1,0,2.6-2.605,2.6,2.6,0,0,0-2.6,2.605m174.65,15.71a2.6,2.6,0,1,0,2.6-2.6,2.6,2.6,0,0,0-2.6,2.6m31.752,0a2.6,2.6,0,1,0,2.6-2.6,2.6,2.6,0,0,0-2.6,2.6M749,386.262a2.6,2.6,0,1,0,2.6-2.605,2.6,2.6,0,0,0-2.6,2.605m-10.675,0a2.583,2.583,0,0,0-1.96-2.508c.335,1.483.711,2.962,1.1,4.429a2.581,2.581,0,0,0,.864-1.921m26.554-15.713a2.6,2.6,0,1,0,2.6-2.6,2.6,2.6,0,0,0-2.6,2.6m47.63,0a2.6,2.6,0,1,0,2.6-2.6,2.606,2.606,0,0,0-2.6,2.6m111.14,31.423a2.6,2.6,0,1,0,2.6-2.6,2.6,2.6,0,0,0-2.6,2.6M780.757,370.549a2.6,2.6,0,1,0,2.6-2.6,2.6,2.6,0,0,0-2.6,2.6M891.9,386.262a2.6,2.6,0,1,0,2.6-2.605,2.6,2.6,0,0,0-2.6,2.605m-63.51-15.713a2.6,2.6,0,1,0,2.6-2.6,2.607,2.607,0,0,0-2.6,2.6m15.875,0a2.6,2.6,0,1,0,2.6-2.6,2.608,2.608,0,0,0-2.6,2.6m-47.633,0a2.6,2.6,0,1,0,2.6-2.6,2.609,2.609,0,0,0-2.6,2.6m127.02,15.713a2.6,2.6,0,1,0,2.6-2.605,2.6,2.6,0,0,0-2.6,2.605m15.88,0a2.6,2.6,0,1,0,2.6-2.605,2.6,2.6,0,0,0-2.6,2.605m-31.757,0a2.6,2.6,0,1,0,2.605-2.605,2.6,2.6,0,0,0-2.605,2.605M749,370.549a2.6,2.6,0,1,0,2.6-2.6,2.607,2.607,0,0,0-2.6,2.6m222.28,15.713a2.6,2.6,0,1,0,2.6-2.605,2.6,2.6,0,0,0-2.6,2.605m-15.878,0a2.6,2.6,0,1,0,2.6-2.605,2.6,2.6,0,0,0-2.6,2.605m-15.874,31.422a2.6,2.6,0,1,0,2.6-2.605,2.6,2.6,0,0,0-2.6,2.605m-63.507,0a2.6,2.6,0,1,0,2.6-2.605,2.6,2.6,0,0,0-2.6,2.605m-15.88,0a2.6,2.6,0,1,0,2.6-2.605,2.6,2.6,0,0,0-2.6,2.605m31.755,0a2.6,2.6,0,1,0,2.6-2.605,2.6,2.6,0,0,0-2.6,2.605m-47.635,0a2.6,2.6,0,1,0,2.6-2.605,2.6,2.6,0,0,0-2.6,2.605m63.51,0a2.6,2.6,0,1,0,2.605-2.605,2.6,2.6,0,0,0-2.605,2.605m15.877,0a2.6,2.6,0,1,0,2.6-2.605,2.6,2.6,0,0,0-2.6,2.605m-158.77,0a2.6,2.6,0,1,0,2.6-2.605,2.6,2.6,0,0,0-2.6,2.605m15.88,0a2.6,2.6,0,1,0,2.6-2.605,2.6,2.6,0,0,0-2.6,2.605m47.629,0a2.6,2.6,0,1,0,2.6-2.605,2.6,2.6,0,0,0-2.6,2.605M923.647,433.4a2.6,2.6,0,1,0,2.6-2.605,2.6,2.6,0,0,0-2.6,2.605M955.4,417.684a2.6,2.6,0,1,0,2.6-2.605,2.6,2.6,0,0,0-2.6,2.605m-142.894,0a2.6,2.6,0,1,0,2.6-2.605,2.6,2.6,0,0,0-2.6,2.605m-15.88,0a2.6,2.6,0,1,0,2.6-2.605,2.6,2.6,0,0,0-2.6,2.605m-31.75-15.712a2.6,2.6,0,1,0,2.6-2.6,2.594,2.594,0,0,0-2.6,2.6m95.263,0a2.6,2.6,0,1,0,2.6-2.6,2.6,2.6,0,0,0-2.6,2.6m-15.88,0a2.6,2.6,0,1,0,2.6-2.6,2.6,2.6,0,0,0-2.6,2.6m-15.875,0a2.6,2.6,0,1,0,2.6-2.6,2.6,2.6,0,0,0-2.6,2.6m63.51,0a2.6,2.6,0,1,0,2.6-2.6,2.594,2.594,0,0,0-2.6,2.6m-15.875,0a2.6,2.6,0,1,0,2.6-2.6,2.593,2.593,0,0,0-2.6,2.6m-63.513,0a2.6,2.6,0,1,0,2.6-2.6,2.6,2.6,0,0,0-2.6,2.6M939.527,433.4a2.6,2.6,0,1,0,2.6-2.605,2.6,2.6,0,0,0-2.6,2.605M754.2,417.684a2.6,2.6,0,0,0-5.142-.542q.827,1.512,1.691,2.985a2.477,2.477,0,0,0,.848.156,2.6,2.6,0,0,0,2.6-2.6M749,401.972a2.6,2.6,0,1,0,2.6-2.6,2.6,2.6,0,0,0-2.6,2.6m158.772,0a2.6,2.6,0,1,0,2.605-2.6,2.595,2.595,0,0,0-2.605,2.6m-127.014,0a2.6,2.6,0,1,0,2.6-2.6,2.594,2.594,0,0,0-2.6,2.6m15.871,0a2.6,2.6,0,1,0,2.6-2.6,2.6,2.6,0,0,0-2.6,2.6" transform="translate(379.678 119.4)" fill="#00b4f6"/>
          <path id="Trazado_710610" data-name="Trazado 710610" d="M522.025,98.195c-4.2,0-6.256-3.218-8.062-6.052-1.644-2.577-3.062-4.8-5.778-4.8s-4.133,2.224-5.774,4.8c-1.81,2.834-3.862,6.052-8.066,6.052s-6.25-3.218-8.061-6.052c-1.641-2.577-3.061-4.8-5.774-4.8s-4.136,2.224-5.778,4.8c-1.811,2.834-3.857,6.052-8.062,6.052s-6.255-3.218-8.064-6.052c-1.642-2.577-3.058-4.8-5.775-4.8a1.357,1.357,0,0,1,0-2.714c4.2,0,6.258,3.218,8.064,6.054,1.642,2.578,3.061,4.8,5.775,4.8s4.134-2.222,5.777-4.8c1.807-2.835,3.859-6.054,8.064-6.054s6.253,3.218,8.059,6.054c1.643,2.578,3.062,4.8,5.775,4.8s4.134-2.222,5.777-4.8c1.808-2.835,3.86-6.054,8.063-6.054s6.254,3.218,8.064,6.054c1.641,2.578,3.059,4.8,5.777,4.8a1.356,1.356,0,0,1,0,2.713m-27,21.252a1.355,1.355,0,0,0-1.356-1.356c-2.714,0-4.131-2.224-5.775-4.8-1.808-2.838-3.859-6.055-8.062-6.055s-6.254,3.217-8.062,6.055c-1.641,2.575-3.059,4.8-5.775,4.8s-4.133-2.224-5.775-4.8c-1.811-2.838-3.86-6.055-8.064-6.055a1.357,1.357,0,0,0,0,2.714c2.717,0,4.134,2.224,5.777,4.8,1.807,2.835,3.857,6.052,8.063,6.052s6.255-3.217,8.063-6.052c1.641-2.576,3.059-4.8,5.775-4.8s4.133,2.224,5.777,4.8c1.809,2.835,3.859,6.052,8.061,6.052a1.355,1.355,0,0,0,1.356-1.356" transform="translate(200.18 341.912)" fill="#3076b6"/>
          <path id="Trazado_710625" data-name="Trazado 710625" d="M522.025,98.195c-4.2,0-6.256-3.218-8.062-6.052-1.644-2.577-3.062-4.8-5.778-4.8s-4.133,2.224-5.774,4.8c-1.81,2.834-3.862,6.052-8.066,6.052s-6.25-3.218-8.061-6.052c-1.641-2.577-3.061-4.8-5.774-4.8s-4.136,2.224-5.778,4.8c-1.811,2.834-3.857,6.052-8.062,6.052s-6.255-3.218-8.064-6.052c-1.642-2.577-3.058-4.8-5.775-4.8a1.357,1.357,0,0,1,0-2.714c4.2,0,6.258,3.218,8.064,6.054,1.642,2.578,3.061,4.8,5.775,4.8s4.134-2.222,5.777-4.8c1.807-2.835,3.859-6.054,8.064-6.054s6.253,3.218,8.059,6.054c1.643,2.578,3.062,4.8,5.775,4.8s4.134-2.222,5.777-4.8c1.808-2.835,3.86-6.054,8.063-6.054s6.254,3.218,8.064,6.054c1.641,2.578,3.059,4.8,5.777,4.8a1.356,1.356,0,0,1,0,2.713m-27,21.252a1.355,1.355,0,0,0-1.356-1.356c-2.714,0-4.131-2.224-5.775-4.8-1.808-2.838-3.859-6.055-8.062-6.055s-6.254,3.217-8.062,6.055c-1.641,2.575-3.059,4.8-5.775,4.8s-4.133-2.224-5.775-4.8c-1.811-2.838-3.86-6.055-8.064-6.055a1.357,1.357,0,0,0,0,2.714c2.717,0,4.134,2.224,5.777,4.8,1.807,2.835,3.857,6.052,8.063,6.052s6.255-3.217,8.063-6.052c1.641-2.576,3.059-4.8,5.775-4.8s4.133,2.224,5.777,4.8c1.809,2.835,3.859,6.052,8.061,6.052a1.355,1.355,0,0,0,1.356-1.356" transform="translate(776.18 127.912)" fill="#008b8a"/>
          <path id="Trazado_710611" data-name="Trazado 710611" d="M148.774,338.509c-4.205,0-6.257-3.217-8.064-6.051-1.644-2.578-3.061-4.8-5.777-4.8s-4.134,2.224-5.775,4.8c-1.811,2.834-3.86,6.051-8.066,6.051s-6.25-3.217-8.059-6.051c-1.642-2.578-3.062-4.8-5.775-4.8s-4.134,2.224-5.778,4.8c-1.809,2.834-3.857,6.051-8.063,6.051s-6.254-3.217-8.062-6.051c-1.642-2.578-3.058-4.8-5.775-4.8a1.356,1.356,0,0,1,0-2.713c4.2,0,6.257,3.217,8.064,6.054,1.641,2.577,3.059,4.8,5.774,4.8s4.136-2.222,5.777-4.8c1.809-2.837,3.859-6.054,8.064-6.054s6.255,3.217,8.061,6.054c1.642,2.577,3.061,4.8,5.774,4.8s4.136-2.222,5.778-4.8c1.807-2.837,3.86-6.054,8.063-6.054S141.187,328.161,143,331c1.641,2.577,3.059,4.8,5.777,4.8a1.356,1.356,0,0,1,0,2.713m-27,21.252a1.356,1.356,0,0,0-1.356-1.355c-2.716,0-4.133-2.225-5.775-4.8-1.809-2.837-3.859-6.055-8.064-6.055s-6.254,3.218-8.061,6.055c-1.642,2.575-3.061,4.8-5.777,4.8s-4.131-2.225-5.775-4.8c-1.807-2.837-3.86-6.055-8.064-6.055a1.358,1.358,0,0,0,0,2.716c2.717,0,4.136,2.222,5.777,4.8,1.809,2.834,3.859,6.051,8.063,6.051S99,357.9,100.8,355.067c1.641-2.578,3.059-4.8,5.774-4.8s4.134,2.222,5.778,4.8c1.809,2.834,3.859,6.051,8.061,6.051a1.356,1.356,0,0,0,1.356-1.356" transform="translate(39.843 166.956)" fill="#008b8a"/>
          <path id="Trazado_710612" data-name="Trazado 710612" d="M812.2,201.256c-4.205,0-6.258-3.218-8.064-6.052-1.644-2.576-3.062-4.8-5.778-4.8s-4.133,2.224-5.774,4.8c-1.81,2.834-3.862,6.052-8.065,6.052s-6.25-3.218-8.061-6.052c-1.641-2.576-3.061-4.8-5.773-4.8s-4.136,2.224-5.778,4.8c-1.811,2.834-3.857,6.052-8.062,6.052s-6.255-3.218-8.064-6.052c-1.642-2.576-3.058-4.8-5.775-4.8a1.357,1.357,0,0,1,0-2.714c4.2,0,6.258,3.218,8.064,6.054,1.643,2.577,3.061,4.8,5.775,4.8s4.134-2.224,5.777-4.8c1.808-2.835,3.859-6.054,8.064-6.054s6.253,3.218,8.059,6.054c1.643,2.577,3.063,4.8,5.775,4.8s4.134-2.224,5.777-4.8c1.807-2.835,3.86-6.054,8.063-6.054s6.253,3.218,8.065,6.054c1.641,2.577,3.058,4.8,5.777,4.8a1.356,1.356,0,0,1,0,2.713m-27,21.252a1.355,1.355,0,0,0-1.355-1.356c-2.716,0-4.133-2.224-5.777-4.8-1.807-2.837-3.859-6.054-8.062-6.054s-6.253,3.217-8.062,6.054c-1.641,2.576-3.059,4.8-5.775,4.8s-4.133-2.224-5.775-4.8c-1.809-2.837-3.86-6.054-8.064-6.054a1.357,1.357,0,0,0,0,2.714c2.717,0,4.134,2.224,5.777,4.8,1.808,2.835,3.857,6.052,8.063,6.052s6.255-3.217,8.063-6.052c1.641-2.576,3.059-4.8,5.775-4.8s4.133,2.224,5.776,4.8c1.811,2.835,3.859,6.052,8.063,6.052a1.355,1.355,0,0,0,1.355-1.356" transform="translate(380.709 122.082)" fill="#008b8a"/>
          <path id="Trazado_710614" data-name="Trazado 710614" d="M138.145,280.706a3.738,3.738,0,1,0-3.738-3.741,3.737,3.737,0,0,0,3.738,3.741m-14.717,0a3.738,3.738,0,1,0-3.738-3.741,3.737,3.737,0,0,0,3.738,3.741m14.717-15.768a3.738,3.738,0,1,0-3.738-3.741,3.737,3.737,0,0,0,3.738,3.741m-14.717,0a3.738,3.738,0,1,0-3.738-3.741,3.737,3.737,0,0,0,3.738,3.741m14.717-15.768a3.738,3.738,0,1,0-3.738-3.741,3.737,3.737,0,0,0,3.738,3.741m-14.717,0a3.738,3.738,0,1,0-3.738-3.741,3.737,3.737,0,0,0,3.738,3.741M138.145,233.4a3.738,3.738,0,1,0-3.738-3.741,3.736,3.736,0,0,0,3.738,3.741m-14.717,0a3.738,3.738,0,1,0-3.738-3.741,3.736,3.736,0,0,0,3.738,3.741" transform="translate(301.879 -166.784)" fill="#008b8a"/>
          <path id="Trazado_710616" data-name="Trazado 710616" d="M256.2,93.739a8.99,8.99,0,1,1-8.99-8.99,8.99,8.99,0,0,1,8.99,8.99" transform="translate(383.398 29.173)" fill="#3076b6"/>
          <path id="Trazado_710620" data-name="Trazado 710620" d="M80.112,257.106a5.245,5.245,0,1,1-5.244-5.244,5.246,5.246,0,0,1,5.244,5.244" transform="translate(-31.006 113.99)" fill="#008b8a"/>
          <path id="Trazado_710621" data-name="Trazado 710621" d="M659.166,108.061a8.522,8.522,0,1,1,8.523-8.521,8.532,8.532,0,0,1-8.523,8.521m0-11.861a3.339,3.339,0,1,0,3.339,3.339,3.344,3.344,0,0,0-3.339-3.339" transform="translate(334.3 46.765)" fill="#008b8a"/>
          <path id="Trazado_710623" data-name="Trazado 710623" d="M206.966,199.044a8.522,8.522,0,1,1,8.521-8.521,8.531,8.531,0,0,1-8.521,8.521m0-11.861a3.339,3.339,0,1,0,3.339,3.339,3.344,3.344,0,0,0-3.339-3.339" transform="translate(986.289 22.018)" fill="#008b8a"/>
          <path id="Trazado_710624" data-name="Trazado 710624" d="M193.769,352.135a8.522,8.522,0,1,1,8.521-8.521,8.531,8.531,0,0,1-8.521,8.521m0-11.861a3.339,3.339,0,1,0,3.336,3.339,3.344,3.344,0,0,0-3.336-3.339" transform="translate(258.515 119.103)" fill="#3076b6"/>
        </g>
      </g>
    </g>
    <g id="Grupo_1002308" data-name="Grupo 1002308" transform="translate(11218.248 12524.086)">
      <path id="Trazado_99257-2" data-name="Trazado 99257" d="M416.049,103.656a.918.918,0,1,1-.918-.877A.9.9,0,0,1,416.049,103.656Z" transform="translate(-11447.97 -12119.038)" fill="#3076b6"/>
      <path id="Trazado_99258-2" data-name="Trazado 99258" d="M424.495,103.656a.918.918,0,1,1-.917-.877A.9.9,0,0,1,424.495,103.656Z" transform="translate(-11448.161 -12119.038)" fill="#3076b6"/>
      <path id="Trazado_99259-2" data-name="Trazado 99259" d="M432.941,103.656a.918.918,0,1,1-.917-.877A.9.9,0,0,1,432.941,103.656Z" transform="translate(-11448.352 -12119.038)" fill="#3076b6"/>
      <path id="Trazado_99260-2" data-name="Trazado 99260" d="M441.388,103.656a.918.918,0,1,1-.918-.877A.9.9,0,0,1,441.388,103.656Z" transform="translate(-11448.543 -12119.038)" fill="#3076b6"/>
      <path id="Trazado_99261-2" data-name="Trazado 99261" d="M449.834,103.656a.918.918,0,1,1-.917-.877A.9.9,0,0,1,449.834,103.656Z" transform="translate(-11448.733 -12119.038)" fill="#3076b6"/>
      <ellipse id="Elipse_3975-2" data-name="Elipse 3975" cx="0.917" cy="0.877" rx="0.917" ry="0.877" transform="translate(-11033.756 -12009.241)" fill="#3076b6"/>
      <path id="Trazado_99268-2" data-name="Trazado 99268" d="M424.495,111.164a.918.918,0,1,1-.917-.877A.9.9,0,0,1,424.495,111.164Z" transform="translate(-11448.161 -12119.528)" fill="#3076b6"/>
      <ellipse id="Elipse_3976-2" data-name="Elipse 3976" cx="0.917" cy="0.877" rx="0.917" ry="0.877" transform="translate(-11017.245 -12009.241)" fill="#3076b6"/>
      <path id="Trazado_99269-2" data-name="Trazado 99269" d="M441.388,111.164a.918.918,0,1,1-.918-.877A.9.9,0,0,1,441.388,111.164Z" transform="translate(-11448.543 -12119.528)" fill="#3076b6"/>
      <path id="Trazado_99270-2" data-name="Trazado 99270" d="M449.834,111.164a.918.918,0,1,1-.917-.877A.9.9,0,0,1,449.834,111.164Z" transform="translate(-11448.733 -12119.528)" fill="#3076b6"/>
      <path id="Trazado_99274-2" data-name="Trazado 99274" d="M416.049,118.672a.918.918,0,1,1-.918-.878A.9.9,0,0,1,416.049,118.672Z" transform="translate(-11447.97 -12120.019)" fill="#3076b6"/>
      <path id="Trazado_99275-2" data-name="Trazado 99275" d="M424.495,118.672a.918.918,0,1,1-.917-.878A.9.9,0,0,1,424.495,118.672Z" transform="translate(-11448.161 -12120.019)" fill="#3076b6"/>
      <path id="Trazado_99276-2" data-name="Trazado 99276" d="M432.941,118.672a.918.918,0,1,1-.917-.878A.9.9,0,0,1,432.941,118.672Z" transform="translate(-11448.352 -12120.019)" fill="#3076b6"/>
      <path id="Trazado_99277-2" data-name="Trazado 99277" d="M441.388,118.672a.918.918,0,1,1-.918-.878A.9.9,0,0,1,441.388,118.672Z" transform="translate(-11448.543 -12120.019)" fill="#3076b6"/>
      <path id="Trazado_99278-2" data-name="Trazado 99278" d="M449.834,118.672a.918.918,0,1,1-.917-.878A.9.9,0,0,1,449.834,118.672Z" transform="translate(-11448.733 -12120.019)" fill="#3076b6"/>
      <ellipse id="Elipse_3980-2" data-name="Elipse 3980" cx="0.917" cy="0.877" rx="0.917" ry="0.877" transform="translate(-11033.756 -11995.206)" fill="#3076b6"/>
      <path id="Trazado_99285-2" data-name="Trazado 99285" d="M424.495,126.18a.918.918,0,1,1-.917-.878A.9.9,0,0,1,424.495,126.18Z" transform="translate(-11448.161 -12120.509)" fill="#3076b6"/>
      <ellipse id="Elipse_3981-2" data-name="Elipse 3981" cx="0.917" cy="0.877" rx="0.917" ry="0.877" transform="translate(-11017.245 -11995.206)" fill="#3076b6"/>
      <path id="Trazado_99286-2" data-name="Trazado 99286" d="M441.388,126.18a.918.918,0,1,1-.918-.878A.9.9,0,0,1,441.388,126.18Z" transform="translate(-11448.543 -12120.509)" fill="#3076b6"/>
      <path id="Trazado_99287-2" data-name="Trazado 99287" d="M449.834,126.18a.918.918,0,1,1-.917-.878A.9.9,0,0,1,449.834,126.18Z" transform="translate(-11448.733 -12120.509)" fill="#3076b6"/>
      <ellipse id="Elipse_3985-2" data-name="Elipse 3985" cx="0.917" cy="0.877" rx="0.917" ry="0.877" transform="translate(-11033.756 -11988.189)" fill="#3076b6"/>
      <path id="Trazado_99291-2" data-name="Trazado 99291" d="M424.495,133.688a.918.918,0,1,1-.917-.878A.9.9,0,0,1,424.495,133.688Z" transform="translate(-11448.161 -12120.999)" fill="#3076b6"/>
      <ellipse id="Elipse_3986-2" data-name="Elipse 3986" cx="0.917" cy="0.877" rx="0.917" ry="0.877" transform="translate(-11017.245 -11988.189)" fill="#3076b6"/>
      <path id="Trazado_99292-2" data-name="Trazado 99292" d="M441.388,133.688a.918.918,0,1,1-.918-.878A.9.9,0,0,1,441.388,133.688Z" transform="translate(-11448.543 -12120.999)" fill="#3076b6"/>
      <path id="Trazado_99293-2" data-name="Trazado 99293" d="M449.834,133.688a.918.918,0,1,1-.917-.878A.9.9,0,0,1,449.834,133.688Z" transform="translate(-11448.733 -12120.999)" fill="#3076b6"/>
    </g>
    <path id="Trazado_114033" data-name="Trazado 114033" d="M593.167,81.086a5.245,5.245,0,1,1-5.245-5.244,5.245,5.245,0,0,1,5.245,5.244" transform="translate(439.645 41.628)" fill="#008b8a"/>
  </g>
</svg>
