<svg xmlns="http://www.w3.org/2000/svg" xmlns:xlink="http://www.w3.org/1999/xlink" width="616.191" height="248.911" viewBox="0 0 616.191 248.911">
  <defs>
    <clipPath id="clip-path">
      <rect id="Rectángulo_44356" data-name="Rectángulo 44356" width="192" height="192" transform="translate(0 0.334)" fill="none"/>
    </clipPath>
    <clipPath id="clip-path-2">
      <rect id="Rectángulo_44369" data-name="Rectángulo 44369" width="74.062" height="66.775" fill="none"/>
    </clipPath>
    <clipPath id="clip-path-3">
      <rect id="Rectángulo_44360" data-name="Rectángulo 44360" width="99.101" height="49.793" fill="none"/>
    </clipPath>
  </defs>
  <g id="Grupo_1006697" data-name="Grupo 1006697" transform="translate(-702 -7608.089)">
    <g id="Grupo_1006663" data-name="Grupo 1006663" transform="translate(46.096)">
      <g id="Grupo_562233" data-name="Grupo 562233" transform="translate(655.904 7608.606)">
        <g id="Grupo_562232" data-name="Grupo 562232" transform="translate(0 -0.003)" clip-path="url(#clip-path)">
          <path id="Trazado_195035" data-name="Trazado 195035" d="M372.6,310.4s-12.413-.477-21.961-14.561S353.5,266.6,353.5,266.6l.353,1.57a9.5,9.5,0,0,0,3.652,5.578l1.485,1.088c-7.161-14.8,4.058-30.554,4.058-30.554-3.342,5.729,4.058,16.232,4.058,16.232-2.421-9.9,7.431-20.412,8.986-22a4.2,4.2,0,0,0,.4-.473c4.5-6.2,2.067-15.247,2.067-15.247,5.967,3.819,7.161,14.322,6.494,22.438s6.4,15.516,6.4,15.516L395.99,246.9c-1.4,5.25,7.534,19.971,11.015,29.456,2.371,6.461,3.4,10.288,1.109,18.684C404.257,309.2,386.2,310.4,386.2,310.4l5.117-5.886a25.488,25.488,0,0,0,4.42-7.234l2.876-7.17-1.686,1.8a19.833,19.833,0,0,1-4.417,3.529l-2.312,1.358,2.806-6.207a9.978,9.978,0,0,0,.63-6.351l-1.467-6.3-1.252,4.142a5.315,5.315,0,0,1-1.22,2.136l-4.212,4.7,1.027-5.583a5.212,5.212,0,0,0-.787-3.933q-.1-.147-.217-.288l-.349-.432a4.265,4.265,0,0,1-.943-2.86c.034-.806.1-1.612.211-2.411a26.945,26.945,0,0,0,.258-4.659l0-.083-2.727,3.472a6.663,6.663,0,0,0-1.3,3.366l-.538,5.653-3.422-5.595a6.1,6.1,0,0,1-.99-2.914l-.482-6.65-2.792,5.236a12.362,12.362,0,0,0-1.283,7.869l1.45,8.618-2.871-2.792a8.277,8.277,0,0,1-2.066-3.267l-1.269-3.728-.944,3.258a14.142,14.142,0,0,0,.672,9.708l2.421,5.414s-7.758.239-8.952-5.132c0,0-1.193,7.161,6.8,13.845Z" transform="translate(-281.641 -180.817)"/>
          <rect id="Rectángulo_44355" data-name="Rectángulo 44355" width="53.248" height="6.856" transform="translate(69.945 132.515)"/>
          <path id="Trazado_195036" data-name="Trazado 195036" d="M96.167,192.331,0,96.164,96.167,0l96.167,96.167ZM17.843,96.164l78.324,78.324,78.324-78.324L96.167,17.84Z" transform="translate(0 0.003)" fill="red"/>
        </g>
      </g>
    </g>
    <g id="Grupo_1006664" data-name="Grupo 1006664" transform="translate(38.191 -10.849)">
      <path id="Trazado_195064" data-name="Trazado 195064" d="M17.97,96.846,96.849,17.967l78.879,78.879L96.849,175.725ZM96.849,0,0,96.846l96.849,96.849L193.7,96.846Z" transform="translate(1086.302 7618.94)" fill="red"/>
      <path id="Trazado_195065" data-name="Trazado 195065" d="M17.97,96.846,96.849,17.967l78.879,78.879L96.849,175.725ZM96.849,0,0,96.846l96.849,96.849L193.7,96.846Z" transform="translate(1086.302 7618.94)" fill="red"/>
      <path id="Trazado_195066" data-name="Trazado 195066" d="M17.97,96.846,96.849,17.967l78.879,78.879L96.849,175.725ZM96.849,0,0,96.846l96.849,96.849L193.7,96.846Z" transform="translate(1086.302 7618.94)" fill="red"/>
      <path id="Trazado_195067" data-name="Trazado 195067" d="M17.97,96.846,96.849,17.967l78.879,78.879L96.849,175.725ZM96.849,0,0,96.846l96.849,96.849L193.7,96.846Z" transform="translate(1086.302 7618.94)" fill="red"/>
      <g id="Grupo_562249" data-name="Grupo 562249" transform="translate(1144.12 7682.05)">
        <g id="Grupo_562248" data-name="Grupo 562248" clip-path="url(#clip-path-2)">
          <path id="Trazado_195072" data-name="Trazado 195072" d="M71.5,52.521c-2.207-1.626-5.512-.626-7.893.5a2.127,2.127,0,0,1-1.8.021L50.99,48.116l-1-.454a5.973,5.973,0,0,0,.147-.779c.009-.068.015-.136.021-.2.083-.03.164-.066.245-.1l.632-.29L64.172,40.26a2.121,2.121,0,0,1,1.869.06c2.824,1.511,3.83,1.6,4.162,1.632a2.918,2.918,0,0,0,2.279-.8,5.772,5.772,0,0,0,1.579-4.233c0-2.192-1.8-3.92-2.7-4.643v-.67a4.225,4.225,0,0,0-2.171-3.716A4.115,4.115,0,0,0,65,27.928a6.965,6.965,0,0,0-1.428,1.162,25.3,25.3,0,0,0-3.516,4.4,2.1,2.1,0,0,1-1.051.879l-3.281,1.245L53.06,36.626a9.806,9.806,0,0,0,2.973-9.183,8.794,8.794,0,0,1-.168-1.289l3.743-5.522.043-.087c1.232-2.524.132-6.67-1.634-8.551l-3.941-4.2c-.119-.128-.247-.253-.377-.372L50.736,4.715a12.071,12.071,0,0,0-4.805-2.686L40.559.495a12.822,12.822,0,0,0-7.055,0L28.133,2.029a12.057,12.057,0,0,0-4.805,2.686L20.364,7.424c-.13.117-.255.243-.375.37l-3.941,4.2c-1.768,1.881-2.867,6.027-1.637,8.551l.045.087L18.2,26.153a9.11,9.11,0,0,1-.166,1.289,9.795,9.795,0,0,0,2.977,9.187l-.4-.151-5.554-2.111A2.082,2.082,0,0,1,14,33.489a25.347,25.347,0,0,0-3.518-4.4,7.013,7.013,0,0,0-1.426-1.162,4.123,4.123,0,0,0-4.2-.038A4.227,4.227,0,0,0,2.7,31.605v.67C1.8,33,0,34.727,0,36.919a5.77,5.77,0,0,0,1.577,4.233,2.92,2.92,0,0,0,2.279.8c.332-.03,1.339-.121,4.163-1.632a2.121,2.121,0,0,1,1.869-.06l13.767,6.316c.081.038.164.072.247.1a6,6,0,0,0,.168.981L12.253,53.042a2.127,2.127,0,0,1-1.8-.021c-2.383-1.126-5.686-2.126-7.893-.5C.762,53.846-.1,55.216.009,56.593c.1,1.279,1,2.375,2.692,3.26a17.92,17.92,0,0,0,1.768.853c.1.858.181,1.588.226,1.9.143,1,.83,2.852,3.8,3.967a3,3,0,0,0,1.068.2,2.909,2.909,0,0,0,1.228-.274,6.154,6.154,0,0,0,2.624-3.256l.009-.023a13.268,13.268,0,0,1,1.971-3.771,2.107,2.107,0,0,1,.717-.591l11.836-5.952.27-.138a1.967,1.967,0,0,1,.367-.143l.188-.052,5.218,2.781a6.441,6.441,0,0,0,6.078,0l5.218-2.779.165.045a2.106,2.106,0,0,1,.389.149L47,53.349l10.953,5.51a2.107,2.107,0,0,1,.717.591,13.218,13.218,0,0,1,1.968,3.771l.009.023A6.174,6.174,0,0,0,63.269,66.5a2.906,2.906,0,0,0,1.228.275,3,3,0,0,0,1.068-.2c2.973-1.115,3.658-2.964,3.8-3.967.045-.313.13-1.043.226-1.9a17.952,17.952,0,0,0,1.768-.853c1.688-.885,2.594-1.981,2.692-3.26.1-1.377-.755-2.747-2.554-4.073M59.759,36.357a4.224,4.224,0,0,0,2.124-1.781,23.409,23.409,0,0,1,3.228-4.014,4.77,4.77,0,0,1,.983-.809,1.99,1.99,0,0,1,2.049-.013,2.121,2.121,0,0,1,1.092,1.864v5.029a.853.853,0,0,0,.853.853h.421a.853.853,0,0,0,.853-.853v-1.27a2.867,2.867,0,0,1,.57,1.556,3.768,3.768,0,0,1-.885,2.66.8.8,0,0,1-.653.253,10.709,10.709,0,0,1-3.35-1.39,4.251,4.251,0,0,0-3.758-.115L51.038,43.946l-.849.389V39.994l1.841-.7ZM20.721,28.1a12.6,12.6,0,0,0-.162-5.8l-.5-1.866a2.615,2.615,0,0,1,.238-1.945l1.888-3.4a1.071,1.071,0,0,0-.415-1.456l-.547-.3a1.07,1.07,0,0,0-1.456.416l-1.887,3.4a5.333,5.333,0,0,0-.677,2.611l-.341-.5c-.57-1.328.049-4.141,1.2-5.367L22,9.688c.072-.077.149-.153.228-.223l2.962-2.709a9.319,9.319,0,0,1,3.7-2.066l5.371-1.534a10.066,10.066,0,0,1,5.535,0l5.371,1.534a9.319,9.319,0,0,1,3.7,2.066l2.962,2.709c.079.07.153.147.226.223L56,13.887c1.153,1.226,1.773,4.039,1.2,5.367l-.34.5a5.39,5.39,0,0,0-.675-2.613L54.3,13.751a1.076,1.076,0,0,0-1.464-.417l-.534.3a1.077,1.077,0,0,0-.419,1.466l1.883,3.39A2.613,2.613,0,0,1,54,20.431L53.5,22.3a12.559,12.559,0,0,0-.162,5.8A6.936,6.936,0,0,1,50.555,35.1l-2.707,1.949-3.594,2.588a1.5,1.5,0,0,0-.432.512l-.153.3,0,.347c0,.038,0,.079,0,.119a5.2,5.2,0,0,1-1.036,3l-.013.015a2.955,2.955,0,0,1-1.407.711l-.321.106-1.111.381-.962.33a5.571,5.571,0,0,1-3.579,0l-1.856-.636-.217-.074-.319-.106a2.909,2.909,0,0,1-1.419-.726,3.17,3.17,0,0,1-.343-.5,4.888,4.888,0,0,1-.375-.826,5.756,5.756,0,0,1-.26-1.009,4.442,4.442,0,0,1-.064-.789v-.117a.983.983,0,0,0-.1-.439l-.2-.4-1.971-1.419L23.507,35.1A6.931,6.931,0,0,1,20.721,28.1M10.774,38.328a4.255,4.255,0,0,0-3.76.115,10.685,10.685,0,0,1-3.352,1.39.8.8,0,0,1-.651-.253,3.777,3.777,0,0,1-.883-2.66A2.864,2.864,0,0,1,2.7,35.364v1.27a.853.853,0,0,0,.853.853h.421a.853.853,0,0,0,.853-.853V31.605a2.117,2.117,0,0,1,1.092-1.864,1.99,1.99,0,0,1,2.049.013,4.835,4.835,0,0,1,.985.809,23.36,23.36,0,0,1,3.226,4.014A4.219,4.219,0,0,0,14.3,36.357l9.574,3.637v4.341Zm15.41,13.081L15.156,56.957a4.2,4.2,0,0,0-1.453,1.2,15.223,15.223,0,0,0-2.292,4.371A4.132,4.132,0,0,1,9.9,64.567a.776.776,0,0,1-.653.015c-1.464-.549-2.307-1.336-2.441-2.275-.1-.7-.421-3.675-.594-5.295a1.064,1.064,0,0,0-2.115.226c.03.294.066.632.106.992l-.511-.262c-.968-.507-1.519-1.051-1.556-1.537-.045-.57.572-1.373,1.692-2.2,1.047-.77,3.132-.511,5.722.713a4.261,4.261,0,0,0,3.59.032L24.92,49.609a5.935,5.935,0,0,0,.415.568,6.354,6.354,0,0,0,1.141,1.085Zm12.583,1.5a3.691,3.691,0,0,1-3.473,0l-4.45-2.373-2.247-1.2a3.438,3.438,0,0,1-.438-.274,3.624,3.624,0,0,1-.555-.5,3.713,3.713,0,0,1-.668-1.036q-.048-.112-.089-.23a3.658,3.658,0,0,1-.164-.66v0l-.043-1.4v-4.2l.824.313.189.136a8.425,8.425,0,0,0,.828,2.913l.217.4a5.78,5.78,0,0,0,.636.909,4.123,4.123,0,0,0,.464.462,6.108,6.108,0,0,0,2.175,1.081l.3.1.93.319,1.141.392a8.367,8.367,0,0,0,5.371,0l.385-.132,1.688-.579.3-.1a7.915,7.915,0,0,0,1.579-.66,4.146,4.146,0,0,0,1.062-.883,5.814,5.814,0,0,0,.56-.779,7.216,7.216,0,0,0,.362-.675,8.409,8.409,0,0,0,.758-2.773l.194-.138,0,0,.817-.311v5.039a3.691,3.691,0,0,1-1.956,3.26l-.1.051-2.726,1.453ZM71.93,56.432c-.038.485-.592,1.03-1.558,1.537-.189.1-.358.185-.511.262.038-.36.075-.7.106-.992a1.064,1.064,0,0,0-2.115-.226c-.172,1.619-.494,4.6-.594,5.295-.134.938-.979,1.726-2.441,2.275a.776.776,0,0,1-.653-.015,4.145,4.145,0,0,1-1.515-2.037,15.221,15.221,0,0,0-2.292-4.371,4.217,4.217,0,0,0-1.453-1.2l-9.868-4.965-1.448-.728h0a6.524,6.524,0,0,0,.6-.5,6.239,6.239,0,0,0,.956-1.149l1.233.561,10.549,4.807a4.261,4.261,0,0,0,3.59-.032c2.59-1.224,4.675-1.483,5.72-.713,1.122.826,1.739,1.628,1.7,2.2" transform="translate(0 0)"/>
          <path id="Trazado_195073" data-name="Trazado 195073" d="M223.671,212.778a1.983,1.983,0,0,0-.193-.753l-.193-.4a7.878,7.878,0,0,0-.8-1.078,4.035,4.035,0,0,1-.786-1.81,13.255,13.255,0,0,0-.492-1.424l.012-.017-.22-.459a1.932,1.932,0,0,0-.139-.244,1.8,1.8,0,0,0-.353-.39,1.77,1.77,0,0,0-.428-.26,1.807,1.807,0,0,0-.473-.13,1.841,1.841,0,0,0-.244-.016,1.811,1.811,0,0,0-.938.26,1.77,1.77,0,0,0-.206.146,1.845,1.845,0,0,0-.492.634l-.079.166,0,0a13.477,13.477,0,0,0-.623,1.731,4.033,4.033,0,0,1-.786,1.81c-.23.325-.526.6-.727.934H215.5l-.262.548a1.982,1.982,0,0,0-.193.753q0,.075,0,.15a1.97,1.97,0,0,0,.542,1.312,1.526,1.526,0,0,0,.174.155,1.682,1.682,0,0,0,1.523.244l1.517-.479a1.86,1.86,0,0,1,1.119,0l1.517.479a1.682,1.682,0,0,0,1.523-.244,1.527,1.527,0,0,0,.174-.155,1.97,1.97,0,0,0,.542-1.312q0-.075,0-.15" transform="translate(-182.327 -174.485)"/>
          <path id="Trazado_195074" data-name="Trazado 195074" d="M154.3,161.164a3.267,3.267,0,0,0,2.445-1.258l1.889-2.283c1.277-1.658.92-3.936-.177-3.936h-8.847c-1.1,0-1.59,1.164-.872,3.311l1.126,2q.115.2.248.4a4.252,4.252,0,0,0,3.507,1.789c.23,0,.459-.006.681-.02" transform="translate(-125.825 -130.306)"/>
          <path id="Trazado_195075" data-name="Trazado 195075" d="M270.959,161.164a3.267,3.267,0,0,1-2.445-1.258l-1.889-2.283c-1.277-1.658-.92-3.936.177-3.936h8.847c1.1,0,1.59,1.164.872,3.311l-1.126,2q-.115.2-.248.4a4.252,4.252,0,0,1-3.507,1.789c-.23,0-.459-.006-.681-.02" transform="translate(-225.373 -130.306)"/>
        </g>
      </g>
    </g>
    <g id="Grupo_1006662" data-name="Grupo 1006662" transform="translate(48.096 -10.849)">
      <path id="Trazado_717654" data-name="Trazado 717654" d="M17.97,96.846,96.849,17.967l78.879,78.879L96.849,175.725ZM96.849,0,0,96.846l96.849,96.849L193.7,96.846Z" transform="translate(864.302 7618.94)" fill="red"/>
      <g id="Grupo_1006661" data-name="Grupo 1006661" transform="translate(907.69 7690.541)">
        <g id="Grupo_562238" data-name="Grupo 562238" clip-path="url(#clip-path-3)">
          <path id="Trazado_195043" data-name="Trazado 195043" d="M128.932,119.558c0-1.508,1.679-6.845,1.679-6.845s2.105,5.336,2.105,6.845c0,2.848-1.06,3.467-2.105,3.467s-1.679-.62-1.679-3.467" transform="translate(-106.684 -93.263)"/>
          <path id="Trazado_195044" data-name="Trazado 195044" d="M133.416,68.241s-1.99,4.05-1.918,5.578.746,2.665,1.705,2.7,2.309-.711,2.167-2.878-1.954-5.4-1.954-5.4" transform="translate(-108.805 -56.465)"/>
          <path id="Trazado_195045" data-name="Trazado 195045" d="M160.228,6.69c-.365-1.938-2.091-2.984-4.6-2.984a10.666,10.666,0,0,0-1.558.121L135.816,7.01c-1.663.29-3.374.908-4.9.181l-1.987-1.8,2.217,11.1,25.67-4.6a4.487,4.487,0,0,0,3.409-5.2m-1.712,1.592a2.663,2.663,0,0,1-2.443,1.744l-23.96,2.684-.5-3.127,23.771-4.112a8.288,8.288,0,0,1,1,.075,2.122,2.122,0,0,1,2.136,2.737" transform="translate(-106.685 -3.067)"/>
          <path id="Trazado_195046" data-name="Trazado 195046" d="M489.818,107.2c0-1.508-1.741-6.845-1.741-6.845s-2.184,5.336-2.184,6.845c0,2.848,1.1,3.467,2.184,3.467s1.741-.62,1.741-3.467" transform="translate(-402.048 -83.041)"/>
          <path id="Trazado_195047" data-name="Trazado 195047" d="M488.371,64.535s2.064,4.05,1.99,5.578-.774,2.665-1.769,2.7-2.4-.711-2.248-2.878,2.027-5.4,2.027-5.4" transform="translate(-402.412 -53.399)"/>
          <path id="Trazado_195048" data-name="Trazado 195048" d="M326.133,8.181l26.63,4.6,2.3-11.1L353,3.485c-1.579.727-3.355.109-5.08-.181L328.986.121A11.468,11.468,0,0,0,327.369,0c-2.6,0-4.394,1.047-4.772,2.984a4.493,4.493,0,0,0,3.536,5.2m.456-6.342a8.914,8.914,0,0,1,1.033-.075l24.66,4.112L351.763,9,326.907,6.32a2.757,2.757,0,0,1-2.534-1.744,2.137,2.137,0,0,1,2.216-2.737" transform="translate(-266.867)"/>
          <path id="Trazado_195049" data-name="Trazado 195049" d="M374.179,204.631c-.44,0-.882-.009-1.322-.036a2.406,2.406,0,0,1-2.317-2.505,2.557,2.557,0,0,1,2.509-2.556c2.32-.055,5.474-.035,8.256-.017,1.3.008,2.538.016,3.6.016v1.705c-1.07,0-2.311-.008-3.616-.016-2.771-.018-5.911-.038-8.2.016a.85.85,0,0,0-.844.883.692.692,0,0,0,.716.771c.807.05,1.656.032,2.477.016.43-.008.858-.017,1.284-.017h8.188V204.6h-8.188c-.414,0-.831.008-1.25.017s-.859.017-1.294.017" transform="translate(-306.6 -165.073)"/>
          <path id="Trazado_195050" data-name="Trazado 195050" d="M395.452,186.048c-1.55-.1-2.338-.906-2.316-2.079a2.557,2.557,0,0,1,2.509-2.556c2.53-.06,11.931-.031,18.152-.012,2.062.007,3.725.012,4.58.012l-4.9,1.705c-.856,0-2.028-.012-2.028-.012-6.212-.019-13.254-.048-15.762.012a.85.85,0,0,0-.845.883.692.692,0,0,0,.716.771Z" transform="translate(-325.297 -150.079)"/>
          <path id="Trazado_195051" data-name="Trazado 195051" d="M397.625,224.143c-1.364,0-2.734-.023-4.092-.095a2.558,2.558,0,0,1-2.077-3.648,2.747,2.747,0,0,1,1.937-1.451l.334,1.672a1.05,1.05,0,0,0-.739.528.889.889,0,0,0,.056.813,1.048,1.048,0,0,0,.531.382h.03c2.663.14,5.279.095,8.049.047,1.358-.023.631-.048,2.032-.048l1.918,1.705c-1.386,0-2.57.024-3.921.048-1.336.023-2.694.047-4.058.047" transform="translate(-323.703 -181.168)"/>
          <path id="Trazado_195052" data-name="Trazado 195052" d="M439.354,242.967l-3.322.164-5.361,2.07H413.643a.614.614,0,0,1-.613-.613v-.853h-1.705v.853a2.321,2.321,0,0,0,2.318,2.318h17.345l5.4-2.087,2.961-.145Z" transform="translate(-340.348 -201.041)"/>
          <path id="Trazado_195053" data-name="Trazado 195053" d="M480.272,181.087c-3.1-.163-6.765-1.488-6.883-4.684-.107-2.925,2.611-4,4.064-4.156l.185,1.7-.093-.848.1.847c-.269.031-2.623.367-2.548,2.4.081,2.193,3.481,2.95,5.268,3.044Z" transform="translate(-391.7 -142.524)"/>
          <path id="Trazado_195054" data-name="Trazado 195054" d="M449.408,166.057H444.8l-6.235-2.886c-2.127,1.06-6.228,2.032-9.169-.639l-3.824.5a.948.948,0,0,0,.1.356,1.569,1.569,0,0,0,1.013.676L426.2,165.7a3.155,3.155,0,0,1-2.062-1.564,2.872,2.872,0,0,1-.114-2.167l.18-.478,5.8-.762.3.307c3.022,3.114,7.765.467,7.813.439l.382-.217,6.677,3.09h4.235Z" transform="translate(-350.72 -132.997)"/>
          <path id="Trazado_195055" data-name="Trazado 195055" d="M426.922,97.569a5.19,5.19,0,0,1-2.425-1.726,2.673,2.673,0,0,1-.372-1.811,1.789,1.789,0,0,0-.084-.9,1.151,1.151,0,0,0-.443-.431,11.449,11.449,0,0,1-.955-.732,2.874,2.874,0,0,1-.813-2.592,4.763,4.763,0,0,0-.026-1.042,7.4,7.4,0,0,0-1.576-2.428l1.1-1.006a8.759,8.759,0,0,1,1.941,3.167,6.061,6.061,0,0,1,.048,1.375c-.035.783-.019,1.128.286,1.386a9.933,9.933,0,0,0,.843.646,2.562,2.562,0,0,1,.85.855,2.9,2.9,0,0,1,.316,1.767,1.665,1.665,0,0,0,.08.854,3.753,3.753,0,0,0,1.309,1.152Z" transform="translate(-347.715 -70.253)"/>
          <path id="Trazado_195056" data-name="Trazado 195056" d="M450.289,98.59a7.463,7.463,0,0,1-1.506-1.5,3.908,3.908,0,0,1-.614-2.851c.007-.16.014-.325.018-.491.007-.3-.082-.4-.541-.791a5.505,5.505,0,0,1-1.059-1.112c-.978-1.416.187-3.839.431-4.31l1.326.685-.663-.342.663.341c-.437.852-.865,2.292-.529,2.779a4.131,4.131,0,0,0,.8.821,2.347,2.347,0,0,1,1.068,1.966c0,.177-.012.35-.019.52-.038.886-.045,1.449.276,1.84A6.041,6.041,0,0,0,451.2,97.41Z" transform="translate(-369.207 -72.428)"/>
          <path id="Trazado_195057" data-name="Trazado 195057" d="M513.943,92.291l-.932-1.165a7.576,7.576,0,0,0,1.647-1.741c.1-.208.084-.348,0-.759a5.148,5.148,0,0,1-.076-1.856,2.579,2.579,0,0,1,1.342-1.915c.352-.231.416-.294.433-.423a10.188,10.188,0,0,0-.541-3.019l1.424-.445a11.57,11.57,0,0,1,.6,3.661,2.037,2.037,0,0,1-1.093,1.473c-.416.273-.619.425-.684.879a3.691,3.691,0,0,0,.064,1.362,2.428,2.428,0,0,1-.135,1.708,9,9,0,0,1-2.049,2.238" transform="translate(-424.487 -66.997)"/>
          <path id="Trazado_195058" data-name="Trazado 195058" d="M531.616,87.393l-.435-1.432a5.73,5.73,0,0,0,1.727-1.759,1.365,1.365,0,0,0,.048-.761,2.935,2.935,0,0,1,.151-1.512,1.769,1.769,0,0,1,1.172-1.122,2.983,2.983,0,0,0,.76-.4c.314-.226.3-.6.2-1.524a9.708,9.708,0,0,1-.084-1.278c.033-1.7,2.223-3.185,2.662-3.465l.8,1.257c-.789.507-1.962,1.569-1.975,2.237a8.4,8.4,0,0,0,.075,1.083c.107.955.241,2.143-.811,2.9a4.48,4.48,0,0,1-1.093.583c-.248.1-.248.1-.333.3a1.556,1.556,0,0,0-.045.8,2.735,2.735,0,0,1-.182,1.541,9.9,9.9,0,0,1-2.643,2.558" transform="translate(-439.522 -61.345)"/>
          <path id="Trazado_195059" data-name="Trazado 195059" d="M72.826,174.413a5.189,5.189,0,0,1-2.425-1.726,2.672,2.672,0,0,1-.372-1.81,1.786,1.786,0,0,0-.085-.9,1.151,1.151,0,0,0-.443-.431,11.478,11.478,0,0,1-.955-.732,2.872,2.872,0,0,1-.812-2.592,4.763,4.763,0,0,0-.026-1.042,7.4,7.4,0,0,0-1.576-2.429l1.1-1.005a8.753,8.753,0,0,1,1.941,3.167,6.052,6.052,0,0,1,.048,1.376c-.035.783-.019,1.128.286,1.386a9.908,9.908,0,0,0,.843.646,2.567,2.567,0,0,1,.85.855,2.9,2.9,0,0,1,.316,1.767,1.662,1.662,0,0,0,.08.854,4.012,4.012,0,0,0,1.522,1.152Z" transform="translate(-54.72 -133.837)"/>
          <path id="Trazado_195060" data-name="Trazado 195060" d="M94.958,186.552a7.463,7.463,0,0,1-1.506-1.5,3.909,3.909,0,0,1-.614-2.851c.007-.16.014-.325.018-.491.007-.3-.082-.4-.541-.791a5.507,5.507,0,0,1-1.059-1.112c-.978-1.416.187-3.839.431-4.31l1.326.685-.663-.342.663.342c-.438.852-.865,2.292-.529,2.778a4.131,4.131,0,0,0,.8.821,2.346,2.346,0,0,1,1.068,1.965c0,.177-.012.35-.019.52-.038.886-.045,1.449.277,1.84a6.041,6.041,0,0,0,1.264,1.268Z" transform="translate(-75.191 -145.211)"/>
          <path id="Trazado_195061" data-name="Trazado 195061" d="M158.612,180.253l-.932-1.165a7.574,7.574,0,0,0,1.647-1.741c.1-.208.084-.348,0-.759a5.149,5.149,0,0,1-.076-1.856,2.58,2.58,0,0,1,1.342-1.915c.351-.231.416-.294.433-.423a10.149,10.149,0,0,0-.541-3.019l1.424-.445a11.575,11.575,0,0,1,.6,3.661,2.038,2.038,0,0,1-1.093,1.473c-.416.273-.619.425-.684.879a3.693,3.693,0,0,0,.064,1.362,2.428,2.428,0,0,1-.135,1.708,9,9,0,0,1-2.049,2.239" transform="translate(-130.47 -139.781)"/>
          <path id="Trazado_195062" data-name="Trazado 195062" d="M168.064,169.179l-.861-1.218a8.957,8.957,0,0,0,2.153-1.972,1.365,1.365,0,0,0,.048-.761,2.937,2.937,0,0,1,.151-1.512,1.77,1.77,0,0,1,1.172-1.122,2.984,2.984,0,0,0,.76-.4c.314-.226.3-.6.2-1.524a9.688,9.688,0,0,1-.084-1.278c.033-1.7,2.223-3.185,2.662-3.465l.8,1.257c-.789.507-1.962,1.569-1.975,2.237a8.408,8.408,0,0,0,.075,1.083c.107.955.241,2.143-.811,2.9a4.482,4.482,0,0,1-1.093.583c-.248.1-.248.1-.333.3a1.559,1.559,0,0,0-.045.8,2.739,2.739,0,0,1-.182,1.541,9.9,9.9,0,0,1-2.643,2.557" transform="translate(-138.351 -129.018)"/>
          <path id="Trazado_195063" data-name="Trazado 195063" d="M29.556,240.564a6.931,6.931,0,0,1-5.494,2.916,6.483,6.483,0,0,1-5.424-2.916H0v8.281H47v-8.281Z" transform="translate(0 -199.053)"/>
        </g>
      </g>
    </g>
    <text id="Líquidos_inflamables" data-name="Líquidos inflamables" transform="translate(723.096 7829)" fill="#12263f" font-size="16" font-family="Roboto-Bold, Roboto" font-weight="700"><tspan x="0" y="0">Líquidos inflamables</tspan></text>
    <text id="Toxicidad" transform="translate(1193.096 7829)" fill="#12263f" font-size="16" font-family="Roboto-Bold, Roboto" font-weight="700"><tspan x="0" y="0">Toxicidad</tspan></text>
    <text id="Corrosión_irritación_cutánea" data-name="Corrosión /irritación
cutánea" transform="translate(1014.096 7829)" fill="#12263f" font-size="16" font-family="Roboto-Bold, Roboto" font-weight="700"><tspan x="-72.563" y="0">Corrosión /irritación</tspan><tspan x="-28.734" y="24">cutánea</tspan></text>
  </g>
</svg>
