<svg xmlns="http://www.w3.org/2000/svg" width="20" height="20" viewBox="0 0 20 20">
  <g id="Grupo_1003754" data-name="Grupo 1003754" transform="translate(-221.683 -6634.866)">
    <path id="Trazado_712721" data-name="Trazado 712721" d="M10,0A10,10,0,1,1,0,10,10,10,0,0,1,10,0Z" transform="translate(221.683 6634.866)" fill="#4db1f0"/>
    <path id="Trazado_231796" data-name="Trazado 231796" d="M169.487,199.589c1.621-1.624,3.173-3.187,4.737-4.739a1.056,1.056,0,0,1,1.769.207.976.976,0,0,1-.18,1.175q-2.773,2.8-5.571,5.572a1.007,1.007,0,0,1-1.512-.028q-1.345-1.309-2.655-2.655a1.053,1.053,0,1,1,1.484-1.491c.645.625,1.261,1.278,1.929,1.959" transform="translate(60.761 6446.566)" fill="#fff"/>
  </g>
</svg>
