<svg xmlns="http://www.w3.org/2000/svg" xmlns:xlink="http://www.w3.org/1999/xlink" width="105.26" height="101.957" viewBox="0 0 105.26 101.957">
  <defs>
    <clipPath id="clip-path">
      <rect id="Rect치ngulo_346374" data-name="Rect치ngulo 346374" width="15.143" height="34.479" transform="translate(0 0)" fill="none" stroke="#12263f" stroke-width="1"/>
    </clipPath>
    <clipPath id="clip-path-2">
      <rect id="Rect치ngulo_346376" data-name="Rect치ngulo 346376" width="84.552" height="66.135" fill="none"/>
    </clipPath>
  </defs>
  <g id="Grupo_1002341" data-name="Grupo 1002341" transform="translate(-811 -278.535)">
    <g id="Grupo_1002316" data-name="Grupo 1002316" transform="matrix(-0.799, 0.602, -0.602, -0.799, 916.26, 371.379)">
      <g id="Grupo_1002212" data-name="Grupo 1002212" transform="translate(0 0)" clip-path="url(#clip-path)">
        <path id="Trazado_707910" data-name="Trazado 707910" d="M3.283,0C-.861,8.287-.4,20.838.981,30.046" transform="translate(7.972 1.125)" fill="none" stroke="#12263f" stroke-linecap="round" stroke-linejoin="round" stroke-width="3"/>
        <path id="Trazado_707911" data-name="Trazado 707911" d="M0,.921c2.762,2.762,5.986,4.6,8.747,6.906A25.589,25.589,0,0,1,12.891,0" transform="translate(1.126 25.527)" fill="none" stroke="#12263f" stroke-linecap="round" stroke-linejoin="round" stroke-width="3"/>
      </g>
    </g>
    <g id="Grupo_1002319" data-name="Grupo 1002319" transform="matrix(0.966, -0.259, 0.259, 0.966, 811, 300.419)">
      <g id="Grupo_1002218" data-name="Grupo 1002218" transform="translate(0 0)" clip-path="url(#clip-path-2)">
        <path id="Trazado_707923" data-name="Trazado 707923" d="M2.307,6.8A7.2,7.2,0,0,1,.883,6.257C.538,6.033.1,5.642.074,5.295A11.871,11.871,0,0,1,.137,2.138,2.3,2.3,0,0,1,2.414.26,63.5,63.5,0,0,1,12.368.142c1.367.093,2.745.146,4.1.355,2.061.317,2.691,1.1,2.779,3.212.024.576.018,1.154,0,1.731-.025.98-.236,1.235-1.19,1.441-.3.065-.617.067-.923.119-.259.043-.515.118-.835.193,0,.8-.024,1.581,0,2.364.153,4.285.371,8.568.462,12.855.07,3.317.043,6.638-.054,9.954-.069,2.343-.251,4.688-.523,7.016a4.691,4.691,0,0,1-3.2,4.177,9.159,9.159,0,0,1-5.7.59,4.1,4.1,0,0,1-2.067-1.34C3.44,40.787,3.1,38.308,2.729,35.79A88.16,88.16,0,0,1,2.3,26.372c-.129-3.321-.172-6.646-.179-9.969-.005-2.259.127-4.519.182-6.779.024-.926.005-1.855.005-2.823m1.145.046c-.093,1.436-.222,2.668-.244,3.9-.047,2.658-.029,5.317-.061,7.975C3.134,19.916,3,21.109,3.032,22.3c.075,2.518.3,5.032.329,7.548a55.83,55.83,0,0,0,.725,7.8,8.184,8.184,0,0,0,1.986,4.277,3.021,3.021,0,0,0,1.784,1.051A8.463,8.463,0,0,0,13.8,41.676a2.6,2.6,0,0,0,.835-1,10.934,10.934,0,0,0,.931-4.5c.176-2.024.185-4.064.222-6.1.062-3.5.119-6.991.119-10.486,0-1.99-.071-3.983-.2-5.969-.134-2.156-.366-4.306-.562-6.542-3.915-.682-7.747-.1-11.7-.229M9.5,1.167c0-.071,0-.142,0-.214-2.121.078-4.244.128-6.362.24-1.533.082-2.052.652-2.1,2.141C.971,5.3,1.275,5.65,3.225,5.8c.308.025.619.022.928.025,1.546.016,3.1-.013,4.638.055,2.2.1,4.4.241,6.6.411,2.241.172,3.078-.72,2.627-2.872a5.982,5.982,0,0,1-.163-.641,1.222,1.222,0,0,0-1.122-1.128A19.025,19.025,0,0,0,14,1.188c-1.5-.078-3-.022-4.506-.022" transform="translate(0 0)" fill="#12263f" fill-rule="evenodd"/>
        <path id="Trazado_707924" data-name="Trazado 707924" d="M.427.111C4.378.235,8.21-.343,12.124.34c.2,2.235.428,4.386.562,6.542.124,1.986.2,3.978.2,5.969,0,3.5-.057,6.991-.119,10.485-.037,2.034-.046,4.074-.222,6.1a10.936,10.936,0,0,1-.931,4.5,2.605,2.605,0,0,1-.835,1A8.463,8.463,0,0,1,4.83,36.232a3.021,3.021,0,0,1-1.784-1.051A8.184,8.184,0,0,1,1.061,30.9a55.929,55.929,0,0,1-.726-7.8C.307,20.592.081,18.077.006,15.56c-.035-1.188.1-2.381.116-3.572C.154,9.329.136,6.67.183,4.012.2,2.778.334,1.547.427.111" transform="translate(3.025 6.737)" fill="#fff" fill-rule="evenodd"/>
        <path id="Trazado_707925" data-name="Trazado 707925" d="M.3.091c2.8.1,5.521-.372,8.3.188.14,1.833.3,3.6.4,5.364.089,1.628.14,3.262.139,4.894,0,2.866-.04,5.733-.085,8.6-.027,1.668-.033,3.34-.158,5a10.13,10.13,0,0,1-.661,3.692,2.08,2.08,0,0,1-.592.823,5.368,5.368,0,0,1-4.218,1.06,2.108,2.108,0,0,1-1.265-.861A7.214,7.214,0,0,1,.753,25.342a53.121,53.121,0,0,1-.515-6.393c-.02-2.063-.18-4.125-.233-6.19-.026-.974.072-1.952.082-2.929C.11,7.65.1,5.469.13,3.29.146,2.278.237,1.268.3.091" transform="translate(4.896 10.009)" fill="#4db1f0" fill-rule="evenodd"/>
        <path id="Trazado_707926" data-name="Trazado 707926" d="M8.47.214c1.5,0,3.008-.056,4.506.022A19.025,19.025,0,0,1,15.711.7,1.222,1.222,0,0,1,16.833,1.83,5.981,5.981,0,0,0,17,2.471c.451,2.153-.387,3.044-2.627,2.872-2.2-.17-4.4-.313-6.6-.411-1.543-.068-3.092-.039-4.638-.055-.309,0-.621,0-.928-.025C.25,4.7-.055,4.35.007,2.381.054.892.573.322,2.106.24,4.225.128,6.348.078,8.468,0c0,.072,0,.144,0,.214" transform="translate(1.026 0.953)" fill="#fff" fill-rule="evenodd"/>
        <path id="Trazado_707927" data-name="Trazado 707927" d="M.394.816H3.441a.408.408,0,0,0,0-.816H.394a.408.408,0,0,0,0,.816" transform="translate(12.132 10.703)" fill="#12263f"/>
        <path id="Trazado_707928" data-name="Trazado 707928" d="M.3.8A17.933,17.933,0,0,0,3.78.92.408.408,0,0,0,3.78.1,16.939,16.939,0,0,1,.515.009a.419.419,0,0,0-.5.285A.412.412,0,0,0,.3.8" transform="translate(12.119 15.387)" fill="#12263f"/>
        <path id="Trazado_707929" data-name="Trazado 707929" d="M.3.8A17.328,17.328,0,0,0,3.671.92a.408.408,0,0,0,0-.816A16.334,16.334,0,0,1,.515.009a.419.419,0,0,0-.5.285A.412.412,0,0,0,.3.8" transform="translate(12.337 20.937)" fill="#12263f"/>
        <path id="Trazado_707930" data-name="Trazado 707930" d="M.408.818A26.059,26.059,0,0,0,3.237.927.414.414,0,0,0,3.645.519.413.413,0,0,0,3.237.111,26.059,26.059,0,0,1,.408,0,.411.411,0,0,0,0,.41.418.418,0,0,0,.408.818" transform="translate(12.663 25.935)" fill="#12263f"/>
        <path id="Trazado_707931" data-name="Trazado 707931" d="M.3.8A8.979,8.979,0,0,0,2.036.919.412.412,0,0,0,2.444.511.415.415,0,0,0,2.036.1c-.267,0-.534,0-.8-.012C1.1.084.974.075.843.061L.749.05c-.1-.011.07.012-.017,0S.586.023.512.009a.416.416,0,0,0-.5.285A.414.414,0,0,0,.3.8" transform="translate(13.972 23.657)" fill="#12263f"/>
        <path id="Trazado_707932" data-name="Trazado 707932" d="M.3.909A4,4,0,0,0,2.036.8.411.411,0,0,0,2.321.3a.417.417,0,0,0-.5-.285C1.711.04,1.6.065,1.494.087,1.432.1,1.369.111,1.306.121c-.027,0-.055.007-.082.012.118-.022.009,0-.018,0A3.114,3.114,0,0,1,.832.152c-.063,0-.127,0-.191-.01L.582.135.631.142A.685.685,0,0,1,.512.122a.417.417,0,0,0-.5.285A.414.414,0,0,0,.3.909" transform="translate(13.863 17.995)" fill="#12263f"/>
        <path id="Trazado_707933" data-name="Trazado 707933" d="M.408.816h1.85A.412.412,0,0,0,2.666.408.415.415,0,0,0,2.258,0H.408A.412.412,0,0,0,0,.408.415.415,0,0,0,.408.816" transform="translate(13.533 13.314)" fill="#12263f"/>
        <path id="Trazado_707934" data-name="Trazado 707934" d="M34.362,7.33c.981-.454,1.85-.891,2.745-1.267A16.154,16.154,0,0,1,44,4.882c2.034.069,4.066.159,6.1.289a16.055,16.055,0,0,1,5.329,1.586c1.542.669,3.045,1.428,4.574,2.125a13.752,13.752,0,0,1,3.494,2.376,2.039,2.039,0,0,1,.69,2.115c-.624,3.493-1.209,6.993-1.8,10.492-.755,4.5-1.488,9.01-2.251,13.512-.488,2.879-1.011,5.752-1.527,8.628a6.692,6.692,0,0,1-.261.893.888.888,0,0,1-1.121.652c-2.808-.38-5.635-.651-8.432-1.1-3.851-.617-7.674-1.425-11.528-2.028-3.583-.561-7.192-.962-10.789-1.434-.4-.052-.791-.112-1.184-.184-3.262-.6-6.52-1.223-9.787-1.791-1.788-.31-3.6-.5-5.387-.789-2.842-.458-5.676-.96-8.516-1.434-1.67-.279-1.789-.436-1.45-2.058.463-2.21.989-4.409,1.375-6.632q.966-5.556,1.78-11.14c.429-2.891.788-5.793,1.132-8.695q.444-3.761.767-7.537A1.39,1.39,0,0,1,6.384,1.292,19.732,19.732,0,0,1,11.79.03,31.362,31.362,0,0,1,22.041,1.122c1.817.551,3.643,1.074,5.466,1.611a2,2,0,0,1,.5.167c2.168,1.35,4.645,2.252,6.354,4.43m28.746,5.2A25.176,25.176,0,0,0,60.09,10.35c-2.075-1.088-4.227-2.031-6.37-2.987a14.618,14.618,0,0,0-5.844-1.073c-.708-.01-1.422.063-2.123-.005A15.774,15.774,0,0,0,35.421,8.456,1.883,1.883,0,0,0,34.4,9.85c-.262,1.7-.565,3.4-.756,5.107-.261,2.328-.373,4.672-.658,7-.4,3.252-.886,6.493-1.346,9.737a49.476,49.476,0,0,1-1.291,7.723,1.661,1.661,0,0,0,.014.482c.732-.458,1.342-.891,2-1.241,2.277-1.222,4.809-1.4,7.3-1.723A19.424,19.424,0,0,1,46,37.467a16.913,16.913,0,0,1,9.978,5.624c.462.548.966,1.063,1.632,1.792,1.858-10.938,3.667-21.576,5.5-32.353M1.743,35.273c.285-.18.528-.362.793-.5a22.154,22.154,0,0,1,3.924-1.9,18.465,18.465,0,0,1,14.367,1.711,26.686,26.686,0,0,1,7.162,6.05c.189.221.409.413.757.761.436-1.842.945-3.493,1.2-5.183.533-3.5.939-7.021,1.381-10.535.254-2.019.484-4.04.71-6.062.069-.615.057-1.24.138-1.854.364-2.767.7-5.541,1.145-8.294a2.474,2.474,0,0,0-.986-2.544A21.214,21.214,0,0,0,30.506,5.61a22.821,22.821,0,0,0-4.662-2.2A35.825,35.825,0,0,0,12.557,1.256,12.619,12.619,0,0,0,6.322,2.968C5.238,13.79,3.846,24.539,1.743,35.273m54.719,10.9a6.316,6.316,0,0,0-.4-.97,15.242,15.242,0,0,0-5.634-4.933,19.612,19.612,0,0,0-6.758-1.857,21.478,21.478,0,0,0-10.187,1.207,5.566,5.566,0,0,0-2.911,2.514c.609.136,1.112.278,1.627.357,1.357.208,2.724.35,4.075.585,4.539.785,9.063,1.644,13.608,2.383,2.084.339,4.2.464,6.576.714m-29.639-4.4.191-.362A26.733,26.733,0,0,0,22.2,36.932a18.082,18.082,0,0,0-9.646-3.344A13.869,13.869,0,0,0,3.69,35.723a7.908,7.908,0,0,0-1.82,1.818l24.952,4.24" transform="translate(20.318 18.567)" fill="#12263f" fill-rule="evenodd"/>
        <path id="Trazado_707935" data-name="Trazado 707935" d="M32.773,6.352c-1.831,10.777-3.639,21.415-5.5,32.353-.667-.729-1.171-1.244-1.632-1.792a16.917,16.917,0,0,0-9.978-5.625,19.444,19.444,0,0,0-6.335-.536c-2.492.324-5.025.5-7.3,1.723-.656.351-1.266.783-2,1.241a1.665,1.665,0,0,1-.014-.483,49.468,49.468,0,0,0,1.291-7.722c.46-3.244.95-6.485,1.346-9.737.285-2.324.4-4.668.658-7,.191-1.709.494-3.406.756-5.107A1.883,1.883,0,0,1,5.085,2.277,15.774,15.774,0,0,1,15.417.105c.7.069,1.416-.005,2.123.005a14.6,14.6,0,0,1,5.844,1.073c2.142.957,4.295,1.9,6.37,2.987a25.084,25.084,0,0,1,3.018,2.181" transform="translate(50.654 24.746)" fill="#fff" fill-rule="evenodd"/>
        <path id="Trazado_707936" data-name="Trazado 707936" d="M0,34.033C2.1,23.3,3.5,12.55,4.578,1.728A12.633,12.633,0,0,1,10.814.015,35.836,35.836,0,0,1,24.1,2.17a22.819,22.819,0,0,1,4.662,2.2,21.365,21.365,0,0,1,1.831,1.316,2.475,2.475,0,0,1,.985,2.544c-.45,2.754-.782,5.528-1.145,8.295-.08.614-.069,1.239-.138,1.853-.227,2.022-.456,4.043-.71,6.062-.443,3.513-.848,7.034-1.382,10.534-.256,1.69-.765,3.342-1.2,5.184-.348-.349-.569-.541-.757-.761a26.693,26.693,0,0,0-7.161-6.05A18.464,18.464,0,0,0,4.717,31.635a22.109,22.109,0,0,0-3.924,1.9c-.265.134-.507.315-.793.5" transform="translate(22.061 19.808)" fill="#fff" fill-rule="evenodd"/>
        <path id="Trazado_707937" data-name="Trazado 707937" d="M25.885,7.924c-2.373-.251-4.491-.375-6.575-.714-4.545-.74-9.07-1.6-13.608-2.384-1.352-.234-2.719-.377-4.075-.585C1.112,4.163.608,4.02,0,3.885A5.559,5.559,0,0,1,2.911,1.371,21.478,21.478,0,0,1,13.1.164,19.629,19.629,0,0,1,19.856,2.02,15.255,15.255,0,0,1,25.49,6.954a6.372,6.372,0,0,1,.4.97" transform="translate(50.895 56.821)" fill="#cbd3dc" fill-rule="evenodd"/>
        <path id="Trazado_707938" data-name="Trazado 707938" d="M24.952,8.224,0,3.984A7.908,7.908,0,0,1,1.82,2.167,13.869,13.869,0,0,1,10.679.032a18.082,18.082,0,0,1,9.646,3.344,26.733,26.733,0,0,1,4.819,4.487l-.191.362" transform="translate(22.189 52.124)" fill="#cbd3dc" fill-rule="evenodd"/>
        <path id="Trazado_707939" data-name="Trazado 707939" d="M.688.256c0,2.394-.87,5.005-.653,7.29.109,1.415-.326.979,1.2,1.415a14.038,14.038,0,0,0,3.047.109c2.612.217,3.156.326,3.156-2.721,0-1.959.108-3.808.217-5.767A22.969,22.969,0,0,0,.906.038" transform="translate(29.575 24.566)" fill="#ffa031" fill-rule="evenodd"/>
        <path id="Trazado_707940" data-name="Trazado 707940" d="M.394.816c3.694.005,7.532.317,10.676,2.447.435.3.844-.411.411-.7C8.225.351,4.223.005.394,0a.408.408,0,0,0,0,.816" transform="translate(39.227 26.263)" fill="#12263f"/>
        <path id="Trazado_707941" data-name="Trazado 707941" d="M.391.818A52.579,52.579,0,0,1,11.056,2.544a.408.408,0,0,0,.217-.787A53.628,53.628,0,0,0,.391,0c-.523-.045-.52.772,0,.816" transform="translate(38.904 29.853)" fill="#12263f"/>
        <path id="Trazado_707942" data-name="Trazado 707942" d="M.389.82a85.1,85.1,0,0,1,10.23,1.944.409.409,0,0,0,.217-.787A86.92,86.92,0,0,0,.389,0C-.132-.06-.127.756.389.82" transform="translate(38.58 33.442)" fill="#12263f"/>
        <path id="Trazado_707943" data-name="Trazado 707943" d="M.394.821a108.236,108.236,0,0,1,10.853.3c3.644.365,7.413,1.145,10.488,3.235.435.3.844-.411.411-.705C19.086,1.572,15.364.762,11.74.358A101.679,101.679,0,0,0,.394,0a.408.408,0,0,0,0,.816" transform="translate(27.04 37.249)" fill="#12263f"/>
        <path id="Trazado_707944" data-name="Trazado 707944" d="M.507,1.441a26.9,26.9,0,0,1,10.727-.185,22.528,22.528,0,0,1,9.96,3.735c.421.315.829-.393.412-.7A23.217,23.217,0,0,0,11.218.432,27.768,27.768,0,0,0,.291.654a.408.408,0,0,0,.217.787" transform="translate(26.709 40.64)" fill="#12263f"/>
        <path id="Trazado_707945" data-name="Trazado 707945" d="M.389.819c4.16.489,8.393-.258,12.523.571a42.473,42.473,0,0,1,4.2,1.053,10.139,10.139,0,0,1,4.1,2.065c.379.363.957-.213.577-.577C19.652,1.885,16.234,1.276,13.446.671,9.139-.264,4.733.514.389,0c-.52-.061-.516.755,0,.816" transform="translate(25.957 44.759)" fill="#12263f"/>
        <path id="Trazado_707946" data-name="Trazado 707946" d="M.394.887A55.711,55.711,0,0,1,10.76,1.24a22.418,22.418,0,0,1,9.56,3.836c.43.3.838-.4.412-.705A22.94,22.94,0,0,0,10.976.453,56.8,56.8,0,0,0,.394.071C-.13.087-.132.9.394.887" transform="translate(26.169 48.282)" fill="#12263f"/>
        <path id="Trazado_707947" data-name="Trazado 707947" d="M.762.589C.544,2.113.109,3.418,0,4.833c2.5-.217,5.223-.87,8.052-.544,2.285.217,4.353,1.415,6.421,2.176a21.631,21.631,0,0,0,1.2-4.352C13.385,1.46,10.556.262,8.27.045,5.767-.173,3.822.465.762.589" transform="translate(54.095 48.173)" fill="#008b8a" fill-rule="evenodd"/>
        <path id="Trazado_707948" data-name="Trazado 707948" d="M1.741,0C1.306,4.461.544,8.923,0,13.276a19.925,19.925,0,0,1,5.658,2.285C6.964,13.494,7.073,9.794,7.617,7.4A23.553,23.553,0,0,0,8.27,1.2,61.765,61.765,0,0,0,2.067.109" transform="translate(71.288 41.58)" fill="#cbd3dc" fill-rule="evenodd"/>
        <path id="Trazado_707949" data-name="Trazado 707949" d="M.507,1.8c7.11-1.826,15.11-1.2,21.449,2.68.449.275.86-.43.412-.7C15.845-.223,7.606-.869.29,1.01A.408.408,0,0,0,.507,1.8" transform="translate(57.395 28.315)" fill="#12263f"/>
        <path id="Trazado_707950" data-name="Trazado 707950" d="M.393,1.2A65.617,65.617,0,0,1,11.166.983,44.9,44.9,0,0,1,21.4,3.8c.5.176.709-.612.217-.787A48.241,48.241,0,0,0,11.473.2C7.809-.248,4.058.159.393.384c-.522.032-.526.848,0,.816" transform="translate(57.075 32.408)" fill="#12263f"/>
        <path id="Trazado_707951" data-name="Trazado 707951" d="M.387,1.167a43.835,43.835,0,0,1,12,.127c2.838.4,6.006.877,8.474,2.429.445.28.855-.426.411-.705C18.745,1.43,15.54.929,12.639.512A44.361,44.361,0,0,0,.387.351c-.513.068-.52.885,0,.816" transform="translate(57.08 36.577)" fill="#12263f"/>
        <path id="Trazado_707952" data-name="Trazado 707952" d="M.394.816C5.055.914,9.782.623,14.323,1.89A.408.408,0,0,0,14.54,1.1C9.928-.184,5.128.1.394,0a.408.408,0,0,0,0,.816" transform="translate(56.203 40.518)" fill="#12263f"/>
        <path id="Trazado_707953" data-name="Trazado 707953" d="M.391,1.031C4.847.615,9.549.588,13.57,2.825c.459.256.871-.449.411-.7C9.83-.189,5-.216.391.215c-.518.048-.524.865,0,.816" transform="translate(55.662 44.004)" fill="#12263f"/>
      </g>
    </g>
  </g>
</svg>
