<svg xmlns="http://www.w3.org/2000/svg" xmlns:xlink="http://www.w3.org/1999/xlink" width="62.295" height="107.495" viewBox="0 0 62.295 107.495">
  <defs>
    <clipPath id="clip-path">
      <rect id="Rect치ngulo_346373" data-name="Rect치ngulo 346373" width="50.094" height="53.736" fill="#12263f"/>
    </clipPath>
    <clipPath id="clip-path-2">
      <rect id="Rect치ngulo_346374" data-name="Rect치ngulo 346374" width="20.178" height="45.944" transform="translate(0 0)" fill="none" stroke="#12263f" stroke-width="1"/>
    </clipPath>
  </defs>
  <g id="Grupo_1002342" data-name="Grupo 1002342" transform="translate(-1331.557 -328.843)">
    <g id="Grupo_1002313" data-name="Grupo 1002313" transform="matrix(0.966, -0.259, 0.259, 0.966, 1331.557, 341.809)">
      <g id="Grupo_1002210" data-name="Grupo 1002210" transform="translate(0 0)" clip-path="url(#clip-path)">
        <path id="Trazado_707896" data-name="Trazado 707896" d="M16.632,7.22c-.97-.464-2.142-.275-2.33-1.448-.228-1.417-.509-2.914.336-4.191a2.42,2.42,0,0,1,1.7-.8c4.9-.27,9.788-1.043,14.721-.686a8.083,8.083,0,0,1,1.761.3,1.508,1.508,0,0,1,.8.637,4.042,4.042,0,0,1-1.73,5.861c.17,2.106.324,4.307.532,6.5.188,1.968.38,3.939.682,5.892A7.964,7.964,0,0,0,33.965,22c1.556,2.7,3.23,5.327,4.856,7.985q5.294,8.662,10.585,17.328c1.242,2.036.811,3.536-1.374,4.446a9.34,9.34,0,0,1-2.93.771c-4.659.286-9.278.966-13.98.865-5.913-.128-11.833.223-17.752.311-3.354.051-6.713.048-10.067-.037C.748,53.6-.534,51.884.209,49.434a18.129,18.129,0,0,1,1.938-4.226c2.494-4.022,5.086-7.988,7.676-11.951,2.159-3.3,4.365-6.579,6.561-9.859a4.1,4.1,0,0,0,.79-2.515c-.146-4.015-.237-8.033-.362-12.047C16.8,8.306,16.7,7.78,16.632,7.22m1.635.038a2.518,2.518,0,0,0-.143.576c.132,4.435.238,8.871.439,13.3a4.038,4.038,0,0,1-.709,2.665q-4.909,7.2-9.7,14.474c-1.28,1.95-2.417,3.993-3.607,6-.852,1.435-1.8,2.83-2.5,4.335C.917,51.021,1.518,51.97,4.184,52c3.594.046,7.19-.017,10.783-.071,5.392-.08,10.785-.327,16.173-.249a125.305,125.305,0,0,0,14.342-.919,8.342,8.342,0,0,0,1.759-.354c1.347-.443,1.621-1.241.893-2.433q-5.625-9.2-11.244-18.4c-1.4-2.3-2.651-4.7-4.139-6.94a7.157,7.157,0,0,1-1.212-3.49q-.368-4.389-.76-8.776c-.105-1.166-.251-2.328-.376-3.48l-12.136.362m13.909-5.5c-2.5-.694-12.8-.3-16.349.617a4.181,4.181,0,0,0,.185,3.373c5.1-.016,10.192.249,15.263-.381,1.117-.139,1.5-.769,1.323-1.925-.092-.583-.285-1.15-.422-1.684" transform="translate(0 0)" fill="#12263f" fill-rule="evenodd"/>
        <path id="Trazado_707897" data-name="Trazado 707897" d="M18.767,9.55,30.9,9.188c.126,1.152.271,2.314.377,3.479q.4,4.387.76,8.776a7.152,7.152,0,0,0,1.212,3.49c1.487,2.242,2.74,4.638,4.139,6.939q5.6,9.211,11.244,18.4c.729,1.191.455,1.991-.892,2.433a8.338,8.338,0,0,1-1.759.353,125.147,125.147,0,0,1-14.342.919c-5.388-.077-10.781.169-16.173.249-3.594.053-7.19.116-10.785.071-2.665-.032-3.267-.982-2.137-3.391C3.253,49.4,4.2,48,5.051,46.569c1.191-2.007,2.327-4.051,3.607-6q4.784-7.279,9.7-14.474a4.038,4.038,0,0,0,.709-2.665c-.2-4.432-.307-8.868-.438-13.3a2.5,2.5,0,0,1,.142-.576" transform="translate(-0.5 -2.292)" fill="#fff" fill-rule="evenodd"/>
        <path id="Trazado_707898" data-name="Trazado 707898" d="M37.345,2.231c.137.534.33,1.1.422,1.684.18,1.157-.206,1.786-1.323,1.925-5.071.63-10.159.366-15.263.381A4.181,4.181,0,0,1,21,2.848c3.546-.913,13.852-1.31,16.349-.617" transform="translate(-5.169 -0.468)" fill="#fff" fill-rule="evenodd"/>
        <path id="Trazado_707899" data-name="Trazado 707899" d="M34.762,13.455a48.5,48.5,0,0,0,5.253-.267.472.472,0,0,0,.328-.577.481.481,0,0,0-.577-.327,46.386,46.386,0,0,1-5,.233c-.6.022-.6.96,0,.938" transform="translate(-8.558 -3.062)" fill="#12263f"/>
        <path id="Trazado_707900" data-name="Trazado 707900" d="M34.928,18.89c1.691,0,3.375-.184,5.066-.188a.469.469,0,0,0,0-.938c-1.691,0-3.375.184-5.066.188a.469.469,0,0,0,0,.938" transform="translate(-8.599 -4.431)" fill="#12263f"/>
        <path id="Trazado_707901" data-name="Trazado 707901" d="M35.465,24.935c1.786.248,3.532-.286,5.316-.233a.469.469,0,0,0,0-.938c-1.689-.05-3.381.5-5.067.267a.485.485,0,0,0-.577.327.473.473,0,0,0,.328.577" transform="translate(-8.761 -5.926)" fill="#12263f"/>
        <path id="Trazado_707902" data-name="Trazado 707902" d="M38.423,22.077c.919,0,1.833-.122,2.752-.125a.469.469,0,0,0,0-.938c-.919,0-1.833.123-2.752.125a.469.469,0,1,0,0,.938" transform="translate(-9.467 -5.241)" fill="#12263f"/>
        <path id="Trazado_707903" data-name="Trazado 707903" d="M38.256,16.014a18.836,18.836,0,0,0,2.627-.062.469.469,0,0,0,0-.938,18.836,18.836,0,0,1-2.627.062.472.472,0,0,0-.469.469.48.48,0,0,0,.469.469" transform="translate(-9.425 -3.744)" fill="#12263f"/>
        <path id="Trazado_707904" data-name="Trazado 707904" d="M34.017,34.8s1.5,3.053,2.644,4.939q4.593,7.553,9.22,15.085c.6.976.373,1.633-.732,2a6.869,6.869,0,0,1-1.443.29,103.022,103.022,0,0,1-11.76.754c-4.419-.065-8.84.138-13.262.2-2.947.044-5.9.1-8.843.059-2.186-.027-2.679-.806-1.753-2.781.579-1.234,1.355-2.378,2.053-3.555.977-1.646,1.908-3.321,2.959-4.92Q17.022,40.9,21.051,35" transform="translate(-1.907 -8.68)" fill="#4db1f0" fill-rule="evenodd"/>
        <path id="Trazado_707905" data-name="Trazado 707905" d="M27.977,45.64a1.878,1.878,0,0,0,0-3.753,1.878,1.878,0,0,0,0,3.753" transform="translate(-6.526 -10.448)" fill="#12263f"/>
        <path id="Trazado_707906" data-name="Trazado 707906" d="M48.477,58.89a1.878,1.878,0,0,0,0-3.753,1.878,1.878,0,0,0,0,3.753" transform="translate(-11.639 -13.753)" fill="#12263f"/>
        <path id="Trazado_707907" data-name="Trazado 707907" d="M18.893,60.683a2.815,2.815,0,1,0-2.815-2.815,2.846,2.846,0,0,0,2.815,2.815" transform="translate(-4.01 -13.732)" fill="#12263f"/>
        <path id="Trazado_707908" data-name="Trazado 707908" d="M40.309,46.35a2.815,2.815,0,1,0-2.815-2.815,2.846,2.846,0,0,0,2.815,2.815" transform="translate(-9.352 -10.157)" fill="#12263f"/>
        <path id="Trazado_707909" data-name="Trazado 707909" d="M34.325,56.2c3.019,0,3.023-4.691,0-4.691s-3.023,4.691,0,4.691" transform="translate(-7.997 -12.848)" fill="#12263f"/>
      </g>
    </g>
    <g id="Grupo_1002315" data-name="Grupo 1002315" transform="translate(1347.438 436.338) rotate(-135)">
      <g id="Grupo_1002212" data-name="Grupo 1002212" clip-path="url(#clip-path-2)">
        <path id="Trazado_707910" data-name="Trazado 707910" d="M15,1.5C9.476,12.543,10.089,29.267,11.93,41.536" fill="none" stroke="#12263f" stroke-linecap="round" stroke-linejoin="round" stroke-width="3"/>
        <path id="Trazado_707911" data-name="Trazado 707911" d="M1.5,35.242c3.681,3.681,7.976,6.135,11.656,9.2a34.1,34.1,0,0,1,5.522-10.429" fill="none" stroke="#12263f" stroke-linecap="round" stroke-linejoin="round" stroke-width="3"/>
      </g>
    </g>
  </g>
</svg>
