<svg xmlns="http://www.w3.org/2000/svg" xmlns:xlink="http://www.w3.org/1999/xlink" width="72.816" height="124.5" viewBox="0 0 72.816 124.5">
  <defs>
    <clipPath id="clip-path">
      <rect id="Rect치ngulo_346374" data-name="Rect치ngulo 346374" width="20.178" height="45.944" transform="translate(0 0)" fill="none" stroke="#12263f" stroke-width="1"/>
    </clipPath>
    <clipPath id="clip-path-2">
      <rect id="Rect치ngulo_346375" data-name="Rect치ngulo 346375" width="72.816" height="71.511" transform="translate(0 0)" fill="#12263f"/>
    </clipPath>
  </defs>
  <g id="Grupo_1002339" data-name="Grupo 1002339" transform="translate(-1278 -127.285)">
    <g id="Grupo_1002317" data-name="Grupo 1002317" transform="translate(1316.287 251.785) rotate(-155)">
      <g id="Grupo_1002212" data-name="Grupo 1002212" clip-path="url(#clip-path)">
        <path id="Trazado_707910" data-name="Trazado 707910" d="M15,1.5C9.476,12.543,10.089,29.267,11.93,41.536" fill="none" stroke="#12263f" stroke-linecap="round" stroke-linejoin="round" stroke-width="3"/>
        <path id="Trazado_707911" data-name="Trazado 707911" d="M1.5,35.242c3.681,3.681,7.976,6.135,11.656,9.2a34.1,34.1,0,0,1,5.522-10.429" fill="none" stroke="#12263f" stroke-linecap="round" stroke-linejoin="round" stroke-width="3"/>
      </g>
    </g>
    <g id="Grupo_1002318" data-name="Grupo 1002318" transform="translate(1278 127.285)">
      <g id="Grupo_1002215" data-name="Grupo 1002215" clip-path="url(#clip-path-2)">
        <path id="Trazado_707912" data-name="Trazado 707912" d="M44.556,27.31c1.89,8.467,2.38,17.094,2.626,25.734.107,3.741-.071,7.5-.215,11.246-.132,3.433-2.49,6.02-5.9,7.038-2.683.8-5.921-1.138-7.389-3.494A46.815,46.815,0,0,1,29.438,59.7a105.927,105.927,0,0,1-5.762-21.428c-.305-2.036-.434-4.1-.583-6.161-.245-3.35-.525-6.7-.627-10.059a103.381,103.381,0,0,1,0-11.231C22.836,6.145,25.5,2.648,29.752.3c1.557-.858,4.987.211,6.022,2.058A57.964,57.964,0,0,1,40.138,11.2c1.572,4.456,2.656,9.079,3.925,13.637.226.808.332,1.65.493,2.476m-2.365-3.584c-1.1-3.576-2.082-7.192-3.35-10.711-1.029-2.865-2.358-5.63-3.653-8.4a6.464,6.464,0,0,0-1.612-1.941,2.715,2.715,0,0,0-3.068-.623C28.683,3.132,26.819,4.3,25.865,6.3c-1.079,2.252-1.994,4.522-1.7,7.085a22.774,22.774,0,0,1,.042,4.346c-.521,6.61.77,13.114.854,19.688a12.2,12.2,0,0,0,.281,1.809,134.091,134.091,0,0,0,3.58,13.983,57.543,57.543,0,0,0,5.037,11.8,11.284,11.284,0,0,0,2.066,2.754,4.867,4.867,0,0,0,7.03.176A5.9,5.9,0,0,0,45.084,63.4c.1-5.195.252-10.4.092-15.584a117.126,117.126,0,0,0-2.985-24.088" fill="#12263f" fill-rule="evenodd"/>
        <path id="Trazado_707913" data-name="Trazado 707913" d="M32.006,23.544c8.616,2.54,16.657,6.321,24.586,10.311,3.432,1.726,6.732,3.7,10.041,5.637a7.2,7.2,0,0,1,3.317,8.322c-.657,2.615-4.075,4.367-6.957,4.442a52.573,52.573,0,0,1-9.523-.428,117.7,117.7,0,0,1-22.311-5.612c-2-.734-3.928-1.629-5.861-2.5-3.151-1.425-6.321-2.816-9.405-4.362A111.934,111.934,0,0,1,5.756,33.894,12.263,12.263,0,0,1,0,22.738C.03,21.027,2.76,18.7,4.961,18.732a64.887,64.887,0,0,1,10.225.663c4.832.857,9.563,2.2,14.332,3.36.846.2,1.659.522,2.488.789m-4.451.226c-3.8-.817-7.566-1.761-11.4-2.416-3.115-.534-6.3-.772-9.459-1.04a7.252,7.252,0,0,0-2.582.4c-1.128.341-2.161,1.174-2.142,2.247.032,2.041.132,4.157,1.441,5.92C4.9,30.866,6.475,32.73,8.94,33.732a24.674,24.674,0,0,1,3.944,2.076c5.7,3.641,12.237,5.725,18.215,8.847a13.564,13.564,0,0,0,1.778.644,149.08,149.08,0,0,0,14.465,3.812,64.577,64.577,0,0,0,13.246,1.543,12.444,12.444,0,0,0,3.551-.381c2.973-.793,4.343-2.9,3.778-5.754a5.813,5.813,0,0,0-3.059-3.894c-4.635-2.611-9.256-5.258-14.022-7.642A128.541,128.541,0,0,0,27.555,23.77" fill="#12263f" fill-rule="evenodd"/>
        <path id="Trazado_707914" data-name="Trazado 707914" d="M35.777,21.531c3.981-2.87,7.86-5.894,12.014-8.507a64.864,64.864,0,0,1,9.225-4.463c2.025-.86,5.431.271,6.1,1.846,1.822,4.3,1.64,8.6-1.13,12.5a112.577,112.577,0,0,1-7.339,8.87c-2.276,2.594-4.69,5.075-7.073,7.582-1.462,1.538-2.915,3.094-4.487,4.525a117.645,117.645,0,0,1-18.56,13.6,52.434,52.434,0,0,1-8.659,3.981c-2.7,1.015-6.524.678-8.119-1.5a7.2,7.2,0,0,1-.059-8.958c2.335-3.043,4.651-6.111,7.181-9C20.717,35.323,26.742,28.8,33.772,23.2c.665-.559,1.3-1.16,2.005-1.667m-15.9,17.5c-3.519,4-6.8,8.194-10.115,12.357a5.822,5.822,0,0,0-1.369,4.76c.552,2.86,2.614,4.293,5.666,3.908a12.429,12.429,0,0,0,3.432-.982,64.653,64.653,0,0,0,11.693-6.415,149.068,149.068,0,0,0,11.965-8.976,13.3,13.3,0,0,0,1.406-1.265c4.364-5.143,9.637-9.535,13.549-15.053a24.41,24.41,0,0,1,2.871-3.406c1.906-1.858,2.669-4.178,3.29-6.576.55-2.126-.156-4.125-.893-6.027a2.648,2.648,0,0,0-2.83-1.275,7.2,7.2,0,0,0-2.54.6c-2.831,1.437-5.689,2.855-8.374,4.523-3.3,2.049-6.439,4.34-9.646,6.527a128.508,128.508,0,0,0-18.1,17.3" fill="#12263f" fill-rule="evenodd"/>
        <path id="Trazado_707915" data-name="Trazado 707915" d="M36.013,42.752c-4.689.786-7.606-3.341-7.278-7.2.257-3.01,2.08-4.929,4.666-6.284a5.146,5.146,0,0,1,6.1,1.1,12.2,12.2,0,0,1,1.981,3.076c1.84,4.249-.712,8.525-5.472,9.307M30.794,37.79a3.631,3.631,0,0,0,2.895,2.851,5.319,5.319,0,0,0,5.19-1.689,4.529,4.529,0,0,0,1.084-4.714c-.625-2.147-2.847-3.758-4.66-3.475-2.7.42-5.146,3.822-4.509,7.027" fill="#12263f" fill-rule="evenodd"/>
        <path id="Trazado_707916" data-name="Trazado 707916" d="M30.794,37.79c-.637-3.205,1.81-6.607,4.509-7.027,1.813-.283,4.035,1.328,4.66,3.475a4.529,4.529,0,0,1-1.084,4.714,5.319,5.319,0,0,1-5.19,1.689,3.631,3.631,0,0,1-2.895-2.851" fill="#4db1f0" fill-rule="evenodd"/>
        <path id="Trazado_707917" data-name="Trazado 707917" d="M10.314,24.138a3.75,3.75,0,1,0-3.75-3.75,3.815,3.815,0,0,0,3.75,3.75" fill="#ffa031"/>
        <path id="Trazado_707918" data-name="Trazado 707918" d="M20.665,63.211a3.75,3.75,0,1,0-3.75-3.75,3.792,3.792,0,0,0,3.75,3.75" fill="#3076b6"/>
        <path id="Trazado_707919" data-name="Trazado 707919" d="M62.648,23.423a3.75,3.75,0,1,0-3.75-3.75,3.792,3.792,0,0,0,3.75,3.75" fill="#008b8a"/>
        <path id="Trazado_707920" data-name="Trazado 707920" d="M26.307,7.768a3.792,3.792,0,0,0,3.75-3.75,3.75,3.75,0,1,0-7.5,0,3.815,3.815,0,0,0,3.75,3.75" fill="#12263f"/>
        <path id="Trazado_707921" data-name="Trazado 707921" d="M45.9,69.829a3.75,3.75,0,1,0-3.75-3.75,3.792,3.792,0,0,0,3.75,3.75" fill="#afafaf"/>
        <path id="Trazado_707922" data-name="Trazado 707922" d="M69.062,51.04a3.75,3.75,0,1,0-3.75-3.75,3.792,3.792,0,0,0,3.75,3.75" fill="#4db1f0"/>
      </g>
    </g>
  </g>
</svg>
