<svg xmlns="http://www.w3.org/2000/svg" xmlns:xlink="http://www.w3.org/1999/xlink" width="88" height="88" viewBox="0 0 88 88">
  <defs>
    <clipPath id="clip-path">
      <rect id="Rectángulo_347809" data-name="Rectángulo 347809" width="77.912" height="88" fill="none"/>
    </clipPath>
  </defs>
  <g id="Grupo_1005810" data-name="Grupo 1005810" transform="translate(-626 -7917)">
    <path id="Trazado_710239" data-name="Trazado 710239" d="M44,0A44,44,0,1,1,0,44,44,44,0,0,1,44,0Z" transform="translate(626 7917)" fill="#cee2f3"/>
    <g id="Grupo_1005809" data-name="Grupo 1005809" transform="translate(633.088 7917)">
      <g id="Grupo_1005808" data-name="Grupo 1005808" clip-path="url(#clip-path)">
        <path id="Trazado_716586" data-name="Trazado 716586" d="M90.071,306.04a6.569,6.569,0,0,1-1.406-.964,2.45,2.45,0,0,1-.74-2.219c.359-1.764-.657-2.907-1.727-4.042-.155-.164-.307-.331-.461-.5-.834-1.1-1.757-2.128-2.656-3.176-1.479-1.725-2.927-3.477-4.328-5.265a10.968,10.968,0,0,1-2.225-3.214,4.911,4.911,0,0,1,1.729-5.951,6.516,6.516,0,0,1,2.529-.955c.064.187.208.154.349.127a4.418,4.418,0,0,1,3.538,1.866,7.34,7.34,0,0,0,1.542,1.827l.025.027c.308.5.59,1.023,1.253,1.123.317.165-.16.805.322.722.351-.061.163-.586.172-.91,0-.047-.051-.1-.079-.143,0-1.632-.04-3.266.021-4.9.029-.772-.216-.946-.964-.944q-17.354.037-34.709.02a6.112,6.112,0,0,0-.927.089,2.8,2.8,0,0,1-3.135-2.506c.008-1.918-.027-3.838.015-5.755a2.169,2.169,0,0,1,1.033-1.882,3.7,3.7,0,0,1,2.174-.506q17.784,0,35.568.016c.674,0,.939-.2,1.039-.858a4.3,4.3,0,0,1,1.5-2.548l.2-.14c.586-.555,1.434-.6,2.067-1.068l0,0c.038.2.2.172.33.164a5.278,5.278,0,0,1,3.423,1.031c.036.091.078.175.2.149l.319.218c.2.587.73.975.9,1.6a10.352,10.352,0,0,1,.358,2.835c-.027,2.043-.008,4.088-.008,6.206a6.467,6.467,0,0,1,3.6-.2c.528.356,1.189.5,1.61,1.028.238.3.36,0,.511-.119a4.935,4.935,0,0,1,4.968-.748,6.651,6.651,0,0,0,3.213-.035,4.715,4.715,0,0,1,6.534,4.483c.062,1.831.028,3.665.012,5.5-.009,1.066-.437,1.547-1.382,1.636-1.022-.022-1.192-.707-1.192-1.528,0-1.858.02-3.717-.006-5.575a2.394,2.394,0,0,0-2.994-2.326c-.057.014-.077.187-.114.285a1.4,1.4,0,0,0-1.014,1.012,1.631,1.631,0,0,1-.827,1.028c-.868.439-1.482.134-1.974-.9a2.105,2.105,0,0,0-2.147-1.332,1.88,1.88,0,0,0-1.9,1.288,1.679,1.679,0,0,1-.565.807c-.814.59-1.738.348-2.307-.88a2.1,2.1,0,0,0-4.041.763,1.286,1.286,0,0,1-.637,1.126c-1.012.569-1.92-.046-1.924-1.338q-.015-5.412,0-10.824a3.178,3.178,0,0,0-.33-1.455,2.123,2.123,0,0,0-2.409-1.137,1.758,1.758,0,0,0-1.45,1.91q-.039,9.919-.057,19.838a8.158,8.158,0,0,1-.082,1.365,1.2,1.2,0,0,1-1.956.8,15.351,15.351,0,0,1-2.129-2.38c-1.406-1.595-2.729-3.262-4.1-4.892a1.739,1.739,0,0,0-1.528-.56c-2.085.734-2.647,2.481-1.509,4.186a27.2,27.2,0,0,0,2.02,2.4c.989,1.164,1.983,2.324,2.962,3.5,1.339,1.605,2.6,3.278,4.013,4.816,1.453,1.584,2.8,3.148,2.317,5.515a.337.337,0,0,0,0,.086c-.094.25-.162.489.23.526.076.219.266.178.429.177q8.907-.01,17.814-.025c.117.028.174-.031.2-.137a.267.267,0,0,0,.134-.034,6.417,6.417,0,0,0,4.257-2.5,7.426,7.426,0,0,0,1.61-4.937q.019-2.274,0-4.547c-.006-.827.28-1.382,1.191-1.432,1.047.223,1.377.6,1.386,1.649.014,1.6.1,3.212-.017,4.8-.32,4.214-2.139,7.554-6.852,9.3a9.8,9.8,0,0,0-1.736.442ZM69.3,276c5.952,0,11.9-.008,17.856.013.573,0,.8-.1.775-.734-.053-1.343-.043-2.69,0-4.034.017-.547-.166-.658-.68-.657q-17.9.021-35.8,0c-.6,0-.713.205-.7.74.032,1.287.057,2.578-.008,3.862-.036.72.235.83.873.828C57.509,275.986,63.4,276,69.3,276" transform="translate(-39.887 -218.04)"/>
        <path id="Trazado_716587" data-name="Trazado 716587" d="M53.261,67.727a6.514,6.514,0,0,0-2.529.955A4.911,4.911,0,0,0,49,74.633a10.971,10.971,0,0,0,2.225,3.214c1.4,1.788,2.85,3.541,4.328,5.265.9,1.048,1.822,2.074,2.656,3.176l-2.715.031a.244.244,0,0,0-.143-.032c-.085-.734-.379-1.348-1.211-1.308-.39.019-.79.056-1.183.057q-8.679.012-17.358,0-8.249-.007-16.5-.029a3.658,3.658,0,0,1-2.346-.955c-1.486-1.218-1.7-2.8-1.7-4.648q.085-32.568.035-65.137a2.03,2.03,0,0,0-.036-.763,2.375,2.375,0,0,1,.159-1.79,4.553,4.553,0,0,1,4.661-3.126q10.355,0,20.71,0c1.136,0,1.422-.227,1.719-1.332l2.5.081c.177,1.006.447,1.242,1.445,1.25.686.006,1.372,0,2.058,0l18.353.029a7.1,7.1,0,0,1,2.062,5.6q-.03,18.922-.015,37.844c0,.3.115.638-.184.882l-.318-.218-.2-.149a5.277,5.277,0,0,0-3.423-1.031c-.131.008-.291.034-.329-.164.008-.315.317-.261.473-.328A2.759,2.759,0,0,0,66.5,48.339c.017-1.4-.005-2.8.006-4.206.02-2.513-1.244-3.526-3.479-3.475-.086,0-.172,0-.258,0H24.146c-.286,0-.572.021-.858.01a2.636,2.636,0,0,0-2.643,2.763c.062,1.6.044,3.2,0,4.805A2.91,2.91,0,0,0,21.5,50.53c-.022.116.042.159.144.167a2.407,2.407,0,0,0,1.954.531q20-.007,40-.005c.222,0,.514-.153.672.164-.633.464-1.481.513-2.067,1.068-.124-.036-.162.05-.2.14a4.3,4.3,0,0,0-1.5,2.549c-.1.66-.365.859-1.039.858q-17.784-.032-35.568-.016a3.7,3.7,0,0,0-2.174.506,2.169,2.169,0,0,0-1.033,1.881c-.042,1.918-.007,3.837-.016,5.755a2.8,2.8,0,0,0,3.136,2.506,6.1,6.1,0,0,1,.927-.089q17.355,0,34.709-.02c.748,0,.993.172.964.944-.061,1.63-.02,3.264-.021,4.9-.231-.006-.336.147-.416.331-.663-.1-.945-.627-1.252-1.123.019-.048.172-.037.063-.141l-.089.114a7.344,7.344,0,0,1-1.542-1.827,4.418,4.418,0,0,0-3.538-1.866c-.046-.237-.119-.4-.349-.126m-7.73-36.586.089.2.084-.206a1.35,1.35,0,0,0,1.029-1.611c-.14-.787-.757-.973-1.448-.988-.27-.006-.425-.058-.424-.376.009-2.6-.025-5.2.025-7.806a1.45,1.45,0,0,0-1.429-1.622c-.6-.015-1.2-.006-1.8,0A1.331,1.331,0,0,0,40.2,20.014a1.294,1.294,0,0,0,1.457,1.278c.578-.018.642.209.636.693-.024,1.858-.014,3.717-.008,5.576,0,.589.032,1-.854,1.033a1.126,1.126,0,0,0-.884,1.944,1.713,1.713,0,0,0,1.293.58c1.229-.006,2.458.015,3.687.024M36.762,71.616a.2.2,0,0,0-.117-.117A3.833,3.833,0,0,0,33.7,70.391c-3-.119-6.006-.1-9.007-.021a3.907,3.907,0,0,0-3.915,3,17.848,17.848,0,0,0-.131,2.789,4.1,4.1,0,0,0,4.037,4.209c3-.088,6.005-.026,9.008-.007a4.173,4.173,0,0,0,3.045-1.232c1.678-1.674,1.645-5.644.02-7.515m17.4-42.231.13-.186.041-.326c.33-.128.6-.285.307-.689.167-.9.324-1.806.5-2.705a1.481,1.481,0,0,0-.984-1.747,1.244,1.244,0,0,0-1.553.805,5.531,5.531,0,0,0-.181,1.586,6.079,6.079,0,0,1-1.476,3.988,8.909,8.909,0,0,1-3.939,3.1,8.58,8.58,0,0,1-7.841-.433l-.187-.12c-.313.024-.423-.3-.667-.392-.027-.317-.26-.3-.485-.3-.549-.743-1.248-1.344-1.79-2.118a10.053,10.053,0,0,1-1.461-4.206c-.349-1.981.452-3.8,1.381-5.533a8.671,8.671,0,0,1,3.558-3.121,7.979,7.979,0,0,1,3.834-1.005,1.535,1.535,0,0,0,1.5-1.212,1.192,1.192,0,0,0-.945-1.33,5.181,5.181,0,0,0-1.964-.014,11.505,11.505,0,0,0-8.469,5.8,11.167,11.167,0,0,0-1.382,7.411,8.655,8.655,0,0,1,.414,2.408c.007.2.154.272.3.35a13.3,13.3,0,0,0,4.71,5.343,10.873,10.873,0,0,0,10.274.9,11.407,11.407,0,0,0,3.28-1.955l.14-.165c.44-.864,1.556-1.193,1.768-2.237.254.008.47-.033.458-.362l.73-1.533M45.7,18.085a1.035,1.035,0,0,0,1.024,1.268c1.631-.3,1.808.665,1.9,1.827,0,.028,0,.057,0,.085a1.136,1.136,0,0,0,1.305,1.026,1.1,1.1,0,0,0,1.089-1.09,9.671,9.671,0,0,0-.008-1.222c-.043-.455.118-.605.571-.568a3.159,3.159,0,0,0,1.794-.316,1.077,1.077,0,0,0,.555-1.2.911.911,0,0,0-.69-.918,3.846,3.846,0,0,0-1.418-.119c-.662.041-.885-.233-.806-.851a3.652,3.652,0,0,0,.048-.675c-.029-.484.018-.977-.571-1.252a1.3,1.3,0,0,0-1.5.106,2.072,2.072,0,0,0-.554,1.539c-.015,1.119-.022,1.118-1.118,1.119-.114,0-.229,0-.343,0-.97.01-1.255.286-1.286,1.244" transform="translate(-12.363 -6.009)" fill="#5ecff6"/>
        <path id="Trazado_716588" data-name="Trazado 716588" d="M29.946,1.264c-.3,1.105-.583,1.332-1.719,1.332q-10.355,0-20.71,0A4.552,4.552,0,0,0,2.856,5.722a2.375,2.375,0,0,0-.16,1.79,2.03,2.03,0,0,1,.037.763q0,32.568-.035,65.137c0,1.848.213,3.43,1.7,4.648a3.658,3.658,0,0,0,2.346.955q8.249.016,16.5.029,8.679.008,17.359,0c.393,0,.793-.038,1.183-.057.832-.04,1.125.573,1.211,1.308a.15.15,0,0,0,0,.162c-.2.932-.578,1.172-1.783,1.172-11.369,0-22.739-.021-34.108.014a7.021,7.021,0,0,1-4.357-1.566l-.185-.131a6.2,6.2,0,0,1-1.535-1.879l-.136-.188a5.1,5.1,0,0,1-.7-2.446Q.162,41.97.154,8.51A11.207,11.207,0,0,0,.028,7.182,6.015,6.015,0,0,1,.978,3.628,6.416,6.416,0,0,1,5.519.262,10.881,10.881,0,0,1,7.608.029C14.451.012,21.3.021,28.139.016c.9,0,1.612.242,1.807,1.248" transform="translate(0 -0.013)"/>
        <path id="Trazado_716589" data-name="Trazado 716589" d="M210.23,2.612l-18.353-.029c-.686,0-1.372,0-2.059,0-1-.008-1.268-.244-1.445-1.25.232-1.017.6-1.324,1.617-1.325,6.873,0,13.747-.018,20.621.009a7.754,7.754,0,0,1,5.315,1.844,6.194,6.194,0,0,1,2.192,4.549c.254,15.4.061,30.807.115,46.21,0,1.338-.2,1.636-1.293,2.068-1.2-.424-1.274-.543-1.274-1.842q0-22.246-.019-44.493a7.413,7.413,0,0,0-.405-3.085c-.836-1.883-2.521-2.789-5.011-2.655" transform="translate(-155.923 0)"/>
        <path id="Trazado_716590" data-name="Trazado 716590" d="M315.253,15.1c2.49-.134,4.175.772,5.011,2.655a7.414,7.414,0,0,1,.405,3.085q.041,22.246.019,44.493c0,1.3.075,1.418,1.274,1.842v2.693a6.469,6.469,0,0,0-3.6.2c0-2.118-.019-4.162.008-6.206a10.351,10.351,0,0,0-.358-2.835c-.166-.621-.7-1.009-.9-1.6.3-.244.184-.583.184-.882q.008-18.922.015-37.844a7.1,7.1,0,0,0-2.062-5.6" transform="translate(-260.945 -12.492)" fill="#0aafe0"/>
        <path id="Trazado_716591" data-name="Trazado 716591" d="M405.752,346.456c.037-.1.056-.271.114-.285a2.394,2.394,0,0,1,2.994,2.326c.026,1.858.007,3.717.006,5.575,0,.821.17,1.506,1.192,1.528q0,1.343,0,2.686c-.911.051-1.2.605-1.191,1.432q.018,2.274,0,4.547a7.426,7.426,0,0,1-1.61,4.937A6.418,6.418,0,0,1,403,371.7c.041-.421.4-.613.654-.865a8.454,8.454,0,0,0,2.633-6.353c-.035-5.311-.018-10.622,0-15.933a3.54,3.54,0,0,0-.53-2.1" transform="translate(-333.574 -286.478)" fill="#f0936e"/>
        <path id="Trazado_716592" data-name="Trazado 716592" d="M5.109,451.985l.136.188c-.1-.027-.174-.065-.136-.188" transform="translate(-4.221 -374.123)" fill="#020202"/>
        <path id="Trazado_716593" data-name="Trazado 716593" d="M14.86,463.982l.185.131c-.122.042-.158-.039-.185-.131" transform="translate(-12.3 -384.053)" fill="#020202"/>
        <path id="Trazado_716594" data-name="Trazado 716594" d="M249.457,466.165a.15.15,0,0,1,0-.162.243.243,0,0,1,.143.032l-.141.13" transform="translate(-206.464 -385.726)" fill="#eaeef2"/>
        <path id="Trazado_716595" data-name="Trazado 716595" d="M258.235,291.031a3.54,3.54,0,0,1,.53,2.1c-.017,5.311-.033,10.622,0,15.933a8.453,8.453,0,0,1-2.633,6.353c-.256.252-.613.444-.654.865a.268.268,0,0,1-.134.034l-.2.137q-8.907.013-17.814.025c-.162,0-.352.041-.429-.177.02-.218.114-.468-.23-.526a.335.335,0,0,1-.005-.085c.48-2.367-.864-3.93-2.317-5.515-1.411-1.538-2.674-3.211-4.013-4.816-.978-1.173-1.972-2.333-2.962-3.5a27.2,27.2,0,0,1-2.02-2.4c-1.137-1.706-.576-3.453,1.51-4.187a1.739,1.739,0,0,1,1.528.56c1.367,1.63,2.69,3.3,4.1,4.892a15.34,15.34,0,0,0,2.129,2.38,1.2,1.2,0,0,0,1.956-.8,8.154,8.154,0,0,0,.082-1.365q.032-9.919.057-19.838a1.758,1.758,0,0,1,1.45-1.91,2.122,2.122,0,0,1,2.409,1.137,3.176,3.176,0,0,1,.33,1.455q-.017,5.412,0,10.824c0,1.292.911,1.907,1.924,1.338a1.285,1.285,0,0,0,.637-1.125,2.1,2.1,0,0,1,4.041-.763c.569,1.228,1.493,1.47,2.307.88a1.677,1.677,0,0,0,.565-.806,1.88,1.88,0,0,1,1.9-1.288,2.1,2.1,0,0,1,2.146,1.332c.492,1.032,1.107,1.337,1.974.9a1.632,1.632,0,0,0,.827-1.028,1.394,1.394,0,0,1,1.014-1.012" transform="translate(-186.057 -231.052)" fill="#ffb88c"/>
        <path id="Trazado_716596" data-name="Trazado 716596" d="M81.553,310.4c-5.895,0-11.79-.009-17.685.013-.638,0-.909-.108-.873-.828.065-1.284.04-2.575.008-3.862-.013-.534.1-.741.7-.74q17.9.028,35.8,0c.513,0,.7.11.68.657-.041,1.344-.05,2.691,0,4.034.025.634-.2.736-.775.734-5.952-.02-11.9-.013-17.856-.013M71.75,309c1-.005,1.546-.486,1.53-1.346A1.308,1.308,0,0,0,71.8,306.42a1.551,1.551,0,0,0-1.564,1.415c.023.518.866,1.164,1.513,1.16m15.8,0c1.01,0,1.556-.473,1.545-1.331a1.3,1.3,0,0,0-1.465-1.244,1.524,1.524,0,0,0-1.568,1.405c.009.515.843,1.171,1.488,1.17M77.2,309a1.3,1.3,0,0,0,1.411-1.3,1.475,1.475,0,0,0-2.923-.009c-.011.78.591,1.3,1.512,1.308m-10.6,0c.928-.006,1.548-.542,1.522-1.315a1.37,1.37,0,0,0-1.571-1.263,1.294,1.294,0,0,0-1.341,1.285A1.226,1.226,0,0,0,66.6,309m15.769,0c.946,0,1.548-.487,1.565-1.273a1.372,1.372,0,0,0-1.529-1.3,1.3,1.3,0,0,0-1.383,1.243A1.227,1.227,0,0,0,82.367,309" transform="translate(-52.141 -252.449)" fill="#eaeef2"/>
        <path id="Trazado_716597" data-name="Trazado 716597" d="M276.351,385.527c.08-.184.185-.336.416-.331.028.048.08.1.079.143-.009.324.179.849-.172.91-.483.083-.005-.557-.323-.722" transform="translate(-228.745 -318.84)" fill="#2d6275"/>
        <path id="Trazado_716598" data-name="Trazado 716598" d="M293.476,491.777c.345.058.251.309.231.526-.392-.038-.325-.276-.231-.526" transform="translate(-242.86 -407.06)" fill="#767676"/>
        <path id="Trazado_716599" data-name="Trazado 716599" d="M237.412,357.59c.231-.273.3-.11.349.127-.141.027-.285.06-.349-.127" transform="translate(-196.514 -295.871)" fill="#5cccf2"/>
        <path id="Trazado_716600" data-name="Trazado 716600" d="M323.054,270.374l.2.149c-.123.026-.165-.057-.2-.149" transform="translate(-267.403 -223.798)" fill="#5cccf2"/>
        <path id="Trazado_716601" data-name="Trazado 716601" d="M288.151,269.715c.036-.089.074-.175.2-.14l-.2.14" transform="translate(-238.512 -223.13)" fill="#020202"/>
        <path id="Trazado_716602" data-name="Trazado 716602" d="M401.061,495.062l.2-.137c-.026.105-.083.165-.2.137" transform="translate(-331.972 -409.666)" fill="#f0936e"/>
        <path id="Trazado_716603" data-name="Trazado 716603" d="M91.69,211.859c-.158-.317-.449-.164-.672-.164q-20-.007-40,.005a2.407,2.407,0,0,1-1.954-.531L48.922,211a2.91,2.91,0,0,1-.852-2.292c.042-1.6.06-3.206,0-4.806a2.637,2.637,0,0,1,2.644-2.763c.285.011.572-.01.858-.01H90.192c.086,0,.172,0,.257,0,2.235-.051,3.5.962,3.479,3.476-.011,1.4.011,2.8-.006,4.205a2.76,2.76,0,0,1-1.763,2.723c-.157.067-.465.013-.473.328l0,0m-20.661-2.737c6.526,0,13.052-.008,19.579.014.6,0,.782-.138.756-.749a34.185,34.185,0,0,1,0-3.6c.053-.847-.158-1.1-1.06-1.1q-19.321.051-38.642.023a3.914,3.914,0,0,1-.429,0c-.454-.05-.592.153-.584.6.022,1.316.053,2.635-.01,3.949-.035.724.187.894.894.89,6.5-.028,13-.016,19.493-.016" transform="translate(-39.786 -166.481)"/>
        <path id="Trazado_716604" data-name="Trazado 716604" d="M134.72,60.5c-.212,1.044-1.328,1.373-1.768,2.237-.1.009-.165.049-.14.165a11.411,11.411,0,0,1-3.28,1.955,10.874,10.874,0,0,1-10.274-.9,13.3,13.3,0,0,1-4.71-5.343c.185-.307.177-.317-.3-.35a8.649,8.649,0,0,0-.414-2.408,11.168,11.168,0,0,1,1.382-7.412,11.5,11.5,0,0,1,8.469-5.8,5.181,5.181,0,0,1,1.964.014,1.192,1.192,0,0,1,.945,1.33,1.535,1.535,0,0,1-1.5,1.211,7.98,7.98,0,0,0-3.834,1.005,8.672,8.672,0,0,0-3.558,3.121c-.93,1.734-1.73,3.552-1.381,5.533a10.054,10.054,0,0,0,1.461,4.206c.542.774,1.241,1.374,1.79,2.117.053.275.238.339.485.3.244.095.353.417.667.393.031.089.066.172.187.12a8.58,8.58,0,0,0,7.841.432,8.907,8.907,0,0,0,3.939-3.1,6.08,6.08,0,0,0,1.476-3.988,5.539,5.539,0,0,1,.181-1.586,1.244,1.244,0,0,1,1.553-.805,1.482,1.482,0,0,1,.984,1.747c-.18.9-.337,1.8-.5,2.705-.467.067-.187.467-.307.689q-.021.163-.041.326c-.092.028-.169.067-.13.186l-.73,1.533c-.214.043-.432.082-.459.362" transform="translate(-94.11 -35.228)"/>
        <path id="Trazado_716605" data-name="Trazado 716605" d="M64.148,374.559c1.624,1.87,1.658,5.841-.02,7.515a4.171,4.171,0,0,1-3.046,1.232c-3-.019-6.008-.081-9.008.008a4.1,4.1,0,0,1-4.037-4.209,17.849,17.849,0,0,1,.131-2.789,3.907,3.907,0,0,1,3.915-3c3-.075,6.009-.1,9.007.022a3.832,3.832,0,0,1,2.941,1.108q-.053.17.117.117m-7.779,6.154v.012c1.4,0,2.8-.016,4.2.006.878.014,1.775-.106,2.008-1.046a3.923,3.923,0,0,0-.3-3.367,1.317,1.317,0,0,0-1.07-.444c-3.089,0-6.178-.009-9.266.02a1.229,1.229,0,0,0-1.29,1.213,14.943,14.943,0,0,0,0,2.4,1.263,1.263,0,0,0,1.417,1.208q2.145,0,4.29,0" transform="translate(-39.748 -308.951)"/>
        <path id="Trazado_716606" data-name="Trazado 716606" d="M166.9,86.241c-1.229-.01-2.458-.03-3.687-.024a1.713,1.713,0,0,1-1.293-.58,1.126,1.126,0,0,1,.884-1.944c.886-.033.856-.444.854-1.033-.006-1.859-.016-3.717.007-5.576.006-.484-.058-.711-.636-.693a1.294,1.294,0,0,1-1.457-1.278,1.331,1.331,0,0,1,1.452-1.281c.6,0,1.2-.013,1.8,0a1.45,1.45,0,0,1,1.429,1.622c-.05,2.6-.016,5.2-.024,7.806,0,.318.154.37.423.376.691.015,1.308.2,1.448.988a1.35,1.35,0,0,1-1.029,1.611l-.173,0" transform="translate(-133.729 -61.108)"/>
        <path id="Trazado_716607" data-name="Trazado 716607" d="M193.461,49.953c.031-.957.317-1.234,1.286-1.244.114,0,.229,0,.343,0,1.1,0,1.1,0,1.118-1.119a2.072,2.072,0,0,1,.554-1.539,1.3,1.3,0,0,1,1.5-.106c.589.275.542.769.571,1.253a3.634,3.634,0,0,1-.048.675c-.08.618.144.892.806.851a3.849,3.849,0,0,1,1.418.119.911.911,0,0,1,.69.918,1.078,1.078,0,0,1-.555,1.2,3.16,3.16,0,0,1-1.794.316c-.453-.038-.613.113-.571.568a9.734,9.734,0,0,1,.008,1.222,1.1,1.1,0,0,1-1.089,1.09,1.136,1.136,0,0,1-1.306-1.026c0-.028,0-.057,0-.086-.1-1.162-.273-2.128-1.9-1.827a1.036,1.036,0,0,1-1.024-1.268" transform="translate(-160.119 -37.876)"/>
        <path id="Trazado_716608" data-name="Trazado 716608" d="M243.631,129.416c.12-.222-.159-.622.307-.689.288.4.023.561-.307.689" transform="translate(-201.661 -106.552)" fill="#5cccf2"/>
        <path id="Trazado_716609" data-name="Trazado 716609" d="M148.316,150.977c-.247.036-.432-.028-.485-.3.225,0,.459-.014.485.3" transform="translate(-122.365 -124.718)" fill="#5cccf2"/>
        <path id="Trazado_716610" data-name="Trazado 716610" d="M235.742,144.958c.027-.28.244-.319.459-.362.012.329-.2.37-.459.362" transform="translate(-195.132 -119.687)" fill="#5cccf2"/>
        <path id="Trazado_716611" data-name="Trazado 716611" d="M116.907,133.716c.475.033.484.043.3.35-.145-.078-.292-.154-.3-.35" transform="translate(-96.768 -110.681)" fill="#020202"/>
        <path id="Trazado_716612" data-name="Trazado 716612" d="M192.542,145.877l.173,0-.084.206-.089-.2" transform="translate(-159.373 -120.744)" fill="#5cccf2"/>
        <path id="Trazado_716613" data-name="Trazado 716613" d="M53.013,258.443l.144.167c-.1-.009-.166-.051-.144-.167" transform="translate(-43.877 -213.922)" fill="#020202"/>
        <path id="Trazado_716614" data-name="Trazado 716614" d="M224.639,159.849c-.024-.115.039-.156.14-.165l-.14.165" transform="translate(-185.937 -132.176)" fill="#5cccf2"/>
        <path id="Trazado_716615" data-name="Trazado 716615" d="M154.706,154.832c-.121.052-.156-.031-.187-.12l.187.12" transform="translate(-127.901 -128.06)" fill="#5cccf2"/>
        <path id="Trazado_716616" data-name="Trazado 716616" d="M268.93,379.893l.089-.114c.109.1-.045.093-.063.141l-.026-.027" transform="translate(-222.602 -314.356)" fill="#5cccf2"/>
        <path id="Trazado_716617" data-name="Trazado 716617" d="M141.017,380.285q-.17.053-.117-.117a.2.2,0,0,1,.117.117" transform="translate(-116.617 -314.678)" fill="#5cccf2"/>
        <path id="Trazado_716618" data-name="Trazado 716618" d="M242.59,134.8c-.039-.119.038-.158.13-.186Z" transform="translate(-200.791 -111.426)" fill="#5cccf2"/>
        <path id="Trazado_716619" data-name="Trazado 716619" d="M106.556,315.874c-.647,0-1.49-.643-1.513-1.16a1.55,1.55,0,0,1,1.563-1.415,1.307,1.307,0,0,1,1.479,1.229c.016.86-.531,1.341-1.53,1.346" transform="translate(-86.947 -259.328)" fill="#020202"/>
        <path id="Trazado_716620" data-name="Trazado 716620" d="M198.382,315.872c-.645,0-1.48-.654-1.488-1.17a1.524,1.524,0,0,1,1.568-1.405,1.3,1.3,0,0,1,1.465,1.244c.011.858-.535,1.329-1.545,1.331" transform="translate(-162.976 -259.327)" fill="#020202"/>
        <path id="Trazado_716621" data-name="Trazado 716621" d="M138.184,315.875c-.921-.007-1.523-.528-1.512-1.308a1.475,1.475,0,0,1,2.923.01,1.3,1.3,0,0,1-1.411,1.3" transform="translate(-113.127 -259.326)" fill="#020202"/>
        <path id="Trazado_716622" data-name="Trazado 716622" d="M77.241,315.874a1.226,1.226,0,0,1-1.39-1.293,1.294,1.294,0,0,1,1.341-1.285,1.37,1.37,0,0,1,1.571,1.263c.026.773-.594,1.309-1.522,1.315" transform="translate(-62.784 -259.326)" fill="#020202"/>
        <path id="Trazado_716623" data-name="Trazado 716623" d="M168.991,315.874a1.227,1.227,0,0,1-1.347-1.334,1.3,1.3,0,0,1,1.383-1.243,1.372,1.372,0,0,1,1.529,1.3c-.017.785-.62,1.275-1.565,1.273" transform="translate(-138.764 -259.326)" fill="#020202"/>
        <path id="Trazado_716624" data-name="Trazado 716624" d="M83.389,221.4c-6.5,0-13-.011-19.493.016-.707,0-.929-.167-.894-.89.063-1.314.032-2.633.01-3.949-.008-.442.13-.645.584-.6a3.956,3.956,0,0,0,.429,0q19.321,0,38.642-.023c.9,0,1.113.253,1.06,1.1a34.183,34.183,0,0,0,0,3.6c.026.611-.16.751-.756.749-6.526-.022-13.052-.014-19.579-.014" transform="translate(-52.146 -178.755)" fill="#eaeef2"/>
        <path id="Trazado_716625" data-name="Trazado 716625" d="M68.818,393.31q-2.145,0-4.29,0a1.263,1.263,0,0,1-1.417-1.208,14.943,14.943,0,0,1,0-2.4,1.229,1.229,0,0,1,1.29-1.213c3.089-.028,6.177-.024,9.266-.02a1.317,1.317,0,0,1,1.07.444,3.923,3.923,0,0,1,.3,3.367c-.233.94-1.13,1.06-2.008,1.046-1.4-.022-2.8-.006-4.2-.006v-.012" transform="translate(-52.197 -321.548)" fill="#fbd11a"/>
      </g>
    </g>
  </g>
</svg>
