<svg xmlns="http://www.w3.org/2000/svg" xmlns:xlink="http://www.w3.org/1999/xlink" width="397.422" height="407.191" viewBox="0 0 397.422 407.191">
  <defs>
    <clipPath id="clip-path">
      <rect id="Rectángulo_345016" data-name="Rectángulo 345016" width="397.422" height="407.191" fill="none"/>
    </clipPath>
    <clipPath id="clip-path-5">
      <rect id="Rectángulo_344991" data-name="Rectángulo 344991" width="50.174" height="71.413" fill="none"/>
    </clipPath>
    <clipPath id="clip-path-7">
      <rect id="Rectángulo_344993" data-name="Rectángulo 344993" width="11.498" height="11.454" fill="none"/>
    </clipPath>
    <clipPath id="clip-path-8">
      <rect id="Rectángulo_344994" data-name="Rectángulo 344994" width="2.311" height="2.231" fill="none"/>
    </clipPath>
    <clipPath id="clip-path-9">
      <rect id="Rectángulo_344995" data-name="Rectángulo 344995" width="59.876" height="63.33" fill="none"/>
    </clipPath>
    <clipPath id="clip-path-11">
      <rect id="Rectángulo_344997" data-name="Rectángulo 344997" width="25.33" height="16.158" fill="none"/>
    </clipPath>
    <clipPath id="clip-path-12">
      <rect id="Rectángulo_344998" data-name="Rectángulo 344998" width="37.795" height="33.181" fill="none"/>
    </clipPath>
    <clipPath id="clip-path-13">
      <rect id="Rectángulo_344999" data-name="Rectángulo 344999" width="36.902" height="63.624" fill="none"/>
    </clipPath>
    <clipPath id="clip-path-16">
      <rect id="Rectángulo_345007" data-name="Rectángulo 345007" width="22.904" height="105.322" fill="none"/>
    </clipPath>
    <clipPath id="clip-path-17">
      <rect id="Rectángulo_345008" data-name="Rectángulo 345008" width="2.485" height="2.477" fill="none"/>
    </clipPath>
    <clipPath id="clip-path-18">
      <rect id="Rectángulo_345009" data-name="Rectángulo 345009" width="16.751" height="23.09" fill="none"/>
    </clipPath>
    <clipPath id="clip-path-19">
      <rect id="Rectángulo_345010" data-name="Rectángulo 345010" width="20.35" height="15.876" fill="none"/>
    </clipPath>
    <clipPath id="clip-path-20">
      <rect id="Rectángulo_345011" data-name="Rectángulo 345011" width="19.474" height="12.732" fill="none"/>
    </clipPath>
    <clipPath id="clip-path-21">
      <rect id="Rectángulo_345012" data-name="Rectángulo 345012" width="41.283" height="65.339" fill="none"/>
    </clipPath>
    <clipPath id="clip-path-22">
      <rect id="Rectángulo_345013" data-name="Rectángulo 345013" width="25.007" height="10.157" fill="none"/>
    </clipPath>
    <clipPath id="clip-path-23">
      <rect id="Rectángulo_345014" data-name="Rectángulo 345014" width="114.635" height="114.691" fill="none"/>
    </clipPath>
  </defs>
  <g id="Grupo_998956" data-name="Grupo 998956" transform="translate(20 1)">
    <g id="Grupo_998955" data-name="Grupo 998955" transform="translate(-20 -1)" clip-path="url(#clip-path)">
      <g id="Grupo_998895" data-name="Grupo 998895">
        <g id="Grupo_998894" data-name="Grupo 998894" clip-path="url(#clip-path)">
          <path id="Trazado_699873" data-name="Trazado 699873" d="M135.512,214.047a19.708,19.708,0,0,1,5.248-.091l2.74-4.023,7.492,2.95-.737,4.81a19.746,19.746,0,0,1,3.778,3.644l4.779-.908,3.213,7.383-3.922,2.878a19.715,19.715,0,0,1,.091,5.249l4.023,2.74-2.95,7.492-4.811-.738a19.712,19.712,0,0,1-3.644,3.778l.907,4.78-7.383,3.213-2.878-3.922a19.753,19.753,0,0,1-5.249.091l-2.74,4.023-7.492-2.95.738-4.811a19.746,19.746,0,0,1-3.778-3.644l-4.78.908-3.212-7.384,3.921-2.878a19.712,19.712,0,0,1-.091-5.249l-4.023-2.739,2.95-7.492,4.811.737a19.747,19.747,0,0,1,3.644-3.778l-.907-4.779,7.383-3.213Zm-.138,11.551a8.637,8.637,0,1,0,11.366,4.474,8.638,8.638,0,0,0-11.366-4.474" transform="translate(-11.338 -20.742)" fill="#f5f5f5"/>
          <path id="Trazado_699874" data-name="Trazado 699874" d="M22.005,305.027a20.9,20.9,0,0,1,5.563-.1l2.9-4.264,7.942,3.126-.781,5.1a20.9,20.9,0,0,1,4,3.863l5.067-.962,3.406,7.827-4.157,3.051a20.878,20.878,0,0,1,.1,5.565l4.264,2.9-3.126,7.942-5.1-.782a20.9,20.9,0,0,1-3.863,4l.962,5.066-7.827,3.406-3.051-4.157a20.913,20.913,0,0,1-5.564.1l-2.9,4.264L11.9,347.853l.782-5.1a20.9,20.9,0,0,1-4-3.863l-5.067.962L.2,332.025l4.157-3.051a20.871,20.871,0,0,1-.1-5.564L0,320.506l3.126-7.941,5.1.781a20.948,20.948,0,0,1,3.863-4l-.962-5.067,7.827-3.4Zm-.146,12.245a9.156,9.156,0,1,0,12.049,4.743,9.156,9.156,0,0,0-12.049-4.743" transform="translate(0 -29.707)" fill="#ebebeb"/>
          <path id="Trazado_699875" data-name="Trazado 699875" d="M350.253,190.014a20.938,20.938,0,0,1,5.568-.1l2.906-4.268,7.949,3.129-.782,5.1a20.927,20.927,0,0,1,4.008,3.866l5.071-.962,3.407,7.833-4.16,3.053a20.946,20.946,0,0,1,.1,5.569l4.267,2.906-3.129,7.949-5.1-.783a20.9,20.9,0,0,1-3.866,4.008l.962,5.071-7.832,3.408-3.054-4.161a20.9,20.9,0,0,1-5.568.1L348.086,236l-7.949-3.129.782-5.1a20.933,20.933,0,0,1-4.008-3.867l-5.07.963-3.408-7.833,4.16-3.053a20.906,20.906,0,0,1-.1-5.568l-4.268-2.906,3.129-7.949,5.1.783a20.936,20.936,0,0,1,3.866-4.008l-.962-5.071,7.832-3.408Zm-.146,12.255a9.164,9.164,0,1,0,12.059,4.747,9.163,9.163,0,0,0-12.059-4.747" transform="translate(-32.43 -18.343)" fill="#f5f5f5"/>
          <path id="Trazado_699876" data-name="Trazado 699876" d="M179.771,20.752a33.012,33.012,0,0,1,8.044-3.5l1.657-7.963,13.453-.235,1.937,7.9a32.957,32.957,0,0,1,8.163,3.212l6.8-4.457,9.681,9.346-4.215,6.95a32.94,32.94,0,0,1,3.5,8.047l7.962,1.657.236,13.453-7.9,1.937a32.957,32.957,0,0,1-3.212,8.161l4.456,6.8-9.345,9.68-6.951-4.215a32.94,32.94,0,0,1-8.046,3.5l-1.657,7.963-13.453.236-1.936-7.9a33,33,0,0,1-8.163-3.211l-6.8,4.456L164.3,73.222l4.215-6.951a32.942,32.942,0,0,1-3.5-8.046l-7.962-1.656-.236-13.453,7.9-1.938a32.98,32.98,0,0,1,3.212-8.161l-4.456-6.8,9.345-9.68Zm7.172,17.922a14.434,14.434,0,1,0,20.409-.359,14.434,14.434,0,0,0-20.409.359" transform="translate(-15.494 -0.895)" fill="#f5f5f5"/>
          <path id="Trazado_699877" data-name="Trazado 699877" d="M105.381,8.016a22.275,22.275,0,0,1,5.423-2.4L111.887.223l9.1-.222,1.346,5.331a22.287,22.287,0,0,1,5.534,2.133l4.576-3.045,6.589,6.275-2.817,4.719a22.3,22.3,0,0,1,2.4,5.424L144,21.922l.222,9.1-5.331,1.345a22.308,22.308,0,0,1-2.133,5.534l3.044,4.577-6.273,6.589-4.72-2.818a22.287,22.287,0,0,1-5.424,2.4L122.3,54.039l-9.1.222-1.345-5.331a22.312,22.312,0,0,1-5.534-2.134l-4.576,3.045-6.59-6.274,2.818-4.72a22.246,22.246,0,0,1-2.4-5.423L90.189,32.34l-.223-9.1L95.3,21.9a22.268,22.268,0,0,1,2.133-5.533l-3.045-4.577L100.66,5.2ZM110.313,20.1a9.76,9.76,0,1,0,13.8-.338,9.76,9.76,0,0,0-13.8.338" transform="translate(-8.889 0)" fill="#ebebeb"/>
          <path id="Trazado_699878" data-name="Trazado 699878" d="M109.615,81.914a21.191,21.191,0,0,1,5.172-2.248l1.065-5.119L124.5,74.4l1.245,5.077a21.134,21.134,0,0,1,5.247,2.065l4.371-2.866,6.224,6.009-2.71,4.467a21.211,21.211,0,0,1,2.248,5.173l5.118,1.065.152,8.649-5.078,1.245a21.166,21.166,0,0,1-2.064,5.247l2.864,4.372-6.007,6.223-4.468-2.71a21.19,21.19,0,0,1-5.172,2.248l-1.066,5.119-8.648.151-1.245-5.077a21.212,21.212,0,0,1-5.248-2.065l-4.371,2.865-6.223-6.008,2.709-4.468A21.209,21.209,0,0,1,100.131,106l-5.118-1.065-.152-8.649,5.078-1.245A21.156,21.156,0,0,1,102,89.8l-2.865-4.372,6.007-6.223Zm4.611,11.521a9.279,9.279,0,1,0,13.121-.231,9.279,9.279,0,0,0-13.121.231" transform="translate(-9.373 -7.351)" fill="#f5f5f5"/>
          <path id="Trazado_699879" data-name="Trazado 699879" d="M58.588,45.958a10.4,10.4,0,0,1,2.531-1.1l.521-2.505,4.234-.074.609,2.486a10.355,10.355,0,0,1,2.568,1.01l2.139-1.4,3.046,2.941L72.912,49.5a10.385,10.385,0,0,1,1.1,2.532l2.505.521.074,4.234-2.485.609a10.37,10.37,0,0,1-1.01,2.568L74.5,62.1,71.557,65.15,69.37,63.824a10.367,10.367,0,0,1-2.532,1.1l-.521,2.506-4.234.074-.609-2.485a10.39,10.39,0,0,1-2.568-1.01l-2.139,1.4L53.72,62.468l1.326-2.187a10.364,10.364,0,0,1-1.1-2.531l-2.505-.522L51.366,53l2.486-.609a10.342,10.342,0,0,1,1.01-2.568l-1.4-2.14L56.4,44.631Zm2.257,5.64a4.542,4.542,0,1,0,6.422-.113,4.542,4.542,0,0,0-6.422.113" transform="translate(-5.075 -4.177)" fill="#f5f5f5"/>
          <path id="Trazado_699880" data-name="Trazado 699880" d="M382.281,256.393h-8.719a1.644,1.644,0,0,0-1.652,1.55l-.342,6.762a1.641,1.641,0,0,0,1.631,1.712l9.081.113Z" transform="translate(-36.712 -25.332)" fill="#e0e0e0"/>
          <path id="Trazado_699881" data-name="Trazado 699881" d="M392.08,267.641l1.972,159.017h-16.8l7.255-159.017Z" transform="translate(-37.274 -26.444)" fill="#f5f5f5"/>
          <path id="Trazado_699882" data-name="Trazado 699882" d="M392.826,267.641l.24,13.44-8.259-6.62.448-6.82Z" transform="translate(-38.02 -26.444)" fill="#e0e0e0"/>
          <path id="Trazado_699883" data-name="Trazado 699883" d="M402.292,258.36v7.007a1.235,1.235,0,0,1-1.3,1.163h-17.54V256.392l17.606.807a1.227,1.227,0,0,1,1.231,1.162" transform="translate(-37.887 -25.332)" fill="#f5f5f5"/>
          <path id="Trazado_699884" data-name="Trazado 699884" d="M388.141,265.787c1.285,1.117,28.255,39.546,30.464,43.329,2.483,4.254.211,6.852.211,6.852l-44.26-54.478,2.583-2.909,5.3,6.425s4.418-.334,5.7.782" transform="translate(-37.007 -25.548)" fill="#f5f5f5"/>
          <path id="Trazado_699885" data-name="Trazado 699885" d="M419.469,309.815a16.04,16.04,0,0,1,.888,1.8l-1.9-2.3L383.3,265.7s4.418-.334,5.7.782,28.255,39.546,30.464,43.329" transform="translate(-37.872 -26.248)" fill="#ebebeb"/>
          <path id="Trazado_699886" data-name="Trazado 699886" d="M395.839,281.29a6.232,6.232,0,0,0-.661-.894c-.495-.617-1.13-1.409-1.891-2.358-1.638-2.057-3.809-4.786-6.21-7.8-2.422-3.052-4.647-5.793-6.3-7.74-.827-.973-1.506-1.754-1.987-2.282a6.215,6.215,0,0,0-.774-.8,6.088,6.088,0,0,0,.66.894l1.891,2.357,6.211,7.805c2.421,3.051,4.646,5.792,6.3,7.738.827.973,1.506,1.754,1.987,2.282a6.238,6.238,0,0,0,.775.8" transform="translate(-37.349 -25.631)" fill="#e0e0e0"/>
          <path id="Trazado_699887" data-name="Trazado 699887" d="M360.159,270.222c-1.4.784-45.364,11.624-49.581,12.273-4.743.731-6.709-2.365-6.709-2.365l63.8-21,2.192,3.5-7.543,2.553s-.761,4.254-2.161,5.038" transform="translate(-30.023 -25.603)" fill="#f5f5f5"/>
          <path id="Trazado_699888" data-name="Trazado 699888" d="M311.1,283.158a15.274,15.274,0,0,1-1.966.159l2.7-.923,51.009-16.547s-.761,4.254-2.161,5.038-45.363,11.624-49.581,12.273" transform="translate(-30.543 -26.267)" fill="#ebebeb"/>
          <path id="Trazado_699889" data-name="Trazado 699889" d="M374.738,262.89a4.888,4.888,0,0,0-1,.234l-2.722.792c-2.29.687-5.441,1.666-8.9,2.794s-6.578,2.192-8.813,3.008c-1.117.407-2.016.752-2.63,1a4.632,4.632,0,0,0-.933.432,5.648,5.648,0,0,0,1-.289l2.68-.886,8.855-2.9,8.853-2.9,2.671-.909a4.379,4.379,0,0,0,.944-.379" transform="translate(-34.555 -25.974)" fill="#e0e0e0"/>
          <path id="Trazado_699890" data-name="Trazado 699890" d="M376.251,238.274c.489-1.577,24.675-40.116,27.245-43.5,2.891-3.809,6.269-2.684,6.269-2.684l-31.721,60.123-3.8-1.294,3.7-7.164s-2.189-3.9-1.7-5.48" transform="translate(-36.977 -18.964)" fill="#f5f5f5"/>
          <path id="Trazado_699891" data-name="Trazado 699891" d="M403.708,194.924A14.7,14.7,0,0,1,405,193.46l-1.319,2.57-25.516,47.875s-2.189-3.9-1.7-5.48,24.675-40.115,27.245-43.5" transform="translate(-37.189 -19.114)" fill="#ebebeb"/>
          <path id="Trazado_699892" data-name="Trazado 699892" d="M375.348,252.574c.1.051,3.073-5.378,6.646-12.126s6.393-12.262,6.3-12.313-3.073,5.377-6.647,12.127-6.392,12.26-6.3,12.311" transform="translate(-37.085 -22.54)" fill="#e0e0e0"/>
          <path id="Trazado_699893" data-name="Trazado 699893" d="M374.167,260.8c0,.723-.669,2.147-.193,2.609.4.387,2.1.306,2.94.306a2.921,2.921,0,0,0,0-5.831,9.593,9.593,0,0,0-3.047.215c-.664.2.3,1.976.3,2.7" transform="translate(-36.916 -25.477)" fill="#f5f5f5"/>
          <path id="Trazado_699894" data-name="Trazado 699894" d="M371.989,260.8a2.752,2.752,0,1,0,2.747-2.915,2.835,2.835,0,0,0-2.747,2.915" transform="translate(-36.754 -25.48)" fill="#e0e0e0"/>
          <path id="Trazado_699895" data-name="Trazado 699895" d="M377.3,257.87a3.951,3.951,0,0,0-1.01-.095l-1.154-.036c-.221.009-.458-.04-.733-.013a2.8,2.8,0,0,0-.81.2l.021-.008a.066.066,0,0,0-.022.007l-.015.006a3.057,3.057,0,0,0-1.828,2.566,3.137,3.137,0,0,0,.95,2.542,2.7,2.7,0,0,0,2.2.756h-.023a9.4,9.4,0,0,0,1.827-.1,9.281,9.281,0,0,0-1.805-.146h-.023a2.425,2.425,0,0,1-1.9-.738,2.883,2.883,0,0,1-.813-2.282,2.778,2.778,0,0,1,1.571-2.3l-.015.006c-.013,0,.009,0,.009,0l.021-.007a2.489,2.489,0,0,1,.693-.2c.224-.033.46,0,.686-.016l1.159-.041a3.931,3.931,0,0,0,1.012-.1" transform="translate(-36.729 -25.463)" fill="#e0e0e0"/>
          <path id="Trazado_699896" data-name="Trazado 699896" d="M375.3,263.687a1.9,1.9,0,0,0,1.12-.375,3.2,3.2,0,0,0,1.523-2.2,3,3,0,0,0-.844-2.477,1.805,1.805,0,0,0-.976-.62c-.039.051.343.274.744.783a3.04,3.04,0,0,1,.661,2.266,3.23,3.23,0,0,1-1.286,2.037c-.534.4-.966.528-.943.587" transform="translate(-37.081 -25.492)" fill="#e0e0e0"/>
          <path id="Trazado_699897" data-name="Trazado 699897" d="M376.628,263.748a2.1,2.1,0,0,0,1.293-.134,3.391,3.391,0,0,0,2.128-2.063,2.953,2.953,0,0,0-.6-2.758,1.9,1.9,0,0,0-1.022-.724c-.042.052.376.3.779.874a2.925,2.925,0,0,1,.444,2.5,3.34,3.34,0,0,1-1.845,1.922c-.68.3-1.18.314-1.174.378" transform="translate(-37.212 -25.498)" fill="#e0e0e0"/>
          <path id="Trazado_699898" data-name="Trazado 699898" d="M134.944,340.835h-5.837a1.131,1.131,0,0,0-1.107,1.1l-.229,4.8a1.137,1.137,0,0,0,1.092,1.215l6.08.08Z" transform="translate(-12.624 -33.676)" fill="#e0e0e0"/>
          <path id="Trazado_699899" data-name="Trazado 699899" d="M129.61,353.754c-.132,1.1-11.8,29.539-13.133,32.089a4.084,4.084,0,0,1-3.982,2.513L126.542,344.7l2.8.419-1.622,5.194s2.026,2.34,1.894,3.445" transform="translate(-11.115 -34.057)" fill="#f5f5f5"/>
          <path id="Trazado_699900" data-name="Trazado 699900" d="M116.836,386.458a9.673,9.673,0,0,1-.7,1.123l.575-1.863,11.364-34.794s2.026,2.34,1.894,3.445-11.8,29.539-13.133,32.089" transform="translate(-11.475 -34.672)" fill="#ebebeb"/>
          <path id="Trazado_699901" data-name="Trazado 699901" d="M130.071,346.707c-.119-.037-1.5,3.908-3.088,8.809s-2.775,8.906-2.656,8.943,1.5-3.907,3.088-8.81,2.775-8.9,2.656-8.942" transform="translate(-12.283 -34.256)" fill="#e0e0e0"/>
          <path id="Trazado_699902" data-name="Trazado 699902" d="M141.505,348.815l1.32,78.439H131.579l4.857-78.439Z" transform="translate(-13 -34.464)" fill="#f5f5f5"/>
          <path id="Trazado_699903" data-name="Trazado 699903" d="M142,348.815l.16,9.535-5.53-4.7.3-4.838Z" transform="translate(-13.5 -34.464)" fill="#e0e0e0"/>
          <path id="Trazado_699904" data-name="Trazado 699904" d="M148.342,342.231v4.97a.847.847,0,0,1-.868.826H135.73v-7.192l11.789.572a.844.844,0,0,1,.824.824" transform="translate(-13.411 -33.676)" fill="#f5f5f5"/>
          <path id="Trazado_699905" data-name="Trazado 699905" d="M122.27,333.665c-.562-.986-8.35-30.916-8.817-33.758-.526-3.2,1.692-4.268,1.692-4.268l15.082,43.831-2.511,1.19-1.832-5.187s-3.052-.822-3.615-1.808" transform="translate(-11.202 -29.21)" fill="#f5f5f5"/>
          <path id="Trazado_699906" data-name="Trazado 699906" d="M113.449,300.23a9.5,9.5,0,0,1-.114-1.314l.662,1.856L125.881,335.8s-3.051-.822-3.613-1.809-8.35-30.916-8.818-33.758" transform="translate(-11.198 -29.534)" fill="#ebebeb"/>
          <path id="Trazado_699907" data-name="Trazado 699907" d="M122.356,325.4a18.4,18.4,0,0,0,.782,2.613c.564,1.72,1.269,3.873,2.048,6.253.807,2.442,1.573,4.646,2.177,6.225a15.2,15.2,0,0,0,1.084,2.521,18.4,18.4,0,0,0-.782-2.612c-.564-1.721-1.269-3.874-2.049-6.255-.806-2.442-1.573-4.645-2.176-6.224a15.241,15.241,0,0,0-1.084-2.521" transform="translate(-12.088 -32.151)" fill="#e0e0e0"/>
          <path id="Trazado_699908" data-name="Trazado 699908" d="M142.345,386.171h-7.72l-.28,4.526h8.077Z" transform="translate(-13.274 -38.155)" fill="#ebebeb"/>
          <path id="Trazado_699909" data-name="Trazado 699909" d="M142.429,392.99h-8.2l-.072,1.17,8.3.033Z" transform="translate(-13.255 -38.829)" fill="#ebebeb"/>
          <path id="Trazado_699910" data-name="Trazado 699910" d="M140.708,345.727c1.078.451,26.593,19.633,28.806,21.615,2.488,2.23,1.471,4.394,1.471,4.394l-40.21-25.916,1.165-2.431,4.8,3.039s2.894-1.152,3.972-.7" transform="translate(-12.921 -33.928)" fill="#f5f5f5"/>
          <path id="Trazado_699911" data-name="Trazado 699911" d="M170.167,367.587a10.377,10.377,0,0,1,.944.977l-1.721-1.084-32-20.808s2.894-1.152,3.972-.7,26.593,19.633,28.806,21.615" transform="translate(-13.575 -34.173)" fill="#ebebeb"/>
          <path id="Trazado_699912" data-name="Trazado 699912" d="M131.829,343.234a16.674,16.674,0,0,0,2.194,1.633c1.394.967,3.341,2.276,5.514,3.687s4.168,2.655,5.634,3.521a14.791,14.791,0,0,0,2.436,1.3,21,21,0,0,0-2.265-1.556l-5.556-3.622c-2.173-1.409-4.146-2.678-5.586-3.581a17.019,17.019,0,0,0-2.372-1.384" transform="translate(-13.025 -33.912)" fill="#e0e0e0"/>
          <path id="Trazado_699913" data-name="Trazado 699913" d="M129.511,343.961c0,.513-.448,1.524-.129,1.851.268.275,1.409.217,1.968.217a2.082,2.082,0,0,0,0-4.136,6.075,6.075,0,0,0-2.04.153c-.444.142.2,1.4.2,1.915" transform="translate(-12.761 -33.778)" fill="#f5f5f5"/>
          <path id="Trazado_699914" data-name="Trazado 699914" d="M128.054,343.963a1.852,1.852,0,1,0,1.839-2.068,1.964,1.964,0,0,0-1.839,2.068" transform="translate(-12.652 -33.78)" fill="#e0e0e0"/>
          <path id="Trazado_699915" data-name="Trazado 699915" d="M131.6,341.876c0-.041-.247-.078-.676-.109l-.772-.042c-.147,0-.306-.033-.5-.015a1.834,1.834,0,0,0-.566.142l.023-.009c-.006,0,0,0-.017.005l-.017.007a2.225,2.225,0,0,0-1.276,1.879,2.356,2.356,0,0,0,.663,1.86,1.8,1.8,0,0,0,1.538.54h-.024a3.721,3.721,0,0,0,1.227-.128,3.72,3.72,0,0,0-1.2-.158h-.025a1.519,1.519,0,0,1-1.209-.519,2.066,2.066,0,0,1-.516-1.563,1.912,1.912,0,0,1,1-1.572l-.016.006c-.014,0,0,0,0,0l.023-.008a1.821,1.821,0,0,1,.89-.158l.777-.046c.431-.033.678-.071.678-.112" transform="translate(-12.626 -33.761)" fill="#e0e0e0"/>
          <path id="Trazado_699916" data-name="Trazado 699916" d="M130.269,346.009c.011.05.344.044.787-.22a2.275,2.275,0,0,0,1.068-1.6,2.2,2.2,0,0,0-.6-1.8c-.358-.363-.678-.45-.7-.4s.2.23.451.591a2.273,2.273,0,0,1,.406,1.561,2.331,2.331,0,0,1-.812,1.409c-.338.289-.616.4-.595.462" transform="translate(-12.871 -33.788)" fill="#e0e0e0"/>
          <path id="Trazado_699917" data-name="Trazado 699917" d="M131.159,346.052c-.005.049.351.135.89-.042a2.345,2.345,0,0,0,1.482-1.494,2.2,2.2,0,0,0-.436-2.012c-.361-.421-.712-.524-.734-.48-.041.056.223.246.471.653a2.18,2.18,0,0,1,.264,1.721,2.314,2.314,0,0,1-1.176,1.333c-.437.224-.766.253-.762.321" transform="translate(-12.959 -33.792)" fill="#e0e0e0"/>
          <path id="Trazado_699918" data-name="Trazado 699918" d="M205.215,389.329H187.942l4.534-40.028h8.205Z" transform="translate(-18.569 -34.512)" fill="#ebebeb"/>
          <path id="Trazado_699919" data-name="Trazado 699919" d="M191.026,366.155l-.347,3.063h12.34l-.347-3.063Z" transform="translate(-18.84 -36.177)" fill="#e0e0e0"/>
          <path id="Trazado_699920" data-name="Trazado 699920" d="M201.45,351.867l-.29-2.567h-8.206l-.29,2.567Z" transform="translate(-19.036 -34.512)" fill="#e0e0e0"/>
          <path id="Trazado_699921" data-name="Trazado 699921" d="M190.13,372.28,187.942,391.6h17.273l-2.188-19.319Z" transform="translate(-18.569 -36.782)" fill="#e0e0e0"/>
          <path id="Trazado_699922" data-name="Trazado 699922" d="M226.608,389.329H209.334l4.534-40.028h8.205Z" transform="translate(-20.683 -34.512)" fill="#ebebeb"/>
          <path id="Trazado_699923" data-name="Trazado 699923" d="M211.523,372.28,209.334,391.6h17.273L224.42,372.28Z" transform="translate(-20.683 -36.782)" fill="#e0e0e0"/>
          <path id="Trazado_699924" data-name="Trazado 699924" d="M222.842,351.867l-.291-2.567h-8.205l-.291,2.567Z" transform="translate(-21.149 -34.512)" fill="#e0e0e0"/>
          <path id="Trazado_699925" data-name="Trazado 699925" d="M212.418,366.155l-.347,3.063h12.34l-.347-3.063Z" transform="translate(-20.953 -36.177)" fill="#e0e0e0"/>
          <rect id="Rectángulo_344978" data-name="Rectángulo 344978" width="76.107" height="54.514" transform="translate(175.386 337.838)" fill="#ebebeb"/>
          <rect id="Rectángulo_344979" data-name="Rectángulo 344979" width="67.787" height="41.905" transform="translate(158.44 350.448)" fill="#fafafa"/>
          <path id="Trazado_699926" data-name="Trazado 699926" d="M192.757,393.559l-16.947-6.072,16.947-12.609Z" transform="translate(-17.371 -37.039)" fill="#fafafa"/>
          <path id="Trazado_699927" data-name="Trazado 699927" d="M211.562,393.559l-16.947-6.072,16.947-12.609Z" transform="translate(-19.229 -37.039)" fill="#fafafa"/>
          <path id="Trazado_699928" data-name="Trazado 699928" d="M230.367,393.559l-16.947-6.072,16.947-12.609Z" transform="translate(-21.087 -37.039)" fill="#fafafa"/>
          <path id="Trazado_699929" data-name="Trazado 699929" d="M249.172,393.559l-16.947-6.072,16.947-12.609Z" transform="translate(-22.945 -37.039)" fill="#fafafa"/>
          <rect id="Rectángulo_344980" data-name="Rectángulo 344980" width="67.787" height="20.953" transform="translate(158.44 371.4)" fill="#ebebeb"/>
          <rect id="Rectángulo_344981" data-name="Rectángulo 344981" width="25.266" height="20.953" transform="translate(226.227 371.4)" fill="#e0e0e0"/>
          <rect id="Rectángulo_344982" data-name="Rectángulo 344982" width="28.973" height="18.163" transform="translate(163.36 374.19)" fill="#fff"/>
          <rect id="Rectángulo_344983" data-name="Rectángulo 344983" width="26.941" height="17.155" transform="translate(164.376 375.197)" fill="#ebebeb"/>
          <path id="Trazado_699930" data-name="Trazado 699930" d="M194.9,404.7A3.894,3.894,0,1,1,191,400.8,3.893,3.893,0,0,1,194.9,404.7" transform="translate(-18.487 -39.601)" fill="#f5f5f5"/>
          <path id="Trazado_699931" data-name="Trazado 699931" d="M194.268,404.773a3.188,3.188,0,1,1-3.188-3.188,3.188,3.188,0,0,1,3.188,3.188" transform="translate(-18.564 -39.678)" fill="#ebebeb"/>
          <path id="Trazado_699932" data-name="Trazado 699932" d="M194.225,405.248l-2.881-.471a.251.251,0,0,0-.144-.211L192.624,402a3.079,3.079,0,0,0-3.066-.006l1.409,2.568a.255.255,0,0,0-.163.227l0,.009-2.865.433a3.178,3.178,0,0,0,1.858,2.46l1.17-2.673a.251.251,0,0,0,.105.043.258.258,0,0,0,.133-.055l1.141,2.7a3.182,3.182,0,0,0,1.875-2.45" transform="translate(-18.569 -39.678)" fill="#e0e0e0"/>
          <path id="Trazado_699933" data-name="Trazado 699933" d="M214.619,407.449a3.894,3.894,0,1,1,0-5.506,3.894,3.894,0,0,1,0,5.506" transform="translate(-20.548 -39.601)" fill="#f5f5f5"/>
          <path id="Trazado_699934" data-name="Trazado 699934" d="M214.2,407.028a3.188,3.188,0,1,1,0-4.509,3.187,3.187,0,0,1,0,4.509" transform="translate(-20.626 -39.678)" fill="#ebebeb"/>
          <path id="Trazado_699935" data-name="Trazado 699935" d="M213.83,407.345l-1.705-2.37a.254.254,0,0,0,.049-.251l2.822-.808a3.077,3.077,0,0,0-2.164-2.174l-.82,2.812a.256.256,0,0,0-.275.045l0,.009-2.332-1.719a3.18,3.18,0,0,0-.425,3.053l2.717-1.063a.256.256,0,0,0,.044.105.259.259,0,0,0,.133.056l-1.1,2.713a3.183,3.183,0,0,0,3.059-.406" transform="translate(-20.626 -39.693)" fill="#e0e0e0"/>
          <path id="Trazado_699936" data-name="Trazado 699936" d="M235.482,401.943a3.894,3.894,0,1,1-5.506,0,3.894,3.894,0,0,1,5.506,0" transform="translate(-22.61 -39.601)" fill="#f5f5f5"/>
          <path id="Trazado_699937" data-name="Trazado 699937" d="M235.061,402.519a3.188,3.188,0,1,1-4.51,0,3.187,3.187,0,0,1,4.51,0" transform="translate(-22.687 -39.678)" fill="#ebebeb"/>
          <path id="Trazado_699938" data-name="Trazado 699938" d="M235.378,402.9l-2.37,1.7a.256.256,0,0,0-.251-.048l-.808-2.823a3.077,3.077,0,0,0-2.174,2.164l2.812.819a.257.257,0,0,0,.045.276l.009,0-1.719,2.332a3.18,3.18,0,0,0,3.053.425l-1.063-2.717a.254.254,0,0,0,.105-.044.258.258,0,0,0,.056-.133l2.713,1.1a3.182,3.182,0,0,0-.406-3.059" transform="translate(-22.702 -39.693)" fill="#e0e0e0"/>
          <rect id="Rectángulo_344984" data-name="Rectángulo 344984" width="26.941" height="1.818" transform="translate(164.539 375.197)" fill="#e0e0e0"/>
          <rect id="Rectángulo_344985" data-name="Rectángulo 344985" width="26.941" height="1.818" transform="translate(164.539 379.032)" fill="#e0e0e0"/>
          <rect id="Rectángulo_344986" data-name="Rectángulo 344986" width="26.941" height="1.818" transform="translate(164.539 382.866)" fill="#e0e0e0"/>
          <rect id="Rectángulo_344987" data-name="Rectángulo 344987" width="26.941" height="1.818" transform="translate(164.539 386.701)" fill="#e0e0e0"/>
          <rect id="Rectángulo_344988" data-name="Rectángulo 344988" width="26.941" height="1.818" transform="translate(164.539 390.535)" fill="#e0e0e0"/>
        </g>
      </g>
      <g id="Grupo_998897" data-name="Grupo 998897">
        <g id="Grupo_998896" data-name="Grupo 998896" clip-path="url(#clip-path)">
          <path id="Trazado_699939" data-name="Trazado 699939" d="M399.422,435.827c0,.13-84.89.234-189.583.234-104.729,0-189.6-.1-189.6-.234s84.872-.234,189.6-.234c104.693,0,189.583.1,189.583.234" transform="translate(-2 -43.038)" fill="#263238"/>
        </g>
      </g>
      <g id="Grupo_998926" data-name="Grupo 998926">
        <g id="Grupo_998925" data-name="Grupo 998925" clip-path="url(#clip-path)">
          <path id="Trazado_699940" data-name="Trazado 699940" d="M290.839,32.4s1.245-11.891-9.06-17.574a26.229,26.229,0,0,0-19.651-2.531s1.065,17.225,11.718,22.272c0,0,4.9,3.183,13.086.879l3.606,4.9,2.39-2.23C286.478,29.242,269.2,17.331,269.2,17.331a81.382,81.382,0,0,1,13.344,8.241,94.88,94.88,0,0,1,8.3,6.827" transform="translate(-25.899 -1.129)" fill="#455a64"/>
          <path id="Trazado_699941" data-name="Trazado 699941" d="M310.814,14.106s2.777-4.914-.615-9.313A12.385,12.385,0,0,0,302.167,0s-2.78,7.658.883,11.847c0,0,1.52,2.3,5.5,2.842l.825,3.729,1.585-.755c-1.124-5.055-6.681-14.152-6.681-14.152a38.421,38.421,0,0,1,4.227,6.079,44.744,44.744,0,0,1,2.308,4.517" transform="translate(-29.755)" fill="#455a64"/>
          <path id="Trazado_699942" data-name="Trazado 699942" d="M418.564,72.922a61.673,61.673,0,1,1-61.673-61.673,61.673,61.673,0,0,1,61.673,61.673" transform="translate(-29.169 -1.111)" fill="#4db1f0"/>
          <path id="Trazado_699943" data-name="Trazado 699943" d="M431.928,85.169c.072-.716.133-1.424.174-2.136q.077-1.126.113-2.248-.036,1.122-.113,2.248c-.042.712-.1,1.42-.174,2.136" transform="translate(-42.676 -7.982)" fill="#263238"/>
          <g id="Grupo_998900" data-name="Grupo 998900" transform="translate(315.858 50.713)" opacity="0.3">
            <g id="Grupo_998899" data-name="Grupo 998899">
              <g id="Grupo_998898" data-name="Grupo 998898" clip-path="url(#clip-path-5)">
                <path id="Trazado_699944" data-name="Trazado 699944" d="M382.883,112.568c-1.979,2.03-2.831,4.888-3.8,7.569s-2.273,5.475-4.718,6.883-6.252.543-6.9-2.225c-.35-1.5.291-3.067.244-4.612-.062-2.013-1.272-3.8-1.623-5.779a15.243,15.243,0,0,1,.326-5.12c1.552-9.271,1.248-19.326-3.575-27.3a6.086,6.086,0,0,0-2.309-2.462,3.467,3.467,0,0,0-3.78.543c-.626.569-1.05,1.37-1.767,1.813-1.558.964-3.683-.368-4.25-2.121s-.061-3.665.443-5.446q.94-3.312,1.878-6.624a5.858,5.858,0,0,1,1.638-3.13c1.326-1.054,3.266-.733,4.78-1.476,1.985-.975,2.712-3.441,4.174-5.122s5.025-1.809,5.106.426c5.153-7.139,10.8,6.1,15.708,6.157,1.425.017,2.9-.389,4.245.081,2.374.831,3.092,3.822,3.455,6.353l1.809,12.6c.23,1.6.579,3.4,1.92,4.259,1.028.661,2.389.58,3.429,1.219,2.752,1.687.845,6.257-1.961,7.891s-6.422,2.3-8.151,5.078c-1.3,2.094-1.145,4.88-2.509,6.935-.975,1.47-2.59,2.352-3.817,3.611" transform="translate(-350.487 -56.273)" fill="#ff725e"/>
              </g>
            </g>
          </g>
          <g id="Grupo_998903" data-name="Grupo 998903" transform="translate(315.858 50.713)" opacity="0.3">
            <g id="Grupo_998902" data-name="Grupo 998902">
              <g id="Grupo_998901" data-name="Grupo 998901" clip-path="url(#clip-path-5)">
                <path id="Trazado_699945" data-name="Trazado 699945" d="M382.883,112.568c-1.979,2.03-2.831,4.888-3.8,7.569s-2.273,5.475-4.718,6.883-6.252.543-6.9-2.225c-.35-1.5.291-3.067.244-4.612-.062-2.013-1.272-3.8-1.623-5.779a15.243,15.243,0,0,1,.326-5.12c1.552-9.271,1.248-19.326-3.575-27.3a6.086,6.086,0,0,0-2.309-2.462,3.467,3.467,0,0,0-3.78.543c-.626.569-1.05,1.37-1.767,1.813-1.558.964-3.683-.368-4.25-2.121s-.061-3.665.443-5.446q.94-3.312,1.878-6.624a5.858,5.858,0,0,1,1.638-3.13c1.326-1.054,3.266-.733,4.78-1.476,1.985-.975,2.712-3.441,4.174-5.122s5.025-1.809,5.106.426c5.153-7.139,10.8,6.1,15.708,6.157,1.425.017,2.9-.389,4.245.081,2.374.831,3.092,3.822,3.455,6.353l1.809,12.6c.23,1.6.579,3.4,1.92,4.259,1.028.661,2.389.58,3.429,1.219,2.752,1.687.845,6.257-1.961,7.891s-6.422,2.3-8.151,5.078c-1.3,2.094-1.145,4.88-2.509,6.935-.975,1.47-2.59,2.352-3.817,3.611" transform="translate(-350.487 -56.273)"/>
              </g>
            </g>
          </g>
          <g id="Grupo_998906" data-name="Grupo 998906" transform="translate(350.679 103.309)" opacity="0.3">
            <g id="Grupo_998905" data-name="Grupo 998905">
              <g id="Grupo_998904" data-name="Grupo 998904" clip-path="url(#clip-path-7)">
                <path id="Trazado_699946" data-name="Trazado 699946" d="M397.466,123.123c-1-.054-2.057-.772-2.93-.258a3.339,3.339,0,0,0-1.013,1.439,3.424,3.424,0,0,1-1.763,1.65,2.084,2.084,0,0,1-2.249-.488,1.606,1.606,0,0,1,.116-2.215,10.734,10.734,0,0,1,.981-.534c1.541-.991,1.112-3.479,2.39-4.766.753-.759,1.843-1.465,2.656-2.225.624-.584.912-1.089,1.849-1.091,4.1-.011,4.23,8.717-.039,8.488" transform="translate(-389.126 -114.635)"/>
              </g>
            </g>
          </g>
          <g id="Grupo_998909" data-name="Grupo 998909" transform="translate(283.981 115.945)" opacity="0.3">
            <g id="Grupo_998908" data-name="Grupo 998908">
              <g id="Grupo_998907" data-name="Grupo 998907" clip-path="url(#clip-path-8)">
                <path id="Trazado_699947" data-name="Trazado 699947" d="M315.115,128.658q.66.676,1.344,1.329c.317.306.637.6.966.9-.329-.3-.649-.595-.966-.9q-.685-.653-1.344-1.329" transform="translate(-315.115 -128.657)" fill="#263238"/>
              </g>
            </g>
          </g>
          <path id="Trazado_699948" data-name="Trazado 699948" d="M430.964,91.257q.255-1.334.445-2.66-.189,1.327-.445,2.66c-.037.287-.093.57-.149.853-.27,1.367-.585,2.7-.928,4.036.343-1.332.658-2.669.928-4.036.056-.283.112-.566.149-.853" transform="translate(-42.474 -8.754)" fill="#263238"/>
          <path id="Trazado_699949" data-name="Trazado 699949" d="M431.424,67.756q.2,1.257.347,2.519-.147-1.263-.347-2.519s.012-.008,0-.01Z" transform="translate(-42.626 -6.694)" fill="#263238"/>
          <g id="Grupo_998912" data-name="Grupo 998912" transform="translate(329.695 24.756)" opacity="0.3">
            <g id="Grupo_998911" data-name="Grupo 998911">
              <g id="Grupo_998910" data-name="Grupo 998910" clip-path="url(#clip-path-9)">
                <path id="Trazado_699950" data-name="Trazado 699950" d="M424.636,85.218q.255-1.334.445-2.66T425.4,79.9c.072-.716.132-1.424.174-2.136q.077-1.126.113-2.248a62.252,62.252,0,0,0-.148-6.684q-.1-1.275-.246-2.537t-.347-2.52l0-.01c-.191-.646-.4-1.286-.645-1.922-2.289-6.092-6.333-11.315-9-17.238-.873-1.928-1.536-3.509-3.607-4.264-3.062-1.123-5.026.4-6.663-3.1-.441-.939-1.345-1.91-2.332-1.6.1.7.211,1.4.31,2.111a.972.972,0,0,1-.008.444c-.139.45-.835.443-1.168.114a4.077,4.077,0,0,1-.624-1.27,3.122,3.122,0,0,0-4.475-1.281,1.811,1.811,0,0,0-.721-1.644,2.117,2.117,0,0,1-2.943,1.192c-.064-.631,1-.532,1.465-.968.43-.412.159-1.155-.193-1.64a6.708,6.708,0,0,0-3.842-2.474,5.723,5.723,0,0,1-2.787-.907c-.431-.389-.679-.945-1.121-1.327-.942-.825-2.385-.523-3.578-.129-1.63.539-3.351,1.284-4.19,2.813s-.123,3.941,1.585,4.065a3.251,3.251,0,0,1,1.3.106,1.6,1.6,0,0,1,.615,1.673,4.572,4.572,0,0,0-.083,1.881c.179.6,1,1.049,1.435.6.936-.607,1.093-1.9,1.107-3.027s.043-2.385.852-3.148,2.582-.119,2.241.95c-.2.629-1.016.955-1.117,1.615s.624,1.178,1.281,1.278a7.056,7.056,0,0,1,1.965.287c.611.284.951,1.233.4,1.62-.977.761-2.736-1.22-3.373-.16-.173.269-.123.625-.214.931-.266.942-1.514,1.06-2.476.991a5.186,5.186,0,0,1-2.748-.756,1.853,1.853,0,0,1-.479-2.559,1.079,1.079,0,0,0-1.574.256,3.25,3.25,0,0,0-.457,1.756c-.952-.422-2.012.26-2.746,1s-1.488,1.632-2.515,1.744-2.3-.566-2.983.232c-.892,1.04.73,2.9-.17,3.932-.512.579-1.428.377-2.2.438-2.036.175-3.274,2.912-2.264,4.7a3.79,3.79,0,0,0,5.33,1.034c1.166-.814,1.839-2.151,2.778-3.224s2.476-1.893,3.72-1.242a4.118,4.118,0,0,1,1.2,1.15c.534.673,1.067,1.346,1.6,2.03a1.814,1.814,0,0,1,.56,1.5c-.125.432-.528.707-.753,1.089-.636,1.1.818,2.556,2,2.12a2.433,2.433,0,0,0,1.1-3.22c-.718-1.6-2.832-2.75-2.43-4.476,1.338-.729,2.951.634,3.352,2.123s.107,3.085.4,4.593,1.623,3.069,3.08,2.648c-.106-1.279-.2-2.546-.311-3.815.97-.477,1.567,1.588,2.635,1.475.652-.074.906-.957.757-1.616a8.709,8.709,0,0,1-.5-1.935,2.028,2.028,0,0,1,2.7-1.607,3.093,3.093,0,0,1,1.744,2.961,5.789,5.789,0,0,0,.03,1.457c.256,1.024,1.34,1.533,2.2,2.109s1.657,1.738,1.075,2.616c-.265.384-.775.7-.707,1.159.068.409.591.685.51,1.094-.064.272-.378.4-.649.461-.684.139-1.391.09-2.065.271a1.812,1.812,0,0,0-1.433,1.359c-.117.991.93,1.685,1.307,2.6.365.873.086,1.883.238,2.826a9.786,9.786,0,0,0,1.024,2.423c1.154,2.521.966,5.435,1.225,8.2.111,1.249.483,2.692,1.627,3.151a3.653,3.653,0,0,0,1.991,0,11.747,11.747,0,0,0,5.259-1.921c1.489-1.187,2.349-3.42,1.389-5.06a.993.993,0,0,0-.509-.5,1.776,1.776,0,0,0-.965.144,2.581,2.581,0,0,1-2.557-1.115,7.819,7.819,0,0,1-1.109-2.745c-.279-1.059-.555-2.128-.841-3.2a1.682,1.682,0,0,1,2.011.6,11.474,11.474,0,0,1,1.051,2.034,9.025,9.025,0,0,0,5.475,4.084,5.8,5.8,0,0,1,1.634.7c1.539,1.127,1.524,3.771,3.207,4.672a11.305,11.305,0,0,1,1.454.652,2.913,2.913,0,0,1,.892,2.184,31.928,31.928,0,0,0,.268,4.536,4,4,0,0,0,2.719,3.266,3.521,3.521,0,0,0,2.651-.621l0-.01c.343-1.332.658-2.669.928-4.036.056-.283.112-.566.149-.853" transform="translate(-365.841 -27.47)" fill="#ff725e"/>
              </g>
            </g>
          </g>
          <g id="Grupo_998915" data-name="Grupo 998915" transform="translate(329.695 24.756)" opacity="0.3">
            <g id="Grupo_998914" data-name="Grupo 998914">
              <g id="Grupo_998913" data-name="Grupo 998913" clip-path="url(#clip-path-9)">
                <path id="Trazado_699951" data-name="Trazado 699951" d="M424.636,85.218q.255-1.334.445-2.66T425.4,79.9c.072-.716.132-1.424.174-2.136q.077-1.126.113-2.248a62.252,62.252,0,0,0-.148-6.684q-.1-1.275-.246-2.537t-.347-2.52l0-.01c-.191-.646-.4-1.286-.645-1.922-2.289-6.092-6.333-11.315-9-17.238-.873-1.928-1.536-3.509-3.607-4.264-3.062-1.123-5.026.4-6.663-3.1-.441-.939-1.345-1.91-2.332-1.6.1.7.211,1.4.31,2.111a.972.972,0,0,1-.008.444c-.139.45-.835.443-1.168.114a4.077,4.077,0,0,1-.624-1.27,3.122,3.122,0,0,0-4.475-1.281,1.811,1.811,0,0,0-.721-1.644,2.117,2.117,0,0,1-2.943,1.192c-.064-.631,1-.532,1.465-.968.43-.412.159-1.155-.193-1.64a6.708,6.708,0,0,0-3.842-2.474,5.723,5.723,0,0,1-2.787-.907c-.431-.389-.679-.945-1.121-1.327-.942-.825-2.385-.523-3.578-.129-1.63.539-3.351,1.284-4.19,2.813s-.123,3.941,1.585,4.065a3.251,3.251,0,0,1,1.3.106,1.6,1.6,0,0,1,.615,1.673,4.572,4.572,0,0,0-.083,1.881c.179.6,1,1.049,1.435.6.936-.607,1.093-1.9,1.107-3.027s.043-2.385.852-3.148,2.582-.119,2.241.95c-.2.629-1.016.955-1.117,1.615s.624,1.178,1.281,1.278a7.056,7.056,0,0,1,1.965.287c.611.284.951,1.233.4,1.62-.977.761-2.736-1.22-3.373-.16-.173.269-.123.625-.214.931-.266.942-1.514,1.06-2.476.991a5.186,5.186,0,0,1-2.748-.756,1.853,1.853,0,0,1-.479-2.559,1.079,1.079,0,0,0-1.574.256,3.25,3.25,0,0,0-.457,1.756c-.952-.422-2.012.26-2.746,1s-1.488,1.632-2.515,1.744-2.3-.566-2.983.232c-.892,1.04.73,2.9-.17,3.932-.512.579-1.428.377-2.2.438-2.036.175-3.274,2.912-2.264,4.7a3.79,3.79,0,0,0,5.33,1.034c1.166-.814,1.839-2.151,2.778-3.224s2.476-1.893,3.72-1.242a4.118,4.118,0,0,1,1.2,1.15c.534.673,1.067,1.346,1.6,2.03a1.814,1.814,0,0,1,.56,1.5c-.125.432-.528.707-.753,1.089-.636,1.1.818,2.556,2,2.12a2.433,2.433,0,0,0,1.1-3.22c-.718-1.6-2.832-2.75-2.43-4.476,1.338-.729,2.951.634,3.352,2.123s.107,3.085.4,4.593,1.623,3.069,3.08,2.648c-.106-1.279-.2-2.546-.311-3.815.97-.477,1.567,1.588,2.635,1.475.652-.074.906-.957.757-1.616a8.709,8.709,0,0,1-.5-1.935,2.028,2.028,0,0,1,2.7-1.607,3.093,3.093,0,0,1,1.744,2.961,5.789,5.789,0,0,0,.03,1.457c.256,1.024,1.34,1.533,2.2,2.109s1.657,1.738,1.075,2.616c-.265.384-.775.7-.707,1.159.068.409.591.685.51,1.094-.064.272-.378.4-.649.461-.684.139-1.391.09-2.065.271a1.812,1.812,0,0,0-1.433,1.359c-.117.991.93,1.685,1.307,2.6.365.873.086,1.883.238,2.826a9.786,9.786,0,0,0,1.024,2.423c1.154,2.521.966,5.435,1.225,8.2.111,1.249.483,2.692,1.627,3.151a3.653,3.653,0,0,0,1.991,0,11.747,11.747,0,0,0,5.259-1.921c1.489-1.187,2.349-3.42,1.389-5.06a.993.993,0,0,0-.509-.5,1.776,1.776,0,0,0-.965.144,2.581,2.581,0,0,1-2.557-1.115,7.819,7.819,0,0,1-1.109-2.745c-.279-1.059-.555-2.128-.841-3.2a1.682,1.682,0,0,1,2.011.6,11.474,11.474,0,0,1,1.051,2.034,9.025,9.025,0,0,0,5.475,4.084,5.8,5.8,0,0,1,1.634.7c1.539,1.127,1.524,3.771,3.207,4.672a11.305,11.305,0,0,1,1.454.652,2.913,2.913,0,0,1,.892,2.184,31.928,31.928,0,0,0,.268,4.536,4,4,0,0,0,2.719,3.266,3.521,3.521,0,0,0,2.651-.621l0-.01c.343-1.332.658-2.669.928-4.036.056-.283.112-.566.149-.853" transform="translate(-365.841 -27.47)"/>
              </g>
            </g>
          </g>
          <g id="Grupo_998918" data-name="Grupo 998918" transform="translate(314.62 10.339)" opacity="0.3">
            <g id="Grupo_998917" data-name="Grupo 998917">
              <g id="Grupo_998916" data-name="Grupo 998916" clip-path="url(#clip-path-11)">
                <path id="Trazado_699952" data-name="Trazado 699952" d="M356.852,24.131c-1.344.493-2.255,1.746-3.391,2.63s-2.946,1.317-3.862.213A2.647,2.647,0,0,1,349.136,25a4.819,4.819,0,0,1,1.211-2.7c.692-.762,1.623-1.287,2.245-2.11s.795-2.175-.025-2.781c-.443-.328-1.077-.36-1.447-.771-.664-.74.168-2.013,1.144-2.184a6.908,6.908,0,0,1,2.884.553c3.464.922,6.507-.908,9.53-2.331,2.351-1.107,7.074-2.028,9.143-.014.826.8.882,2.462-.148,2.982-.461.233-1.026.193-1.466.464-.527.325-.725.993-1.09,1.5-.951,1.316-2.97,1.463-3.877,2.809-.546.811-.6,1.944-1.319,2.6a3.36,3.36,0,0,1-2.167.607l-4.8.2a6.932,6.932,0,0,0-2.105.309" transform="translate(-349.113 -11.473)"/>
              </g>
            </g>
          </g>
          <g id="Grupo_998921" data-name="Grupo 998921" transform="translate(270.253 19.841)" opacity="0.3">
            <g id="Grupo_998920" data-name="Grupo 998920">
              <g id="Grupo_998919" data-name="Grupo 998919" clip-path="url(#clip-path-12)">
                <path id="Trazado_699953" data-name="Trazado 699953" d="M304.44,44.7c1.326-.762,3.3-.493,3.932.909a4.411,4.411,0,0,1-.307,3.215c-.507,1.4-1.012,2.8-1.528,4.2a2.34,2.34,0,0,0-.2,1.309c.241,1,1.751,1.117,2.478.409a4.151,4.151,0,0,0,.935-2.869,5.781,5.781,0,0,1,.621-2.99c1.418-2.134,4.749-1.11,7.022-2.232,1.412-.695,2.269-2.158,3.269-3.39s2.49-2.368,4.009-2c.514.122.983.417,1.5.5a2.152,2.152,0,0,0,1.994-3.135,3.958,3.958,0,0,1-.532-.835,1.318,1.318,0,0,1,.782-1.438,3.6,3.6,0,0,1,1.713-.208c1.336.041,2.67.092,4,.142,1.472.058,3.451-.332,3.537-1.826.077-1.293-1.488-2.191-1.491-3.489a4.246,4.246,0,0,0,.019-.95c-.234-.878-1.477-.789-2.319-.509a1.9,1.9,0,0,0-2.662-1.491c-.893.493-1.213,1.606-1.673,2.52-1.1,2.217-3.277,3.632-5.347,4.937a3.555,3.555,0,0,1-2.272.768c-.8-.118-1.465-1.152-.96-1.792.345-.439,1.091-.586,1.132-1.145.04-.7-1.139-.885-1.239-1.584.842-1.841,3.175-2.212,5.047-2.917a10.774,10.774,0,0,0,5.486-4.635,1.447,1.447,0,0,0,.281-1.121c-.153-.537-.779-.742-1.325-.85-1.28-.274-2.915-.415-3.626.713a15.233,15.233,0,0,0-.631,2.036c-.852,1.941-3.627,1.626-5.533,2.506a15.517,15.517,0,0,1-2.171,1.112,10.163,10.163,0,0,1-2.632-.085c.109.014.157.011,0,0-.675.643-1.6,1.539-2.242,2.216s-1.2,1.31-1.817,2.015a62.506,62.506,0,0,0-7.878,10.671q-1.137,2.049-2.122,4.2t-1.819,4.4a18.025,18.025,0,0,0,1.861-3.669,7.306,7.306,0,0,1,2.7-3.625" transform="translate(-299.882 -22.016)"/>
              </g>
            </g>
          </g>
          <g id="Grupo_998924" data-name="Grupo 998924" transform="translate(266.05 54.552)" opacity="0.3">
            <g id="Grupo_998923" data-name="Grupo 998923">
              <g id="Grupo_998922" data-name="Grupo 998922" clip-path="url(#clip-path-13)">
                <path id="Trazado_699954" data-name="Trazado 699954" d="M310.256,118.757l.009,0c.516.619,1.045,1.211,1.587,1.794q.638.7,1.3,1.374t1.344,1.329c.316.306.637.6.965.9-.025-.117-.054-.224-.081-.341-.743-3.241.03-7.55,3.187-8.458a6.632,6.632,0,0,0,1.791-.549c1.518-.978.975-3.722,2.493-4.7.853-.542,1.965-.27,2.936-.5,1.749-.435,2.68-2.422,2.91-4.242s0-3.7.551-5.45c.851-2.641,3.461-4.975,2.758-7.649-.794-2.987-4.76-3.316-7.25-5.076-3.475-2.462-3.7-7.517-5.517-11.416-1.629-3.487-6.18-7.866-10.328-7.732a4.989,4.989,0,0,0-5.059,3.736l-.353-.131c-1.039-.328-2.273-.633-2.68-1.646-.474-1.179.5-2.6.007-3.761-.258-.609-.843-.969-1.286-1.452s-.745-1.263-.317-1.766c.353-.427,1.044-.392,1.465-.765a1.03,1.03,0,0,0,.222-1.224c-.831-1.534-2.579.909-3.307,1.425a5.635,5.635,0,0,1-.581.372l0,.01c-.033.114-.063.22-.087.337-.086.363-.16.738-.239,1.109s-.167.738-.241,1.108c-.059.3-.108.6-.163.906s-.116.607-.164.906c-.029.147-.056.284-.077.432a63.7,63.7,0,0,0-.018,20.332,60.738,60.738,0,0,0,2.1,8.814c.372,1.24.806,2.472,1.271,3.689.578,1.5,1.2,2.987,1.9,4.433.642,1.385,1.347,2.751,2.111,4.079a61.751,61.751,0,0,0,3.394,5.337q1.621,2.3,3.453,4.436" transform="translate(-295.219 -60.533)"/>
              </g>
            </g>
          </g>
          <path id="Trazado_699955" data-name="Trazado 699955" d="M375.354,157.112s8.181-7.532,18.142-3a24.393,24.393,0,0,1,12.8,13.256s-13.443,8.77-23.124,3.623c0,0-5.093-1.884-7.922-9.276l-7.523.093.737-3.38c10.2-.113,30.148,6.463,30.148,6.463a75.79,75.79,0,0,0-13.558-5.38,88.16,88.16,0,0,0-9.7-2.4" transform="translate(-36.333 -15.083)" fill="#455a64"/>
        </g>
      </g>
      <path id="Trazado_699956" data-name="Trazado 699956" d="M336.075,79.416l1.247,238.38-176.815-.331-12.422-11.093L159.249,76.809,325.106,63.123Z" transform="translate(-14.631 -6.237)" fill="#e0e0e0"/>
      <path id="Trazado_699957" data-name="Trazado 699957" d="M325.106,63.123l-.179,243.092-176.841.158L150.3,63.4Z" transform="translate(-14.631 -6.237)" fill="#fafafa"/>
      <g id="Grupo_998928" data-name="Grupo 998928">
        <g id="Grupo_998927" data-name="Grupo 998927" clip-path="url(#clip-path)">
          <path id="Trazado_699958" data-name="Trazado 699958" d="M325.08,63.123l-174.81.466.19-.189c-.606,67.938-1.355,152.053-2.166,242.974l-.234-.237h1.049L324.9,306l-.213.213c.232-143.762.389-241.205.392-243.091,0,1.884.014,99.33.034,243.091v.213H324.9l-175.792.178h-1.287l0-.237c.844-90.921,1.624-175.036,2.254-242.973l0-.188h.188l174.811-.085" transform="translate(-14.605 -6.237)" fill="#263238"/>
          <path id="Trazado_699959" data-name="Trazado 699959" d="M179,127.672l59.429-.411a3.5,3.5,0,1,0-.049-7.008l-59.429.411a3.5,3.5,0,1,0,.049,7.008" transform="translate(-17.337 -11.881)" fill="#e0e0e0"/>
          <path id="Trazado_699960" data-name="Trazado 699960" d="M178.884,142.716l59.429-.411a3.5,3.5,0,0,0-.049-7.008l-59.429.411a3.5,3.5,0,1,0,.049,7.008" transform="translate(-17.326 -13.368)" fill="#e0e0e0"/>
          <path id="Trazado_699961" data-name="Trazado 699961" d="M178.768,157.761l59.429-.411a3.5,3.5,0,0,0-.049-7.008l-59.429.411a3.5,3.5,0,1,0,.049,7.008" transform="translate(-17.314 -14.854)" fill="#e0e0e0"/>
          <path id="Trazado_699962" data-name="Trazado 699962" d="M178.653,172.8l59.429-.411a3.5,3.5,0,0,0-.049-7.008L178.6,165.8a3.5,3.5,0,1,0,.049,7.008" transform="translate(-17.303 -16.341)" fill="#e0e0e0"/>
          <path id="Trazado_699963" data-name="Trazado 699963" d="M178.537,187.849l59.429-.411a3.5,3.5,0,0,0-.049-7.008l-59.429.411a3.5,3.5,0,0,0,.049,7.008" transform="translate(-17.291 -17.827)" fill="#e0e0e0"/>
          <path id="Trazado_699964" data-name="Trazado 699964" d="M178.422,202.894l59.429-.411a3.5,3.5,0,1,0-.048-7.008l-59.429.411a3.5,3.5,0,1,0,.049,7.008" transform="translate(-17.28 -19.313)" fill="#e0e0e0"/>
          <path id="Trazado_699965" data-name="Trazado 699965" d="M178.306,217.938l59.429-.411a3.5,3.5,0,1,0-.049-7.008l-59.429.411a3.5,3.5,0,1,0,.049,7.008" transform="translate(-17.269 -20.8)" fill="#e0e0e0"/>
          <path id="Trazado_699966" data-name="Trazado 699966" d="M260.247,201.824l59.429.367a3.5,3.5,0,1,0,.043-7.008l-59.429-.367a3.5,3.5,0,1,0-.043,7.008" transform="translate(-25.369 -19.248)" fill="#e0e0e0"/>
          <path id="Trazado_699967" data-name="Trazado 699967" d="M259.934,216.866l59.429.367a3.5,3.5,0,1,0,.043-7.008l-59.429-.367a3.5,3.5,0,1,0-.043,7.008" transform="translate(-25.338 -20.735)" fill="#e0e0e0"/>
          <path id="Trazado_699968" data-name="Trazado 699968" d="M259.5,232.73l59.429.367a3.5,3.5,0,0,0,.043-7.008l-59.43-.367a3.5,3.5,0,0,0-.043,7.008" transform="translate(-25.296 -22.302)" fill="#e0e0e0"/>
          <path id="Trazado_699969" data-name="Trazado 699969" d="M259.074,248.593l59.429.367a3.5,3.5,0,1,0,.043-7.008l-59.429-.367a3.5,3.5,0,0,0-.043,7.008" transform="translate(-25.253 -23.869)" fill="#e0e0e0"/>
          <path id="Trazado_699970" data-name="Trazado 699970" d="M258.644,264.457l59.429.367a3.5,3.5,0,0,0,.043-7.008l-59.429-.367a3.5,3.5,0,1,0-.043,7.008" transform="translate(-25.211 -25.437)" fill="#e0e0e0"/>
          <path id="Trazado_699971" data-name="Trazado 699971" d="M258.214,280.321l59.429.367a3.5,3.5,0,1,0,.043-7.008l-59.429-.367a3.5,3.5,0,0,0-.043,7.008" transform="translate(-25.168 -27.004)" fill="#e0e0e0"/>
          <path id="Trazado_699972" data-name="Trazado 699972" d="M257.784,296.185l59.429.367a3.5,3.5,0,1,0,.043-7.008l-59.429-.367a3.5,3.5,0,1,0-.043,7.008" transform="translate(-25.126 -28.572)" fill="#e0e0e0"/>
          <path id="Trazado_699973" data-name="Trazado 699973" d="M173.763,310.5l135.111.833a3.5,3.5,0,0,0,.043-7.008l-135.111-.833a2.347,2.347,0,0,0-2.361,2.332l-.014,2.314a2.347,2.347,0,0,0,2.332,2.361" transform="translate(-16.938 -29.986)" fill="#e0e0e0"/>
          <path id="Trazado_699974" data-name="Trazado 699974" d="M179.473,108.086l39.324-.272a3.5,3.5,0,0,0-.049-7.008l-39.324.272a3.5,3.5,0,0,0,.049,7.008" transform="translate(-17.384 -9.96)" fill="#e0e0e0"/>
          <path id="Trazado_699975" data-name="Trazado 699975" d="M228.449,59.344l2.481-2.4,29.911-.149,1.479,2.634Z" transform="translate(-22.572 -5.612)" fill="#263238"/>
          <rect id="Rectángulo_345001" data-name="Rectángulo 345001" width="13.803" height="33.871" transform="translate(205.854 67.548) rotate(-89.899)" fill="#263238"/>
          <path id="Trazado_699976" data-name="Trazado 699976" d="M263.308,75.356v-.5a1.128,1.128,0,0,0-1.126-1.13l-33.966-.086a1.128,1.128,0,0,0-1.131,1.126v.5a1.129,1.129,0,0,0,1.126,1.131l33.965.085a1.129,1.129,0,0,0,1.132-1.126" transform="translate(-22.437 -7.276)" fill="#263238"/>
          <path id="Trazado_699977" data-name="Trazado 699977" d="M253.724,68.334h-.016l-14.9-.038a1.33,1.33,0,0,1-1.074-.543,1.237,1.237,0,0,1-.16-1.161l4.259-11.47a7.479,7.479,0,0,1-3.206-5.9,7.658,7.658,0,0,1,7.487-7.717,7.866,7.866,0,0,1,5.7,2.114,7.38,7.38,0,0,1-.9,11.561l4.045,11.47a1.241,1.241,0,0,1-.175,1.153,1.333,1.333,0,0,1-1.053.53m-7.392-25.922c-.06,0-.121,0-.182,0a6.815,6.815,0,0,0-6.581,6.784,6.588,6.588,0,0,0,3.088,5.368l.309.2L238.46,66.9a.353.353,0,0,0,.045.331.373.373,0,0,0,.306.154l14.9.038a.364.364,0,0,0,.3-.151.351.351,0,0,0,.05-.328l-4.282-12.137.31-.193a6.544,6.544,0,0,0,3.155-5.561,6.475,6.475,0,0,0-2.088-4.778,6.91,6.91,0,0,0-4.827-1.863" transform="translate(-23.465 -4.1)" fill="#455a64"/>
          <path id="Trazado_699978" data-name="Trazado 699978" d="M262.065,73.719a1.679,1.679,0,0,0-.342-.015l-.972-.014-3.58-.038-11.816-.072-11.818-.014-3.582.024-.973.02a1.7,1.7,0,0,0-.34.025,1.574,1.574,0,0,0,.34.029l.973.031,3.581.061c3.024.039,7.2.074,11.818.093s8.792.015,11.817-.007c1.513-.011,2.737-.027,3.581-.048.424-.014.751-.02.976-.036a1.615,1.615,0,0,0,.337-.039" transform="translate(-22.59 -7.269)" fill="#455a64"/>
          <path id="Trazado_699979" data-name="Trazado 699979" d="M262.441,59.386a1.677,1.677,0,0,0-.341-.015l-.973-.014-3.58-.037-11.816-.072-11.818-.014-3.583.024-.973.02a1.7,1.7,0,0,0-.34.025,1.577,1.577,0,0,0,.34.029l.973.031,3.581.061c3.024.04,7.2.074,11.818.093s8.793.015,11.817-.007c1.513-.011,2.737-.027,3.581-.048.423-.013.752-.02.975-.036a1.619,1.619,0,0,0,.338-.039" transform="translate(-22.627 -5.852)" fill="#455a64"/>
          <line id="Línea_2417" data-name="Línea 2417" x2="12.395" y2="11.581" transform="translate(310.296 299.978)" fill="#fafafa"/>
          <path id="Trazado_699980" data-name="Trazado 699980" d="M356.71,344.448a76.945,76.945,0,0,1-6.358-5.619,76.9,76.9,0,0,1-6.037-5.962,76.874,76.874,0,0,1,6.358,5.62,76.821,76.821,0,0,1,6.037,5.961" transform="translate(-34.019 -32.888)" fill="#263238"/>
          <path id="Trazado_699981" data-name="Trazado 699981" d="M171.43,318.308s.278-.015.822-.022l2.414-.022,9.311-.042,34.462-.071,115.6-.076-.233.233c0-5.841,0-12.039,0-18.311.027-49.967.051-95.2.069-127.945.031-16.364.058-29.607.075-38.772.019-4.57.034-8.12.044-10.54.01-1.2.018-2.113.023-2.741s.024-.935.024-.935.016.316.023.935.013,1.544.023,2.741c.01,2.42.025,5.97.044,10.54.018,9.165.043,22.408.075,38.772.017,32.749.042,77.978.068,127.945,0,6.272,0,12.47,0,18.311v.233h-.233l-115.6-.076-34.462-.072-9.311-.041-2.414-.022c-.544-.007-.822-.023-.822-.023" transform="translate(-16.938 -11.764)" fill="#263238"/>
          <path id="Trazado_699982" data-name="Trazado 699982" d="M231.96,259a27.535,27.535,0,1,1-27.973-27.214A27.635,27.635,0,0,1,231.96,259m-40.694.657a13.166,13.166,0,1,0,12.952-13.437,13.209,13.209,0,0,0-12.952,13.437" transform="translate(-17.478 -22.901)" fill="#e0e0e0"/>
          <path id="Trazado_699983" data-name="Trazado 699983" d="M234.93,259a27.635,27.635,0,0,1-27.089,28.1l-.231-14.434a13.226,13.226,0,0,0-.422-26.449l-.232-14.434A27.624,27.624,0,0,1,234.93,259" transform="translate(-20.448 -22.901)" fill="#455a64"/>
          <path id="Trazado_699984" data-name="Trazado 699984" d="M207.15,292.168a31.461,31.461,0,0,1-32.213-31.339l16.809-.271c.136,8.532,6.627,13.9,15.118,13.765Z" transform="translate(-17.284 -25.744)" fill="#3076b6"/>
          <path id="Trazado_699985" data-name="Trazado 699985" d="M184.831,261.182a46.6,46.6,0,0,1-3.549,5.564,46.449,46.449,0,0,1-3.936,5.3,92.649,92.649,0,0,1,7.484-10.862" transform="translate(-17.522 -25.805)" fill="#263238"/>
          <path id="Trazado_699986" data-name="Trazado 699986" d="M192.566,262.743c.106.074-2.244,3.67-5.249,8.031s-5.529,7.84-5.636,7.766,2.243-3.669,5.25-8.032,5.529-7.838,5.635-7.765" transform="translate(-17.95 -25.96)" fill="#263238"/>
          <path id="Trazado_699987" data-name="Trazado 699987" d="M196.627,271.036a80.233,80.233,0,0,1-4.725,7.271,80.153,80.153,0,0,1-5.113,7.006,80.273,80.273,0,0,1,4.726-7.272,80.373,80.373,0,0,1,5.112-7" transform="translate(-18.455 -26.779)" fill="#263238"/>
          <path id="Trazado_699988" data-name="Trazado 699988" d="M203.494,275.623a80.248,80.248,0,0,1-4.725,7.271,80.505,80.505,0,0,1-5.112,7.006,79.884,79.884,0,0,1,4.725-7.272,80.336,80.336,0,0,1,5.112-7.005" transform="translate(-19.134 -27.232)" fill="#263238"/>
          <path id="Trazado_699989" data-name="Trazado 699989" d="M209.566,281.445a54.648,54.648,0,0,1-3.861,6.016,54.74,54.74,0,0,1-4.247,5.751,108.821,108.821,0,0,1,8.108-11.768" transform="translate(-19.904 -27.808)" fill="#263238"/>
          <path id="Trazado_699990" data-name="Trazado 699990" d="M315.745,175.883h-.011l-52-.621a.9.9,0,0,1-.89-.912l.487-40.756a.884.884,0,0,1,.912-.891.9.9,0,0,1,.89.912l-.476,39.855,51.1.61a.9.9,0,0,1-.011,1.8" transform="translate(-25.97 -13.111)" fill="#263238"/>
          <rect id="Rectángulo_345002" data-name="Rectángulo 345002" width="12.824" height="6.98" transform="translate(244.83 158.399) rotate(-89.319)" fill="#455a64"/>
          <rect id="Rectángulo_345003" data-name="Rectángulo 345003" width="12.824" height="6.98" transform="translate(269.072 158.399) rotate(-89.319)" fill="#455a64"/>
          <rect id="Rectángulo_345004" data-name="Rectángulo 345004" width="23.311" height="6.98" transform="translate(256.992 158.616) rotate(-89.319)" fill="#ffa031"/>
          <rect id="Rectángulo_345005" data-name="Rectángulo 345005" width="23.311" height="6.98" transform="translate(281.152 158.616) rotate(-89.319)" fill="#ffa031"/>
          <path id="Trazado_699991" data-name="Trazado 699991" d="M270.834,152.7a.9.9,0,0,1-.609-1.565l16.033-14.681a.9.9,0,0,1,1.164-.046l10.108,7.888,21.606-15.4a.9.9,0,0,1,1.045,1.468l-22.153,15.791a.9.9,0,0,1-1.078-.024l-10.036-7.833-15.471,14.167a.9.9,0,0,1-.609.237" transform="translate(-26.67 -12.719)" fill="#455a64"/>
          <path id="Trazado_699992" data-name="Trazado 699992" d="M305.72,136.906s-4.673-1.515-3.706-8.286,4.861-9.386,4.861-9.386,4.41,4.6,4.426,10.441-3.864,7.251-3.864,7.251l-.792-11.342Z" transform="translate(-29.827 -11.781)" fill="#455a64"/>
          <path id="Trazado_699993" data-name="Trazado 699993" d="M314.031,137.655s-1.94-4.8,4.182-8.6,10.87-2.43,10.87-2.43-.731,6.677-5.434,10.643-8.747,1.546-8.747,1.546l8.97-7.156Z" transform="translate(-30.998 -12.487)" fill="#455a64"/>
          <path id="Trazado_699994" data-name="Trazado 699994" d="M325.295,106.786h-12.23a4.266,4.266,0,0,1,0-8.532h12.23a4.266,4.266,0,0,1,0,8.532" transform="translate(-30.51 -9.708)" fill="#e0e0e0"/>
        </g>
      </g>
      <g id="Grupo_998954" data-name="Grupo 998954">
        <g id="Grupo_998953" data-name="Grupo 998953" clip-path="url(#clip-path)">
          <path id="Trazado_699995" data-name="Trazado 699995" d="M50.267,117.282a68.685,68.685,0,0,1-3.206-11.4,23.982,23.982,0,0,1,.715-11.716c.2-.566,1.906-4.368,2.5-4.32.426.034-.6,3.57-.379,3.936a20.333,20.333,0,0,1,2.514,11.809,53.516,53.516,0,0,1-2.148,11.693" transform="translate(-4.611 -8.877)" fill="#263238"/>
          <path id="Trazado_699996" data-name="Trazado 699996" d="M64.641,82.824l.917.032a17.725,17.725,0,0,1,17.1,16.895c.4,8.585.724,18.075.509,22.666-.445,9.5-10.005,10.656-10.005,10.656-.022,0,.591,10.045.591,10.045l-10.028.327-11.494-3.15L49.9,101.515c-.512-9.9,4.824-18.453,14.736-18.691" transform="translate(-4.927 -8.183)" fill="#ffc09d"/>
          <path id="Trazado_699997" data-name="Trazado 699997" d="M74.372,138.134a22.977,22.977,0,0,1-12.254-4.086s2.9,7.6,12.421,7.074Z" transform="translate(-6.137 -13.244)" fill="#ff9b6c"/>
          <path id="Trazado_699998" data-name="Trazado 699998" d="M82.649,110.3a1.358,1.358,0,0,1-1.356,1.325,1.3,1.3,0,0,1-1.357-1.272,1.359,1.359,0,0,1,1.354-1.326,1.3,1.3,0,0,1,1.359,1.273" transform="translate(-7.898 -10.772)" fill="#263238"/>
          <path id="Trazado_699999" data-name="Trazado 699999" d="M83.261,106.021c-.174.171-1.177-.625-2.639-.671-1.458-.068-2.557.647-2.709.462-.075-.081.107-.4.586-.719a3.723,3.723,0,0,1,2.176-.589,3.58,3.58,0,0,1,2.093.755c.437.361.579.686.493.762" transform="translate(-7.696 -10.325)" fill="#263238"/>
          <path id="Trazado_700000" data-name="Trazado 700000" d="M68.075,110.69a1.358,1.358,0,0,1-1.356,1.325,1.3,1.3,0,0,1-1.358-1.273,1.36,1.36,0,0,1,1.355-1.326,1.3,1.3,0,0,1,1.359,1.273" transform="translate(-6.458 -10.811)" fill="#263238"/>
          <path id="Trazado_700001" data-name="Trazado 700001" d="M67.355,105.851c-.175.171-1.179-.625-2.639-.671-1.459-.068-2.558.647-2.71.463-.075-.082.105-.4.587-.72a3.725,3.725,0,0,1,2.176-.589,3.582,3.582,0,0,1,2.093.755c.436.36.578.686.493.762" transform="translate(-6.125 -10.308)" fill="#263238"/>
          <path id="Trazado_700002" data-name="Trazado 700002" d="M73.3,117.339a9.714,9.714,0,0,1,2.388-.347c.374-.025.73-.087.8-.34a1.9,1.9,0,0,0-.211-1.115q-.48-1.372-1.006-2.879c-1.393-4.1-2.388-7.462-2.222-7.516s1.429,3.222,2.823,7.32c.334,1.011.654,1.974.959,2.895a2.168,2.168,0,0,1,.143,1.472.938.938,0,0,1-.633.524,2.522,2.522,0,0,1-.637.067,9.533,9.533,0,0,1-2.405-.079" transform="translate(-7.216 -10.388)" fill="#263238"/>
          <path id="Trazado_700003" data-name="Trazado 700003" d="M67.909,100.781c-.212.366-1.616-.075-3.341-.171-1.723-.132-3.173.122-3.334-.269-.07-.186.232-.512.851-.793a5.812,5.812,0,0,1,5.085.336c.576.36.834.723.739.9" transform="translate(-6.049 -9.793)" fill="#263238"/>
          <path id="Trazado_700004" data-name="Trazado 700004" d="M83.444,101.251c-.31.326-1.494-.041-2.924-.086-1.429-.087-2.648.171-2.92-.181-.119-.171.078-.5.614-.8a4.613,4.613,0,0,1,2.389-.5,4.53,4.53,0,0,1,2.32.713c.5.351.659.7.522.855" transform="translate(-7.664 -9.849)" fill="#263238"/>
          <path id="Trazado_700005" data-name="Trazado 700005" d="M49.79,111.365c-.16-.076-6.467-2.157-6.482,4.351s7.143,5.4,7.155,5.214-.672-9.565-.672-9.565" transform="translate(-4.279 -10.966)" fill="#ffc09d"/>
          <path id="Trazado_700006" data-name="Trazado 700006" d="M48.04,118.47c-.028-.021-.114.079-.306.166a1.128,1.128,0,0,1-.847.016,2.807,2.807,0,0,1-1.292-2.521,3.757,3.757,0,0,1,.322-1.622,1.31,1.31,0,0,1,.854-.868.577.577,0,0,1,.669.313c.087.182.045.312.079.323.018.016.141-.108.088-.378a.723.723,0,0,0-.255-.408.854.854,0,0,0-.626-.167,1.594,1.594,0,0,0-1.187,1.006,3.848,3.848,0,0,0-.4,1.812,2.943,2.943,0,0,0,1.646,2.814,1.213,1.213,0,0,0,1.037-.169c.2-.16.237-.305.214-.317" transform="translate(-4.46 -11.196)" fill="#ff9b6c"/>
          <path id="Trazado_700007" data-name="Trazado 700007" d="M78.093,88.873c1.05-.588-2.133-3.979-4.729-5.136-3.923-1.75-9.9-2.8-13.5-1.759-4.335,1.259-7.929,3.443-10.083,7.409a25.59,25.59,0,0,0-2.789,13.087,7.769,7.769,0,0,0,.942,3.97c.918,1.433,2.668,2.328,2.6,4.313a2.724,2.724,0,0,0,.689,1.982c1.2,1.259,2.648.06,3.309-1.137,1.415-2.558,1.555-5.6,1.662-8.523a19.028,19.028,0,0,0-.452-6.187c-.325-1.082-.843-2.1-1.108-3.2a3.911,3.911,0,0,1,.44-3.252A4.2,4.2,0,0,1,55.6,89.9a6.785,6.785,0,0,1,6.725-1.324C66,89.847,72.268,91.743,73.9,90.489a10.012,10.012,0,0,0,2.895-2.975Z" transform="translate(-4.641 -8.059)" fill="#263238"/>
          <path id="Trazado_700008" data-name="Trazado 700008" d="M68.223,119.715c.223-.015.243,1.479,1.535,2.524s2.879.864,2.894,1.072c.022.094-.351.295-1.024.321a3.728,3.728,0,0,1-2.414-.81,3.247,3.247,0,0,1-1.191-2.119c-.064-.624.1-1,.2-.989" transform="translate(-6.719 -11.828)" fill="#263238"/>
          <path id="Trazado_700009" data-name="Trazado 700009" d="M99.638,262.439l4.812.462s2.645-15.937.9-27.014-11.409-59.527-11.409-59.527L81.814,147.738l-2.212-.964-3.473-3.681,15.521,94.333Z" transform="translate(-7.522 -14.138)" fill="#455a64"/>
          <g id="Grupo_998931" data-name="Grupo 998931" transform="translate(72.334 143.279)" opacity="0.3">
            <g id="Grupo_998930" data-name="Grupo 998930">
              <g id="Grupo_998929" data-name="Grupo 998929" clip-path="url(#clip-path-16)">
                <path id="Trazado_700010" data-name="Trazado 700010" d="M80.264,158.987s20.3,68.608,21.667,79.728a236.671,236.671,0,0,1,1.234,25.594l-3.118-.3-9.507-29.838s-6.619-47.5-6.074-47.332-4.2-27.853-4.2-27.853" transform="translate(-80.264 -158.987)"/>
              </g>
            </g>
          </g>
          <path id="Trazado_700011" data-name="Trazado 700011" d="M90.173,405.027l-.68,17.776s18.119,6.652,18.318,9.948l-35.047-.062-.093-27.74Z" transform="translate(-7.18 -40.01)" fill="#263238"/>
          <path id="Trazado_700012" data-name="Trazado 700012" d="M79.2,423.073a1.407,1.407,0,0,0-.992,1.607,1.376,1.376,0,0,0,1.609.982,1.485,1.485,0,0,0,1.042-1.707,1.433,1.433,0,0,0-1.789-.839" transform="translate(-7.725 -41.795)" fill="#e0e0e0"/>
          <path id="Trazado_700013" data-name="Trazado 700013" d="M72.774,435.423l.1-2.8,33.564,1.106s1.559.671,1.381,1.753Z" transform="translate(-7.19 -42.745)" fill="#455a64"/>
          <path id="Trazado_700014" data-name="Trazado 700014" d="M91.616,424.549c-.006.168-.862.243-1.705.784-.857.518-1.292,1.248-1.45,1.181-.158-.034.1-1.04,1.132-1.676s2.061-.443,2.023-.288" transform="translate(-8.736 -41.931)" fill="#fff"/>
          <path id="Trazado_700015" data-name="Trazado 700015" d="M95.788,426.227c.039.163-.7.449-1.285,1.161-.6.695-.752,1.465-.923,1.457-.16.026-.277-.961.464-1.832s1.74-.946,1.744-.786" transform="translate(-9.234 -42.106)" fill="#fff"/>
          <path id="Trazado_700016" data-name="Trazado 700016" d="M98.329,430.727c-.155.035-.392-.807.05-1.729s1.242-1.288,1.314-1.147c.1.139-.425.633-.774,1.4-.369.753-.419,1.464-.589,1.481" transform="translate(-9.695 -42.27)" fill="#fff"/>
          <path id="Trazado_700017" data-name="Trazado 700017" d="M91.233,419.985c-.072.153-.857-.08-1.824-.017-.969.043-1.722.361-1.811.217-.1-.123.638-.744,1.778-.8s1.942.47,1.857.6" transform="translate(-8.654 -41.436)" fill="#fff"/>
          <path id="Trazado_700018" data-name="Trazado 700018" d="M44.64,406.527,43.681,427.7l4.146,16.964a2.173,2.173,0,0,1-1.775,2.65,2.213,2.213,0,0,1-1.924-.6c-3.215-3.171-14.666-15.054-14.715-16.186-.078-1.8-.607-22.66-.607-22.66Z" transform="translate(-2.846 -40.166)" fill="#263238"/>
          <path id="Trazado_700019" data-name="Trazado 700019" d="M46.108,449.764,29.387,431.289l-.02.9a3.386,3.386,0,0,0,.741,2.136c1.332,1.61,5.107,5.979,14.011,14.839a2.224,2.224,0,0,0,1.989.6" transform="translate(-2.902 -42.613)" fill="#455a64"/>
          <g id="Grupo_998934" data-name="Grupo 998934" transform="translate(29.09 381.714)" opacity="0.6">
            <g id="Grupo_998933" data-name="Grupo 998933">
              <g id="Grupo_998932" data-name="Grupo 998932" clip-path="url(#clip-path-17)">
                <path id="Trazado_700020" data-name="Trazado 700020" d="M34.242,423.783a1.245,1.245,0,0,1-1.4,2.057,1.37,1.37,0,0,1-.337-1.827,1.346,1.346,0,0,1,1.84-.151" transform="translate(-32.28 -423.563)" fill="#fff"/>
              </g>
            </g>
          </g>
          <path id="Trazado_700021" data-name="Trazado 700021" d="M42.709,441.139a6.693,6.693,0,0,1,1.923-1.608,6.786,6.786,0,0,1,2.488-.414c.02-.052-.25-.223-.752-.3a3.479,3.479,0,0,0-1.936.294,3.428,3.428,0,0,0-1.476,1.27c-.26.43-.3.743-.248.761" transform="translate(-4.218 -43.353)" fill="#fff"/>
          <path id="Trazado_700022" data-name="Trazado 700022" d="M44.342,444.424a18.116,18.116,0,0,1,1.926-.87,18.149,18.149,0,0,1,2.108-.222,2.477,2.477,0,0,0-2.233-.227c-1.275.338-1.911,1.26-1.8,1.319" transform="translate(-4.38 -43.767)" fill="#fff"/>
          <path id="Trazado_700023" data-name="Trazado 700023" d="M39.633,437.032a22.039,22.039,0,0,1,2.88-1.541,22.368,22.368,0,0,1,3.208-.665,4.959,4.959,0,0,0-3.371.228,4.872,4.872,0,0,0-2.717,1.978" transform="translate(-3.915 -42.944)" fill="#fff"/>
          <path id="Trazado_700024" data-name="Trazado 700024" d="M39.352,430.034c.055.128,1.254-.335,2.8-.358,1.547-.042,2.766.37,2.815.24a4.317,4.317,0,0,0-2.826-.7,4.3,4.3,0,0,0-2.792.823" transform="translate(-3.888 -42.407)" fill="#fff"/>
          <path id="Trazado_700025" data-name="Trazado 700025" d="M39.487,423.118a10.956,10.956,0,0,1,2.907-.449,10.92,10.92,0,0,1,2.838.767c.036-.043-.193-.315-.683-.607a4.873,4.873,0,0,0-4.314-.239c-.52.237-.779.481-.748.528" transform="translate(-3.901 -41.714)" fill="#fff"/>
          <path id="Trazado_700026" data-name="Trazado 700026" d="M42.374,420.946a1.815,1.815,0,0,0,.047-.8,5.5,5.5,0,0,0-.6-2.113,2.489,2.489,0,0,0-1.05-1.2.9.9,0,0,0-1,.174,1.41,1.41,0,0,0-.361.949,3.088,3.088,0,0,0,2.669,2.9,3.632,3.632,0,0,0,3.591-1.786,1.218,1.218,0,0,0,.082-1.026.873.873,0,0,0-.9-.473,3.1,3.1,0,0,0-1.434.7,6.249,6.249,0,0,0-1.5,1.615,1.866,1.866,0,0,0-.346.725,9.906,9.906,0,0,1,2.048-2.074,2.9,2.9,0,0,1,1.264-.576.465.465,0,0,1,.492.254.84.84,0,0,1-.094.671,3.244,3.244,0,0,1-3.133,1.514,2.683,2.683,0,0,1-2.3-2.429,1.025,1.025,0,0,1,.224-.673.485.485,0,0,1,.552-.1,2.237,2.237,0,0,1,.908,1,8.1,8.1,0,0,1,.849,2.759" transform="translate(-3.893 -41.176)" fill="#fff"/>
          <path id="Trazado_700027" data-name="Trazado 700027" d="M91.067,243.833s4.218,12.506,3.8,24.436c-.161,4.616-7.359,132.317-7.359,132.317l-21.288.889.832-119.887-1.727.445S55.9,333.544,55.309,341.844c-.532,7.461-8.009,61.818-8.009,61.818l-19.387-.525,3.075-70.057,4.286-68.771,1.863-20.043Z" transform="translate(-2.758 -24.091)" fill="#263238"/>
          <path id="Trazado_700028" data-name="Trazado 700028" d="M68.515,270.444a4.141,4.141,0,0,0,.909.456,10.4,10.4,0,0,0,2.676.8,5.627,5.627,0,0,0,1.962-.068,4.058,4.058,0,0,0,2.009-1.054,4.777,4.777,0,0,0,1.152-2.193c.215-.825.323-1.678.461-2.546.53-3.48.854-6.653,1.024-8.953.085-1.15.134-2.081.155-2.726a4.26,4.26,0,0,0-.016-1,4.312,4.312,0,0,0-.16.99c-.08.734-.179,1.639-.3,2.711-.25,2.287-.623,5.444-1.152,8.915-.27,1.717-.43,3.46-1.466,4.52a4.47,4.47,0,0,1-3.635,1.1,12.135,12.135,0,0,1-2.649-.648,4.836,4.836,0,0,0-.973-.295" transform="translate(-6.769 -25.013)" fill="#455a64"/>
          <path id="Trazado_700029" data-name="Trazado 700029" d="M74.582,254.026c.006-.02-.142-.1-.443-.109a1.92,1.92,0,0,0-1.174.426A2.085,2.085,0,0,0,72.137,256a1.968,1.968,0,0,0,1.441,1.744,2.012,2.012,0,0,0,2.21-.566,2.071,2.071,0,0,0,.328-1.818,1.874,1.874,0,0,0-.691-1.028c-.246-.17-.415-.189-.423-.17a2.368,2.368,0,0,1,.8,1.271,1.808,1.808,0,0,1-.341,1.488,1.613,1.613,0,0,1-1.746.4,1.58,1.58,0,0,1-1.166-1.34,1.82,1.82,0,0,1,.619-1.4,2.426,2.426,0,0,1,1.41-.556" transform="translate(-7.127 -25.088)" fill="#455a64"/>
          <path id="Trazado_700030" data-name="Trazado 700030" d="M37.829,264.352a2.346,2.346,0,0,0,.729.081,13.776,13.776,0,0,0,2-.06,19.606,19.606,0,0,0,6.347-1.73,19.35,19.35,0,0,0,5.392-3.727,13.417,13.417,0,0,0,1.317-1.48c.282-.373.424-.588.4-.607-.062-.05-.713.751-1.938,1.86a21.637,21.637,0,0,1-11.556,5.372c-1.648.226-2.688.212-2.689.291" transform="translate(-3.738 -25.375)" fill="#455a64"/>
          <path id="Trazado_700031" data-name="Trazado 700031" d="M48.1,244.319a2.053,2.053,0,0,0,.43.2l1.26.508c1.095.442,2.7,1.02,4.708,1.676s4.422,1.36,7.13,2.039c2.712.659,5.72,1.289,8.9,1.8s6.242.814,9.025,1.017c2.787.183,5.3.26,7.413.242s3.818-.069,5-.153l1.354-.1a2.064,2.064,0,0,0,.472-.062,2.089,2.089,0,0,0-.476-.021l-1.356.022c-1.178.037-2.884.05-4.987.023s-4.611-.126-7.386-.329c-2.774-.224-5.816-.555-8.991-1.045-3.17-.506-6.169-1.122-8.876-1.758-2.7-.657-5.122-1.322-7.132-1.948s-3.631-1.155-4.74-1.55l-1.286-.436a2.04,2.04,0,0,0-.459-.126" transform="translate(-4.753 -24.139)" fill="#263238"/>
          <path id="Trazado_700032" data-name="Trazado 700032" d="M168.857,87.993l-9.4,16.594-2.691-.6,5.187,7.422,11.076-.884-2.012-.951,5.633-9.135,2.592,4.588,3.6,6.378,10.556-6.434L183.3,88.316Z" transform="translate(-15.489 -8.694)" fill="#008b8a" fill-rule="evenodd"/>
          <g id="Grupo_998937" data-name="Grupo 998937" transform="translate(161.156 79.622)" opacity="0.3">
            <g id="Grupo_998936" data-name="Grupo 998936">
              <g id="Grupo_998935" data-name="Grupo 998935" clip-path="url(#clip-path-18)">
                <path id="Trazado_700033" data-name="Trazado 700033" d="M185.479,88.351l-6.654,12.124,6.2,10.966,10.556-6.433Z" transform="translate(-178.824 -88.351)" fill-rule="evenodd"/>
              </g>
            </g>
          </g>
          <path id="Trazado_700034" data-name="Trazado 700034" d="M152.109,140.3l17.628.388.166,2.268,4.584-8.464-3.872-8.833-.384,2.539-10.129-.246,3.056-4.86,3.318-4.786-10.677-6.23-9.673,15.666Z" transform="translate(-14.438 -11.073)" fill="#008b8a" fill-rule="evenodd"/>
          <g id="Grupo_998940" data-name="Grupo 998940" transform="translate(131.689 100.863)" opacity="0.3">
            <g id="Grupo_998939" data-name="Grupo 998939">
              <g id="Grupo_998938" data-name="Grupo 998938" clip-path="url(#clip-path-19)">
                <path id="Trazado_700035" data-name="Trazado 700035" d="M146.127,127.588l13.976.209,6.373-9.646-10.676-6.23Z" transform="translate(-146.127 -111.921)" fill-rule="evenodd"/>
              </g>
            </g>
          </g>
          <path id="Trazado_700036" data-name="Trazado 700036" d="M207.431,129.554l-8.925-16.692,2.888-1.714-10.225.123-6.483,8.879,3.024-.995,5.039,10.325-5.263-.263-7.316-.365-.207,12.36,19.474.373Z" transform="translate(-17.781 -10.982)" fill="#008b8a" fill-rule="evenodd"/>
          <g id="Grupo_998943" data-name="Grupo 998943" transform="translate(162.182 117.733)" opacity="0.3">
            <g id="Grupo_998942" data-name="Grupo 998942">
              <g id="Grupo_998941" data-name="Grupo 998941" clip-path="url(#clip-path-20)">
                <path id="Trazado_700037" data-name="Trazado 700037" d="M199.437,143.374l-6.688-12.106-12.579-.627L179.963,143Z" transform="translate(-179.963 -130.641)" fill-rule="evenodd"/>
              </g>
            </g>
          </g>
          <path id="Trazado_700038" data-name="Trazado 700038" d="M151.331,78.388a2.655,2.655,0,0,1-.452.361c-.3.231-.768.534-1.334.974a50.076,50.076,0,0,0-4.638,3.9,47.518,47.518,0,0,0-14.932,35.805,50.189,50.189,0,0,0,.489,6.042c.086.712.2,1.257.247,1.633a2.632,2.632,0,0,1,.061.575,2.625,2.625,0,0,1-.154-.557c-.078-.37-.221-.912-.334-1.622a43.008,43.008,0,0,1-.641-6.061,46.452,46.452,0,0,1,15.037-36.058,43.041,43.041,0,0,1,4.757-3.809c.585-.419,1.071-.7,1.388-.9a2.649,2.649,0,0,1,.5-.283" transform="translate(-12.805 -7.745)" fill="#263238"/>
          <path id="Trazado_700039" data-name="Trazado 700039" d="M206.057,156.2a2.737,2.737,0,0,1,.443-.372c.295-.237.755-.552,1.31-1a50.116,50.116,0,0,0,4.545-4.012,47.516,47.516,0,0,0,14.081-36.149,50.019,50.019,0,0,0-.633-6.028c-.1-.709-.229-1.252-.284-1.626a2.654,2.654,0,0,1-.076-.574,2.54,2.54,0,0,1,.167.553c.087.369.242.907.373,1.614a43.088,43.088,0,0,1,.784,6.043,46.457,46.457,0,0,1-14.181,36.4,42.891,42.891,0,0,1-4.666,3.921c-.574.433-1.053.724-1.366.936a2.649,2.649,0,0,1-.5.295" transform="translate(-20.359 -10.516)" fill="#263238"/>
          <path id="Trazado_700040" data-name="Trazado 700040" d="M237.136,113.313a1.737,1.737,0,0,1,.119.455c.069.355.151.793.253,1.325a19.262,19.262,0,0,1,.3,2.112c.08.828.218,1.769.232,2.819q.03.789.062,1.646c.018.572-.02,1.168-.029,1.784,0,1.236-.142,2.547-.264,3.93a47.653,47.653,0,0,1-5.328,17.152c-.683,1.209-1.309,2.37-2.01,3.388-.342.514-.648,1.026-.987,1.488s-.67.9-.983,1.32c-.606.856-1.254,1.555-1.789,2.192a19.8,19.8,0,0,1-1.446,1.569c-.385.38-.7.693-.959.948a1.748,1.748,0,0,1-.357.307,1.844,1.844,0,0,1,.289-.374l.892-1.006c.4-.427.874-.959,1.381-1.615s1.138-1.356,1.722-2.22q.457-.638.953-1.328c.328-.464.624-.978.956-1.491.681-1.017,1.289-2.178,1.956-3.38a49.325,49.325,0,0,0,5.28-17c.132-1.368.289-2.668.3-3.892.017-.613.064-1.2.056-1.771s-.022-1.112-.032-1.633c.008-1.044-.106-1.98-.161-2.807s-.137-1.535-.223-2.111c-.067-.536-.122-.978-.166-1.336a1.8,1.8,0,0,1-.026-.471" transform="translate(-22.127 -11.196)" fill="#263238"/>
          <path id="Trazado_700041" data-name="Trazado 700041" d="M125.292,171.338l-9.418,9.728-.382,8.471,11.537,2.125.657-5.079,6.3-8.376Z" transform="translate(-11.411 -16.929)" fill="#ffc09d"/>
          <path id="Trazado_700042" data-name="Trazado 700042" d="M82.431,148.309s9.835,3.411,12.259,8.339,12.344,27.132,12.344,27.132l3.759,3.365.953-2.3,14.272,2.3s-2.642,11.794-5.924,16.941c-5.472,8.579-15.808,7.244-18.995,4.061-2.875-2.87-5.1-9.38-5.1-9.38Z" transform="translate(-8.144 -14.653)" fill="#455a64"/>
          <path id="Trazado_700043" data-name="Trazado 700043" d="M128.886,190.752l.46-3.147-12.4-2.54-.834,3.683Z" transform="translate(-11.472 -18.285)" fill="#e0e0e0"/>
          <path id="Trazado_700044" data-name="Trazado 700044" d="M89.219,189.223a15.822,15.822,0,0,1-.159-1.725c-.093-1.11-.245-2.714-.479-4.692-.471-3.954-1.252-9.4-2.41-15.369a107.755,107.755,0,0,0-3.863-15.046,27.821,27.821,0,0,0-1.9-4.292c-.56-.957-.968-1.421-.931-1.453.012-.011.119.1.315.322A9.131,9.131,0,0,1,80.569,148a24.239,24.239,0,0,1,2.051,4.272,94.908,94.908,0,0,1,4.013,15.072c1.162,5.98,1.891,11.451,2.279,15.424.192,1.986.294,3.6.331,4.716.014.559.022.992.011,1.287a1.61,1.61,0,0,1-.034.449" transform="translate(-7.853 -14.489)" fill="#263238"/>
          <path id="Trazado_700045" data-name="Trazado 700045" d="M93.829,159.1c.128-.021,2.221,12.194,4.676,27.279s4.341,27.337,4.213,27.358-2.221-12.191-4.676-27.282S93.7,159.125,93.829,159.1" transform="translate(-9.27 -15.72)" fill="#263238"/>
          <path id="Trazado_700046" data-name="Trazado 700046" d="M47.012,143.4l3.7-8.5,20.158,13.358,2.208-5.34L80.788,165.4l10.387,44.767c.326,1.23,2.473,19.621,1.779,22.9-.5,2.358-.8,3.837-2.967,4.892l-2.076.305L65.64,239,50.491,153.02Z" transform="translate(-4.645 -13.328)" fill="#f5f5f5"/>
          <g id="Grupo_998946" data-name="Grupo 998946" transform="translate(32.437 193.501)" opacity="0.3">
            <g id="Grupo_998945" data-name="Grupo 998945">
              <g id="Grupo_998944" data-name="Grupo 998944" clip-path="url(#clip-path-21)">
                <path id="Trazado_700047" data-name="Trazado 700047" d="M36.062,276.234s28.753,5.323,35.361,3.4a7.879,7.879,0,0,0,5.824-8.411s-.7-19.052-1.357-26.192c-.75-8.187-2.863-30.317-2.863-30.317L35.993,271.5Z" transform="translate(-35.993 -214.716)"/>
              </g>
            </g>
          </g>
          <path id="Trazado_700048" data-name="Trazado 700048" d="M74.121,159.22l-.51,10.215L79.8,225.283c.4,1.431,8.952,10.15,8.952,10.15l4.471-12.5L78.846,167.739,75.8,158.814Z" transform="translate(-7.273 -15.691)" fill="#12263f"/>
          <path id="Trazado_700049" data-name="Trazado 700049" d="M32.225,148.453c-11.515,5.614-13.011,15.748-9.3,28.009.616,2.033,1.057,3.127,1.911,5.511,3.729,10.409,12.457,28.536,12.09,32.34-.665,6.9-6.724,31.048-8.739,42.829a23.635,23.635,0,0,0-.366,7.552s38.592,7.822,42.9,4.1.2-24.186.039-35.755c-.177-12.765-2.1-34.2-4.645-44.776-1.7-7.059-4.191-19.626-7.037-28.118-2.379-7.1-8.6-18.583-12.178-23.251l-3.319,5.665s-7.626,4.074-11.36,5.895" transform="translate(-2.087 -13.525)" fill="#455a64"/>
          <path id="Trazado_700050" data-name="Trazado 700050" d="M39.6,255.2a3.555,3.555,0,0,1,.491.023l1.336.108,4.893.435c4.146.375,9.885.9,16.462,1.583l-.264.177c.936-2.331,1.924-4.791,2.939-7.32l.139-.344.214.436c-9.04-.861-17.113-1.671-22.448-2.244l.165-.1-2.837,5.28-.789,1.445c-.184.333-.287.512-.3.521a3.506,3.506,0,0,1,.212-.475l.695-1.44,2.726-5.532.053-.109.113.009c5.347.442,13.427,1.168,22.467,2.026l.375.036-.161.4-.138.344c-1.02,2.525-2.011,4.983-2.952,7.312l-.08.2-.184-.02c-6.706-.723-12.544-1.422-16.653-1.92l-4.8-.59-1.263-.167a1.87,1.87,0,0,1-.409-.073" transform="translate(-3.912 -24.468)" fill="#263238"/>
          <g id="Grupo_998949" data-name="Grupo 998949" transform="translate(36.917 225.522)" opacity="0.3">
            <g id="Grupo_998948" data-name="Grupo 998948">
              <g id="Grupo_998947" data-name="Grupo 998947" clip-path="url(#clip-path-22)">
                <path id="Trazado_700051" data-name="Trazado 700051" d="M41.533,255.637l-.569,2.267L64.2,260.4l1.772-10.156-3.084,7.66Z" transform="translate(-40.964 -250.247)"/>
              </g>
            </g>
          </g>
          <path id="Trazado_700052" data-name="Trazado 700052" d="M71.388,155.084l.191.375,2.321,2.864,1.677-.407.273-3.745-2.57-4.45Z" transform="translate(-7.053 -14.793)" fill="#12263f"/>
          <path id="Trazado_700053" data-name="Trazado 700053" d="M117.348,102.728a57.318,57.318,0,1,1,14.364,50.416,57.025,57.025,0,0,1-14.364-50.416M226.016,124.4a53.461,53.461,0,1,0-15.876,28.587A53.474,53.474,0,0,0,226.016,124.4" transform="translate(-11.486 -5.592)" fill="#455a64"/>
          <path id="Trazado_700054" data-name="Trazado 700054" d="M117.348,102.728a57.318,57.318,0,1,1,14.364,50.416,57.025,57.025,0,0,1-14.364-50.416M226.016,124.4a53.461,53.461,0,1,0-15.876,28.587A53.474,53.474,0,0,0,226.016,124.4" transform="translate(-11.486 -5.592)" fill="#263238"/>
          <g id="Grupo_998952" data-name="Grupo 998952" transform="translate(104.761 51.005)" opacity="0.3">
            <g id="Grupo_998951" data-name="Grupo 998951">
              <g id="Grupo_998950" data-name="Grupo 998950" clip-path="url(#clip-path-23)">
                <path id="Trazado_700055" data-name="Trazado 700055" d="M117.348,102.728a57.318,57.318,0,1,1,14.364,50.416,57.025,57.025,0,0,1-14.364-50.416M226.016,124.4a53.461,53.461,0,1,0-15.876,28.587A53.474,53.474,0,0,0,226.016,124.4" transform="translate(-116.247 -56.597)"/>
              </g>
            </g>
          </g>
          <path id="Trazado_700056" data-name="Trazado 700056" d="M115.784,99.666a57.319,57.319,0,1,1,14.364,50.415,57.031,57.031,0,0,1-14.364-50.415m108.668,21.676a53.461,53.461,0,1,0-15.876,28.587,53.471,53.471,0,0,0,15.876-28.587" transform="translate(-11.331 -5.289)" fill="#263238"/>
          <path id="Trazado_700057" data-name="Trazado 700057" d="M60.91,232.781l-1.824-1.765c-1.628-1.575-.716-5.176.992-6.923l64.063-66.217,8.566,8.287L68.739,232.281c-2.16,2.119-5.734,2.528-7.83.5" transform="translate(-5.754 -15.599)" fill="#263238"/>
          <path id="Trazado_700058" data-name="Trazado 700058" d="M130.813,166.4a1.5,1.5,0,0,1,1.3-.345,2.523,2.523,0,0,1,1.017.708,11.62,11.62,0,0,1,3.3,8.033c0,1.273-.335,2.732-1.468,3.312l-1.287-.744c-.4-.515-1.591-1.376-1.748-2.008-.666-2.66.289-2.549-1.379-7.163a1.59,1.59,0,0,1,.269-1.793" transform="translate(-12.883 -16.403)" fill="#ffc09d"/>
          <path id="Trazado_700059" data-name="Trazado 700059" d="M130.736,170.379a6.34,6.34,0,0,0-1.274-1.679,1.853,1.853,0,0,0-1.694-.506c-.889.279-1.32,1.558-1.219,2.748a10.38,10.38,0,0,0,1.1,3.381q1.583,3.431,3.165,6.861l.614-.451a.868.868,0,0,0,1.367-.3,3.642,3.642,0,0,0,.3-1.868,17.931,17.931,0,0,0-2.363-8.185" transform="translate(-12.502 -16.613)" fill="#ffc09d"/>
          <path id="Trazado_700060" data-name="Trazado 700060" d="M128.771,177.621a16.052,16.052,0,0,0-3.169-4.246,3.894,3.894,0,0,0-1.471-1.117,1.386,1.386,0,0,0-1.654.486,1.912,1.912,0,0,0,.224,1.682,78.548,78.548,0,0,0,5.448,9.566l1.892-1.906c.858-1.547-.543-2.856-1.272-4.465" transform="translate(-12.089 -17.011)" fill="#ffc09d"/>
          <path id="Trazado_700061" data-name="Trazado 700061" d="M78.552,200.156l1.661-.352,8.685-7.4,4.754-3.993a2.909,2.909,0,0,1,1.391-.642l4.706-.785a2.677,2.677,0,0,1-1.409,3.227l-2.578,1.335-2.36,2.788.3.6s15.462,2.4,16.427,3.578a1.607,1.607,0,0,1-.429,2.467,2.5,2.5,0,0,1-1.181.107s.752,1.823-1.5,3.324c0,0,1.717,2.252-1.285,3.325a4.853,4.853,0,0,1-2.575,2.252,111.444,111.444,0,0,1-11.9,1.609c-.964,0-11.085.016-11.085.016l-2.225.363Z" transform="translate(-7.701 -18.474)" fill="#ffc09d"/>
          <path id="Trazado_700062" data-name="Trazado 700062" d="M111.336,202.61a12.34,12.34,0,0,1-4.276.23,17.076,17.076,0,0,1-4.231-.628,21.164,21.164,0,0,1,4.262.143,40.8,40.8,0,0,1,4.246.255" transform="translate(-10.16 -19.973)" fill="#ff9b6c"/>
          <path id="Trazado_700063" data-name="Trazado 700063" d="M109.419,206.307c0,.069-.4.123-1.046.209s-1.536.207-2.542.269a21.732,21.732,0,0,1-2.565-.055,4.052,4.052,0,0,1-1.055-.095c-.019-.069.391-.206,1.051-.249.663-.062,1.564-.023,2.541-.087s1.889-.133,2.549-.127,1.069.068,1.068.134" transform="translate(-10.099 -20.37)" fill="#ff9b6c"/>
          <path id="Trazado_700064" data-name="Trazado 700064" d="M108.237,209.927a18.36,18.36,0,0,1-4.169.56,9.9,9.9,0,0,0-2.853.443c-.681.256-.992.622-1.054.567-.047-.022.189-.5.91-.88a7.548,7.548,0,0,1,2.96-.615,18.29,18.29,0,0,1,4.206-.075" transform="translate(-9.896 -20.733)" fill="#ff9b6c"/>
          <path id="Trazado_700065" data-name="Trazado 700065" d="M73.32,201.847l2.506,14.7,6.82-2-2.054-15.426Z" transform="translate(-7.244 -19.674)" fill="#e0e0e0"/>
          <path id="Trazado_700066" data-name="Trazado 700066" d="M73.319,201.82a2.237,2.237,0,0,1,.463-.217l1.418-.579,5.331-2.094.205-.081.031.223c.541,3.945,1.249,9.111,2.025,14.769q.043.326.086.648l.026.2-.193.056-6.824,1.989-.239.069-.041-.243c-.724-4.343-1.312-8.053-1.714-10.657-.187-1.245-.338-2.258-.454-3.029a7.134,7.134,0,0,1-.121-1.055,9.792,9.792,0,0,1,.251,1.122l.581,3.051c.486,2.6,1.151,6.24,1.892,10.493l-.278-.174,6.815-2.016-.166.256q-.043-.322-.086-.648c-.732-5.664-1.4-10.836-1.91-14.785l.237.141-5.3,1.891-1.482.506a3.447,3.447,0,0,1-.55.162" transform="translate(-7.244 -19.647)" fill="#263238"/>
          <path id="Trazado_700067" data-name="Trazado 700067" d="M33.394,149.109S22.023,153.643,21.156,164.3c-.673,8.283,1.974,33.185,2.338,37.608,1.081,13.111,4.964,20.786,14.971,22.353,6.913,1.083,35.244-12.473,35.244-12.473l-2.573-16.2L44.975,203.2l-2.531-31.168s-.244-2.44-.916-5.7" transform="translate(-2.08 -14.732)" fill="#455a64"/>
          <path id="Trazado_700068" data-name="Trazado 700068" d="M41.512,166.334s.062.216.157.643.222,1.064.369,1.9.317,1.876.463,3.111c.107,1.239.231,2.663.37,4.262.54,6.42,1.317,15.644,2.267,26.931l-.23-.159,26.15-7.648.236-.069.039.244c.828,5.192,1.692,10.609,2.585,16.2l.027.17-.154.073c-6.457,3.038-13.29,6.07-20.468,8.788A84.514,84.514,0,0,1,43.271,224a23.908,23.908,0,0,1-2.569.464,8.119,8.119,0,0,1-2.621-.035A18.184,18.184,0,0,1,33.2,222.87a14.388,14.388,0,0,1-4.015-3.037,16.778,16.778,0,0,1-2.745-4.1,33.094,33.094,0,0,1-2.635-9.118c-.478-3.061-.628-6.065-.934-8.963q-.393-4.361-.762-8.457c-.468-5.459-.843-10.55-1.063-15.207-.11-2.328-.18-4.547-.161-6.651,0-1.051.05-2.074.113-3.064a17.269,17.269,0,0,1,.542-2.841,16.815,16.815,0,0,1,.931-2.53,19.057,19.057,0,0,1,4.116-5.432,24.732,24.732,0,0,1,4.889-3.48c.606-.324,1.08-.549,1.4-.69s.5-.193.5-.193-.16.084-.476.236-.78.393-1.376.729a25.709,25.709,0,0,0-4.81,3.532,19.049,19.049,0,0,0-2.786,3.278,18.585,18.585,0,0,0-1.235,2.126,16.589,16.589,0,0,0-.9,2.495,17.083,17.083,0,0,0-.515,2.793c-.055.982-.1,2-.094,3.043-.007,2.093.074,4.309.195,6.633.241,4.648.634,9.735,1.118,15.189q.38,4.091.785,8.451c.313,2.9.471,5.909.951,8.936a32.672,32.672,0,0,0,2.61,8.989,16.332,16.332,0,0,0,2.676,3.987,13.988,13.988,0,0,0,3.889,2.935,17.774,17.774,0,0,0,4.749,1.509,7.622,7.622,0,0,0,2.487.03,23.759,23.759,0,0,0,2.518-.457,84.23,84.23,0,0,0,9.992-3.2c7.156-2.71,13.989-5.737,20.435-8.762l-.127.242c-.884-5.592-1.74-11.011-2.561-16.2l.275.174-26.171,7.576-.213.061-.017-.22c-.883-11.292-1.606-20.519-2.109-26.942-.121-1.6-.229-3.024-.323-4.264-.129-1.23-.282-2.271-.413-3.11l-.319-1.911c-.077-.43-.1-.653-.1-.653" transform="translate(-2.064 -14.732)" fill="#263238"/>
          <path id="Trazado_700069" data-name="Trazado 700069" d="M67.5,183.5a1.687,1.687,0,0,1-.238-.389c-.161-.313-.36-.694-.6-1.156-.5-1.01-1.261-2.458-2.216-4.236-1.9-3.563-4.716-8.378-7.811-13.713s-5.731-10.273-7.436-13.943c-.852-1.835-1.511-3.334-1.92-4.389-.189-.485-.345-.886-.472-1.214a1.628,1.628,0,0,1-.135-.435,1.7,1.7,0,0,1,.222.4c.15.318.333.707.553,1.178.461,1.031,1.164,2.505,2.052,4.317,1.777,3.625,4.447,8.521,7.543,13.853s5.869,10.182,7.7,13.792c.919,1.8,1.633,3.276,2.087,4.312.207.478.379.871.519,1.194a1.675,1.675,0,0,1,.152.43" transform="translate(-4.612 -14.23)" fill="#263238"/>
          <path id="Trazado_700070" data-name="Trazado 700070" d="M42.431,163.461a17.03,17.03,0,0,1-.352-1.788,12.506,12.506,0,0,0-4.552-7.182,16.829,16.829,0,0,1-1.466-1.081,4.585,4.585,0,0,1,1.66.813,11.022,11.022,0,0,1,4.684,7.391,4.6,4.6,0,0,1,.026,1.848" transform="translate(-3.563 -15.157)" fill="#263238"/>
          <path id="Trazado_700071" data-name="Trazado 700071" d="M42.955,215.671a10.494,10.494,0,0,1,4.688-7.332,40.043,40.043,0,0,0-2.745,3.41,40.273,40.273,0,0,0-1.943,3.922" transform="translate(-4.242 -20.584)" fill="#263238"/>
          <path id="Trazado_700072" data-name="Trazado 700072" d="M72.135,150.09a2.783,2.783,0,0,1-.159.825c-.136.524-.37,1.272-.7,2.185-.657,1.829-1.7,4.316-3.005,7.037l-.116.242-.216-.145c-.229-.153-.486-.3-.723-.48a58.671,58.671,0,0,1-6.16-5.466l-1.769-1.748a3.635,3.635,0,0,1-.618-.676,3.265,3.265,0,0,1,.742.541c.455.373,1.093.937,1.873,1.642a80.411,80.411,0,0,0,6.2,5.323c.232.173.476.315.7.465l-.333.1c1.308-2.7,2.4-5.16,3.127-6.947s1.092-2.912,1.157-2.895" transform="translate(-5.797 -14.829)" fill="#263238"/>
          <path id="Trazado_700073" data-name="Trazado 700073" d="M79.682,153.965a4.176,4.176,0,0,1-.435,1,23.766,23.766,0,0,1-1.286,2.458l-.184.29-.191-.3c-.285-.439-.567-.926-.852-1.435A26.61,26.61,0,0,1,74.384,151a41.265,41.265,0,0,1,2.76,4.751c.282.5.556.99.819,1.424l-.374-.005c.606-.9,1.04-1.77,1.413-2.344s.638-.89.679-.861" transform="translate(-7.349 -14.919)" fill="#263238"/>
        </g>
      </g>
    </g>
  </g>
</svg>
