<svg id="Grupo_1002603" data-name="Grupo 1002603" xmlns="http://www.w3.org/2000/svg" xmlns:xlink="http://www.w3.org/1999/xlink" width="273.351" height="214.541" viewBox="0 0 273.351 214.541">
  <defs>
    <clipPath id="clip-path">
      <rect id="Rectángulo_346612" data-name="Rectángulo 346612" width="273.351" height="214.541" fill="none"/>
    </clipPath>
    <clipPath id="clip-path-5">
      <rect id="Rectángulo_346597" data-name="Rectángulo 346597" width="12.76" height="128.095" fill="none"/>
    </clipPath>
    <clipPath id="clip-path-7">
      <rect id="Rectángulo_346600" data-name="Rectángulo 346600" width="34.816" height="17.747" fill="none"/>
    </clipPath>
    <clipPath id="clip-path-8">
      <rect id="Rectángulo_346601" data-name="Rectángulo 346601" width="44.838" height="22.856" fill="none"/>
    </clipPath>
    <clipPath id="clip-path-9">
      <rect id="Rectángulo_346602" data-name="Rectángulo 346602" width="36.43" height="13.086" fill="none"/>
    </clipPath>
    <clipPath id="clip-path-13">
      <rect id="Rectángulo_346606" data-name="Rectángulo 346606" width="1.433" height="1.429" fill="none"/>
    </clipPath>
    <clipPath id="clip-path-15">
      <rect id="Rectángulo_346608" data-name="Rectángulo 346608" width="21.535" height="1.911" fill="none"/>
    </clipPath>
    <clipPath id="clip-path-16">
      <rect id="Rectángulo_346609" data-name="Rectángulo 346609" width="20.937" height="6.902" fill="none"/>
    </clipPath>
    <clipPath id="clip-path-17">
      <rect id="Rectángulo_346610" data-name="Rectángulo 346610" width="9.521" height="20.449" fill="none"/>
    </clipPath>
  </defs>
  <g id="Grupo_1002602" data-name="Grupo 1002602" clip-path="url(#clip-path)">
    <path id="Trazado_711699" data-name="Trazado 711699" d="M0,106.109,8.964,112.5l20.157,4.91,7.991-29.928L7.314,79.6Z" transform="translate(0 -40.998)" fill="#f5f5f5"/>
    <g id="Grupo_1002563" data-name="Grupo 1002563">
      <g id="Grupo_1002562" data-name="Grupo 1002562" clip-path="url(#clip-path)">
        <path id="Trazado_711700" data-name="Trazado 711700" d="M3.894,131.813,0,133a11.832,11.832,0,0,0,3.148,3.669,17.1,17.1,0,0,0,5.816,2.723,11.362,11.362,0,0,1-5.07-7.579" transform="translate(0 -67.888)" fill="#ebebeb"/>
        <path id="Trazado_711701" data-name="Trazado 711701" d="M40.455,107.2c-.013.049-5.1-1.25-11.352-2.9S17.784,101.27,17.8,101.221s5.1,1.249,11.353,2.9,11.318,3.031,11.3,3.08" transform="translate(-9.166 -52.131)" fill="#e0e0e0"/>
        <path id="Trazado_711702" data-name="Trazado 711702" d="M38.025,115.574c-.013.049-5.1-1.25-11.352-2.9s-11.319-3.031-11.306-3.081,5.1,1.25,11.353,2.9,11.318,3.031,11.3,3.08" transform="translate(-7.914 -56.443)" fill="#e0e0e0"/>
        <path id="Trazado_711703" data-name="Trazado 711703" d="M36.314,123.113c-.013.049-5.1-1.25-11.352-2.9s-11.319-3.031-11.306-3.08,5.1,1.249,11.353,2.9,11.318,3.031,11.3,3.08" transform="translate(-7.033 -60.326)" fill="#e0e0e0"/>
        <path id="Trazado_711704" data-name="Trazado 711704" d="M34.366,130.291c-.013.049-5.1-1.25-11.352-2.9s-11.319-3.031-11.306-3.081,5.1,1.25,11.353,2.9,11.318,3.031,11.305,3.08" transform="translate(-6.03 -64.023)" fill="#e0e0e0"/>
        <path id="Trazado_711705" data-name="Trazado 711705" d="M510.861,246.766l-5.579,20.217,6.837,4.875,15.374,3.745,6.1-22.825Z" transform="translate(-260.238 -127.092)" fill="#f5f5f5"/>
        <path id="Trazado_711706" data-name="Trazado 711706" d="M508.253,286.587l-2.97.9a9.026,9.026,0,0,0,2.4,2.8,13.042,13.042,0,0,0,4.435,2.077,8.668,8.668,0,0,1-3.867-5.78" transform="translate(-260.238 -147.602)" fill="#ebebeb"/>
        <path id="Trazado_711707" data-name="Trazado 711707" d="M536.138,267.817c-.01.038-3.887-.953-8.658-2.213s-8.633-2.311-8.623-2.349,3.886.953,8.659,2.213,8.632,2.311,8.622,2.349" transform="translate(-267.229 -135.585)" fill="#e0e0e0"/>
        <path id="Trazado_711708" data-name="Trazado 711708" d="M534.284,274.2c-.01.038-3.887-.953-8.658-2.213s-8.633-2.311-8.623-2.349,3.886.953,8.659,2.213,8.632,2.311,8.622,2.349" transform="translate(-266.274 -138.873)" fill="#e0e0e0"/>
        <path id="Trazado_711709" data-name="Trazado 711709" d="M532.98,279.951c-.01.038-3.887-.953-8.658-2.212s-8.633-2.312-8.623-2.35,3.886.953,8.659,2.213,8.632,2.311,8.622,2.349" transform="translate(-265.602 -141.834)" fill="#e0e0e0"/>
        <path id="Trazado_711710" data-name="Trazado 711710" d="M531.494,285.426c-.01.038-3.887-.953-8.658-2.212s-8.633-2.312-8.623-2.35,3.885.953,8.659,2.213,8.632,2.311,8.622,2.349" transform="translate(-264.837 -144.654)" fill="#e0e0e0"/>
      </g>
    </g>
    <g id="Grupo_1002565" data-name="Grupo 1002565">
      <g id="Grupo_1002564" data-name="Grupo 1002564" clip-path="url(#clip-path)">
        <path id="Trazado_711711" data-name="Trazado 711711" d="M294.529,429.849s.266-.01.812-.015l2.492-.014v.056l-118.833.1-86.377-.037-26.175-.04-7.116-.024-1.851-.012c-.417,0-.631-.013-.631-.013s.214-.009.631-.013l1.851-.013,7.116-.024,26.175-.04L179,429.723l118.833.1v.056l-2.492-.014c-.546,0-.812-.015-.812-.015" transform="translate(-29.28 -221.322)" fill="#263238"/>
      </g>
    </g>
    <g id="Grupo_1002570" data-name="Grupo 1002570">
      <g id="Grupo_1002569" data-name="Grupo 1002569" clip-path="url(#clip-path)">
        <path id="Trazado_711712" data-name="Trazado 711712" d="M145.943,28.244h-24.6a2.084,2.084,0,0,1-2.082-2.184l.5-10.422a2.085,2.085,0,0,1,2.082-1.985h24.6a2.085,2.085,0,0,1,2.082,2.184l-.5,10.422a2.085,2.085,0,0,1-2.082,1.985" transform="translate(-61.422 -7.032)" fill="#fafafa"/>
        <path id="Trazado_711713" data-name="Trazado 711713" d="M145.818,28.11a2.574,2.574,0,0,0,.811-.193,2.073,2.073,0,0,0,1.226-1.888c.092-2.114.224-5.153.387-8.9-.008-.922.3-2-.386-2.776a1.96,1.96,0,0,0-1.275-.71c-.5-.038-1.069-.009-1.616-.016l-7.063.012-16.183.01a1.97,1.97,0,0,0-1.676.944,2,2,0,0,0-.284.945q-.025.527-.05,1.051-.1,2.1-.2,4.125t-.194,3.981q-.024.487-.048.97a2.448,2.448,0,0,0,.063.914,1.975,1.975,0,0,0,1.155,1.277,2.153,2.153,0,0,0,.864.145h.915l1.793,0,3.428.006,6.154.016,8.911.04,2.422.024.63.012a1.353,1.353,0,0,1,.215.013,1.353,1.353,0,0,1-.215.013l-.63.012-2.422.024-8.911.04-6.154.016-3.428.006-1.793,0h-.915a2.385,2.385,0,0,1-.951-.159A2.206,2.206,0,0,1,119.1,26.64a2.657,2.657,0,0,1-.074-.992q.023-.482.045-.97.092-1.951.188-3.981t.2-4.125q.025-.523.05-1.051a2.212,2.212,0,0,1,2.21-2.129l16.183.01,7.063.012c.558.011,1.084-.019,1.643.025a2.162,2.162,0,0,1,1.4.788,2.194,2.194,0,0,1,.484,1.465q-.037.738-.073,1.443c-.2,3.748-.355,6.785-.466,8.9a2.143,2.143,0,0,1-.479,1.314,2.091,2.091,0,0,1-.825.615,2.115,2.115,0,0,1-.615.148c-.144,0-.216,0-.216,0" transform="translate(-61.297 -6.898)" fill="#263238"/>
        <path id="Trazado_711714" data-name="Trazado 711714" d="M332.084,34.151l1.053-6.586,4.487-2.607,3.683,3.95-1.11,6.755Z" transform="translate(-171.034 -12.854)" fill="#12263f"/>
        <path id="Trazado_711715" data-name="Trazado 711715" d="M270.279,49.136l-5.445,119.505-87.8-2.5-5.224-9.125L181.25,45.955l81.713-5.409Z" transform="translate(-88.486 -20.883)" fill="#e0e0e0"/>
        <g id="Grupo_1002568" data-name="Grupo 1002568" transform="translate(169.033 19.664)" opacity="0.3">
          <g id="Grupo_1002567" data-name="Grupo 1002567">
            <g id="Grupo_1002566" data-name="Grupo 1002566" clip-path="url(#clip-path-5)">
              <path id="Trazado_711716" data-name="Trazado 711716" d="M355.86,168.642l-7.315-8.59,5.445-119.5,7.315,8.59Z" transform="translate(-348.545 -40.547)"/>
            </g>
          </g>
        </g>
        <path id="Trazado_711717" data-name="Trazado 711717" d="M262.964,39.263l-5.445,119.505-85.712-3.031,6.484-117.683Z" transform="translate(-88.486 -19.599)" fill="#fafafa"/>
        <path id="Trazado_711718" data-name="Trazado 711718" d="M262.822,39.153l-84.675-1.106.1-.1c-1.805,32.886-4.041,73.622-6.46,117.684l-.122-.133,1.415.05,84.3,2.992-.119.11c3.284-70.575,5.512-118.48,5.56-119.5-.046,1.019-2.182,48.929-5.33,119.51l0,.113-.114,0-84.3-2.969-1.415-.05-.129,0,.007-.129c2.436-44.061,4.689-84.8,6.508-117.682l.005-.1h.1l84.672,1.311" transform="translate(-88.345 -19.489)" fill="#263238"/>
        <path id="Trazado_711719" data-name="Trazado 711719" d="M204.345,93.865l29.933.878a1.138,1.138,0,0,0,1.171-1.1l.033-1.122a1.138,1.138,0,0,0-1.1-1.171l-29.933-.877a1.138,1.138,0,0,0-1.171,1.1l-.033,1.122a1.138,1.138,0,0,0,1.1,1.171" transform="translate(-104.675 -46.594)" fill="#e0e0e0"/>
        <path id="Trazado_711720" data-name="Trazado 711720" d="M203.75,107.411l29.932.878a1.139,1.139,0,0,0,1.171-1.1l.033-1.122a1.138,1.138,0,0,0-1.1-1.171l-29.933-.877a1.138,1.138,0,0,0-1.171,1.1l-.033,1.122a1.138,1.138,0,0,0,1.1,1.171" transform="translate(-104.369 -53.57)" fill="#e0e0e0"/>
        <path id="Trazado_711721" data-name="Trazado 711721" d="M203.155,120.957l29.933.878a1.138,1.138,0,0,0,1.171-1.1l.033-1.122a1.138,1.138,0,0,0-1.1-1.171l-29.932-.877a1.138,1.138,0,0,0-1.171,1.1l-.033,1.122a1.138,1.138,0,0,0,1.1,1.171" transform="translate(-104.062 -60.547)" fill="#e0e0e0"/>
        <path id="Trazado_711722" data-name="Trazado 711722" d="M202.56,134.5l29.933.878a1.138,1.138,0,0,0,1.171-1.1l.033-1.122a1.138,1.138,0,0,0-1.1-1.171l-29.933-.877a1.138,1.138,0,0,0-1.171,1.1l-.033,1.122a1.138,1.138,0,0,0,1.1,1.171" transform="translate(-103.756 -67.523)" fill="#e0e0e0"/>
        <path id="Trazado_711723" data-name="Trazado 711723" d="M201.965,148.048l29.933.878a1.138,1.138,0,0,0,1.171-1.1l.033-1.122a1.138,1.138,0,0,0-1.1-1.171l-29.933-.877a1.138,1.138,0,0,0-1.171,1.1l-.033,1.122a1.138,1.138,0,0,0,1.1,1.171" transform="translate(-103.45 -74.5)" fill="#e0e0e0"/>
        <path id="Trazado_711724" data-name="Trazado 711724" d="M201.37,161.594l29.933.878a1.138,1.138,0,0,0,1.171-1.1l.033-1.122a1.138,1.138,0,0,0-1.1-1.171l-29.933-.877a1.138,1.138,0,0,0-1.171,1.1l-.033,1.122a1.138,1.138,0,0,0,1.1,1.171" transform="translate(-103.143 -81.476)" fill="#e0e0e0"/>
        <path id="Trazado_711725" data-name="Trazado 711725" d="M200.774,175.14l29.933.878a1.138,1.138,0,0,0,1.171-1.1l.033-1.122a1.139,1.139,0,0,0-1.1-1.171l-29.933-.877a1.138,1.138,0,0,0-1.171,1.1l-.033,1.122a1.137,1.137,0,0,0,1.1,1.171" transform="translate(-102.837 -88.453)" fill="#e0e0e0"/>
        <path id="Trazado_711726" data-name="Trazado 711726" d="M274.572,163.62l29.933.878a1.138,1.138,0,0,0,1.171-1.1l.033-1.122a1.138,1.138,0,0,0-1.1-1.171l-29.932-.877a1.138,1.138,0,0,0-1.171,1.1l-.033,1.122a1.138,1.138,0,0,0,1.1,1.171" transform="translate(-140.845 -82.52)" fill="#e0e0e0"/>
        <path id="Trazado_711727" data-name="Trazado 711727" d="M273.977,177.166l29.932.878a1.138,1.138,0,0,0,1.171-1.1l.033-1.122a1.138,1.138,0,0,0-1.1-1.171l-29.933-.877a1.138,1.138,0,0,0-1.171,1.1l-.033,1.122a1.138,1.138,0,0,0,1.1,1.171" transform="translate(-140.538 -89.496)" fill="#e0e0e0"/>
        <path id="Trazado_711728" data-name="Trazado 711728" d="M273.259,191.45l29.933.877a1.137,1.137,0,0,0,1.171-1.1l.033-1.122a1.138,1.138,0,0,0-1.1-1.171l-29.933-.877a1.138,1.138,0,0,0-1.171,1.1l-.033,1.122a1.138,1.138,0,0,0,1.1,1.171" transform="translate(-140.168 -96.853)" fill="#e0e0e0"/>
        <path id="Trazado_711729" data-name="Trazado 711729" d="M272.541,205.735l29.933.877a1.138,1.138,0,0,0,1.171-1.1l.033-1.122a1.138,1.138,0,0,0-1.1-1.171l-29.933-.877a1.138,1.138,0,0,0-1.171,1.1l-.033,1.122a1.138,1.138,0,0,0,1.1,1.171" transform="translate(-139.799 -104.21)" fill="#e0e0e0"/>
        <path id="Trazado_711730" data-name="Trazado 711730" d="M271.823,220.019l29.933.878a1.138,1.138,0,0,0,1.171-1.1l.033-1.122a1.138,1.138,0,0,0-1.1-1.171l-29.932-.877a1.138,1.138,0,0,0-1.171,1.1l-.033,1.122a1.138,1.138,0,0,0,1.1,1.171" transform="translate(-139.429 -111.567)" fill="#e0e0e0"/>
        <path id="Trazado_711731" data-name="Trazado 711731" d="M271.1,234.3l29.933.877a1.138,1.138,0,0,0,1.171-1.1l.033-1.122a1.138,1.138,0,0,0-1.1-1.171l-29.932-.877a1.138,1.138,0,0,0-1.171,1.1L270,233.131a1.138,1.138,0,0,0,1.1,1.171" transform="translate(-139.058 -118.924)" fill="#e0e0e0"/>
        <path id="Trazado_711732" data-name="Trazado 711732" d="M270.386,248.587l29.933.877a1.137,1.137,0,0,0,1.171-1.1l.033-1.122a1.138,1.138,0,0,0-1.1-1.171l-29.933-.877a1.138,1.138,0,0,0-1.171,1.1l-.033,1.122a1.138,1.138,0,0,0,1.1,1.171" transform="translate(-138.689 -126.281)" fill="#e0e0e0"/>
        <path id="Trazado_711733" data-name="Trazado 711733" d="M194.715,259.236l66.061,1.937a1.139,1.139,0,0,0,1.171-1.1l.033-1.122a1.139,1.139,0,0,0-1.1-1.171l-66.061-1.936a1.138,1.138,0,0,0-1.171,1.1l-.033,1.122a1.138,1.138,0,0,0,1.1,1.171" transform="translate(-99.716 -131.765)" fill="#e0e0e0"/>
        <path id="Trazado_711734" data-name="Trazado 711734" d="M205.412,76.227l20.186.592a1.138,1.138,0,0,0,1.171-1.1l.033-1.122a1.138,1.138,0,0,0-1.1-1.171l-20.186-.592a1.138,1.138,0,0,0-1.171,1.1l-.033,1.122a1.138,1.138,0,0,0,1.1,1.171" transform="translate(-105.225 -37.509)" fill="#e0e0e0"/>
        <path id="Trazado_711735" data-name="Trazado 711735" d="M181.572,169.338s.141.013.417.026l1.228.052,4.742.179,17.6.621,59.46,2.008.128,0,.006-.127c.225-4.726.46-9.681.7-14.725,1.269-27.1,2.418-51.637,3.249-69.4.4-8.877.729-16.061.955-21.033.107-2.479.19-4.405.246-5.719q.038-.974.058-1.487c.011-.335.011-.507.011-.507s-.017.171-.037.506-.047.838-.083,1.486l-.3,5.717c-.245,4.971-.6,12.154-1.038,21.029-.852,17.763-2.027,42.3-3.326,69.4-.239,5.044-.473,10-.7,14.726l.133-.123-59.463-1.921-17.6-.542-4.744-.134-1.229-.029c-.276,0-.418,0-.418,0" transform="translate(-93.516 -30.505)" fill="#263238"/>
        <path id="Trazado_711736" data-name="Trazado 711736" d="M195.932,175.038s.133.013.394.026l1.159.053,4.48.183,16.655.636,56.5,2.073.126,0,.007-.127c.3-5.7.614-11.632.934-17.693,1.394-26.743,2.656-50.951,3.569-68.479.444-8.758.8-15.847,1.052-20.753.118-2.446.21-4.347.273-5.643q.042-.962.065-1.468c.013-.331.013-.5.013-.5s-.017.169-.039.5-.051.826-.09,1.467c-.074,1.3-.182,3.2-.322,5.641-.268,4.9-.656,11.992-1.134,20.749-.933,17.528-2.222,41.734-3.646,68.475-.319,6.061-.63,11.991-.93,17.693l.133-.121-56.5-1.984-16.658-.559-4.481-.139-1.16-.03c-.261-.006-.395,0-.395,0" transform="translate(-100.911 -32.627)" fill="#263238"/>
        <path id="Trazado_711737" data-name="Trazado 711737" d="M254.456,36.054l1.294-1.267,15.436.076.748,1.411Z" transform="translate(-131.053 -17.916)" fill="#263238"/>
        <rect id="Rectángulo_346598" data-name="Rectángulo 346598" width="7.355" height="17.479" transform="translate(123.31 25.491) rotate(-89.278)" fill="#263238"/>
        <path id="Trazado_711738" data-name="Trazado 711738" d="M271.668,52.367l0-.254a.608.608,0,0,0-.6-.615l-17.476-.22a.607.607,0,0,0-.615.6l0,.254a.608.608,0,0,0,.6.615l17.476.22a.607.607,0,0,0,.615-.6" transform="translate(-130.292 -26.41)" fill="#263238"/>
        <path id="Trazado_711739" data-name="Trazado 711739" d="M271.388,33.971h-.009l-7.687-.1a.678.678,0,0,1-.628-.914l2.264-6.089a4.015,4.015,0,1,1,4.682.078l2.021,6.132a.678.678,0,0,1-.644.89m-3.664-13.85h-.094a3.585,3.585,0,0,0-3.436,3.581,3.533,3.533,0,0,0,1.562,2.877l.159.107-2.4,6.442a.192.192,0,0,0,.021.177.19.19,0,0,0,.157.083l7.687.1a.187.187,0,0,0,.158-.079.193.193,0,0,0,.028-.175l-2.139-6.489.161-.1a3.528,3.528,0,0,0-1.869-6.521" transform="translate(-135.465 -10.113)" fill="#455a64"/>
        <path id="Trazado_711740" data-name="Trazado 711740" d="M271.735,51.48a.856.856,0,0,0-.176-.01l-.5-.013-1.848-.038-6.1-.1-6.1-.068-1.849-.006-.5.006a.828.828,0,0,0-.176.012.817.817,0,0,0,.175.017l.5.021,1.848.051c1.56.037,3.716.077,6.1.111s4.537.054,6.1.058c.781,0,1.412,0,1.849-.007.219,0,.387-.007.5-.014a.792.792,0,0,0,.174-.019" transform="translate(-131.07 -26.393)" fill="#455a64"/>
        <path id="Trazado_711741" data-name="Trazado 711741" d="M272.25,37.293a.855.855,0,0,0-.176-.01l-.5-.013-1.848-.038-6.1-.1-6.1-.068-1.849-.006-.5.006a.827.827,0,0,0-.176.012.818.818,0,0,0,.175.017l.5.021,1.847.051c1.561.036,3.716.077,6.1.11s4.537.054,6.1.058c.781,0,1.412,0,1.849-.007.219,0,.387-.007.5-.014a.794.794,0,0,0,.175-.019" transform="translate(-131.335 -19.086)" fill="#455a64"/>
        <path id="Trazado_711742" data-name="Trazado 711742" d="M223.822,216.775l-21.115-.619a4.329,4.329,0,0,1-4.2-4.453l.541-18.438a4.327,4.327,0,0,1,4.453-4.2l21.115.619a4.328,4.328,0,0,1,4.2,4.453l-.54,18.437a4.329,4.329,0,0,1-4.453,4.2" transform="translate(-102.237 -97.374)" fill="#ebebeb"/>
        <path id="Trazado_711743" data-name="Trazado 711743" d="M198.541,219a.727.727,0,0,1,.322-.577l9.746-6.54a2.017,2.017,0,0,1,2.576.047.671.671,0,0,0,.129.089l4.417,2.268a.728.728,0,0,0,.841-.127l6.692-6.544a2.077,2.077,0,0,1,3.007.256l2.147,2.7a.73.73,0,0,1,.159.46l-.1,10.888a4.112,4.112,0,0,1-4.242,4.071l-21.787-.689a4.112,4.112,0,0,1-3.979-4.261Z" transform="translate(-102.215 -106.659)" fill="#e0e0e0"/>
        <path id="Trazado_711744" data-name="Trazado 711744" d="M221.981,201.078a2.977,2.977,0,1,1-3.11-2.838,2.977,2.977,0,0,1,3.11,2.838" transform="translate(-111.263 -102.099)" fill="#e0e0e0"/>
        <path id="Trazado_711745" data-name="Trazado 711745" d="M303.143,122.193l-21.115-.619a4.329,4.329,0,0,1-4.2-4.453l.541-18.438a4.327,4.327,0,0,1,4.453-4.2l21.115.619a4.328,4.328,0,0,1,4.2,4.453l-.54,18.437a4.329,4.329,0,0,1-4.453,4.2" transform="translate(-143.09 -48.661)" fill="#ebebeb"/>
        <path id="Trazado_711746" data-name="Trazado 711746" d="M277.9,124.05l10.054-6.746a2.017,2.017,0,0,1,2.635.1l4.953,2.543,7.067-6.91a2.077,2.077,0,0,1,3.007.256l2.308,2.9-.1,10.423a4.819,4.819,0,0,1-4.971,4.772l-20.354-.644a4.819,4.819,0,0,1-4.664-4.993Z" transform="translate(-143.095 -57.946)" fill="#e0e0e0"/>
        <path id="Trazado_711747" data-name="Trazado 711747" d="M301.3,106.5a2.977,2.977,0,1,1-3.11-2.838,2.977,2.977,0,0,1,3.11,2.838" transform="translate(-152.116 -53.387)" fill="#e0e0e0"/>
        <path id="Trazado_711748" data-name="Trazado 711748" d="M206.1,120.165a1.276,1.276,0,0,1-.391-.109,2.153,2.153,0,0,1-.888-.75,2.521,2.521,0,0,1-.433-1.779,3.541,3.541,0,0,1,1.177-2.125,6.18,6.18,0,0,1,2.651-1.3,14.577,14.577,0,0,1,3.362-.435,14.813,14.813,0,0,1,7.465,1.893,5.446,5.446,0,0,1,1.581,1.327,3.293,3.293,0,0,1,.71,1.887,2.519,2.519,0,0,1-.709,1.812,4.166,4.166,0,0,1-1.577.989,10.682,10.682,0,0,1-3.349.541,19.078,19.078,0,0,1-2.947-.127,18.455,18.455,0,0,1-4.141-1c-.472-.175-.832-.327-1.072-.441a2.3,2.3,0,0,1-.36-.182,2.488,2.488,0,0,1,.38.136c.245.1.61.235,1.084.395a19.715,19.715,0,0,0,4.13.914,19.354,19.354,0,0,0,2.918.1,10.593,10.593,0,0,0,3.275-.55,3.943,3.943,0,0,0,1.483-.936,2.278,2.278,0,0,0,.637-1.64,3.052,3.052,0,0,0-.662-1.74,5.221,5.221,0,0,0-1.511-1.263,14.717,14.717,0,0,0-7.335-1.878,14.552,14.552,0,0,0-3.313.4,6.042,6.042,0,0,0-2.583,1.234,3.41,3.41,0,0,0-1.157,2.011,2.44,2.44,0,0,0,.375,1.705,2.2,2.2,0,0,0,.828.759c.235.115.373.142.37.155" transform="translate(-105.255 -58.54)" fill="#263238"/>
        <path id="Trazado_711749" data-name="Trazado 711749" d="M231.947,259.861a1.276,1.276,0,0,1-.391-.109,2.152,2.152,0,0,1-.887-.75,2.524,2.524,0,0,1-.434-1.779,3.542,3.542,0,0,1,1.178-2.125,6.176,6.176,0,0,1,2.651-1.3,14.58,14.58,0,0,1,3.362-.435,14.812,14.812,0,0,1,7.465,1.893,5.455,5.455,0,0,1,1.582,1.327,3.293,3.293,0,0,1,.71,1.887,2.523,2.523,0,0,1-.709,1.812,4.163,4.163,0,0,1-1.577.989,10.683,10.683,0,0,1-3.349.541,19.019,19.019,0,0,1-2.947-.127,18.456,18.456,0,0,1-4.141-1c-.472-.175-.832-.327-1.072-.441a2.3,2.3,0,0,1-.36-.182,2.472,2.472,0,0,1,.38.136c.245.1.611.235,1.084.395a19.717,19.717,0,0,0,4.129.914,19.357,19.357,0,0,0,2.918.1,10.6,10.6,0,0,0,3.275-.549,3.946,3.946,0,0,0,1.483-.937,2.278,2.278,0,0,0,.637-1.64,3.051,3.051,0,0,0-.661-1.74,5.228,5.228,0,0,0-1.511-1.263,14.715,14.715,0,0,0-7.334-1.878,14.545,14.545,0,0,0-3.313.4,6.039,6.039,0,0,0-2.583,1.234,3.411,3.411,0,0,0-1.157,2.011,2.439,2.439,0,0,0,.375,1.705,2.2,2.2,0,0,0,.828.759c.234.115.373.142.369.155" transform="translate(-118.566 -130.488)" fill="#263238"/>
        <path id="Trazado_711750" data-name="Trazado 711750" d="M201.946,74.416a1.276,1.276,0,0,1-.391-.109,2.153,2.153,0,0,1-.888-.75,2.524,2.524,0,0,1-.433-1.779,3.541,3.541,0,0,1,1.177-2.125,6.18,6.18,0,0,1,2.652-1.3,14.571,14.571,0,0,1,3.362-.435,14.812,14.812,0,0,1,7.465,1.893,5.462,5.462,0,0,1,1.582,1.327,3.3,3.3,0,0,1,.71,1.887,2.519,2.519,0,0,1-.709,1.812,4.161,4.161,0,0,1-1.577.989,10.682,10.682,0,0,1-3.349.541,19.078,19.078,0,0,1-2.947-.127,18.453,18.453,0,0,1-4.141-1c-.472-.175-.832-.327-1.072-.441a2.355,2.355,0,0,1-.36-.182,2.488,2.488,0,0,1,.38.136c.245.1.61.235,1.084.395a19.716,19.716,0,0,0,4.13.914,19.351,19.351,0,0,0,2.918.1,10.592,10.592,0,0,0,3.275-.55,3.942,3.942,0,0,0,1.483-.936,2.278,2.278,0,0,0,.637-1.64,3.052,3.052,0,0,0-.662-1.74,5.213,5.213,0,0,0-1.511-1.263,14.717,14.717,0,0,0-7.334-1.878,14.545,14.545,0,0,0-3.313.4,6.041,6.041,0,0,0-2.584,1.234,3.413,3.413,0,0,0-1.157,2.011,2.44,2.44,0,0,0,.375,1.705,2.2,2.2,0,0,0,.828.759c.235.115.373.142.37.155" transform="translate(-103.115 -34.978)" fill="#263238"/>
        <path id="Trazado_711751" data-name="Trazado 711751" d="M356.79,221.632l6.668.166,3.181,4.1-3.424,4.177-6.842-.2Z" transform="translate(-183.544 -114.148)" fill="#008b8a"/>
        <path id="Trazado_711752" data-name="Trazado 711752" d="M358.092,197.514l6.668.166,3.181,4.1-3.424,4.177-6.842-.2Z" transform="translate(-184.215 -101.726)" fill="#455a64"/>
        <path id="Trazado_711753" data-name="Trazado 711753" d="M148.513,24.109H127.421a.25.25,0,0,0-.25.251v.1a.25.25,0,0,0,.25.251h21.092a.25.25,0,0,0,.25-.251v-.1a.25.25,0,0,0-.25-.251" transform="translate(-65.497 -12.417)" fill="#e0e0e0"/>
        <path id="Trazado_711754" data-name="Trazado 711754" d="M148.513,28.072H127.421a.25.25,0,0,0-.25.251v.1a.251.251,0,0,0,.25.251h21.092a.251.251,0,0,0,.25-.251v-.1a.25.25,0,0,0-.25-.251" transform="translate(-65.497 -14.458)" fill="#e0e0e0"/>
        <path id="Trazado_711755" data-name="Trazado 711755" d="M148.513,32.036H127.421a.25.25,0,0,0-.25.25v.1a.25.25,0,0,0,.25.251h21.092a.25.25,0,0,0,.25-.251v-.1a.25.25,0,0,0-.25-.25" transform="translate(-65.497 -16.5)" fill="#e0e0e0"/>
        <path id="Trazado_711756" data-name="Trazado 711756" d="M179.722,27.807c.056-.042,3.412,4.3,7.5,9.705s7.35,9.817,7.294,9.859-3.411-4.3-7.5-9.706-7.35-9.816-7.293-9.858" transform="translate(-92.563 -14.321)" fill="#263238"/>
        <path id="Trazado_711757" data-name="Trazado 711757" d="M179.416,26.131a.821.821,0,1,1-.822-.822.822.822,0,0,1,.822.822" transform="translate(-91.559 -13.035)" fill="#263238"/>
        <path id="Trazado_711758" data-name="Trazado 711758" d="M198.239,354.731h-24.6a2.084,2.084,0,0,1-2.082-2.184l.5-10.422a2.085,2.085,0,0,1,2.082-1.985h24.6a2.085,2.085,0,0,1,2.082,2.184l-.5,10.422a2.085,2.085,0,0,1-2.082,1.985" transform="translate(-88.356 -175.183)" fill="#fafafa"/>
        <path id="Trazado_711759" data-name="Trazado 711759" d="M198.114,354.6a2.575,2.575,0,0,0,.812-.193,2.075,2.075,0,0,0,1.226-1.888c.092-2.115.224-5.153.386-8.9-.008-.922.3-2-.385-2.776a1.965,1.965,0,0,0-1.275-.71c-.5-.038-1.069-.008-1.615-.016l-7.063.012-16.183.01a1.97,1.97,0,0,0-1.676.944,2,2,0,0,0-.284.945q-.025.527-.05,1.051-.1,2.1-.2,4.125t-.194,3.98q-.024.488-.048.97a2.427,2.427,0,0,0,.063.914,1.974,1.974,0,0,0,1.154,1.277,2.162,2.162,0,0,0,.864.145h.915l1.793,0,3.428.006,6.154.016,8.911.04,2.422.023.63.013a.108.108,0,1,1,0,.026l-.63.012-2.422.024-8.911.04-6.154.016-3.428.006-1.793,0h-.915a2.386,2.386,0,0,1-.951-.159,2.206,2.206,0,0,1-1.295-1.426,2.656,2.656,0,0,1-.074-.991q.023-.483.046-.97.092-1.951.188-3.981t.2-4.125q.025-.524.05-1.051a2.213,2.213,0,0,1,2.211-2.129l16.183.01,7.063.012c.558.011,1.084-.019,1.642.025a2.16,2.16,0,0,1,1.4.788,2.192,2.192,0,0,1,.484,1.465q-.037.738-.072,1.443c-.2,3.748-.355,6.785-.467,8.9a2.143,2.143,0,0,1-.479,1.314,2.068,2.068,0,0,1-1.441.763c-.143,0-.216,0-.216,0" transform="translate(-88.231 -175.049)" fill="#263238"/>
        <path id="Trazado_711760" data-name="Trazado 711760" d="M200.81,350.6H179.718a.25.25,0,0,0-.25.251v.1a.25.25,0,0,0,.25.251H200.81a.25.25,0,0,0,.25-.251v-.1a.25.25,0,0,0-.25-.251" transform="translate(-92.432 -180.569)" fill="#e0e0e0"/>
        <path id="Trazado_711761" data-name="Trazado 711761" d="M200.81,354.56H179.718a.25.25,0,0,0-.25.251v.1a.25.25,0,0,0,.25.251H200.81a.25.25,0,0,0,.25-.251v-.1a.25.25,0,0,0-.25-.251" transform="translate(-92.432 -182.61)" fill="#e0e0e0"/>
        <path id="Trazado_711762" data-name="Trazado 711762" d="M200.81,358.524H179.718a.25.25,0,0,0-.25.251v.1a.25.25,0,0,0,.25.251H200.81a.25.25,0,0,0,.25-.251v-.1a.25.25,0,0,0-.25-.251" transform="translate(-92.432 -184.652)" fill="#e0e0e0"/>
        <path id="Trazado_711763" data-name="Trazado 711763" d="M226.879,269.72c.062.032-3.871,7.7-8.784,17.133s-8.947,17.051-9.009,17.018,3.871-7.7,8.785-17.135,8.946-17.049,9.008-17.017" transform="translate(-107.686 -138.915)" fill="#263238"/>
        <path id="Trazado_711764" data-name="Trazado 711764" d="M209.036,339.269a.821.821,0,1,1-.822-.822.821.821,0,0,1,.822.822" transform="translate(-106.814 -174.311)" fill="#263238"/>
      </g>
    </g>
    <g id="Grupo_1002581" data-name="Grupo 1002581">
      <g id="Grupo_1002580" data-name="Grupo 1002580" clip-path="url(#clip-path)">
        <path id="Trazado_711765" data-name="Trazado 711765" d="M448.607,354.036H377.331V351.09h71.276a1.219,1.219,0,0,1,1.219,1.219v.509a1.219,1.219,0,0,1-1.219,1.219" transform="translate(-194.338 -180.823)" fill="#ffa031"/>
        <path id="Trazado_711766" data-name="Trazado 711766" d="M346.978,354.488c0,.059-5.98.106-13.355.106s-13.356-.047-13.356-.106,5.979-.106,13.356-.106,13.355.048,13.355.106" transform="translate(-164.948 -182.519)" fill="#263238"/>
        <path id="Trazado_711767" data-name="Trazado 711767" d="M352.211,338.317h-33.48a7.341,7.341,0,0,1-7.341-7.34V327.91a7.34,7.34,0,0,1,7.341-7.34h33.48Z" transform="translate(-160.376 -165.104)" fill="#ffa031"/>
        <path id="Trazado_711768" data-name="Trazado 711768" d="M448.607,323.516H377.886a.555.555,0,0,1-.555-.555v-1.836a.555.555,0,0,1,.555-.555h70.721a1.219,1.219,0,0,1,1.219,1.219v.509a1.219,1.219,0,0,1-1.219,1.219" transform="translate(-194.338 -165.104)" fill="#ffa031"/>
        <path id="Trazado_711769" data-name="Trazado 711769" d="M449.96,338.5H387.717a5.927,5.927,0,0,1,0-11.855H449.96a14.658,14.658,0,0,0,0,11.855" transform="translate(-196.635 -168.233)" fill="#f5f5f5"/>
        <g id="Grupo_1002573" data-name="Grupo 1002573" transform="translate(151.014 155.466)" opacity="0.3">
          <g id="Grupo_1002572" data-name="Grupo 1002572">
            <g id="Grupo_1002571" data-name="Grupo 1002571" clip-path="url(#clip-path-7)">
              <path id="Trazado_711770" data-name="Trazado 711770" d="M345.531,338.317H318.116a6.725,6.725,0,0,1-6.726-6.725v-4.352a6.671,6.671,0,0,1,6.671-6.671h28.146c-6.426,3.892-5.946,13.214-.676,17.747" transform="translate(-311.391 -320.57)"/>
            </g>
          </g>
        </g>
        <path id="Trazado_711771" data-name="Trazado 711771" d="M446.159,339.889c0,.059-12.775.106-28.532.106s-28.534-.048-28.534-.106,12.773-.106,28.534-.106,28.532.048,28.532.106" transform="translate(-200.396 -175)" fill="#263238"/>
        <path id="Trazado_711772" data-name="Trazado 711772" d="M458.268,345.322c0,.059-12.775.106-28.532.106s-28.534-.048-28.534-.106,12.773-.106,28.534-.106,28.532.048,28.532.106" transform="translate(-206.632 -177.798)" fill="#263238"/>
        <path id="Trazado_711773" data-name="Trazado 711773" d="M454.7,332.184c0,.059-12.775.106-28.532.106s-28.534-.048-28.534-.106,12.773-.106,28.534-.106,28.532.048,28.532.106" transform="translate(-204.793 -171.031)" fill="#263238"/>
        <path id="Trazado_711774" data-name="Trazado 711774" d="M346.978,323.494c0,.059-5.98.106-13.355.106s-13.356-.048-13.356-.106,5.979-.106,13.356-.106,13.355.048,13.355.106" transform="translate(-164.948 -166.556)" fill="#263238"/>
        <path id="Trazado_711775" data-name="Trazado 711775" d="M329.508,405.71H290.055a9.454,9.454,0,0,1-9.453-9.453v-3.949a9.454,9.454,0,0,1,9.453-9.453h39.452a3.665,3.665,0,0,1,3.665,3.665v15.526a3.665,3.665,0,0,1-3.665,3.665" transform="translate(-144.519 -197.183)" fill="#b0c0d2"/>
        <path id="Trazado_711776" data-name="Trazado 711776" d="M457.316,386.648H366.429a.906.906,0,0,1-.906-.906V383.76a.906.906,0,0,1,.906-.906h90.887a1.569,1.569,0,0,1,1.569,1.569v.656a1.569,1.569,0,0,1-1.569,1.569" transform="translate(-188.257 -197.183)" fill="#b0c0d2"/>
        <path id="Trazado_711777" data-name="Trazado 711777" d="M457.316,425.953H366.429a.906.906,0,0,1-.906-.906v-1.982a.906.906,0,0,1,.906-.906h90.887a1.569,1.569,0,0,1,1.569,1.569v.656a1.569,1.569,0,0,1-1.569,1.569" transform="translate(-188.257 -217.426)" fill="#b0c0d2"/>
        <path id="Trazado_711778" data-name="Trazado 711778" d="M459.058,405.945H378.9a7.634,7.634,0,1,1,0-15.268h80.159a18.877,18.877,0,0,0,0,15.268" transform="translate(-191.214 -201.212)" fill="#f5f5f5"/>
        <g id="Grupo_1002576" data-name="Grupo 1002576" transform="translate(136.083 185.671)" opacity="0.3">
          <g id="Grupo_1002575" data-name="Grupo 1002575">
            <g id="Grupo_1002574" data-name="Grupo 1002574" clip-path="url(#clip-path-8)">
              <path id="Trazado_711779" data-name="Trazado 711779" d="M324.571,405.71H291.908A11.305,11.305,0,0,1,280.6,394.4a11.55,11.55,0,0,1,11.55-11.55h33.288c-8.275,5.013-7.657,17.018-.87,22.856" transform="translate(-280.603 -382.854)"/>
            </g>
          </g>
        </g>
        <path id="Trazado_711780" data-name="Trazado 711780" d="M454.163,407.767c0,.059-16.453.106-36.744.106s-36.748-.048-36.748-.106,16.45-.106,36.748-.106,36.744.047,36.744.106" transform="translate(-196.058 -209.959)" fill="#263238"/>
        <path id="Trazado_711781" data-name="Trazado 711781" d="M469.757,414.764c0,.059-16.453.106-36.744.106s-36.748-.048-36.748-.106,16.45-.106,36.748-.106,36.744.048,36.744.106" transform="translate(-204.09 -213.563)" fill="#263238"/>
        <path id="Trazado_711782" data-name="Trazado 711782" d="M465.159,401.273c0,.059-16.453.106-36.744.106s-36.748-.048-36.748-.106,16.45-.106,36.748-.106,36.744.048,36.744.106" transform="translate(-201.722 -206.614)" fill="#263238"/>
        <path id="Trazado_711783" data-name="Trazado 711783" d="M326.434,426.567c0,.059-7.7.106-17.2.106s-17.2-.048-17.2-.106,7.7-.106,17.2-.106,17.2.047,17.2.106" transform="translate(-150.407 -219.642)" fill="#263238"/>
        <path id="Trazado_711784" data-name="Trazado 711784" d="M326.434,386.653c0,.059-7.7.106-17.2.106s-17.2-.048-17.2-.106,7.7-.106,17.2-.106,17.2.047,17.2.106" transform="translate(-150.407 -199.085)" fill="#263238"/>
        <path id="Trazado_711785" data-name="Trazado 711785" d="M371.541,369.128H334.494a5.413,5.413,0,0,1-5.413-5.413v-2.261a5.413,5.413,0,0,1,5.413-5.413h37.048a.252.252,0,0,1,.252.252v12.583a.252.252,0,0,1-.252.252" transform="translate(-169.488 -183.373)" fill="#455a64"/>
        <path id="Trazado_711786" data-name="Trazado 711786" d="M472.656,359.124h-74a.581.581,0,0,1-.581-.581v-1.921a.581.581,0,0,1,.581-.581h74a1.275,1.275,0,0,1,1.275,1.275v.532a1.275,1.275,0,0,1-1.275,1.275" transform="translate(-205.023 -183.373)" fill="#455a64"/>
        <path id="Trazado_711787" data-name="Trazado 711787" d="M472.656,379.752h-74a.581.581,0,0,1-.581-.581V377.25a.581.581,0,0,1,.581-.581h74a1.275,1.275,0,0,1,1.275,1.276v.532a1.275,1.275,0,0,1-1.275,1.275" transform="translate(-205.023 -193.997)" fill="#455a64"/>
        <path id="Trazado_711788" data-name="Trazado 711788" d="M474.07,369.319H406.2a3.46,3.46,0,1,1,0-6.921H474.07a5.226,5.226,0,0,0,0,6.921" transform="translate(-207.425 -186.647)" fill="#f5f5f5"/>
        <g id="Grupo_1002579" data-name="Grupo 1002579" transform="translate(159.593 172.668)" opacity="0.3">
          <g id="Grupo_1002578" data-name="Grupo 1002578">
            <g id="Grupo_1002577" data-name="Grupo 1002577" clip-path="url(#clip-path-9)">
              <path id="Trazado_711789" data-name="Trazado 711789" d="M364.8,369.128H335.572a6.491,6.491,0,0,1-6.49-6.491,6.6,6.6,0,0,1,6.6-6.6h29.834c-6.724,2.87-6.222,9.744-.707,13.086" transform="translate(-329.082 -356.042)"/>
            </g>
          </g>
        </g>
        <path id="Trazado_711790" data-name="Trazado 711790" d="M470.094,368.3c0,.059-13.368.106-29.854.106s-29.857-.048-29.857-.106,13.365-.106,29.857-.106,29.854.048,29.854.106" transform="translate(-211.361 -189.631)" fill="#263238"/>
        <path id="Trazado_711791" data-name="Trazado 711791" d="M482.763,372.138c0,.059-13.368.106-29.854.106s-29.857-.048-29.857-.106,13.365-.106,29.857-.106,29.854.048,29.854.106" transform="translate(-217.886 -191.609)" fill="#263238"/>
        <path id="Trazado_711792" data-name="Trazado 711792" d="M366.318,380.229c0,.059-6.257.106-13.974.106s-13.975-.048-13.975-.106,6.256-.106,13.975-.106,13.974.048,13.974.106" transform="translate(-174.271 -195.776)" fill="#263238"/>
        <path id="Trazado_711793" data-name="Trazado 711793" d="M366.318,359.107c0,.059-6.257.106-13.974.106s-13.975-.047-13.975-.106,6.256-.106,13.975-.106,13.974.048,13.974.106" transform="translate(-174.271 -184.897)" fill="#263238"/>
        <path id="Trazado_711794" data-name="Trazado 711794" d="M443.765,355.928c0,.059-22.953.106-51.262.106s-51.266-.048-51.266-.106,22.949-.106,51.266-.106,51.262.048,51.262.106" transform="translate(-175.748 -183.26)" fill="#263238"/>
        <path id="Trazado_711795" data-name="Trazado 711795" d="M467.769,331.9V339l2.464-1.58,2.748,1.58V331.9Z" transform="translate(-240.917 -170.938)" fill="#ff725e"/>
      </g>
    </g>
    <g id="Grupo_1002583" data-name="Grupo 1002583">
      <g id="Grupo_1002582" data-name="Grupo 1002582" clip-path="url(#clip-path)">
        <path id="Trazado_711796" data-name="Trazado 711796" d="M502.7,81.25H480.7a8.426,8.426,0,0,0-.488,16.839l1.991,3.445,2.488-3.42h18a8.432,8.432,0,1,0,0-16.863" transform="translate(-243.236 -41.846)" fill="#fff"/>
        <path id="Trazado_711797" data-name="Trazado 711797" d="M502.577,81.14s.076,0,.224,0l.659.023a8.89,8.89,0,0,1,2.464.62,8.7,8.7,0,0,1,3.227,2.406,9.09,9.09,0,0,1,1.3,2.181,8.3,8.3,0,0,1,.616,2.788,8.462,8.462,0,0,1-2.135,6.086,8.67,8.67,0,0,1-2.976,2.165,9.069,9.069,0,0,1-3.848.706l-17.537.014.1-.051-2.487,3.421-.114.157-.1-.168-.811-1.4-1.18-2.042.1.063a9.38,9.38,0,0,1-2.465-.515,8.951,8.951,0,0,1-2.178-1.191,8.524,8.524,0,0,1-1.307-12.428,8.436,8.436,0,0,1,3.461-2.393c.162-.057.322-.122.485-.172l.5-.127a8.066,8.066,0,0,1,.992-.179c.331-.045.663-.041.991-.063h.965l7.085.016,10.226.039,2.772.023.72.012c.162,0,.245.013.245.013s-.083.008-.245.013l-.72.012-2.772.023-10.226.039-7.085.016-.964,0c-.32.023-.644.02-.966.064a7.827,7.827,0,0,0-.967.178l-.482.125c-.159.05-.314.113-.472.169a8.225,8.225,0,0,0-3.365,2.339A8.3,8.3,0,0,0,475.6,96.2a8.7,8.7,0,0,0,2.114,1.155,9.16,9.16,0,0,0,2.393.5l.069.005.033.058,1.18,2.042.81,1.4-.211-.011,2.488-3.42.038-.052h.064l17.537.014a8.85,8.85,0,0,0,3.763-.677,8.476,8.476,0,0,0,2.912-2.1,8.3,8.3,0,0,0,2.115-5.945,8.165,8.165,0,0,0-.588-2.74,8.987,8.987,0,0,0-1.267-2.154,8.673,8.673,0,0,0-3.161-2.405,9.277,9.277,0,0,0-3.311-.727" transform="translate(-243.118 -41.737)" fill="#263238"/>
        <path id="Trazado_711798" data-name="Trazado 711798" d="M489.7,93.2l.789,1.6,1.763.256L490.971,96.3l.3,1.756-1.577-.829-1.577.829.3-1.756-1.276-1.243,1.763-.256Z" transform="translate(-250.895 -48.002)" fill="#ffa031"/>
        <path id="Trazado_711799" data-name="Trazado 711799" d="M503.49,93.2l.789,1.6,1.763.256L504.766,96.3l.3,1.756-1.577-.829-1.577.829.3-1.756-1.276-1.243L502.7,94.8Z" transform="translate(-258 -48.002)" fill="#ffa031"/>
        <path id="Trazado_711800" data-name="Trazado 711800" d="M517.285,93.2l.789,1.6,1.763.256L518.561,96.3l.3,1.756-1.577-.829-1.577.829.3-1.756-1.276-1.243L516.5,94.8Z" transform="translate(-265.105 -48.002)" fill="#ffa031"/>
        <path id="Trazado_711801" data-name="Trazado 711801" d="M531.08,93.2l.789,1.6,1.763.256L532.356,96.3l.3,1.756-1.577-.829-1.577.829.3-1.756-1.276-1.243,1.763-.256Z" transform="translate(-272.209 -48.002)" fill="#12263f"/>
      </g>
    </g>
    <g id="Grupo_1002585" data-name="Grupo 1002585">
      <g id="Grupo_1002584" data-name="Grupo 1002584" clip-path="url(#clip-path)">
        <path id="Trazado_711802" data-name="Trazado 711802" d="M68.426,21.313l-.939-3.483a11.611,11.611,0,1,0-2.758,3.113l0,.005Z" transform="translate(-23.68 -0.125)" fill="#fff"/>
        <path id="Trazado_711803" data-name="Trazado 711803" d="M68.3,21.188s-.088-.014-.25-.033l-.713-.082-2.733-.3.038.086,0-.005a.054.054,0,0,0-.076-.075A11.614,11.614,0,0,1,59.4,23.048,11.668,11.668,0,0,1,51.8,21.7,11.463,11.463,0,0,1,48.826,4.165l.473-.524.517-.477a12.3,12.3,0,0,1,1.089-.871,11.64,11.64,0,0,1,7.631-2,11.531,11.531,0,0,1,8.779,17.388l-.005.042c.314,1.111.557,1.969.725,2.564l.194.67c.044.152.072.234.072.234a2.214,2.214,0,0,0-.049-.217l-.166-.662-.672-2.618-.006.042a11.538,11.538,0,0,0,1.693-5.45A11.716,11.716,0,0,0,58.56.049a11.864,11.864,0,0,0-7.8,2.036,12.593,12.593,0,0,0-1.113.89l-.528.487L48.636,4a11.693,11.693,0,0,0,3.059,17.886,11.593,11.593,0,0,0,4,1.364,11.441,11.441,0,0,0,3.735-.037,11.6,11.6,0,0,0,5.21-2.351l-.077-.075,0,0a.053.053,0,0,0,.01.075.055.055,0,0,0,.028.011l2.776.24.7.057a2.291,2.291,0,0,0,.229.014" transform="translate(-23.555 0)" fill="#263238"/>
        <path id="Trazado_711804" data-name="Trazado 711804" d="M62.945,24.867l-6.094-4.076,1.422-2.127L62.36,21.4l5.084-6.729,2.041,1.543Z" transform="translate(-29.28 -7.555)" fill="#4db1f0"/>
      </g>
    </g>
    <g id="Grupo_1002590" data-name="Grupo 1002590">
      <g id="Grupo_1002589" data-name="Grupo 1002589" clip-path="url(#clip-path)">
        <path id="Trazado_711805" data-name="Trazado 711805" d="M411.09,94.265s-2.2,8.237-2.393,14.065l-.063,1.942s4.861,4.036,8.938,4.285l3.418-8.4Z" transform="translate(-210.46 -48.55)" fill="#263238"/>
        <path id="Trazado_711806" data-name="Trazado 711806" d="M434.266,90.149c-.929-4.017-1.286-8.694-4.627-11.313a12.185,12.185,0,0,0-8.451-2.354,11.155,11.155,0,0,0-4.65,1.544c-1.851,1.048-2.635,3.173-3.528,5.1-1.789,3.868-1.562,9.1-.351,10.56l16.161,8.534c3.227-1.679,5.248-2.348,5.764-6.65a15.76,15.76,0,0,0-.318-5.423" transform="translate(-212.044 -39.381)" fill="#263238"/>
        <path id="Trazado_711807" data-name="Trazado 711807" d="M430.664,84.709l-10.17-3c-3.276-.477-5.623,3.487-5.961,6.781a58.813,58.813,0,0,0-.362,10.9c.657,5.538,4.848,6.4,4.848,6.4,0-.018.01.083-.023,1.719l-.013,3.37a2.8,2.8,0,0,0,.8,2.281c1.5,1.943,4.234,2.2,7.457,1.01a4.647,4.647,0,0,0,3.31-3.976l1.768-23.452a1.937,1.937,0,0,0-1.655-2.032" transform="translate(-213.241 -42.062)" fill="#ae7461"/>
        <path id="Trazado_711808" data-name="Trazado 711808" d="M417.056,105.417a.706.706,0,0,0,.653.739.675.675,0,0,0,.752-.608.706.706,0,0,0-.652-.739.676.676,0,0,0-.753.608" transform="translate(-214.797 -53.978)" fill="#263238"/>
        <path id="Trazado_711809" data-name="Trazado 711809" d="M416.44,101.843c.084.1.634-.279,1.394-.247s1.3.434,1.387.344c.042-.039-.041-.209-.276-.4a1.941,1.941,0,0,0-1.106-.389,1.862,1.862,0,0,0-1.114.312c-.241.17-.326.334-.285.376" transform="translate(-214.475 -52.098)" fill="#263238"/>
        <path id="Trazado_711810" data-name="Trazado 711810" d="M430.824,105.642a.706.706,0,0,0,.652.739.675.675,0,0,0,.753-.608.706.706,0,0,0-.652-.739.676.676,0,0,0-.753.608" transform="translate(-221.888 -54.094)" fill="#263238"/>
        <path id="Trazado_711811" data-name="Trazado 711811" d="M431.847,102.028c.084.1.635-.279,1.394-.247s1.3.433,1.388.343c.042-.039-.04-.209-.277-.4a1.94,1.94,0,0,0-1.106-.389,1.861,1.861,0,0,0-1.113.312c-.24.17-.326.334-.285.376" transform="translate(-222.41 -52.193)" fill="#263238"/>
        <path id="Trazado_711812" data-name="Trazado 711812" d="M423.724,106.208a5.007,5.007,0,0,0-1.225-.271c-.193-.028-.375-.074-.4-.207a.985.985,0,0,1,.152-.57l.631-1.454a25.448,25.448,0,0,0,1.44-3.812,25.4,25.4,0,0,0-1.744,3.687l-.608,1.464a1.12,1.12,0,0,0-.13.757.487.487,0,0,0,.308.3,1.329,1.329,0,0,0,.328.059,4.935,4.935,0,0,0,1.25.051" transform="translate(-217.246 -51.448)" fill="#263238"/>
        <path id="Trazado_711813" data-name="Trazado 711813" d="M424.253,129.624a14.011,14.011,0,0,0,7.448-1.676s-1.974,3.779-7.462,3.048Z" transform="translate(-218.497 -65.897)" fill="#6f4439"/>
        <path id="Trazado_711814" data-name="Trazado 711814" d="M428.357,115.819a1.1,1.1,0,0,0-.9-.535,1.433,1.433,0,0,0-1.33.6.888.888,0,0,0-.083.641c.044.111.008.056.09.134a2.508,2.508,0,0,0,1,.676,1.076,1.076,0,0,0,1.151-.373,1.1,1.1,0,0,0,.068-1.137" transform="translate(-219.415 -59.373)" fill="#6f4439"/>
        <path id="Trazado_711815" data-name="Trazado 711815" d="M427.937,114.246c-.123-.013-.162.811-.894,1.365s-1.6.423-1.616.538c-.014.051.188.169.559.2a2.051,2.051,0,0,0,1.347-.4,1.788,1.788,0,0,0,.7-1.147c.047-.343-.035-.551-.092-.549" transform="translate(-219.108 -58.84)" fill="#263238"/>
        <path id="Trazado_711816" data-name="Trazado 711816" d="M431.262,96.559c.054.213.82.189,1.7.382.881.176,1.572.5,1.708.332.061-.083-.045-.289-.315-.516a3.027,3.027,0,0,0-2.593-.544c-.338.1-.518.245-.5.346" transform="translate(-222.113 -49.505)" fill="#263238"/>
        <path id="Trazado_711817" data-name="Trazado 711817" d="M416.546,97.28c.172.149.726-.112,1.42-.221.692-.13,1.3-.071,1.412-.269.047-.1-.071-.253-.352-.378a2.165,2.165,0,0,0-1.2-.113,2.136,2.136,0,0,0-1.085.507c-.221.211-.276.4-.2.473" transform="translate(-214.518 -49.58)" fill="#263238"/>
        <path id="Trazado_711818" data-name="Trazado 711818" d="M427.255,80.527c-.009.04-.017.08-.026.119l.019.008c0-.043,0-.085.007-.128" transform="translate(-220.037 -41.474)" fill="#263238"/>
        <path id="Trazado_711819" data-name="Trazado 711819" d="M426.54,106.742c.156-1.443-.425-2.893-.257-4.335.178-1.528,1.168-2.838,1.575-4.322.651-2.377-.242-4.9-.569-7.361a5.831,5.831,0,0,1-3.58-2.066,16.156,16.156,0,0,1-2.421-4.448,7.445,7.445,0,0,0,1.5,4.278,2.009,2.009,0,0,1-1.716-.557,4.494,4.494,0,0,1-1.007-1.564,12.222,12.222,0,0,1-.975-4.4,15.825,15.825,0,0,0,.719,6.43,2.744,2.744,0,0,0-1.2.046,1.313,1.313,0,0,1-1.139-.242,1.436,1.436,0,0,1-.312-.734,16.505,16.505,0,0,1-.183-5.6,17.065,17.065,0,0,0-1.262,3.1,6.016,6.016,0,0,0-.023,3.313.486.486,0,0,1-.684,0,1.159,1.159,0,0,1-.3-.692,8.522,8.522,0,0,1,.181-2.789,14.121,14.121,0,0,0-1.037,3.186,4.751,4.751,0,0,1-1.726,2.8,14.664,14.664,0,0,1,.138-4.224A12.743,12.743,0,0,1,413.5,83.2a9.959,9.959,0,0,1,2.232-3.106c1.622-1.42,2.3-.809,3.335-.268l.123.051c0-.025,0-.051.008-.076l.047-.221a15.537,15.537,0,0,1,8.182.383c1.953.636,2.131,4.84,2.608,2.842.289-1.209,1.855-.105,1.874-.07,2.3,4.153,4.743,10.742,4.855,21.152Z" transform="translate(-212.212 -40.794)" fill="#263238"/>
        <path id="Trazado_711820" data-name="Trazado 711820" d="M447.752,68.716a5.186,5.186,0,0,0-3.58-1.742,3.909,3.909,0,0,0-3.457,1.8,3.15,3.15,0,0,0,.426,3.767l1.7,1.361a4.658,4.658,0,0,0,3.864.375,3.359,3.359,0,0,0,2.181-3.065,3.951,3.951,0,0,0-1.135-2.5" transform="translate(-226.76 -34.493)" fill="#263238"/>
        <path id="Trazado_711821" data-name="Trazado 711821" d="M446.4,81.338c-.329.154-1.26-1.273-2.923-2.393-1.638-1.159-3.3-1.525-3.274-1.887.014-.165.483-.3,1.242-.22a6.357,6.357,0,0,1,4.721,3.261c.342.682.383,1.167.234,1.239" transform="translate(-226.717 -39.562)" fill="#455a64"/>
        <path id="Trazado_711822" data-name="Trazado 711822" d="M394.887,173.1l6.372-5.968,4.317,6.858c-.086.615-5.589,12.473-7.971,14.93-2.718,2.8-6.424,2.587-8.059-1.284-1.289-3.052-3.428-12.449-3.428-12.449Z" transform="translate(-198.864 -86.076)" fill="#4db1f0"/>
        <path id="Trazado_711823" data-name="Trazado 711823" d="M408.286,141.386c-1.522.549-5.024,2.462-6.044,3.718a9.6,9.6,0,0,0-1.287,1.989c-.8,1.754-2.312,14.759-2.312,14.759l6.787,4.915,5.909-22.747-.377-3.607Z" transform="translate(-205.314 -72.318)" fill="#4db1f0"/>
        <path id="Trazado_711824" data-name="Trazado 711824" d="M412.267,177.233l.427-3.359a109.2,109.2,0,0,1-1.789-11.2,31.3,31.3,0,0,1,1.689-14.287c.167-.494,4.6-9.674,4.6-9.674s.931,2.828,4.671,2.159c5.215-.933,7.115-3.76,7.115-3.76l6.739,1.457s2.626,10.545,3.012,14.038c.207,1.873-2.261,12.46-2.261,12.46l3.974,5.945c.119.292-1.727,8.417-2.087,8.753s-6.826,1.837-6.906,2.113-12.324,5.4-12.316,5.193-5.891-7.216-5.891-7.216Z" transform="translate(-211.546 -70.618)" fill="#4db1f0"/>
        <path id="Trazado_711825" data-name="Trazado 711825" d="M409.926,162.964a.962.962,0,0,1-.016.246c-.023.188-.05.419-.083.7-.072.605-.175,1.482-.264,2.567a36.854,36.854,0,0,0,.159,8.48c.436,3.3,1.071,6.244,1.482,8.387.209,1.071.368,1.94.469,2.543l.108.695a.892.892,0,0,1,.02.245.935.935,0,0,1-.07-.236l-.154-.686c-.138-.634-.322-1.487-.548-2.525-.454-2.132-1.119-5.08-1.557-8.39a34.168,34.168,0,0,1-.085-8.53c.113-1.087.242-1.962.344-2.565.052-.3.1-.534.13-.692a.873.873,0,0,1,.066-.238" transform="translate(-210.73 -83.932)" fill="#263238"/>
        <path id="Trazado_711826" data-name="Trazado 711826" d="M439.981,214.479c1.208,2.05,3.967,9.9,5.039,13.907,4.894,18.291,9.034,42.888,10.409,47.9,1.833,6.679,5.935,21.792,8.024,31.856l-10.03,4.374s-13.136-35.4-16.719-44.093c-3.714-9.012-9.909-26.012-9.909-26.012l-3.579,67.427-9.608.3s-3.286-19-4.592-30.356-1.452-34.731-1.463-40.664c-.014-7.224,3.118-23.477,3.118-23.477s3.747,2.812,10.774,1.736c5.6-.857,17.2-5.162,17.2-5.162Z" transform="translate(-209.904 -109.296)" fill="#263238"/>
        <path id="Trazado_711827" data-name="Trazado 711827" d="M434.138,227.68a4.631,4.631,0,0,0,.056.775c.051.5.139,1.213.257,2.1.235,1.769.6,4.208,1.081,6.889s.981,5.1,1.373,6.839c.2.871.363,1.573.487,2.057a4.6,4.6,0,0,0,.216.745,4.611,4.611,0,0,0-.121-.767c-.105-.532-.242-1.23-.409-2.072-.348-1.749-.821-4.167-1.3-6.846s-.873-5.109-1.153-6.871c-.136-.847-.249-1.55-.335-2.086a4.659,4.659,0,0,0-.152-.761" transform="translate(-223.592 -117.263)" fill="#455a64"/>
        <path id="Trazado_711828" data-name="Trazado 711828" d="M439.36,227.11c.014,0-.015-.121-.187-.2a1.226,1.226,0,0,0-.732-.024,1.469,1.469,0,0,0-.479.2.8.8,0,0,0-.328.533,1.23,1.23,0,0,0,.55,1.221,1.266,1.266,0,0,0,1.339.06.872.872,0,0,0,.37-.5,1.242,1.242,0,0,0,.036-.52,1.047,1.047,0,0,0-.323-.66c-.138-.115-.242-.123-.245-.112s.077.06.176.18a1.058,1.058,0,0,1,.217.608.846.846,0,0,1-.35.805,1.058,1.058,0,0,1-1.081-.073,1.018,1.018,0,0,1-.46-.973.6.6,0,0,1,.221-.4,1.386,1.386,0,0,1,.4-.194,1.32,1.32,0,0,1,.654-.055c.151.035.2.116.219.1" transform="translate(-225.387 -116.834)" fill="#455a64"/>
        <path id="Trazado_711829" data-name="Trazado 711829" d="M428.54,262.739a9.37,9.37,0,0,0,1.162.8c.727.475,1.721,1.145,2.787,1.929s2,1.539,2.667,2.093a9.4,9.4,0,0,0,1.1.875,6.788,6.788,0,0,0-.989-1.008,33.123,33.123,0,0,0-5.476-4.039,6.775,6.775,0,0,0-1.255-.646" transform="translate(-220.712 -135.318)" fill="#455a64"/>
        <path id="Trazado_711830" data-name="Trazado 711830" d="M478.7,334.641a1.329,1.329,0,0,0,.416.014c.267-.005.651-.034,1.126-.088a20.111,20.111,0,0,0,7.082-2.22c.42-.226.753-.422.975-.57s.341-.233.333-.248a14.7,14.7,0,0,0-1.388.661,25.277,25.277,0,0,1-7.028,2.2,14.941,14.941,0,0,0-1.516.249" transform="translate(-246.547 -170.747)" fill="#455a64"/>
        <path id="Trazado_711831" data-name="Trazado 711831" d="M482.06,332.819a3.772,3.772,0,0,0,.984-.262c.6-.2,1.407-.508,2.281-.9s1.644-.8,2.187-1.11a3.776,3.776,0,0,0,.849-.563c-.036-.064-1.4.665-3.139,1.445s-3.185,1.322-3.162,1.391" transform="translate(-248.277 -169.95)" fill="#455a64"/>
        <path id="Trazado_711832" data-name="Trazado 711832" d="M408.838,399.71l-.05,10.01s-10.192,3.31-10.381,5.16l19.4.794.719-15.594Z" transform="translate(-205.193 -205.864)" fill="#263238"/>
        <path id="Trazado_711833" data-name="Trazado 711833" d="M431.22,419.08a.793.793,0,0,1,.511.927.762.762,0,0,1-.914.515.836.836,0,0,1-.535-.984.791.791,0,0,1,1.01-.43" transform="translate(-221.59 -215.819)" fill="#e0e0e0"/>
        <path id="Trazado_711834" data-name="Trazado 711834" d="M417.807,430.772l.011-1.575-18.609-.173s-.88.34-.807.953Z" transform="translate(-205.188 -220.962)" fill="#455a64"/>
        <path id="Trazado_711835" data-name="Trazado 711835" d="M419.172,420.039c0,.1.471.157.925.481s.686.732.775.7c.088-.015-.03-.587-.586-.969s-1.13-.3-1.113-.21" transform="translate(-215.887 -216.295)" fill="#fff"/>
        <path id="Trazado_711836" data-name="Trazado 711836" d="M414.9,421.647c-.025.091.378.269.684.683s.381.841.476.841c.088.018.177-.534-.213-1.041s-.941-.573-.947-.483" transform="translate(-213.688 -217.145)" fill="#fff"/>
        <path id="Trazado_711837" data-name="Trazado 711837" d="M411.579,424.841c.085.024.237-.444.015-.973s-.657-.754-.7-.676.219.366.395.8.2.834.291.847" transform="translate(-211.62 -217.95)" fill="#fff"/>
        <path id="Trazado_711838" data-name="Trazado 711838" d="M419.714,415.1c.037.088.476-.025,1.011.033s.945.244,1,.165-.335-.434-.966-.494-1.086.219-1.043.3" transform="translate(-216.165 -213.631)" fill="#fff"/>
        <path id="Trazado_711839" data-name="Trazado 711839" d="M505.833,397.544l3.717,11.526,5.569,8.269a1.241,1.241,0,0,1-1.542,1.823c-2.328-1.067-10.872-5.033-11.1-5.892-.26-.995-4.728-11.9-4.728-11.9Z" transform="translate(-256.359 -204.748)" fill="#263238"/>
        <path id="Trazado_711840" data-name="Trazado 711840" d="M519.448,434.987l-12.5-6.608.169.485a1.867,1.867,0,0,0,.816,1c1.023.6,3.885,2.2,10.346,5.193a1.24,1.24,0,0,0,1.169-.068" transform="translate(-261.095 -220.629)" fill="#455a64"/>
        <g id="Grupo_1002588" data-name="Grupo 1002588" transform="translate(246.016 203.211)" opacity="0.6">
          <g id="Grupo_1002587" data-name="Grupo 1002587">
            <g id="Grupo_1002586" data-name="Grupo 1002586" clip-path="url(#clip-path-13)">
              <path id="Trazado_711841" data-name="Trazado 711841" d="M508.184,419.053a.751.751,0,0,1,.516.858.722.722,0,0,1-.847.519.792.792,0,0,1-.542-.912.749.749,0,0,1,.94-.442" transform="translate(-507.285 -419.022)" fill="#fff"/>
            </g>
          </g>
        </g>
        <path id="Trazado_711842" data-name="Trazado 711842" d="M523.7,431.46a2.678,2.678,0,0,1,1.922-1.949c0-.032-.176-.07-.456-.015A1.981,1.981,0,0,0,523.677,431c-.052.282-.01.457.021.456" transform="translate(-269.698 -221.191)" fill="#fff"/>
        <path id="Trazado_711843" data-name="Trazado 711843" d="M526.508,434.638c.072.031.309-.469.842-.844a10.146,10.146,0,0,1,1.067-.532,1.376,1.376,0,0,0-1.223.317c-.6.432-.756,1.05-.686,1.06" transform="translate(-271.161 -223.12)" fill="#fff"/>
        <path id="Trazado_711844" data-name="Trazado 711844" d="M519.2,428.076a6.375,6.375,0,0,1,2.771-2.377,3.393,3.393,0,0,0-2.771,2.377" transform="translate(-267.401 -219.241)" fill="#fff"/>
        <path id="Trazado_711845" data-name="Trazado 711845" d="M516.273,422.274c.054.058.595-.426,1.406-.742s1.533-.345,1.532-.425a3.08,3.08,0,0,0-2.938,1.166" transform="translate(-265.895 -216.849)" fill="#fff"/>
        <path id="Trazado_711846" data-name="Trazado 711846" d="M513.845,415.4a3.938,3.938,0,0,1,3.093-.958c.01-.031-.164-.13-.481-.191a2.7,2.7,0,0,0-2.323.719c-.227.229-.315.41-.289.43" transform="translate(-264.645 -213.335)" fill="#fff"/>
        <path id="Trazado_711847" data-name="Trazado 711847" d="M513.974,411.19a1.046,1.046,0,0,0-.135-.438,3.181,3.181,0,0,0-.738-1.014,1.41,1.41,0,0,0-.793-.437.5.5,0,0,0-.495.29.811.811,0,0,0,0,.579A1.753,1.753,0,0,0,513.8,411.2a2.033,2.033,0,0,0,1.537-1.661.7.7,0,0,0-.161-.565.489.489,0,0,0-.568-.077,1.739,1.739,0,0,0-.617.654,3.561,3.561,0,0,0-.471,1.16,1.1,1.1,0,0,0-.038.456,5.667,5.667,0,0,1,.667-1.513,1.618,1.618,0,0,1,.552-.557.26.26,0,0,1,.31.04.481.481,0,0,1,.084.378,1.815,1.815,0,0,1-1.349,1.425,1.523,1.523,0,0,1-1.7-.848.589.589,0,0,1-.016-.4.27.27,0,0,1,.271-.164,1.277,1.277,0,0,1,.678.358,4.694,4.694,0,0,1,1,1.311" transform="translate(-263.573 -210.564)" fill="#fff"/>
        <path id="Trazado_711848" data-name="Trazado 711848" d="M384.258,162.964l4.628,4.78.188,4.162-5.371,1.235h-.274l-.347-2.687-3.1-4.116Z" transform="translate(-195.705 -83.932)" fill="#ae7461"/>
        <path id="Trazado_711849" data-name="Trazado 711849" d="M326.831,105.448a28.206,28.206,0,1,1,7.058-24.775,28,28,0,0,1-7.058,24.775m-38.54-.075a26.315,26.315,0,1,0-7.8-14.048,26.115,26.115,0,0,0,7.8,14.048" transform="translate(-143.23 -29.874)" fill="#455a64"/>
        <path id="Trazado_711850" data-name="Trazado 711850" d="M326.831,105.448a28.206,28.206,0,1,1,7.058-24.775,28,28,0,0,1-7.058,24.775m-38.54-.075a26.315,26.315,0,1,0-7.8-14.048,26.115,26.115,0,0,0,7.8,14.048" transform="translate(-143.23 -29.874)" fill="#263238"/>
        <path id="Trazado_711851" data-name="Trazado 711851" d="M328.258,102.651a28.206,28.206,0,1,1,7.058-24.775,27.993,27.993,0,0,1-7.058,24.775m-38.54-.075a26.315,26.315,0,1,0-7.8-14.048,26.118,26.118,0,0,0,7.8,14.048" transform="translate(-143.965 -28.434)" fill="#455a64"/>
        <path id="Trazado_711852" data-name="Trazado 711852" d="M407.05,187.3l.9-.868c.8-.774.351-2.543-.488-3.4l-31.481-32.539-4.209,4.073L403.2,187.05a2.818,2.818,0,0,0,3.847.246" transform="translate(-191.473 -77.506)" fill="#455a64"/>
        <path id="Trazado_711853" data-name="Trazado 711853" d="M381.763,158.374a.74.74,0,0,0-.637-.17,1.246,1.246,0,0,0-.5.348,5.711,5.711,0,0,0-1.622,3.948,1.749,1.749,0,0,0,.722,1.628l.632-.366c.2-.253.782-.676.859-.987.327-1.307-.142-1.253.677-3.52a.781.781,0,0,0-.132-.881" transform="translate(-195.2 -81.471)" fill="#ae7461"/>
        <path id="Trazado_711854" data-name="Trazado 711854" d="M383.148,161.226a3.118,3.118,0,0,1,.626-.825.909.909,0,0,1,.833-.249c.436.137.649.765.6,1.35a5.081,5.081,0,0,1-.543,1.662l-1.555,3.371-.3-.222a.426.426,0,0,1-.672-.148,1.788,1.788,0,0,1-.148-.918,8.8,8.8,0,0,1,1.161-4.022" transform="translate(-196.735 -82.47)" fill="#ae7461"/>
        <path id="Trazado_711855" data-name="Trazado 711855" d="M385.154,166.485a7.894,7.894,0,0,1,1.557-2.086,1.916,1.916,0,0,1,.723-.549.68.68,0,0,1,.812.239.939.939,0,0,1-.11.827,38.635,38.635,0,0,1-2.677,4.7l-.93-.936c-.422-.76.267-1.4.625-2.194" transform="translate(-197.977 -84.366)" fill="#ae7461"/>
        <path id="Trazado_711856" data-name="Trazado 711856" d="M420.27,183.57l-.854-.181-4.467-3.807-2.445-2.053a1.49,1.49,0,0,0-.716-.33l-2.419-.4a1.375,1.375,0,0,0,.724,1.659l1.326.686,1.213,1.434-.155.31s-7.951,1.234-8.448,1.84a.827.827,0,0,0,.221,1.269,1.287,1.287,0,0,0,.607.055,1.444,1.444,0,0,0,.772,1.709s-.883,1.158.661,1.71a2.491,2.491,0,0,0,1.324,1.158,57.262,57.262,0,0,0,6.121.827l5.7.008,1.145.187Z" transform="translate(-207.979 -91.055)" fill="#ae7461"/>
        <path id="Trazado_711857" data-name="Trazado 711857" d="M405.586,191.525a6.345,6.345,0,0,0,2.2.118,8.8,8.8,0,0,0,2.176-.323,10.859,10.859,0,0,0-2.192.074,20.985,20.985,0,0,0-2.183.131" transform="translate(-208.89 -98.519)" fill="#6f4439"/>
        <path id="Trazado_711858" data-name="Trazado 711858" d="M407.555,195.2c0,.035.207.064.538.108s.79.106,1.307.138a11.325,11.325,0,0,0,1.319-.029,2.121,2.121,0,0,0,.543-.049c.01-.036-.2-.106-.541-.128s-.8-.012-1.306-.045-.971-.068-1.311-.065-.549.035-.549.069" transform="translate(-209.904 -100.501)" fill="#6f4439"/>
        <path id="Trazado_711859" data-name="Trazado 711859" d="M408.593,198.685a9.419,9.419,0,0,0,2.144.288,5.107,5.107,0,0,1,1.467.227c.351.132.51.32.542.292.024-.012-.1-.259-.468-.452a3.877,3.877,0,0,0-1.521-.316,9.422,9.422,0,0,0-2.163-.038" transform="translate(-210.439 -102.308)" fill="#6f4439"/>
        <path id="Trazado_711860" data-name="Trazado 711860" d="M449.59,140.118s3.361.58,5.909,5.587c1.408,2.768,7.99,19.414,8.381,20.873,1.67,6.245-1.562,10.27-4.673,10.544-3.425.3-21.138-5.414-21.138-5.414l-.391-7.568,16.158,2.453-7.763-15.068s-.3-10.035,3.518-11.407" transform="translate(-225.418 -72.165)" fill="#4db1f0"/>
        <path id="Trazado_711861" data-name="Trazado 711861" d="M476.075,198.846a2.751,2.751,0,0,0-.435-1.009,6.815,6.815,0,0,0-4.235-3.022,2.756,2.756,0,0,0-1.1-.083c0,.044.414.074,1.052.254a7.684,7.684,0,0,1,4.13,2.948c.378.545.542.929.582.912" transform="translate(-242.225 -100.282)" fill="#263238"/>
        <path id="Trazado_711862" data-name="Trazado 711862" d="M454.624,189.176a.267.267,0,0,1-.083-.011l-.242-.052c-.215-.044-.524-.137-.93-.247-.807-.234-1.983-.594-3.463-1.065-2.959-.944-7.14-2.325-12.055-3.988l-.075-.025,0-.079c-.114-2.178-.239-4.551-.369-7.027l-.008-.155.153.025,3.975.643,12.185,1.988-.119.165-5.366-10.506-1.5-2.987-.39-.8a1.851,1.851,0,0,1-.123-.279,1.934,1.934,0,0,1,.156.262l.422.779,1.561,2.958,5.447,10.464.1.2-.224-.036-12.189-1.964-3.975-.645.145-.13c.124,2.476.242,4.851.352,7.029l-.079-.1,12.024,4.074,3.441,1.128c.4.121.708.226.918.282l.237.07a.291.291,0,0,1,.079.03" transform="translate(-225.273 -84.867)" fill="#263238"/>
        <path id="Trazado_711863" data-name="Trazado 711863" d="M458.892,140.746c.024.04-.457.317-1.127.894a9.581,9.581,0,0,0-3.217,5.923c-.12.876-.09,1.43-.137,1.432a1.2,1.2,0,0,1-.057-.387,6.177,6.177,0,0,1,.016-1.065,8.358,8.358,0,0,1,.291-1.557,8.918,8.918,0,0,1,1.843-3.392,8.333,8.333,0,0,1,1.147-1.091,6.164,6.164,0,0,1,.885-.593,1.164,1.164,0,0,1,.356-.163" transform="translate(-233.999 -72.487)" fill="#263238"/>
      </g>
    </g>
    <g id="Grupo_1002601" data-name="Grupo 1002601">
      <g id="Grupo_1002600" data-name="Grupo 1002600" clip-path="url(#clip-path)">
        <path id="Trazado_711864" data-name="Trazado 711864" d="M75.87,161.768s-3.571,19.863-3.4,21.72,1.122,4.812,3.276,5.319a9.677,9.677,0,0,0,4.137,0l-2.586-24.4Z" transform="translate(-37.322 -83.316)" fill="#ffc09d"/>
        <path id="Trazado_711865" data-name="Trazado 711865" d="M100.705,94.812l-.25-20.525c-.228-5.1,2.551-9.491,7.66-9.578l.472.019a9.133,9.133,0,0,1,8.751,8.766c.174,4.425.308,9.316.181,11.681-.263,4.9-5.193,5.455-5.193,5.455s-.031,2.98-.028,4.419l-3.942,5.469v.292Z" transform="translate(-51.731 -33.327)" fill="#ffc09d"/>
        <path id="Trazado_711866" data-name="Trazado 711866" d="M118.257,115.876a11.839,11.839,0,0,1-6.3-2.149s1.382,3.746,6.288,3.507Z" transform="translate(-57.662 -58.573)" fill="#ff9b6c"/>
        <path id="Trazado_711867" data-name="Trazado 711867" d="M130.579,90.835a.7.7,0,0,1-.7.678.67.67,0,0,1-.695-.661.7.7,0,0,1,.7-.678.67.67,0,0,1,.7.661" transform="translate(-66.532 -46.443)" fill="#263238"/>
        <path id="Trazado_711868" data-name="Trazado 711868" d="M130.015,86.353c-.09.088-.6-.326-1.357-.355s-1.32.324-1.4.229c-.038-.043.057-.2.3-.369a1.918,1.918,0,0,1,1.124-.3,1.849,1.849,0,0,1,1.075.4c.224.188.3.355.251.395" transform="translate(-65.539 -44.066)" fill="#263238"/>
        <path id="Trazado_711869" data-name="Trazado 711869" d="M116.717,90.835a.7.7,0,0,1-.7.677.669.669,0,0,1-.695-.66.7.7,0,0,1,.7-.678.67.67,0,0,1,.7.661" transform="translate(-59.393 -46.443)" fill="#263238"/>
        <path id="Trazado_711870" data-name="Trazado 711870" d="M114.785,86.084c-.09.088-.605-.326-1.357-.355s-1.319.324-1.4.229c-.038-.042.056-.2.3-.369a1.926,1.926,0,0,1,1.124-.3,1.85,1.85,0,0,1,1.076.4c.223.187.3.355.251.394" transform="translate(-57.695 -43.928)" fill="#263238"/>
        <path id="Trazado_711871" data-name="Trazado 711871" d="M122.694,92.407a5.013,5.013,0,0,1,1.232-.17c.193-.012.376-.042.414-.172a.981.981,0,0,0-.1-.575L123.728,90a25.14,25.14,0,0,1-1.119-3.881,25.216,25.216,0,0,1,1.428,3.782c.169.522.33,1.019.484,1.5a1.114,1.114,0,0,1,.069.758.482.482,0,0,1-.328.268,1.291,1.291,0,0,1-.328.032,4.877,4.877,0,0,1-1.239-.049" transform="translate(-63.143 -44.355)" fill="#263238"/>
        <path id="Trazado_711872" data-name="Trazado 711872" d="M114.767,81.168c-.11.188-.832-.044-1.721-.1-.887-.074-1.635.051-1.717-.151-.035-.1.122-.263.441-.405a3,3,0,0,1,2.619.191c.295.187.427.375.377.465" transform="translate(-57.336 -41.356)" fill="#263238"/>
        <path id="Trazado_711873" data-name="Trazado 711873" d="M129.994,81.763c-.161.167-.77-.027-1.507-.055-.736-.049-1.364.079-1.5-.1-.061-.088.042-.257.319-.412a2.375,2.375,0,0,1,1.233-.248,2.337,2.337,0,0,1,1.193.375c.256.183.337.361.265.443" transform="translate(-65.392 -41.688)" fill="#263238"/>
        <path id="Trazado_711874" data-name="Trazado 711874" d="M97.421,91.757c-.082-.04-3.324-1.134-3.355,2.219s3.341,2.693,3.348,2.6.008-4.815.008-4.815" transform="translate(-48.447 -47.154)" fill="#ffc09d"/>
        <path id="Trazado_711875" data-name="Trazado 711875" d="M97.3,96.437c-.015-.011-.059.04-.158.085a.587.587,0,0,1-.436,0,1.446,1.446,0,0,1-.657-1.3,1.924,1.924,0,0,1,.172-.835.674.674,0,0,1,.444-.444.3.3,0,0,1,.343.163c.044.094.022.161.039.167s.072-.056.047-.194a.37.37,0,0,0-.129-.211.441.441,0,0,0-.323-.088.821.821,0,0,0-.614.514,1.98,1.98,0,0,0-.211.933,1.515,1.515,0,0,0,.839,1.456.624.624,0,0,0,.534-.083c.105-.082.124-.157.112-.163" transform="translate(-49.35 -48.299)" fill="#ff9b6c"/>
        <path id="Trazado_711876" data-name="Trazado 711876" d="M117.8,100.044c.115-.007.12.763.782,1.307s1.481.455,1.487.563c.011.049-.182.15-.529.161a1.92,1.92,0,0,1-1.242-.426,1.669,1.669,0,0,1-.606-1.1c-.031-.322.054-.513.107-.509" transform="translate(-60.612 -51.526)" fill="#263238"/>
        <path id="Trazado_711877" data-name="Trazado 711877" d="M118.775,65.415a.794.794,0,0,0-.368-.468,2.445,2.445,0,0,0-1.252-.218,7.061,7.061,0,0,1-3.059-.805,3.5,3.5,0,0,0,.909-.623,2.1,2.1,0,0,0,.629-2.086.466.466,0,0,0-.259-.323c-.217-.069-.41.143-.564.31a1.812,1.812,0,0,1-1.714.7,2.969,2.969,0,0,1-1.27-.391c-.015-.015-.027-.032-.042-.047-.172-.182-.34-.356-.506-.524h0a11.1,11.1,0,0,0-3.434-2.607,11.392,11.392,0,0,0-6.076-.548,4.6,4.6,0,0,0-3.518,3.542,3.541,3.541,0,0,0-3.556-.374l-.029-.013a4.453,4.453,0,0,0-2.455,3.131c-.022.072-.041.145-.062.218a5.147,5.147,0,0,1-1.766,1.686c-.127.072-.272.16-.289.3s.1.263.219.348a2.592,2.592,0,0,0,1.046.449,5.8,5.8,0,0,1-.441.907c-.149.246-.327.542-.2.8a.549.549,0,0,0,.57.257,1.61,1.61,0,0,0,.608-.267l-.446,1.035a3.064,3.064,0,0,0,1.413-.078c.262,1.242.443,3.537.752,4.38a5.092,5.092,0,0,1,1.554.085c.579.2.345,1.225,1.1.941.386-.145.993-1.6,1.127-1.986a19.144,19.144,0,0,0,.921-8.095,6.16,6.16,0,0,1,1.916-1.35l-.059.052c1.376-.461,2.933-.911,4.226-.253a9.05,9.05,0,0,1,2.329,2.409,7.02,7.02,0,0,0,5.151,2.579c.175,1.483.2,3.9.261,5.286l1.211-2.751v.011c.1-.161.178-.323.256-.486l.027-.049V70.5a8.653,8.653,0,0,1,.4-.781l.013.012a.863.863,0,0,0,1.274-1.14,1.955,1.955,0,0,0-.412-.424,1.365,1.365,0,0,0,1.3.352,1.071,1.071,0,0,0,.77-1.051.911.911,0,0,0-.534-.737,3.078,3.078,0,0,0,1.754-.366c.348-.193.69-.514.578-.95" transform="translate(-46.401 -29.66)" fill="#263238"/>
        <path id="Trazado_711878" data-name="Trazado 711878" d="M102.342,66.5a4.234,4.234,0,0,0-.5.445,3.528,3.528,0,0,0-.772,1.621,6.214,6.214,0,0,0-.14,1.245c-.007.452.024.936.053,1.447a12.991,12.991,0,0,1,.018,1.61,5.733,5.733,0,0,1-.12.848,1.77,1.77,0,0,1-.356.82.74.74,0,0,1-.695.225,1.1,1.1,0,0,1-.619-.359,2.545,2.545,0,0,1-.458-1.253l.1.014a4.109,4.109,0,0,1-.609,1.021,1.46,1.46,0,0,1-.96.509.94.94,0,0,1-.5-.094.817.817,0,0,1-.34-.342.844.844,0,0,1-.1-.436.611.611,0,0,1,.162-.38l.051.047a3.16,3.16,0,0,1-1.063.779,2.834,2.834,0,0,1-.328.123.547.547,0,0,1-.117.028.573.573,0,0,1,.111-.046c.073-.029.182-.072.318-.139a3.256,3.256,0,0,0,1.027-.791l.051.047a.63.63,0,0,0-.041.729.735.735,0,0,0,.307.3.854.854,0,0,0,.458.08,1.37,1.37,0,0,0,.891-.484,4.04,4.04,0,0,0,.586-1l.073-.157.031.171a2.457,2.457,0,0,0,.436,1.2.993.993,0,0,0,.554.321.624.624,0,0,0,.591-.191,1.673,1.673,0,0,0,.328-.767,5.648,5.648,0,0,0,.12-.83,13.209,13.209,0,0,0-.012-1.6c-.026-.511-.053-1-.042-1.454a6.162,6.162,0,0,1,.156-1.262,3.47,3.47,0,0,1,.818-1.633,1.984,1.984,0,0,1,.53-.414" transform="translate(-48.954 -34.25)" fill="#455a64"/>
        <path id="Trazado_711879" data-name="Trazado 711879" d="M125.4,68.555a.182.182,0,0,1-.04.033l-.124.088a1.613,1.613,0,0,1-.21.13,2.624,2.624,0,0,1-.3.154,4.355,4.355,0,0,1-2.1.354,5.559,5.559,0,0,1-2.949-1.127,9.633,9.633,0,0,1-2.511-2.962c-.35-.6-.634-1.21-.949-1.777a6.514,6.514,0,0,0-1.08-1.506,3.35,3.35,0,0,0-1.4-.874,2.4,2.4,0,0,0-.745-.094,2.641,2.641,0,0,0-.684.123,2.835,2.835,0,0,0-1.592,1.317,3.421,3.421,0,0,0-.262.733.172.172,0,0,1,0-.051l.025-.15a2.466,2.466,0,0,1,.193-.552,2.8,2.8,0,0,1,.558-.739,2.877,2.877,0,0,1,1.048-.634,2.705,2.705,0,0,1,.706-.134,2.465,2.465,0,0,1,.774.091,3.431,3.431,0,0,1,1.452.89,6.547,6.547,0,0,1,1.1,1.527c.318.57.6,1.181.95,1.774a9.63,9.63,0,0,0,2.474,2.934,5.532,5.532,0,0,0,2.892,1.131,4.419,4.419,0,0,0,2.081-.314,6.839,6.839,0,0,0,.691-.365" transform="translate(-56.881 -31.358)" fill="#455a64"/>
        <path id="Trazado_711880" data-name="Trazado 711880" d="M136.723,72.264a.781.781,0,0,1-.177.12,3.749,3.749,0,0,1-.524.259,5.028,5.028,0,0,1-.828.261,5.359,5.359,0,0,1-2.118.044,5.028,5.028,0,0,1-.838-.227,3.749,3.749,0,0,1-.534-.237.782.782,0,0,1-.182-.113c.01-.019.279.124.742.274a5.9,5.9,0,0,0,.83.2,5.7,5.7,0,0,0,2.078-.043,5.92,5.92,0,0,0,.821-.234c.457-.169.72-.322.731-.3" transform="translate(-67.738 -37.218)" fill="#455a64"/>
        <path id="Trazado_711881" data-name="Trazado 711881" d="M104.317,393.4l-.484,11.084s11.1,4.215,11.214,6.273l-21.526-.168.046-17.3Z" transform="translate(-48.166 -202.556)" fill="#455a64"/>
        <path id="Trazado_711882" data-name="Trazado 711882" d="M100.4,414.31a.88.88,0,0,0-.616,1,.845.845,0,0,0,.984.619.927.927,0,0,0,.646-1.061.876.876,0,0,0-1.1-.53" transform="translate(-51.384 -213.365)" fill="#e0e0e0"/>
        <g id="Grupo_1002593" data-name="Grupo 1002593" transform="translate(45.354 206.29)" opacity="0.6">
          <g id="Grupo_1002592" data-name="Grupo 1002592">
            <g id="Grupo_1002591" data-name="Grupo 1002591" clip-path="url(#clip-path-15)">
              <path id="Trazado_711883" data-name="Trazado 711883" d="M93.521,427.113l.073-1.744,20.612.813s.955.425.841,1.1Z" transform="translate(-93.521 -425.369)" fill="#fff"/>
            </g>
          </g>
        </g>
        <path id="Trazado_711884" data-name="Trazado 711884" d="M113.412,416.051c0,.105-.53.149-1.05.483s-.8.773-.9.731c-.1-.021.065-.648.7-1.042s1.268-.269,1.244-.172" transform="translate(-57.396 -214.229)" fill="#263238"/>
        <path id="Trazado_711885" data-name="Trazado 711885" d="M118.618,418.072c.023.1-.433.277-.794.719s-.467.911-.572.905c-.1.016-.167-.6.292-1.141s1.072-.584,1.074-.484" transform="translate(-60.352 -215.298)" fill="#263238"/>
        <path id="Trazado_711886" data-name="Trazado 711886" d="M122.615,421.791c-.1.022-.238-.5.037-1.078s.768-.8.811-.711c.059.087-.263.393-.481.868s-.263.912-.367.921" transform="translate(-63.088 -216.306)" fill="#263238"/>
        <path id="Trazado_711887" data-name="Trazado 711887" d="M112.777,410.513c-.045.1-.526-.053-1.12-.017s-1.059.219-1.113.129.394-.462,1.1-.494,1.191.3,1.139.383" transform="translate(-56.931 -211.229)" fill="#263238"/>
        <path id="Trazado_711888" data-name="Trazado 711888" d="M115.461,410.664a18.024,18.024,0,0,1,.03,2.669l-.086-.131c1.257.477,2.929,1.121,4.705,1.959a25.25,25.25,0,0,1,4.77,2.747,5.1,5.1,0,0,1,1.18,1.2c.224.345.194.61.159.6a1.5,1.5,0,0,0-.274-.517,6,6,0,0,0-1.218-1.079,31.259,31.259,0,0,0-4.769-2.624c-1.764-.832-3.418-1.5-4.652-2.033l-.091-.039.005-.092a18,18,0,0,1,.242-2.659" transform="translate(-59.339 -211.506)" fill="#263238"/>
        <path id="Trazado_711889" data-name="Trazado 711889" d="M87.079,234.142v10.046l3.963,32.08s-1.256,15.044-2.027,23.536c-.67,7.375.425,20.219.425,20.219h11.749l4.2-42.834L108,250.475l4.732-15.824Z" transform="translate(-44.849 -120.591)" fill="#263238"/>
        <path id="Trazado_711890" data-name="Trazado 711890" d="M114.59,386.754l-3.077,10.66s9.8,6.708,9.425,8.733l-20.884-5.224,4.113-16.806Z" transform="translate(-51.532 -197.833)" fill="#455a64"/>
        <path id="Trazado_711891" data-name="Trazado 711891" d="M109.949,406.33a.878.878,0,0,0-.833.825.845.845,0,0,0,.811.833.928.928,0,0,0,.878-.879.877.877,0,0,0-.94-.773" transform="translate(-56.198 -209.269)" fill="#e0e0e0"/>
        <g id="Grupo_1002596" data-name="Grupo 1002596" transform="translate(48.524 201.412)" opacity="0.6">
          <g id="Grupo_1002595" data-name="Grupo 1002595">
            <g id="Grupo_1002594" data-name="Grupo 1002594" clip-path="url(#clip-path-16)">
              <path id="Trazado_711892" data-name="Trazado 711892" d="M100.056,416.99l.481-1.677,19.843,5.636s.828.637.559,1.266Z" transform="translate(-100.056 -415.312)" fill="#fff"/>
            </g>
          </g>
        </g>
        <path id="Trazado_711893" data-name="Trazado 711893" d="M122.108,411.257c-.029.1-.55.02-1.134.222-.589.187-.958.564-1.042.5-.089-.044.215-.615.927-.848s1.295.037,1.249.125" transform="translate(-61.761 -211.698)" fill="#263238"/>
        <path id="Trazado_711894" data-name="Trazado 711894" d="M126.63,414.395c0,.1-.486.167-.94.512s-.669.776-.769.746c-.1-.008-.021-.623.552-1.04s1.18-.316,1.158-.218" transform="translate(-64.319 -213.381)" fill="#263238"/>
        <path id="Trazado_711895" data-name="Trazado 711895" d="M129.635,418.867c-.1,0-.113-.547.289-1.039s.934-.6.956-.5-.348.32-.671.73-.47.825-.574.809" transform="translate(-66.737 -214.921)" fill="#263238"/>
        <path id="Trazado_711896" data-name="Trazado 711896" d="M122.99,405.6c-.066.082-.5-.176-1.085-.28s-1.081-.036-1.112-.137.492-.356,1.18-.223,1.087.572,1.016.64" transform="translate(-62.211 -208.55)" fill="#263238"/>
        <path id="Trazado_711897" data-name="Trazado 711897" d="M124.2,235.556l.539,5.464-.651,39.673-9.3,31.87-2.253,7.729-12-2.26,9.251-82.465Z" transform="translate(-51.781 -121.319)" fill="#263238"/>
        <path id="Trazado_711898" data-name="Trazado 711898" d="M123.7,293.368s-.013.065-.046.189l-.151.55-.6,2.134-2.3,8.012L112.5,332.165l-.027.092-.094-.017-12-2.255-.11-.02.021-.11c.613-3.234,1.252-6.613,1.9-10.059l5.364-28.242v.034l-4.482-28.138,0,.015-2-3.646-.511-.943c-.113-.212-.166-.324-.166-.324s.067.1.188.312l.532.932,2.043,3.625,0,.007v.008l4.589,28.121,0,.017,0,.017c-1.59,8.412-3.41,18.039-5.339,28.246L100.51,329.9l-.089-.13,12,2.266-.121.074,8.172-27.889c1.01-3.419,1.811-6.13,2.362-8l.637-2.125.168-.546c.039-.122.063-.183.063-.183" transform="translate(-51.642 -133.163)" fill="#455a64"/>
        <path id="Trazado_711899" data-name="Trazado 711899" d="M137.953,242.264a3.773,3.773,0,0,1-.653.959,8.838,8.838,0,0,1-4.726,2.88,3.745,3.745,0,0,1-1.151.141,10.835,10.835,0,0,0,6.531-3.979" transform="translate(-67.687 -124.773)" fill="#455a64"/>
        <path id="Trazado_711900" data-name="Trazado 711900" d="M191.3,118.023a.507.507,0,0,0-.113-.7.249.249,0,0,0-.179-.053c-.24.04-.872.5-1.359.51s-1.315-.141-1.8.311a15.236,15.236,0,0,0-1.824,3.469c-.151.538-.678,5.266-.678,5.266Z" transform="translate(-95.456 -60.397)" fill="#ffc09d"/>
        <path id="Trazado_711901" data-name="Trazado 711901" d="M192.425,117.547c-.026.03-5.824,2.589-8.371,3.712a.865.865,0,0,0-.248,1.42.906.906,0,0,0,1.036.161l8.321-4.054.686-1.042Z" transform="translate(-94.527 -60.541)" fill="#263238"/>
        <path id="Trazado_711902" data-name="Trazado 711902" d="M186.061,122.734l1.849-1.362,2.441-3.542s1-.594,1.517-.22.687.807.447,1.29c0,0,1.379.329,1.478.791a5.275,5.275,0,0,1-.2,1.585,2.784,2.784,0,0,1,.01,1.32,2.122,2.122,0,0,0-.174.852,2.588,2.588,0,0,1,.509,2.211,13.4,13.4,0,0,1-2.856,4.257,18.725,18.725,0,0,1-2.493,1.418l-1.065,2.232-4.421-4Z" transform="translate(-94.304 -60.51)" fill="#ffc09d"/>
        <path id="Trazado_711903" data-name="Trazado 711903" d="M194.021,118.509a1.025,1.025,0,0,1-.111.191l-.33.5c-.281.421-.675,1-1.115,1.635l-.624.895a2.227,2.227,0,0,1-.317.364,1.539,1.539,0,0,1-.354.23,2.93,2.93,0,0,1-.573.193,1,1,0,0,1-.217.04,1.118,1.118,0,0,1,.208-.074,3.615,3.615,0,0,0,.554-.215c.477-.2.793-.866,1.249-1.483.44-.636.842-1.209,1.137-1.621l.353-.485a1.027,1.027,0,0,1,.14-.171" transform="translate(-98.052 -61.036)" fill="#ff9b6c"/>
        <path id="Trazado_711904" data-name="Trazado 711904" d="M199.057,123.194a27.076,27.076,0,0,1,1.5-2.741,27.081,27.081,0,0,1-1.5,2.741" transform="translate(-102.52 -62.037)" fill="#ff9b6c"/>
        <path id="Trazado_711905" data-name="Trazado 711905" d="M199.187,129.848c-.014,0-.021-.08-.066-.194a.816.816,0,0,0-.288-.37.833.833,0,0,0-.448-.143c-.124,0-.2.016-.205,0s.069-.053.2-.066a.767.767,0,0,1,.5.132.752.752,0,0,1,.3.424c.033.131.016.214.005.214" transform="translate(-102.07 -66.477)" fill="#ff9b6c"/>
        <path id="Trazado_711906" data-name="Trazado 711906" d="M203.121,131.426c-.009.01-.077-.041-.182-.125a2.17,2.17,0,0,0-.432-.282.828.828,0,0,0-.488-.08.494.494,0,0,0-.183.093c-.013,0,.02-.107.165-.155a.772.772,0,0,1,.543.059,1.52,1.52,0,0,1,.437.317c.1.1.148.164.14.173" transform="translate(-103.951 -67.393)" fill="#ff9b6c"/>
        <path id="Trazado_711907" data-name="Trazado 711907" d="M202.853,126.707a7.661,7.661,0,0,1,.887-1.4,7.659,7.659,0,0,1-.887,1.4" transform="translate(-104.475 -64.536)" fill="#ff9b6c"/>
        <path id="Trazado_711908" data-name="Trazado 711908" d="M194.586,127.743c-.014,0-.012-.077-.046-.187a.7.7,0,0,0-.25-.357.716.716,0,0,0-.417-.129c-.116,0-.187.024-.193.011s.061-.057.188-.075a.668.668,0,0,1,.475.119.655.655,0,0,1,.259.416c.02.126-.006.2-.016.2" transform="translate(-99.752 -65.41)" fill="#ff9b6c"/>
        <path id="Trazado_711909" data-name="Trazado 711909" d="M185.013,126.99c-.01-.012.08-.081.16-.235a.8.8,0,0,0,.043-.643.844.844,0,0,0-.46-.455c-.16-.066-.274-.064-.273-.08a.444.444,0,0,1,.295.019.84.84,0,0,1,.522.483.8.8,0,0,1-.072.707c-.1.159-.211.211-.215.2" transform="translate(-95.015 -64.669)" fill="#455a64"/>
        <path id="Trazado_711910" data-name="Trazado 711910" d="M143,144.3l7.013,6,8.609-12.86,5.6,3.3s-8.389,19.312-10.663,21.018-4.192,1.264-7.117-.087-13.344-11.841-13.344-11.841Z" transform="translate(-68.548 -70.785)" fill="#ffc09d"/>
        <path id="Trazado_711911" data-name="Trazado 711911" d="M168.177,169.2c-.069-.011.122-1.223.037-2.721s-.394-2.684-.327-2.7a9.23,9.23,0,0,1,.29,5.423" transform="translate(-86.463 -84.351)" fill="#ff9b6c"/>
        <path id="Trazado_711912" data-name="Trazado 711912" d="M83.152,131.123s5.962.086,6.049,7.517a124.465,124.465,0,0,1-1.518,17.371l-15.217-2.682s1.887-13.834,3.5-17.818c1.622-4.01,4.72-5.064,7.187-4.388" transform="translate(-37.322 -67.435)" fill="#008b8a"/>
        <path id="Trazado_711913" data-name="Trazado 711913" d="M90.814,120.3l-.19,1.211s-8.133,5.374-8.593,6.761c-.713,2.15.842,20.316,1.529,25.465s.825,16.5.825,16.5a15.754,15.754,0,0,0-1.254,4.407,5.435,5.435,0,0,0,1.254,3.537c8.726,2.847,19.387.661,30.919-1.968l-.109-3.269-3.77-35.514s1.1-9.231-3.4-11.9c-.495-.294-4.423-2.526-4.423-2.526Z" transform="translate(-42.154 -61.956)" fill="#008b8a"/>
        <g id="Grupo_1002599" data-name="Grupo 1002599" transform="translate(61.737 73.734)" opacity="0.3">
          <g id="Grupo_1002598" data-name="Grupo 1002598">
            <g id="Grupo_1002597" data-name="Grupo 1002597" clip-path="url(#clip-path-17)">
              <path id="Trazado_711914" data-name="Trazado 711914" d="M127.3,152.04a27.539,27.539,0,0,0,2.679,10.955,32.458,32.458,0,0,0,6.841,9.494l-1.22-10.627Z" transform="translate(-127.302 -152.04)"/>
            </g>
          </g>
        </g>
        <path id="Trazado_711915" data-name="Trazado 711915" d="M132.779,132.2c-1.426-1.154-4.078-1.781-5.591-.743a4.556,4.556,0,0,0-1.836,2.26c-1.291,3.776-.519,7.837.514,10.85s6.027,8.818,6.027,8.818l12.339-7.489s-8.259-10.01-9.12-11.044a21.792,21.792,0,0,0-2.334-2.651" transform="translate(-64.212 -67.435)" fill="#008b8a"/>
        <path id="Trazado_711916" data-name="Trazado 711916" d="M132.686,132.149a2.165,2.165,0,0,1,.261.208,9.1,9.1,0,0,1,.68.692c.572.629,1.325,1.612,2.343,2.807l8.247,9.923.076.09-.1.062-11.658,7.089-.675.41-.082.05-.062-.073c-1.38-1.631-2.662-3.27-3.813-4.919a26.311,26.311,0,0,1-1.574-2.508,10.455,10.455,0,0,1-.608-1.31c-.165-.446-.3-.893-.428-1.336a16.181,16.181,0,0,1-.117-9.664,3.951,3.951,0,0,1,4.1-2.833,5.7,5.7,0,0,1,1.277.218,6.059,6.059,0,0,1,1.632.721,2.926,2.926,0,0,1,.5.374c-.01.013-.17-.131-.52-.336a6.352,6.352,0,0,0-1.631-.676,5.67,5.67,0,0,0-1.26-.2,4.1,4.1,0,0,0-1.489.194,4.436,4.436,0,0,0-2.459,2.583,16.108,16.108,0,0,0,.166,9.557c.131.438.264.885.428,1.322a10.169,10.169,0,0,0,.6,1.28,26.3,26.3,0,0,0,1.566,2.485c1.147,1.638,2.43,3.275,3.8,4.9l-.144-.023.675-.41,11.669-7.07-.026.152-8.184-9.975c-1-1.208-1.746-2.2-2.3-2.843-.275-.321-.5-.556-.655-.71s-.243-.226-.238-.232" transform="translate(-64.119 -67.381)" fill="#263238"/>
        <path id="Trazado_711917" data-name="Trazado 711917" d="M81.885,145.215a.793.793,0,0,1,.035.215c.016.167.034.372.057.619.042.574.1,1.344.165,2.282.124,1.959.292,4.6.478,7.529.193,2.94.394,5.6.569,7.522.087.935.159,1.7.211,2.276.022.247.04.452.054.62a.8.8,0,0,1,0,.218.791.791,0,0,1-.048-.212c-.026-.166-.058-.37-.1-.615-.078-.535-.178-1.31-.283-2.271-.215-1.92-.443-4.581-.635-7.522s-.324-5.606-.412-7.535c-.038-.938-.07-1.711-.094-2.285-.006-.248-.011-.454-.015-.622a.792.792,0,0,1,.01-.218" transform="translate(-42.168 -74.791)" fill="#263238"/>
        <path id="Trazado_711918" data-name="Trazado 711918" d="M113.393,234.139a.94.94,0,0,1-.228.071l-.666.162c-.289.071-.645.145-1.061.223s-.888.173-1.414.252c-1.049.181-2.308.327-3.71.464-1.4.117-2.948.2-4.572.224s-3.173-.044-4.577-.137c-1.4-.113-2.665-.241-3.716-.411-.527-.073-1-.16-1.416-.24s-.773-.147-1.062-.218l-.666-.16a.985.985,0,0,1-.228-.071.946.946,0,0,1,.239.026l.674.118c.291.058.649.117,1.066.18s.889.144,1.417.206c1.05.15,2.309.26,3.708.362,1.4.081,2.942.13,4.561.119s3.159-.1,4.557-.206c1.4-.125,2.654-.255,3.7-.414.526-.068,1-.148,1.415-.218s.774-.127,1.066-.185l.673-.12a.981.981,0,0,1,.239-.027" transform="translate(-46.392 -120.588)" fill="#263238"/>
      </g>
    </g>
  </g>
</svg>
