<svg xmlns="http://www.w3.org/2000/svg" xmlns:xlink="http://www.w3.org/1999/xlink" width="88" height="88.305" viewBox="0 0 88 88.305">
  <defs>
    <clipPath id="clip-path">
      <rect id="Rectángulo_346621" data-name="Rectángulo 346621" width="82" height="82.039" fill="#12263f"/>
    </clipPath>
  </defs>
  <g id="Grupo_997755" data-name="Grupo 997755" transform="translate(-626 -7917)">
    <path id="Trazado_710239" data-name="Trazado 710239" d="M44,0A44,44,0,1,1,0,44,44,44,0,0,1,44,0Z" transform="translate(626 7917)" fill="#d2e1f1"/>
    <g id="Grupo_1002606" data-name="Grupo 1002606" transform="translate(631 7923.266)">
      <g id="Grupo_1002605" data-name="Grupo 1002605" clip-path="url(#clip-path)">
        <path id="Trazado_711919" data-name="Trazado 711919" d="M2.642,150.017q0-10.746.01-21.493a1.091,1.091,0,0,0-.661-1.135,3.909,3.909,0,0,1-1.15-5.845,2.492,2.492,0,0,0,.457-1.319c.059-1.348.009-2.7.025-4.05a3.933,3.933,0,0,1,4.055-4.085q15.786-.02,31.571,0a3.931,3.931,0,0,1,4.042,4.016c.021,1.405-.025,2.812.025,4.215a2.148,2.148,0,0,0,.413,1.169,3.889,3.889,0,0,1-1.134,5.9,1.092,1.092,0,0,0-.629,1.16q.015,21.369.006,42.738a3.984,3.984,0,0,1-3.282,4.227,6.475,6.475,0,0,1-1.152.07q-14.092.005-28.183,0c-2.805,0-4.411-1.6-4.412-4.4q-.006-10.581,0-21.162m2.669,3.136c0,.362,0,.66,0,.957q.007,8.471.015,16.943c0,1.446.408,1.848,1.877,1.848q13.965,0,27.93,0c1.452,0,1.858-.409,1.858-1.868q0-8.513,0-17.026c0-.267-.025-.534-.039-.812H33.1c0,1.6,0,3.14,0,4.68,0,1.452-.412,1.873-1.849,1.873q-10.081,0-20.162-.015c-1.449,0-1.856-.412-1.858-1.865,0-1.561,0-3.122,0-4.715Zm31.652-2.732V128H5.336v22.389H9.255c0-3.391,0-6.721,0-10.052,0-1.361.42-1.793,1.755-1.794q10.163-.006,20.326-.005c1.29,0,1.73.443,1.731,1.737q.005,4.628,0,9.256v.891Zm-6.639-5.187H11.974v7.807h18.35ZM21.257,122.7q-8.506,0-17.012,0c-.955,0-1.582.554-1.556,1.326.024.731.64,1.223,1.561,1.245.11,0,.22,0,.33,0h33.2a3.389,3.389,0,0,0,.74-.035,1.27,1.27,0,0,0,1.1-1.258,1.293,1.293,0,0,0-1.184-1.266,5.844,5.844,0,0,0-.742-.015H21.257M12,142.452h1q6.355,0,12.711,0c1.32,0,2.641,0,3.961-.023.584-.008.918-.476.609-.893a1.1,1.1,0,0,0-.785-.259q-8.377-.031-16.755-.028c-.238,0-.475.034-.737.053ZM12.009,157h.974l15.434-.019a9.59,9.59,0,0,0,1.481-.032.7.7,0,0,0,.409-.546c0-.192-.229-.412-.4-.57-.077-.07-.265-.018-.4-.018q-8.419-.01-16.838-.016c-.211,0-.423.039-.65.061a4.044,4.044,0,0,0-.051.449c0,.19.023.379.045.692m-.186-39.6c0-.3,0-.606,0-.909-.035-1.9.352-1.665-1.814-1.693-.5-.006-.692.189-.681.684.021.909-.008,1.818.008,2.727.035,1.948-.4,1.71,1.854,1.733.459,0,.65-.185.638-.641-.017-.633,0-1.267,0-1.9m5.291.007c0-.3,0-.606,0-.909-.035-1.907.348-1.671-1.807-1.7-.492-.006-.7.175-.688.677.021.909-.008,1.818.008,2.727.034,1.953-.389,1.718,1.848,1.74.454,0,.656-.173.643-.635-.017-.633,0-1.267,0-1.9m2.8-.076c0,.3,0,.606,0,.909.031,1.912-.3,1.667,1.721,1.707.565.011.8-.174.777-.759-.034-.908,0-1.818-.011-2.727-.024-1.866.313-1.63-1.76-1.664-.527-.009-.76.171-.734.716.029.6.006,1.212.006,1.818m7.781.08c0-.3,0-.606,0-.909-.029-1.913.3-1.667-1.72-1.706-.565-.011-.8.174-.777.759.034.908,0,1.818.01,2.727.025,1.865-.315,1.63,1.761,1.664.527.009.76-.171.734-.716-.029-.6-.007-1.212-.006-1.818m2.8-.093c0,.3-.006.606,0,.909.042,1.929-.4,1.695,1.872,1.715.472,0,.628-.214.621-.658-.015-.936.005-1.873-.006-2.81-.023-1.881.311-1.654-1.746-1.671-.055,0-.133-.023-.162,0-.2.2-.525.387-.553.612a16.052,16.052,0,0,0-.028,1.9m5.291.009c0,.3-.006.6,0,.9.041,1.924-.389,1.689,1.861,1.711.459,0,.64-.189.632-.641-.015-.877,0-1.755,0-2.632a1.977,1.977,0,0,0-1.777-1.866c-.463-.027-.736.1-.716.632.023.63.005,1.261,0,1.892m-29.255.078c0-.659.031-1.32-.018-1.975a.8.8,0,0,0-.38-.594,2.145,2.145,0,0,0-2.079,1.417c-.036,1.042-.033,2.087.011,3.128a.735.735,0,0,0,.444.534c1.7.356,2.023.083,2.023-1.6,0-.3,0-.6,0-.906" transform="translate(0 -93.553)" fill="#12263f"/>
        <path id="Trazado_711920" data-name="Trazado 711920" d="M298.515,42.344h5.813c1.047,0,2.094-.008,3.14,0,1.087.011,1.589.485,1.589,1.548q.008,18.309,0,36.619a1.351,1.351,0,0,1-1.541,1.514q-2.438.022-4.876,0c-1.019-.011-1.49-.508-1.508-1.544-.012-.744.009-1.488-.006-2.232a1.337,1.337,0,0,0-1.464-1.5q-9.132-.014-18.264,0a1.314,1.314,0,0,0-1.429,1.452c-.019.743,0,1.488-.007,2.232-.014,1.116-.493,1.592-1.627,1.6q-2.355.015-4.711,0c-1.121-.009-1.59-.486-1.592-1.628q-.01-5.456,0-10.911,0-12.606,0-25.212c0-1.568.369-1.933,1.951-1.933h8.631v-.9q0-16.45.015-32.9a1.158,1.158,0,0,0-.7-1.2,3.823,3.823,0,0,1-1.834-4.306,3.845,3.845,0,0,1,3.6-3q6.859-.063,13.718,0A3.831,3.831,0,0,1,301,3.057a3.862,3.862,0,0,1-1.923,4.349.926.926,0,0,0-.613.914q.028,16.822.017,33.643c0,.082.013.164.032.381M274.742,52.949V79.328h2.573c0-.46-.007-.869,0-1.277a3.922,3.922,0,0,1,3.932-3.954q9.3-.03,18.6,0a3.933,3.933,0,0,1,3.93,3.962c.009.428,0,.856,0,1.271h2.567v-26.4h-7.857V53.94c0,3.2,0,6.394,0,9.59A7.762,7.762,0,0,1,297.02,68.1a7.925,7.925,0,0,1-14.4-4.44c-.036-3.279-.007-6.559-.006-9.838v-.869Zm10.584-22.585h10.448V7.976H285.326Zm21.017,14.71H274.757v5.119h31.586ZM285.318,53c0,3.678-.158,7.315.047,10.932a5.077,5.077,0,0,0,6.2,4.687,5.224,5.224,0,0,0,4.223-5.272c.021-2.726.005-5.452.005-8.178,0-.708,0-1.416,0-2.168Zm10.421-19.834h-10.41v9.124h10.41Zm-5.159-30.5V2.661c-2.092,0-4.183,0-6.275,0-1.056,0-1.663.477-1.68,1.289s.6,1.339,1.631,1.34q6.275.005,12.55-.007c1.04,0,1.662-.519,1.645-1.327s-.625-1.286-1.679-1.289c-2.064-.005-4.128,0-6.192,0" transform="translate(-227.062 0)" fill="#12263f"/>
        <path id="Trazado_711921" data-name="Trazado 711921" d="M32.128,360.553h3.92c0,1.593,0,3.154,0,4.715,0,1.452.41,1.863,1.859,1.865q10.081.01,20.162.015c1.437,0,1.848-.421,1.85-1.873,0-1.54,0-3.08,0-4.68h3.85c.014.277.039.544.039.812q0,8.513,0,17.026c0,1.459-.407,1.868-1.858,1.868q-13.965,0-27.929,0c-1.469,0-1.876-.4-1.877-1.848q-.009-8.471-.015-16.943c0-.3,0-.595,0-.957" transform="translate(-26.817 -300.953)" fill="#fff"/>
        <path id="Trazado_711922" data-name="Trazado 711922" d="M63.908,230.8H60.014v-.891q0-4.628,0-9.256c0-1.294-.441-1.736-1.731-1.736q-10.163,0-20.326.006c-1.334,0-1.753.433-1.755,1.794,0,3.33,0,6.661,0,10.052H32.281V208.383H63.908Z" transform="translate(-26.945 -173.937)" fill="#fff"/>
        <path id="Trazado_711923" data-name="Trazado 711923" d="M90.788,320.454H72.438v-7.807h18.35Zm-13.156-5.187h-2.6v2.569h2.6Zm5.3-.014h-2.6v2.568h2.6Zm2.684,2.585h2.6v-2.615h-2.6Z" transform="translate(-60.464 -260.966)" fill="#ffa031"/>
        <path id="Trazado_711924" data-name="Trazado 711924" d="M34.828,176.316H51.262a5.85,5.85,0,0,1,.742.014,1.293,1.293,0,0,1,1.184,1.266,1.27,1.27,0,0,1-1.1,1.258,3.4,3.4,0,0,1-.74.035q-16.6,0-33.2,0c-.11,0-.22,0-.33,0-.92-.022-1.536-.514-1.561-1.245-.026-.772.6-1.324,1.556-1.325q8.506-.009,17.012,0" transform="translate(-13.572 -147.168)" fill="#fff"/>
        <path id="Trazado_711927" data-name="Trazado 711927" d="M58.9,131.146c0,.634-.013,1.268,0,1.9.012.457-.178.646-.638.641-2.249-.023-1.819.215-1.854-1.733-.016-.909.013-1.819-.008-2.727-.011-.5.182-.691.681-.684,2.165.028,1.779-.207,1.814,1.693.005.3,0,.606,0,.909" transform="translate(-47.079 -107.296)" fill="#fff"/>
        <path id="Trazado_711928" data-name="Trazado 711928" d="M90.909,131.153c0,.634-.013,1.268,0,1.9.012.461-.189.639-.644.635-2.237-.022-1.814.213-1.848-1.74-.016-.909.013-1.818-.008-2.727-.012-.5.2-.684.688-.677,2.156.028,1.772-.208,1.807,1.7.005.3,0,.606,0,.909" transform="translate(-73.797 -107.296)" fill="#fff"/>
        <path id="Trazado_711929" data-name="Trazado 711929" d="M120.432,131.069c0-.606.022-1.213-.007-1.818-.026-.546.207-.725.734-.716,2.074.034,1.737-.2,1.76,1.664.012.909-.023,1.819.011,2.727.022.585-.212.77-.777.759-2.025-.04-1.69.206-1.721-1.707,0-.3,0-.606,0-.909" transform="translate(-100.517 -107.287)" fill="#fff"/>
        <path id="Trazado_711930" data-name="Trazado 711930" d="M154.919,131.14c0,.606-.022,1.213.006,1.818.027.546-.206.725-.733.716-2.076-.034-1.736.2-1.761-1.664-.012-.909.023-1.819-.01-2.727-.022-.585.212-.77.777-.759,2.023.04,1.692-.207,1.72,1.707,0,.3,0,.606,0,.909" transform="translate(-127.225 -107.279)" fill="#fff"/>
        <path id="Trazado_711931" data-name="Trazado 711931" d="M184.413,131.046a15.78,15.78,0,0,1,.026-1.9c.027-.224.354-.415.553-.612.028-.028.106-.005.161,0,2.056.017,1.722-.21,1.746,1.671.012.936-.008,1.873.006,2.81.007.443-.15.662-.621.657-2.274-.021-1.83.214-1.872-1.715-.007-.3,0-.606,0-.909" transform="translate(-153.916 -107.278)" fill="#fff"/>
        <path id="Trazado_711932" data-name="Trazado 711932" d="M216.455,131.079c0-.631.018-1.262-.005-1.892-.019-.53.254-.659.717-.632a1.977,1.977,0,0,1,1.777,1.866c0,.877-.01,1.755,0,2.632.008.452-.173.646-.632.641-2.251-.021-1.82.213-1.861-1.711-.006-.3,0-.6,0-.9" transform="translate(-180.667 -107.302)" fill="#fff"/>
        <path id="Trazado_711933" data-name="Trazado 711933" d="M26.88,131.172v.906c0,1.687-.326,1.96-2.023,1.6a.735.735,0,0,1-.444-.534c-.043-1.041-.046-2.086-.011-3.128a2.146,2.146,0,0,1,2.079-1.417.8.8,0,0,1,.38.594c.049.655.018,1.316.019,1.975" transform="translate(-20.348 -107.317)" fill="#fff"/>
        <line id="Línea_2424" data-name="Línea 2424" y2="26.396" transform="translate(79.283 52.933)" fill="#fff"/>
        <path id="Trazado_711935" data-name="Trazado 711935" d="M352.132,320.61h10.479v2.168c0,2.726.016,5.452-.005,8.178a5.224,5.224,0,0,1-4.223,5.272,5.077,5.077,0,0,1-6.2-4.687c-.2-3.616-.047-7.254-.047-10.932" transform="translate(-293.876 -267.613)" fill="#4db1f0"/>
        <rect id="Rectángulo_346616" data-name="Rectángulo 346616" width="10.41" height="9.124" transform="translate(58.267 33.163)" fill="#4db1f0"/>
        <rect id="Rectángulo_346617" data-name="Rectángulo 346617" width="2.599" height="2.569" transform="translate(14.569 54.3)" fill="#12263f"/>
        <rect id="Rectángulo_346618" data-name="Rectángulo 346618" width="2.598" height="2.568" transform="translate(19.875 54.286)" fill="#12263f"/>
        <rect id="Rectángulo_346619" data-name="Rectángulo 346619" width="2.601" height="2.615" transform="translate(25.157 54.256)" fill="#12263f"/>
        <rect id="Rectángulo_346620" data-name="Rectángulo 346620" width="2.548" height="7.854" transform="translate(64.864 10.64)" fill="#12263f"/>
      </g>
    </g>
  </g>
</svg>
