<svg id="Grupo_1005252" data-name="Grupo 1005252" xmlns="http://www.w3.org/2000/svg" xmlns:xlink="http://www.w3.org/1999/xlink" width="61.398" height="61.413" viewBox="0 0 61.398 61.413">
  <defs>
    <clipPath id="clip-path">
      <rect id="Rectángulo_347509" data-name="Rectángulo 347509" width="61.398" height="61.413" fill="none"/>
    </clipPath>
  </defs>
  <g id="Grupo_1005251" data-name="Grupo 1005251" clip-path="url(#clip-path)">
    <path id="Trazado_715291" data-name="Trazado 715291" d="M30.667,61.412H1.4c-1.164,0-1.4-.234-1.4-1.4Q0,30.706,0,1.4C0,.231.232,0,1.4,0H60c1.164,0,1.4.234,1.4,1.4q0,29.308,0,58.615c0,1.165-.235,1.4-1.4,1.4H30.667M1.841,56.45h8.818v-.868q0-12.987,0-25.973c0-1.114.255-1.364,1.376-1.364H31.721c1.15,0,1.386.24,1.387,1.416q0,3.627,0,7.254c0,.227.024.454.036.666,1.164.158,1.528.383,1.5.957-.049.949-.825.888-1.5.973v7.552c.676.065,1.5-.011,1.49.949s-.84.858-1.489.966v7.463H59.555V4.958H1.841Zm29.411-9.409V39.493c-.666-.065-1.446.014-1.481-.906-.039-1.028.841-.885,1.489-1V30.091H12.517V56.445H31.253v-7.45c-1.209-.212-1.506-.417-1.5-1.011s.315-.78,1.494-.942M1.843,3.065H59.533V1.845H1.843Zm0,56.491H59.534V58.334H1.844Z" transform="translate(0 0)"/>
    <path id="Trazado_715292" data-name="Trazado 715292" d="M116.447,61.927c.028-.263-.023-.522.083-.635.243-.26.561-.615.851-.618s.592.367.868.6c.06.05.041.2.045.312.019.489-.163,1.171.089,1.428a9.443,9.443,0,0,0,1.985,1.224c0-.855.017-1.583-.014-2.308a.7.7,0,0,0-.3-.428c-.242-.176-.525-.3-.784-.45A.9.9,0,0,1,120,59.4c.1.027.2.067.328.111.121-.711-.19-1.674.978-1.716.619-.022.808.349.914,1.632.034.015.074.048.1.04.734-.205,1.177-.072,1.376.418.206.505.021.976-.669,1.274a1.247,1.247,0,0,0-.857,1.491,12.655,12.655,0,0,1,.012,1.58c.744-.429,1.4-.793,2.031-1.184a.553.553,0,0,0,.168-.376,6.667,6.667,0,0,0,.007-.711c0-.771.247-1.138.794-1.2.576-.066.905.252,1.071,1.072.637-.245,1.363-.9,1.884.043.506.92-.4,1.193-.979,1.619.135.126.247.217.344.323a.841.841,0,0,1,.107,1.123c-.28.415-.788.6-1.121.289-1.149-1.085-2.012-.237-2.939.319-.11.066-.223.128-.453.261.742.425,1.411.822,2.1,1.186.095.051.285-.037.413-.1.272-.13.527-.295.8-.429a.847.847,0,0,1,1.149.26.827.827,0,0,1-.059,1.124,2.481,2.481,0,0,1-.321.263c.606.47,1.623.768,1,1.726-.633.98-1.359.111-2.054-.153a3.787,3.787,0,0,1-.116.577.851.851,0,0,1-.945.622c-.459-.052-.871-.369-.776-.794.382-1.715-.918-2.061-2.1-2.661,0,.788-.012,1.526.013,2.263,0,.108.162.235.278.309.253.164.524.3.787.447a.873.873,0,0,1,.439,1.2.833.833,0,0,1-1.188.438c-.079-.032-.161-.055-.289-.1-.11.725.159,1.7-1.008,1.737-.588.019-.772-.374-.89-1.7-.164.049-.348.173-.473.129a2.055,2.055,0,0,1-.951-.493.782.782,0,0,1,.225-1.091.157.157,0,0,1,.051-.038c1.342-.357,1.266-1.4,1.191-2.449-.014-.192,0-.386,0-.706-.738.427-1.406.8-2.056,1.2-.095.058-.129.252-.146.389a4.973,4.973,0,0,0-.005.582c0,.745-.268,1.145-.8,1.212s-.876-.245-1.036-.871a14.528,14.528,0,0,1-1.583.283c-.14.011-.376-.241-.445-.419-.411-1.065.591-1.205,1.161-1.682-.149-.131-.3-.244-.425-.375a.847.847,0,0,1-.135-1.12.83.83,0,0,1,1.066-.36.445.445,0,0,1,.174.081c.89.914,1.738.57,2.586-.072.186-.141.4-.245.706-.432-.75-.433-1.421-.832-2.106-1.2a.587.587,0,0,0-.417.036,3.152,3.152,0,0,0-.509.281c-.487.3-.982.416-1.39-.091a.871.871,0,0,1,.163-1.308,10.579,10.579,0,0,1-.87-1.117.7.7,0,0,1,.136-.6c.671-.85,1.3-.145,2,.13" transform="translate(-99.389 -50.295)"/>
    <path id="Trazado_715293" data-name="Trazado 715293" d="M321.523,59.907q3.332,0,6.664,0c1.04,0,1.315.268,1.316,1.285q0,6.407,0,12.814c0,.991-.283,1.284-1.261,1.285q-6.761.005-13.522,0c-.993,0-1.279-.286-1.28-1.262q0-6.439,0-12.878c0-.948.288-1.241,1.225-1.242q3.429,0,6.858,0m-6.23,13.525h12.358V61.744H315.294Z" transform="translate(-272.768 -52.133)"/>
    <path id="Trazado_715294" data-name="Trazado 715294" d="M435.226,321.383c0-.689-.014-1.379,0-2.068a.9.9,0,1,1,1.8,0q.023,2.1,0,4.2a.9.9,0,1,1-1.8,0c-.016-.711,0-1.422,0-2.133" transform="translate(-378.748 -277.045)"/>
    <path id="Trazado_715295" data-name="Trazado 715295" d="M348.43,89.9c-.969,0-1.938.007-2.906,0-.7-.007-1.1-.349-1.089-.909.009-.531.4-.891,1.053-.9q2.971-.02,5.941,0a.924.924,0,0,1,1.027.922c-.009.53-.4.872-1.055.88-.99.012-1.98,0-2.971,0" transform="translate(-299.742 -76.657)"/>
    <path id="Trazado_715296" data-name="Trazado 715296" d="M348.41,113.869c-.969,0-1.938.008-2.906,0-.671-.007-1.053-.324-1.076-.858-.023-.553.387-.942,1.066-.947q2.938-.02,5.877,0c.682,0,1.1.388,1.078.938-.017.528-.409.86-1.069.867-.99.011-1.98,0-2.971,0" transform="translate(-299.736 -97.513)"/>
    <path id="Trazado_715297" data-name="Trazado 715297" d="M348.437,137.837c-.969,0-1.937.007-2.906,0-.7-.007-1.1-.344-1.1-.9s.411-.9,1.109-.905q2.906-.015,5.812,0c.69,0,1.1.369,1.1.917s-.406.883-1.111.889c-.969.009-1.937,0-2.906,0" transform="translate(-299.741 -118.371)"/>
  </g>
</svg>
