<svg id="Grupo_1005250" data-name="Grupo 1005250" xmlns="http://www.w3.org/2000/svg" xmlns:xlink="http://www.w3.org/1999/xlink" width="80.072" height="85.137" viewBox="0 0 80.072 85.137">
  <defs>
    <clipPath id="clip-path">
      <rect id="Rectángulo_347508" data-name="Rectángulo 347508" width="80.072" height="85.137" fill="none"/>
    </clipPath>
  </defs>
  <g id="Grupo_1005249" data-name="Grupo 1005249" clip-path="url(#clip-path)">
    <path id="Trazado_715277" data-name="Trazado 715277" d="M61.33,0a12.177,12.177,0,0,1,1.383.7,4.116,4.116,0,0,1,1.9,3.587c.017,3.214.012,6.429,0,9.643,0,.963-.5,1.536-1.268,1.53s-1.217-.575-1.219-1.555c-.006-3.021,0-6.041,0-9.061,0-1.808-.531-2.345-2.313-2.345-16.1,0-32.2.028-48.3-.028C8.838,2.456,8.549,3.546,8.867,5.79H9.908c14.715,0,29.429.044,44.143-.036A4.556,4.556,0,0,1,58.869,10.6c-.061,21.7-.034,43.4-.034,65.093v1.155c.586,0,1.1.019,1.621,0a1.628,1.628,0,0,0,1.635-1.47,6.66,6.66,0,0,0,.036-.995q0-26.686,0-53.372c0-.277-.007-.555,0-.831.031-.849.5-1.378,1.226-1.38a1.284,1.284,0,0,1,1.261,1.369c.011.166,0,.332,0,.5q0,27.018,0,54.037c0,2.465-1.354,4.3-3.469,4.582a22.149,22.149,0,0,1-2.792.019c0,.607.009,1.12,0,1.632a4.132,4.132,0,0,1-4.23,4.2q-24.9.015-49.8,0a4.15,4.15,0,0,1-4.3-4.311C0,77.05.016,73.281.026,69.513c0-1,.459-1.53,1.246-1.534.8,0,1.237.507,1.239,1.52.008,3.6,0,7.2,0,10.807,0,1.8.533,2.335,2.321,2.335H53.553c1.818,0,2.315-.5,2.315-2.317q0-34.875,0-69.749c0-1.822-.477-2.291-2.324-2.291H4.827c-1.812,0-2.312.5-2.312,2.329q0,25.937,0,51.875a8.884,8.884,0,0,1-.032,1.079,1.121,1.121,0,0,1-1.115,1.039,1.119,1.119,0,0,1-1.249-.871,3.821,3.821,0,0,1-.092-.986c0-17.43.017-34.861-.024-52.291-.007-2.9,2.054-4.9,4.71-4.674.488.042.983.006,1.566.006,0-.528,0-.963,0-1.4A4.139,4.139,0,0,1,9.338.154,1.749,1.749,0,0,0,9.617,0Z" transform="translate(-0.001)"/>
    <path id="Trazado_715278" data-name="Trazado 715278" d="M419.178,169.056c0,5.652.014,11.3-.019,16.955a4.614,4.614,0,0,1-.44,1.9c-1.166,2.447-2.413,4.856-3.609,7.288a2.159,2.159,0,0,1-4.164.015c-1.237-2.505-2.5-5-3.721-7.51a3.193,3.193,0,0,1-.312-1.344q-.025-17.371-.01-34.741a2.773,2.773,0,0,1,3.041-3.045q3.034-.013,6.067,0a2.848,2.848,0,0,1,3.164,3.2q.01,8.644,0,17.287m-2.546-10.142h-7.177v26.577h7.177Zm.04-2.587c0-1.643.015-3.239-.025-4.834,0-.147-.358-.407-.553-.41q-3.069-.045-6.14,0c-.187,0-.528.269-.531.42-.039,1.594-.024,3.19-.024,4.823Zm-6.512,31.7,2.871,5.747,2.856-5.747Z" transform="translate(-339.109 -123.815)"/>
    <path id="Trazado_715279" data-name="Trazado 715279" d="M70.808,88.764q0,5.36,0,10.72a2.937,2.937,0,0,1-3.223,3.261q-10.72.009-21.44,0A2.967,2.967,0,0,1,42.882,99.5q-.009-10.72,0-21.44a2.948,2.948,0,0,1,3.242-3.25q10.72-.006,21.44,0a2.915,2.915,0,0,1,3.243,3.229q.009,5.36,0,10.72m-13.9,11.49c3.462,0,6.924-.022,10.385.016.8.009,1.038-.244,1.035-1.041q-.04-10.468,0-20.937c0-.751-.2-1-.98-1q-10.468.042-20.937,0c-.792,0-1.057.22-1.054,1.03q.039,10.468,0,20.937c0,.755.227,1.017,1,1.01,3.517-.033,7.034-.014,10.551-.014" transform="translate(-35.734 -62.348)"/>
    <path id="Trazado_715280" data-name="Trazado 715280" d="M64.493,386q0,2.227,0,4.454a1.22,1.22,0,0,1-1.339,1.355q-4.455,0-8.909,0a1.233,1.233,0,0,1-1.355-1.347q0-4.455,0-8.909a1.225,1.225,0,0,1,1.347-1.35q4.455,0,8.909,0a1.211,1.211,0,0,1,1.347,1.342q0,2.227,0,4.454m-5.775,4.775c1.438,0,2.877-.009,4.315.007.334,0,.431-.1.43-.433q-.017-4.35,0-8.7c0-.312-.082-.418-.408-.416q-4.35.017-8.7,0c-.329,0-.439.092-.438.428q.016,4.35,0,8.7c0,.314.094.423.415.42,1.461-.014,2.923-.006,4.385-.006" transform="translate(-44.076 -316.863)"/>
    <path id="Trazado_715281" data-name="Trazado 715281" d="M64.941,356.242H85.129a5.386,5.386,0,0,1,.747.014,1.231,1.231,0,0,1,.146,2.424,3.586,3.586,0,0,1-.908.054q-20.147,0-40.294,0c-.138,0-.277,0-.415,0-.89-.033-1.459-.528-1.455-1.263s.57-1.225,1.47-1.226q6.979-.008,13.957,0h6.563" transform="translate(-35.794 -296.886)"/>
    <path id="Trazado_715282" data-name="Trazado 715282" d="M65.062,271.233h20.1c.277,0,.625-.095.815.036A2.6,2.6,0,0,1,87,272.3a1.017,1.017,0,0,1-.735,1.3,2.653,2.653,0,0,1-.893.121q-20.312.008-40.625,0a2.951,2.951,0,0,1-.821-.075,1.149,1.149,0,0,1-.9-1.24,1.161,1.161,0,0,1,1.094-1.159,6.653,6.653,0,0,1,.83-.016h20.1" transform="translate(-35.861 -226.017)"/>
    <path id="Trazado_715283" data-name="Trazado 715283" d="M64.945,316.217h-20.1c-1.27,0-1.88-.406-1.879-1.24s.625-1.253,1.88-1.253q20.144,0,40.287,0a4.251,4.251,0,0,1,.827.045,1.146,1.146,0,0,1,1.027,1.29,1.133,1.133,0,0,1-1.109,1.132,8.331,8.331,0,0,1-.912.024H64.945" transform="translate(-35.806 -261.456)"/>
    <path id="Trazado_715284" data-name="Trazado 715284" d="M147.934,429.675H135.384a5.967,5.967,0,0,1-.747-.013,1.155,1.155,0,0,1-1.118-1.13,1.169,1.169,0,0,1,1.009-1.313,3.6,3.6,0,0,1,.828-.036q12.634,0,25.268,0a5.771,5.771,0,0,1,.664.012,1.239,1.239,0,0,1,1.173,1.268,1.2,1.2,0,0,1-1.226,1.2c-1.107.029-2.216.01-3.324.01h-9.974" transform="translate(-111.269 -356.007)"/>
    <path id="Trazado_715285" data-name="Trazado 715285" d="M233.069,156.209c-1.744,0-3.489.005-5.233,0-.974,0-1.518-.471-1.5-1.262.014-.754.549-1.222,1.469-1.224q5.274-.014,10.549,0c.908,0,1.454.485,1.464,1.232.011.785-.54,1.251-1.514,1.254-1.744.007-3.489,0-5.233,0" transform="translate(-188.625 -128.104)"/>
    <path id="Trazado_715286" data-name="Trazado 715286" d="M62.135,391.186c-1.187-1.187-2.377-2.37-3.559-3.561-.66-.666-.712-1.353-.164-1.881a1.218,1.218,0,0,1,1.833.167q3.6,3.579,7.176,7.176a1.226,1.226,0,0,1,.158,1.835c-.526.541-1.218.483-1.883-.177q-1.787-1.773-3.561-3.559" transform="translate(-48.369 -321.191)"/>
    <path id="Trazado_715287" data-name="Trazado 715287" d="M62.157,389.447c1.187-1.187,2.37-2.377,3.561-3.559.666-.66,1.353-.712,1.881-.164a1.218,1.218,0,0,1-.167,1.833q-3.579,3.6-7.177,7.176a1.226,1.226,0,0,1-1.834.158c-.541-.526-.483-1.218.177-1.883q1.773-1.787,3.559-3.561" transform="translate(-48.383 -321.149)"/>
    <path id="Trazado_715288" data-name="Trazado 715288" d="M232.855,113.847c-1.771,0-3.543.026-5.313-.009-1.107-.022-1.742-1.056-1.139-1.862a1.6,1.6,0,0,1,1.1-.583c3.625-.043,7.25-.038,10.875-.017a1.192,1.192,0,0,1,1.3,1.208,1.214,1.214,0,0,1-1.344,1.257c-1.826.025-3.653.008-5.479.008" transform="translate(-188.489 -92.806)"/>
    <path id="Trazado_715289" data-name="Trazado 715289" d="M233.03,201.527c-1.716,0-3.432.01-5.147,0-1.013-.008-1.533-.441-1.543-1.228s.52-1.252,1.515-1.255q5.23-.015,10.461,0c.983,0,1.521.481,1.5,1.269-.016.757-.528,1.2-1.476,1.212-1.771.018-3.542.005-5.314.005" transform="translate(-188.63 -165.873)"/>
    <path id="Trazado_715290" data-name="Trazado 715290" d="M99.917,118.281a17.538,17.538,0,0,0-.242-2.428,3.574,3.574,0,0,0-6.992.542c-.086.962-.033,1.936-.061,2.9-.026.9-.513,1.464-1.241,1.467s-1.221-.555-1.241-1.461c-.018-.858-.025-1.717.008-2.574.075-1.947.476-2.741,2.368-4.837a5.716,5.716,0,1,1,7.3.1,4.451,4.451,0,0,1,.6.408,5.968,5.968,0,0,1,1.912,4.195c.043.912.029,1.827.01,2.74a1.286,1.286,0,0,1-1.445,1.432c-1.19.017-2.381.02-3.571,0a1.247,1.247,0,1,1,.029-2.482c.8-.017,1.595,0,2.568,0m-3.664-13.956a3.194,3.194,0,1,0,3.168,3.176,3.2,3.2,0,0,0-3.168-3.176" transform="translate(-75.111 -84.87)"/>
  </g>
</svg>
