<svg id="Grupo_1005864" data-name="Grupo 1005864" xmlns="http://www.w3.org/2000/svg" xmlns:xlink="http://www.w3.org/1999/xlink" width="338.606" height="336.582" viewBox="0 0 338.606 336.582">
  <defs>
    <clipPath id="clip-path">
      <rect id="Rectángulo_347847" data-name="Rectángulo 347847" width="338.606" height="336.582" fill="none"/>
    </clipPath>
  </defs>
  <g id="Grupo_1005853" data-name="Grupo 1005853">
    <g id="Grupo_1005852" data-name="Grupo 1005852" clip-path="url(#clip-path)">
      <path id="Trazado_716631" data-name="Trazado 716631" d="M409.016,164.9c.647-4.7-5.985-8.565-10.969-8.967-2.376-.192-4.845.172-7.1-.613-4.878-1.7-6.827-8-11.587-10.01-3.558-1.5-7.655-.165-11.1,1.572s-6.859,3.922-10.714,4.168c-3.352.215-6.993-1.028-9.926.609-2.186,1.22-3.331,3.739-5.345,5.224-1.971,1.454-4.542,1.762-6.987,1.895s-4.977.158-7.2,1.177-4.069,3.374-3.607,5.779Z" transform="translate(-80.694 -35.983)" fill="#ebebeb"/>
      <path id="Trazado_716632" data-name="Trazado 716632" d="M97.284,137.57c.587-4.266-5.433-7.775-9.957-8.14-2.157-.174-4.4.156-6.442-.556-4.428-1.544-6.2-7.264-10.518-9.086-3.23-1.363-6.948-.15-10.08,1.427S54.06,124.773,50.562,125c-3.043.195-6.347-.934-9.01.553-1.984,1.107-3.024,3.393-4.852,4.743-1.789,1.319-4.123,1.6-6.343,1.72s-4.517.143-6.539,1.068-3.693,3.063-3.274,5.246Z" transform="translate(-5.094 -29.649)" fill="#ebebeb"/>
      <path id="Trazado_716633" data-name="Trazado 716633" d="M157.206,106.842a7.549,7.549,0,0,1-.573.663,14.394,14.394,0,0,0-1.409,1.912,13.947,13.947,0,0,0-2.092,7.424c0,.032,0,.065,0,.094l-.258.021a12.471,12.471,0,0,0-3.417-6.813,17.248,17.248,0,0,0-2.5-2.024.771.771,0,0,1,.205.094c.128.073.326.165.559.322a11.111,11.111,0,0,1,1.862,1.478,12.267,12.267,0,0,1,3.545,6.9l-.258.022c0-.03,0-.063,0-.1a13.657,13.657,0,0,1,2.2-7.526,12.328,12.328,0,0,1,1.488-1.882c.192-.209.363-.349.47-.452s.172-.149.178-.142" transform="translate(-36.555 -26.576)" fill="#e0e0e0"/>
      <path id="Trazado_716634" data-name="Trazado 716634" d="M164.99,443.327a8.558,8.558,0,0,0-12.549-7.287,6.519,6.519,0,0,0-12.887,1.9,7.4,7.4,0,0,0-8.576,3.318,9.132,9.132,0,0,0-3.861-7.472,14.032,14.032,0,0,0-8.248-2.474,8.479,8.479,0,0,0-5.42,1.508c-1.49,1.2-2.227,3.484-1.209,5.1a7.837,7.837,0,0,0-7.368,5.5Z" transform="translate(-26.086 -107.148)" fill="#ebebeb"/>
      <path id="Trazado_716635" data-name="Trazado 716635" d="M260.085,443.327a8.558,8.558,0,0,0-12.549-7.287,6.519,6.519,0,0,0-12.887,1.9,7.4,7.4,0,0,0-8.576,3.318,9.132,9.132,0,0,0-3.861-7.472,14.032,14.032,0,0,0-8.248-2.474,8.479,8.479,0,0,0-5.42,1.508c-1.49,1.2-2.227,3.484-1.209,5.1a7.837,7.837,0,0,0-7.368,5.5Z" transform="translate(-49.741 -107.148)" fill="#ebebeb"/>
      <path id="Trazado_716636" data-name="Trazado 716636" d="M362.354,443.327a8.558,8.558,0,0,0-12.549-7.287,6.52,6.52,0,0,0-12.888,1.9,7.4,7.4,0,0,0-8.575,3.318,9.132,9.132,0,0,0-3.861-7.472,14.032,14.032,0,0,0-8.248-2.474,8.48,8.48,0,0,0-5.42,1.508c-1.49,1.2-2.227,3.484-1.209,5.1a7.837,7.837,0,0,0-7.368,5.5Z" transform="translate(-75.179 -107.148)" fill="#ebebeb"/>
      <path id="Trazado_716637" data-name="Trazado 716637" d="M129.746,424.669a3.462,3.462,0,0,0-.539-1.636,1.536,1.536,0,0,0-.485-.512.746.746,0,0,0-.681-.065.724.724,0,0,0-.374.7,1.268,1.268,0,0,0,.359.748,2.27,2.27,0,0,0,1.721.761" transform="translate(-31.755 -105.069)" fill="#ebebeb"/>
    </g>
  </g>
  <g id="Grupo_1005855" data-name="Grupo 1005855">
    <g id="Grupo_1005854" data-name="Grupo 1005854" clip-path="url(#clip-path)">
      <path id="Trazado_716638" data-name="Trazado 716638" d="M32.22,100.592l.9,1.188a33.67,33.67,0,0,0,32.246,13.182,32.535,32.535,0,0,0,4.663-1.138A35.35,35.35,0,0,0,92.84,89.452c1.722-6.646,1.626-14.082,5.623-19.628,5.2-7.219,15.172-8.458,23.985-9.092s18.787-1.9,23.958-9.143c3.238-4.535,3.793-10.566,2.922-16.1-2.306-14.656-13.936-26.77-27.672-31.971s-29.171-4.2-43.167.161c-19.6,6.105-37.5,19.157-47.174,37.459s-10.162,41.925.9,59.455" transform="translate(-5.967 0)" fill="#f5f5f5"/>
      <path id="Trazado_716639" data-name="Trazado 716639" d="M417.753,171.221A28.317,28.317,0,1,1,389.435,142.9a28.316,28.316,0,0,1,28.317,28.317" transform="translate(-89.826 -35.546)" fill="#f5f5f5"/>
    </g>
  </g>
  <g id="Grupo_1005857" data-name="Grupo 1005857">
    <g id="Grupo_1005856" data-name="Grupo 1005856" clip-path="url(#clip-path)">
      <path id="Trazado_716640" data-name="Trazado 716640" d="M146.5,405.99a7.2,7.2,0,1,1-7.2-7.2,7.2,7.2,0,0,1,7.2,7.2" transform="translate(-32.86 -99.196)" fill="#263238"/>
      <path id="Trazado_716641" data-name="Trazado 716641" d="M147.585,405.42a17.413,17.413,0,0,0-.353-2.158,8.876,8.876,0,0,0-3.251-4.817,8.747,8.747,0,0,0-8.283-1.228,8.755,8.755,0,0,0-4.049,3.047,8.691,8.691,0,0,0,0,10.31,8.757,8.757,0,0,0,4.05,3.048,8.825,8.825,0,0,0,11.536-6.045,17.481,17.481,0,0,0,.352-2.158,3.111,3.111,0,0,1,.011.57,4.015,4.015,0,0,1-.051.691,6.294,6.294,0,0,1-.165.933,8.983,8.983,0,0,1-7.033,6.721,9.09,9.09,0,0,1-4.773-.374,9.093,9.093,0,0,1-4.236-3.16,9.04,9.04,0,0,1,0-10.763,9.078,9.078,0,0,1,4.235-3.159,9.09,9.09,0,0,1,4.773-.374,8.986,8.986,0,0,1,7.033,6.72,6.3,6.3,0,0,1,.165.934,4.015,4.015,0,0,1,.051.691,3.112,3.112,0,0,1-.011.57" transform="translate(-32.228 -98.589)" fill="#263238"/>
      <path id="Trazado_716642" data-name="Trazado 716642" d="M132.237,408.916a23.753,23.753,0,0,1,6.2-.918,8.537,8.537,0,0,1,5.755,2.153c1.708,1.659,2.35,4.109,2.79,6.45a115.433,115.433,0,0,1,1.481,21.27h-14.49l.107-24.719a5.819,5.819,0,0,1-1.846-4.236" transform="translate(-32.893 -101.485)" fill="#455a64"/>
      <path id="Trazado_716643" data-name="Trazado 716643" d="M242.12,405.99a7.2,7.2,0,1,1-7.2-7.2,7.2,7.2,0,0,1,7.2,7.2" transform="translate(-56.644 -99.196)" fill="#263238"/>
      <path id="Trazado_716644" data-name="Trazado 716644" d="M243.2,405.42a17.481,17.481,0,0,0-.352-2.158,8.882,8.882,0,0,0-3.252-4.817,8.747,8.747,0,0,0-8.283-1.228,8.766,8.766,0,0,0-4.049,3.047,8.69,8.69,0,0,0,0,10.31,8.75,8.75,0,0,0,4.049,3.048,8.825,8.825,0,0,0,11.536-6.045,17.484,17.484,0,0,0,.352-2.158,3.115,3.115,0,0,1,.011.57,4.015,4.015,0,0,1-.051.691,6.1,6.1,0,0,1-.165.933,8.983,8.983,0,0,1-7.033,6.721,9.09,9.09,0,0,1-4.773-.374,9.093,9.093,0,0,1-4.236-3.16,9.04,9.04,0,0,1,0-10.763,9.088,9.088,0,0,1,4.235-3.159,9.09,9.09,0,0,1,4.773-.374,8.983,8.983,0,0,1,7.033,6.72,6.2,6.2,0,0,1,.165.934,4.015,4.015,0,0,1,.051.691,3.115,3.115,0,0,1-.011.57" transform="translate(-56.012 -98.589)" fill="#263238"/>
      <path id="Trazado_716645" data-name="Trazado 716645" d="M227.855,408.916a23.754,23.754,0,0,1,6.2-.918,8.537,8.537,0,0,1,5.755,2.153c1.708,1.659,2.35,4.109,2.79,6.45a115.434,115.434,0,0,1,1.481,21.27h-14.49l.107-24.719a5.819,5.819,0,0,1-1.846-4.236" transform="translate(-56.677 -101.485)" fill="#455a64"/>
      <path id="Trazado_716646" data-name="Trazado 716646" d="M339.1,405.99a7.2,7.2,0,1,1-7.2-7.2,7.2,7.2,0,0,1,7.2,7.2" transform="translate(-80.768 -99.196)" fill="#263238"/>
      <path id="Trazado_716647" data-name="Trazado 716647" d="M340.187,405.42a17.421,17.421,0,0,0-.353-2.158,8.874,8.874,0,0,0-3.252-4.817,8.746,8.746,0,0,0-8.283-1.228,8.759,8.759,0,0,0-4.049,3.047,8.691,8.691,0,0,0,0,10.31,8.76,8.76,0,0,0,4.049,3.048,8.825,8.825,0,0,0,11.536-6.045,17.486,17.486,0,0,0,.352-2.158,3.117,3.117,0,0,1,.011.57,4.1,4.1,0,0,1-.051.691,6.3,6.3,0,0,1-.165.933,8.983,8.983,0,0,1-7.033,6.721,9.091,9.091,0,0,1-4.773-.374,9.093,9.093,0,0,1-4.236-3.16,9.042,9.042,0,0,1,0-10.763,9.071,9.071,0,0,1,4.234-3.159,9.09,9.09,0,0,1,4.773-.374,8.986,8.986,0,0,1,7.033,6.72,6.313,6.313,0,0,1,.165.934,4.1,4.1,0,0,1,.051.691,3.117,3.117,0,0,1-.011.57" transform="translate(-80.136 -98.589)" fill="#263238"/>
      <path id="Trazado_716648" data-name="Trazado 716648" d="M324.838,408.916a23.753,23.753,0,0,1,6.2-.918,8.537,8.537,0,0,1,5.755,2.153c1.708,1.659,2.35,4.109,2.79,6.45a115.366,115.366,0,0,1,1.48,21.27H326.577l.107-24.719a5.819,5.819,0,0,1-1.846-4.236" transform="translate(-80.801 -101.485)" fill="#455a64"/>
      <path id="Trazado_716649" data-name="Trazado 716649" d="M327.87,447.7c0,.108-62.2.2-138.91.2-76.736,0-138.923-.087-138.923-.2s62.186-.2,138.923-.2c76.71,0,138.91.087,138.91.2" transform="translate(-12.447 -111.313)" fill="#455a64"/>
      <path id="Trazado_716650" data-name="Trazado 716650" d="M140.519,434.422a84.051,84.051,0,0,1,0-11.454,84.051,84.051,0,0,1,0,11.454" transform="translate(-34.905 -105.21)" fill="#263238"/>
      <path id="Trazado_716651" data-name="Trazado 716651" d="M144.819,438.966a73.349,73.349,0,0,1,0-10.72,73.641,73.641,0,0,1,0,10.72" transform="translate(-35.974 -106.523)" fill="#263238"/>
      <path id="Trazado_716652" data-name="Trazado 716652" d="M237.468,436.421a44.928,44.928,0,0,1,0-8.37,44.928,44.928,0,0,1,0,8.37" transform="translate(-59.02 -106.474)" fill="#263238"/>
      <path id="Trazado_716653" data-name="Trazado 716653" d="M240.009,441.909c-.108,0-.2-3.978-.2-8.884s.087-8.884.2-8.884.2,3.977.2,8.884-.087,8.884-.2,8.884" transform="translate(-59.652 -105.502)" fill="#263238"/>
      <path id="Trazado_716654" data-name="Trazado 716654" d="M333.44,435.931a41.833,41.833,0,0,1,0-8.076,41.833,41.833,0,0,1,0,8.076" transform="translate(-82.892 -106.426)" fill="#263238"/>
      <path id="Trazado_716655" data-name="Trazado 716655" d="M336.763,436.329a95.148,95.148,0,0,1,0-12.188,95.163,95.163,0,0,1,0,12.188" transform="translate(-83.719 -105.502)" fill="#263238"/>
    </g>
  </g>
  <g id="Grupo_1005859" data-name="Grupo 1005859">
    <g id="Grupo_1005858" data-name="Grupo 1005858" clip-path="url(#clip-path)">
      <path id="Trazado_716656" data-name="Trazado 716656" d="M72.138,201.579c-1.609-2.351.823-5.537,3.5-6.515s5.762-.924,8.115-2.53c5.011-3.42,3.618-11.881,8.211-15.843,4.271-3.686,11.37-1.524,15.992-4.759,6.259-4.378,4.059-15.483,10.3-19.881,4.109-2.893,9.747-1.367,14.7-2.214,11.207-1.919,18.244-15.846,29.612-15.653,7.126.121,13.027,5.976,20.1,6.824,5.75.69,11.4-2.021,17.194-2,8.483.03,16.211,6.276,19.349,14.157s2.161,16.982-1.231,24.758A35.577,35.577,0,0,1,205.345,193.5a26.321,26.321,0,0,1-19.389,4.133c-4.451-.9-8.524-3.081-12.828-4.523s-9.23-2.085-13.241.04c-3.936,2.084-6.513,6.58-10.851,7.584-3.65.844-7.292-1.074-10.7-2.639s-7.586-2.774-10.723-.725c-1.736,1.135-2.766,3.052-4.106,4.635s-3.408,2.942-5.386,2.318" transform="translate(-17.816 -33.377)" fill="#f5f5f5"/>
      <path id="Trazado_716657" data-name="Trazado 716657" d="M62.755,226.29S67.888,294.566,46.327,338.2h86.244s-22.547-55.253-17.413-112.725Z" transform="translate(-11.523 -56.085)" fill="#263238"/>
      <path id="Trazado_716658" data-name="Trazado 716658" d="M119.722,229.643H65.742a3.259,3.259,0,0,1,0-6.517h53.979a3.259,3.259,0,1,1,0,6.517" transform="translate(-15.542 -55.501)" fill="#263238"/>
      <path id="Trazado_716659" data-name="Trazado 716659" d="M123,293.326H63.939a1.456,1.456,0,0,1-1.456-1.456v-.3a1.456,1.456,0,0,1,1.456-1.455H123a1.456,1.456,0,0,1,1.456,1.455v.3A1.456,1.456,0,0,1,123,293.326" transform="translate(-15.542 -72.163)" fill="#263238"/>
      <path id="Trazado_716660" data-name="Trazado 716660" d="M120.067,232.257c0,.108-11.518.2-25.725.2s-25.726-.087-25.726-.2,11.516-.2,25.726-.2,25.725.087,25.725.2" transform="translate(-17.068 -57.724)" fill="#455a64"/>
      <path id="Trazado_716661" data-name="Trazado 716661" d="M122.243,290.206c0,.108-12.133.2-27.1.2s-27.1-.087-27.1-.2,12.131-.2,27.1-.2,27.1.087,27.1.2" transform="translate(-16.927 -72.138)" fill="#455a64"/>
      <path id="Trazado_716662" data-name="Trazado 716662" d="M123.4,293.95c0,.108-12.714.2-28.394.2s-28.4-.087-28.4-.2,12.711-.2,28.4-.2,28.394.087,28.394.2" transform="translate(-16.568 -73.069)" fill="#455a64"/>
      <path id="Trazado_716663" data-name="Trazado 716663" d="M80.5,366.57c.075-4.764-4.055-12.414-8.763-15.012-3.644-2.011-10.926-3.339-14.3-.9A13.208,13.208,0,0,0,43.49,339.586a13.207,13.207,0,0,0-11.339,13.738c-4.892-3.309-12.531-1.195-15.026,4.158,0,0-14.671-2.893-17.125,9.088Z" transform="translate(0 -84.454)" fill="#455a64"/>
      <path id="Trazado_716664" data-name="Trazado 716664" d="M96.241,251s-4.791,1.046-4.69,7.905h6.435a2.969,2.969,0,0,1,1.11-2.631Z" transform="translate(-22.772 -62.434)" fill="#ffa031"/>
      <path id="Trazado_716665" data-name="Trazado 716665" d="M113.648,258.885a9.527,9.527,0,0,0-4.226-8.183l-3.587,5.343a2.714,2.714,0,0,1,1.434,2.784Z" transform="translate(-26.326 -62.36)" fill="#ffa031"/>
      <path id="Trazado_716666" data-name="Trazado 716666" d="M97.87,270.614a9.527,9.527,0,0,0,9.209.044L104,265a2.372,2.372,0,0,1-3.13-.018Z" transform="translate(-24.344 -65.913)" fill="#ffa031"/>
      <path id="Trazado_716667" data-name="Trazado 716667" d="M105.153,260.857a1.663,1.663,0,1,1-1.663-1.663,1.663,1.663,0,0,1,1.663,1.663" transform="translate(-25.329 -64.473)" fill="#ffa031"/>
      <path id="Trazado_716668" data-name="Trazado 716668" d="M347.494,77.487c-.475-6.893-5.6-13.42-12.364-14.824-10.41-2.159-21,7.229-31.155,4.074-4-1.241-7.434-4.355-11.615-4.531-4.072-.171-7.7,2.521-10.507,5.476s-5.269,6.371-8.79,8.422c-5.627,3.276-13.462,2.783-17.642,7.775-4.5,5.373-2.06,14-5.782,19.935-2.5,3.99-9.068,5.952-11.833,9.766-2.4,3.309-2.5,8.2-2.989,12.253-.995,8.194-.093,18.4-1.088,26.594l2.324-.187a30.938,30.938,0,0,1,.308-8.893,10.447,10.447,0,0,1,4.974-7.08c3.977-2.049,9.44-.557,12.741-3.577,3.849-3.521,1.8-10.4,4.971-14.541,3.005-3.919,9-3.467,13.756-2.122s10.039,3.155,14.394.825c6.654-3.559,6.3-14.132,12.581-18.31,5.4-3.588,12.492-.672,18.875.451,6.8,1.2,14.145.054,19.837-3.861s9.48-10.753,9.006-17.646" transform="translate(-58.138 -15.471)" fill="#ebebeb"/>
      <path id="Trazado_716669" data-name="Trazado 716669" d="M272.11,49.345c-.822-4.411-3.5-8.886-10.448-9.153a11.028,11.028,0,0,0-7.443,19.335,10.9,10.9,0,0,0,17.89-10.182" transform="translate(-62.305 -9.997)" fill="#e0e0e0"/>
      <rect id="Rectángulo_347850" data-name="Rectángulo 347850" width="72.633" height="98.04" transform="translate(226.977 183.723)" fill="#f5f5f5"/>
      <path id="Trazado_716670" data-name="Trazado 716670" d="M374.7,342.529s-.007-.163-.011-.473-.005-.776-.01-1.378c-.005-1.219-.012-3.01-.022-5.34-.011-4.668-.026-11.484-.047-20.113-.022-17.246-.052-41.732-.088-70.736l.177.177-72.625.019h-.008l.2-.2c-.014,36.569-.026,70.447-.036,98.04l-.16-.16,52.771.083,14.671.041,3.859.018c.874.005,1.333.017,1.333.017s-.436.011-1.3.017l-3.829.018-14.634.041-52.871.083h-.16v-.16c-.01-27.593-.023-61.471-.035-98.04v-.2h.2l72.625.019h.177v.177c-.036,29.051-.066,53.577-.088,70.851-.02,8.612-.036,15.414-.047,20.073-.01,2.315-.017,4.094-.022,5.3q-.007.89-.01,1.358c0,.3-.01.453-.01.453" transform="translate(-75.088 -60.766)" fill="#263238"/>
      <path id="Trazado_716671" data-name="Trazado 716671" d="M327.1,342.89c-.108,0-.2-20.911-.2-46.7s.087-46.706.2-46.706.2,20.908.2,46.706-.087,46.7-.2,46.7" transform="translate(-81.316 -62.057)" fill="#263238"/>
      <path id="Trazado_716672" data-name="Trazado 716672" d="M425.871,16.959c-1.7-5.944-8.078-10.418-14.145-9.23-3.187.624-6.111,2.623-9.356,2.51-2.64-.092-5-1.572-7.519-2.37A15.289,15.289,0,0,0,378,13.792c-2.011,3.018-3.151,7-6.422,8.562-2.623,1.255-6,.564-8.334,2.3-2.845,2.125-2.489,6.494-4.241,9.582a23.447,23.447,0,0,1-4.417,5.094c-2.058,1.977-1.666,7.153-1.475,9.19h4.528c.095-2.465,2.266-5.6,4.668-6.159s4.912-.047,7.318.5,4.887,1.125,7.316.694c4.478-.8,7.746-4.808,12.1-6.13,4.458-1.355,9.195.307,13.822.85,6.141.72,12.685-.711,17.417-4.692s7.3-10.682,5.6-16.626" transform="translate(-87.793 -1.797)" fill="#e0e0e0"/>
      <path id="Trazado_716673" data-name="Trazado 716673" d="M286.4,358.747l-.08-44.087,16.83-6.587,16.375,6.587.162,44.087Z" transform="translate(-71.22 -76.631)" fill="#455a64"/>
      <path id="Trazado_716674" data-name="Trazado 716674" d="M319.526,316.776c0,.108-7.434.2-16.6.2s-16.6-.087-16.6-.2,7.432-.2,16.6-.2,16.6.087,16.6.2" transform="translate(-71.22 -78.747)" fill="#263238"/>
      <path id="Trazado_716675" data-name="Trazado 716675" d="M307.594,360.62c-.108,0-.2-9.7-.2-21.663s.087-21.665.2-21.665.2,9.7.2,21.665-.087,21.663-.2,21.663" transform="translate(-76.463 -78.924)" fill="#263238"/>
      <rect id="Rectángulo_347851" data-name="Rectángulo 347851" width="45.942" height="6.581" transform="translate(253.668 196.344)" fill="#455a64"/>
      <path id="Trazado_716676" data-name="Trazado 716676" d="M348.707,267.864a29.543,29.543,0,0,1,0-6.8,29.658,29.658,0,0,1,0,6.8" transform="translate(-86.69 -64.938)" fill="#263238"/>
      <path id="Trazado_716677" data-name="Trazado 716677" d="M359.366,267.864a29.658,29.658,0,0,1,0-6.8,29.662,29.662,0,0,1,0,6.8" transform="translate(-89.341 -64.938)" fill="#263238"/>
      <path id="Trazado_716678" data-name="Trazado 716678" d="M370.024,267.864a29.662,29.662,0,0,1,0-6.8,29.662,29.662,0,0,1,0,6.8" transform="translate(-91.992 -64.938)" fill="#263238"/>
      <path id="Trazado_716679" data-name="Trazado 716679" d="M380.683,267.864a29.662,29.662,0,0,1,0-6.8,29.658,29.658,0,0,1,0,6.8" transform="translate(-94.644 -64.938)" fill="#263238"/>
      <path id="Trazado_716680" data-name="Trazado 716680" d="M391.342,267.864a29.658,29.658,0,0,1,0-6.8,29.662,29.662,0,0,1,0,6.8" transform="translate(-97.295 -64.938)" fill="#263238"/>
      <rect id="Rectángulo_347852" data-name="Rectángulo 347852" width="45.942" height="6.581" transform="translate(253.668 210.958)" fill="#455a64"/>
      <path id="Trazado_716681" data-name="Trazado 716681" d="M348.707,287.316a29.543,29.543,0,0,1,0-6.8,29.657,29.657,0,0,1,0,6.8" transform="translate(-86.69 -69.777)" fill="#263238"/>
      <path id="Trazado_716682" data-name="Trazado 716682" d="M359.366,287.316a29.657,29.657,0,0,1,0-6.8,29.662,29.662,0,0,1,0,6.8" transform="translate(-89.341 -69.777)" fill="#263238"/>
      <path id="Trazado_716683" data-name="Trazado 716683" d="M370.024,287.316a29.662,29.662,0,0,1,0-6.8,29.662,29.662,0,0,1,0,6.8" transform="translate(-91.992 -69.777)" fill="#263238"/>
      <path id="Trazado_716684" data-name="Trazado 716684" d="M380.683,287.316a29.662,29.662,0,0,1,0-6.8,29.657,29.657,0,0,1,0,6.8" transform="translate(-94.644 -69.777)" fill="#263238"/>
      <path id="Trazado_716685" data-name="Trazado 716685" d="M391.342,287.316a29.657,29.657,0,0,1,0-6.8,29.662,29.662,0,0,1,0,6.8" transform="translate(-97.295 -69.777)" fill="#263238"/>
      <rect id="Rectángulo_347853" data-name="Rectángulo 347853" width="45.942" height="6.581" transform="translate(253.668 225.214)" fill="#455a64"/>
      <path id="Trazado_716686" data-name="Trazado 716686" d="M348.707,306.293a29.543,29.543,0,0,1,0-6.8,29.657,29.657,0,0,1,0,6.8" transform="translate(-86.69 -74.497)" fill="#263238"/>
      <path id="Trazado_716687" data-name="Trazado 716687" d="M359.366,306.293a29.657,29.657,0,0,1,0-6.8,29.662,29.662,0,0,1,0,6.8" transform="translate(-89.341 -74.497)" fill="#263238"/>
      <path id="Trazado_716688" data-name="Trazado 716688" d="M370.024,306.293a29.662,29.662,0,0,1,0-6.8,29.662,29.662,0,0,1,0,6.8" transform="translate(-91.992 -74.497)" fill="#263238"/>
      <path id="Trazado_716689" data-name="Trazado 716689" d="M380.683,306.293a29.662,29.662,0,0,1,0-6.8,29.657,29.657,0,0,1,0,6.8" transform="translate(-94.644 -74.497)" fill="#263238"/>
      <path id="Trazado_716690" data-name="Trazado 716690" d="M391.342,306.293a29.657,29.657,0,0,1,0-6.8,29.662,29.662,0,0,1,0,6.8" transform="translate(-97.295 -74.497)" fill="#263238"/>
      <rect id="Rectángulo_347854" data-name="Rectángulo 347854" width="45.942" height="6.581" transform="translate(253.668 239.472)" fill="#455a64"/>
      <path id="Trazado_716691" data-name="Trazado 716691" d="M348.707,325.271a29.543,29.543,0,0,1,0-6.8,29.657,29.657,0,0,1,0,6.8" transform="translate(-86.69 -79.218)" fill="#263238"/>
      <path id="Trazado_716692" data-name="Trazado 716692" d="M359.366,325.271a29.657,29.657,0,0,1,0-6.8,29.662,29.662,0,0,1,0,6.8" transform="translate(-89.341 -79.218)" fill="#263238"/>
      <path id="Trazado_716693" data-name="Trazado 716693" d="M370.024,325.271a29.662,29.662,0,0,1,0-6.8,29.662,29.662,0,0,1,0,6.8" transform="translate(-91.992 -79.218)" fill="#263238"/>
      <path id="Trazado_716694" data-name="Trazado 716694" d="M380.683,325.271a29.662,29.662,0,0,1,0-6.8,29.657,29.657,0,0,1,0,6.8" transform="translate(-94.644 -79.218)" fill="#263238"/>
      <path id="Trazado_716695" data-name="Trazado 716695" d="M391.342,325.271a29.657,29.657,0,0,1,0-6.8,29.662,29.662,0,0,1,0,6.8" transform="translate(-97.295 -79.218)" fill="#263238"/>
      <rect id="Rectángulo_347855" data-name="Rectángulo 347855" width="45.942" height="6.581" transform="translate(253.668 254.328)" fill="#455a64"/>
      <path id="Trazado_716696" data-name="Trazado 716696" d="M348.707,345.047a29.543,29.543,0,0,1,0-6.8,29.657,29.657,0,0,1,0,6.8" transform="translate(-86.69 -84.137)" fill="#263238"/>
      <path id="Trazado_716697" data-name="Trazado 716697" d="M359.366,345.047a29.657,29.657,0,0,1,0-6.8,29.662,29.662,0,0,1,0,6.8" transform="translate(-89.341 -84.137)" fill="#263238"/>
      <path id="Trazado_716698" data-name="Trazado 716698" d="M370.024,345.047a29.662,29.662,0,0,1,0-6.8,29.662,29.662,0,0,1,0,6.8" transform="translate(-91.992 -84.137)" fill="#263238"/>
      <path id="Trazado_716699" data-name="Trazado 716699" d="M380.683,345.047a29.662,29.662,0,0,1,0-6.8,29.657,29.657,0,0,1,0,6.8" transform="translate(-94.644 -84.137)" fill="#263238"/>
      <path id="Trazado_716700" data-name="Trazado 716700" d="M391.342,345.047a29.657,29.657,0,0,1,0-6.8,29.662,29.662,0,0,1,0,6.8" transform="translate(-97.295 -84.137)" fill="#263238"/>
      <rect id="Rectángulo_347856" data-name="Rectángulo 347856" width="78.252" height="5.719" transform="translate(224.168 180.863)" fill="#f5f5f5"/>
      <path id="Trazado_716701" data-name="Trazado 716701" d="M376.577,246.4s-.009-.13-.014-.376-.009-.618-.017-1.089q-.014-1.454-.04-4.254l.07.07c-11.844.074-42.429.125-78.247.125h0l.2-.2c0,1.959,0,3.9,0,5.719l-.2-.2,55.469.083,16.663.058,4.526.028,1.182.014c.268,0,.412.014.412.014s-.125.009-.385.014l-1.156.013-4.482.028-16.617.058-55.612.083h-.2v-6.11h.2c35.818,0,66.4.052,78.247.125h.071v.069q-.027,2.825-.04,4.295c-.008.465-.013.82-.017,1.074,0,.238-.014.351-.014.351" transform="translate(-74.158 -59.819)" fill="#263238"/>
      <path id="Trazado_716702" data-name="Trazado 716702" d="M362.013,67.545l-1.7-8.745h-13.55l-1.318,8.745h2.217V195.489H359.8V67.545Z" transform="translate(-85.927 -14.626)" fill="#fafafa"/>
      <rect id="Rectángulo_347857" data-name="Rectángulo 347857" width="12.134" height="24.723" transform="translate(261.814 53.012)" fill="#d5f6ff"/>
      <rect id="Rectángulo_347858" data-name="Rectángulo 347858" width="12.134" height="24.723" transform="translate(261.814 103.043)" fill="#d5f6ff"/>
      <rect id="Rectángulo_347859" data-name="Rectángulo 347859" width="12.134" height="24.723" transform="translate(261.814 156.131)" fill="#d5f6ff"/>
      <path id="Trazado_716703" data-name="Trazado 716703" d="M361.968,67.511s-.156.007-.514.012l-1.7.02.032-.032c.083,10.161.15,62.129.162,127.944v.193H347.421v-9.771c.03-48.262.057-91.257.074-118.368l.122.122-2.217,0h-.137l.02-.135,1.335-8.742.013-.086h.087l13.55.037h.053l.01.051c.556,2.945.969,5.138,1.246,6.6.133.717.232,1.255.3,1.623s.092.53.092.53-.044-.186-.118-.55-.186-.911-.333-1.633L360.2,58.779l.063.052-13.55.037.1-.086c-.392,2.638-.82,5.512-1.3,8.746l-.116-.135,2.217,0h.122v.122c.017,27.111.044,70.107.074,118.368v9.576l-.2-.2h12.134l-.193.194c.012-65.815.078-117.784.162-127.944V67.48h.031l1.684.02c.361.005.533.012.533.012" transform="translate(-85.882 -14.593)" fill="#263238"/>
      <path id="Trazado_716704" data-name="Trazado 716704" d="M361.833,70.5c0,.108-3.517.2-7.856.2s-7.857-.087-7.857-.2,3.517-.2,7.857-.2,7.856.087,7.856.2" transform="translate(-86.095 -17.487)" fill="#263238"/>
      <path id="Trazado_716705" data-name="Trazado 716705" d="M223.567,77.132C219.78,73.3,213.376,72.046,208.74,74.8c-3.3,1.96-5.495,5.619-9.087,6.972-3.739,1.408-8.105-.041-11.83,1.406-6.076,2.359-6.93,10.334-9.01,16.512-1.594,4.737-5.026,7.467-5.811,12.4-2.248,14.144-2.334,36.71-1.028,52.675h3.393a71.784,71.784,0,0,1-.145-18.016c.775-5.689,4.071-11.4,9.459-13.387,3.721-1.373,7.83-.816,11.8-.77s8.365-.662,10.866-3.741c3.731-4.594,1.333-11.848,4.267-16.988,1.592-2.789,4.5-4.505,7.006-6.507a24.178,24.178,0,0,0,8.794-13.206c1.19-5.258-.056-11.184-3.843-15.021" transform="translate(-42.565 -18.237)" fill="#e0e0e0"/>
      <path id="Trazado_716706" data-name="Trazado 716706" d="M179.781,192.553l-1.075-5.53h-8.569l-.834,5.53h1.4v80.91h7.673v-80.91Z" transform="translate(-42.113 -46.521)" fill="#fafafa"/>
      <rect id="Rectángulo_347860" data-name="Rectángulo 347860" width="7.673" height="15.634" transform="translate(128.643 146.091)" fill="#d5f6ff"/>
      <rect id="Rectángulo_347861" data-name="Rectángulo 347861" width="7.673" height="15.634" transform="translate(128.643 177.73)" fill="#d5f6ff"/>
      <rect id="Rectángulo_347862" data-name="Rectángulo 347862" width="7.673" height="15.634" transform="translate(128.643 211.302)" fill="#d5f6ff"/>
      <path id="Trazado_716707" data-name="Trazado 716707" d="M179.736,192.52s-.1.007-.321.012l-1.081.02.031-.032c.084,6.425.15,39.289.163,80.909v.194h-.194l-7.673,0h-.2v-.2c0-1.922,0-3.981,0-6.055.031-30.515.057-57.7.074-74.854l.122.122-1.4,0h-.137l.02-.134c.315-2.043.594-3.859.85-5.528l.014-.086h.086l8.569.037h.053l.009.051.775,4.186c.08.448.141.785.184,1.025s.053.331.053.331-.031-.12-.08-.352-.122-.582-.216-1.034c-.189-.925-.467-2.3-.842-4.131l.063.052-8.569.037.1-.086-.817,5.532-.116-.135,1.4,0h.121v.122c.017,17.156.044,44.339.074,74.854v6.055l-.2-.195,7.673,0-.194.193c.013-41.62.079-74.483.162-80.909v-.032h.031l1.061.02c.229.005.341.012.341.012" transform="translate(-42.068 -46.487)" fill="#263238"/>
      <path id="Trazado_716708" data-name="Trazado 716708" d="M179.667,194.4a31.719,31.719,0,0,1-4.968.2,31.711,31.711,0,0,1-4.968-.2,31.708,31.708,0,0,1,4.968-.2,31.716,31.716,0,0,1,4.968.2" transform="translate(-42.219 -48.306)" fill="#263238"/>
      <path id="Trazado_716709" data-name="Trazado 716709" d="M193.212,244.553l-3.206,3.778v39.829h3.206Z" transform="translate(-47.263 -60.831)" fill="#263238"/>
      <path id="Trazado_716710" data-name="Trazado 716710" d="M203.253,244.553l-3.206,3.778v39.829h3.206Z" transform="translate(-49.76 -60.831)" fill="#263238"/>
      <path id="Trazado_716711" data-name="Trazado 716711" d="M213.294,244.553l-3.206,3.778v39.829h3.206Z" transform="translate(-52.258 -60.831)" fill="#263238"/>
      <rect id="Rectángulo_347863" data-name="Rectángulo 347863" width="105.761" height="56.948" transform="translate(97.433 225.295)" fill="#fafafa"/>
      <rect id="Rectángulo_347864" data-name="Rectángulo 347864" width="29.998" height="56.948" transform="translate(97.433 225.204)" fill="#e0e0e0"/>
      <path id="Trazado_716712" data-name="Trazado 716712" d="M237,270.216h-6.128l.095-89.62h6.128Z" transform="translate(-57.427 -44.922)" fill="#e0e0e0"/>
      <path id="Trazado_716713" data-name="Trazado 716713" d="M236.748,183.157H230.78a1.281,1.281,0,1,1,0-2.561h5.968a1.281,1.281,0,0,1,0,2.561" transform="translate(-57.086 -44.922)" fill="#e0e0e0"/>
      <path id="Trazado_716714" data-name="Trazado 716714" d="M236.748,206.574H230.78a1.281,1.281,0,1,1,0-2.561h5.968a1.281,1.281,0,0,1,0,2.561" transform="translate(-57.086 -50.747)" fill="#e0e0e0"/>
      <path id="Trazado_716715" data-name="Trazado 716715" d="M236.748,229.99H230.78a1.281,1.281,0,1,1,0-2.561h5.968a1.281,1.281,0,0,1,0,2.561" transform="translate(-57.086 -56.571)" fill="#e0e0e0"/>
      <path id="Trazado_716716" data-name="Trazado 716716" d="M236.748,253.407H230.78a1.281,1.281,0,1,1,0-2.561h5.968a1.281,1.281,0,0,1,0,2.561" transform="translate(-57.086 -62.396)" fill="#e0e0e0"/>
      <path id="Trazado_716717" data-name="Trazado 716717" d="M236.748,276.823H230.78a1.281,1.281,0,1,1,0-2.561h5.968a1.281,1.281,0,0,1,0,2.561" transform="translate(-57.086 -68.221)" fill="#e0e0e0"/>
      <path id="Trazado_716718" data-name="Trazado 716718" d="M237.522,184.072a26.044,26.044,0,0,1-6.368,0,26.048,26.048,0,0,1,6.368,0" transform="translate(-57.498 -45.738)" fill="#263238"/>
      <path id="Trazado_716719" data-name="Trazado 716719" d="M237.522,204.048a26.046,26.046,0,0,1-6.368,0,26.046,26.046,0,0,1,6.368,0" transform="translate(-57.498 -50.707)" fill="#263238"/>
      <path id="Trazado_716720" data-name="Trazado 716720" d="M237.522,207.638a26.046,26.046,0,0,1-6.368,0,26.044,26.044,0,0,1,6.368,0" transform="translate(-57.498 -51.6)" fill="#263238"/>
      <path id="Trazado_716721" data-name="Trazado 716721" d="M237.522,227.4a26.046,26.046,0,0,1-6.368,0,26.046,26.046,0,0,1,6.368,0" transform="translate(-57.498 -56.515)" fill="#263238"/>
      <path id="Trazado_716722" data-name="Trazado 716722" d="M237.522,230.988a26.046,26.046,0,0,1-6.368,0,26.046,26.046,0,0,1,6.368,0" transform="translate(-57.498 -57.408)" fill="#263238"/>
      <path id="Trazado_716723" data-name="Trazado 716723" d="M237.522,250.937a26.044,26.044,0,0,1-6.368,0,26.048,26.048,0,0,1,6.368,0" transform="translate(-57.498 -62.37)" fill="#263238"/>
      <path id="Trazado_716724" data-name="Trazado 716724" d="M237.522,254.527a26.046,26.046,0,0,1-6.368,0,26.046,26.046,0,0,1,6.368,0" transform="translate(-57.498 -63.263)" fill="#263238"/>
      <path id="Trazado_716725" data-name="Trazado 716725" d="M237.522,274.476a26.048,26.048,0,0,1-6.368,0,26.145,26.145,0,0,1,6.368,0" transform="translate(-57.498 -68.225)" fill="#263238"/>
      <path id="Trazado_716726" data-name="Trazado 716726" d="M237.522,278.065a26.044,26.044,0,0,1-6.368,0,26.044,26.044,0,0,1,6.368,0" transform="translate(-57.498 -69.118)" fill="#263238"/>
      <path id="Trazado_716727" data-name="Trazado 716727" d="M129.644,356.6s.179-.008.519-.011l1.509-.011,5.836-.023,21.874-.05,76.023-.089-.183.183c0-17.566-.008-36.827-.012-56.941v-.008l.2.2L129.644,299.8l.148-.148c-.033,17.5-.06,31.722-.079,41.575-.016,4.929-.029,8.764-.038,11.376-.007,1.3-.012,2.294-.016,2.973s-.016,1.025-.016,1.025-.01-.331-.016-.994-.009-1.657-.017-2.946c-.008-2.6-.021-6.428-.037-11.343-.019-9.874-.046-24.124-.079-41.665v-.148h.149l105.761-.048h.2v.2c0,20.113-.009,39.375-.013,56.941v.183h-.183l-76.144-.089-21.833-.05-5.8-.023-1.488-.01c-.333,0-.5-.011-.5-.011" transform="translate(-32.211 -74.488)" fill="#263238"/>
      <rect id="Rectángulo_347865" data-name="Rectángulo 347865" width="3.59" height="6.581" transform="translate(135.628 232.078)" fill="#455a64"/>
      <rect id="Rectángulo_347866" data-name="Rectángulo 347866" width="53.231" height="6.581" transform="translate(145.873 232.078)" fill="#455a64"/>
      <rect id="Rectángulo_347867" data-name="Rectángulo 347867" width="53.231" height="6.581" transform="translate(145.873 246.494)" fill="#455a64"/>
      <rect id="Rectángulo_347868" data-name="Rectángulo 347868" width="3.59" height="6.581" transform="translate(135.628 246.494)" fill="#455a64"/>
      <rect id="Rectángulo_347869" data-name="Rectángulo 347869" width="3.59" height="6.581" transform="translate(135.242 260.91)" fill="#455a64"/>
      <rect id="Rectángulo_347870" data-name="Rectángulo 347870" width="3.59" height="6.581" transform="translate(145.873 260.91)" fill="#455a64"/>
      <rect id="Rectángulo_347871" data-name="Rectángulo 347871" width="70.185" height="26.289" transform="translate(156.792 255.694)" fill="#f5f5f5"/>
      <path id="Trazado_716728" data-name="Trazado 716728" d="M278.827,366.579s-.009-.164-.014-.472-.008-.77-.014-1.359c-.008-1.2-.019-2.954-.033-5.214-.017-4.529-.042-11.085-.073-19.244l.134.134-70.181.062h0l.2-.2c0,9.178-.005,18.056-.008,26.289l-.188-.188,50.252.088,14.634.053,3.927.024,1.019.011c.231,0,.354.012.354.012s-.107.008-.331.012l-1,.011-3.888.024-14.59.053-50.38.088h-.189v-.189c0-8.232,0-17.111-.008-26.289v-.2h.2l70.181.062h.134v.134c-.031,8.194-.056,14.776-.073,19.325-.014,2.247-.026,3.988-.033,5.184-.006.578-.011,1.022-.014,1.335s-.014.445-.014.445" transform="translate(-51.849 -84.596)" fill="#263238"/>
      <path id="Trazado_716729" data-name="Trazado 716729" d="M234.081,366.644c-.108,0-.2-5.885-.2-13.144s.087-13.145.2-13.145.2,5.884.2,13.145-.087,13.144-.2,13.144" transform="translate(-58.177 -84.661)" fill="#263238"/>
      <rect id="Rectángulo_347872" data-name="Rectángulo 347872" width="2.037" height="11.478" transform="translate(182.257 260.472)" fill="#d5f6ff"/>
      <rect id="Rectángulo_347873" data-name="Rectángulo 347873" width="2.037" height="11.478" transform="translate(189.662 260.472)" fill="#d5f6ff"/>
      <rect id="Rectángulo_347874" data-name="Rectángulo 347874" width="2.037" height="11.478" transform="translate(197.068 260.472)" fill="#d5f6ff"/>
      <rect id="Rectángulo_347875" data-name="Rectángulo 347875" width="2.037" height="11.478" transform="translate(204.473 260.472)" fill="#d5f6ff"/>
      <rect id="Rectángulo_347876" data-name="Rectángulo 347876" width="2.037" height="11.478" transform="translate(211.878 260.472)" fill="#d5f6ff"/>
      <rect id="Rectángulo_347877" data-name="Rectángulo 347877" width="2.037" height="11.478" transform="translate(219.283 260.472)" fill="#d5f6ff"/>
      <path id="Trazado_716730" data-name="Trazado 716730" d="M169.239,356.889c-.108,0-.2-12.716-.2-28.4s.087-28.4.2-28.4.2,12.712.2,28.4-.087,28.4-.2,28.4" transform="translate(-42.048 -74.646)" fill="#263238"/>
      <path id="Trazado_716731" data-name="Trazado 716731" d="M145.372,366.541V345.524a6.17,6.17,0,0,1,6.163-6.163h4.2a2.254,2.254,0,1,1,0,4.508h-4.2a1.657,1.657,0,0,0-1.655,1.656v21.017" transform="translate(-36.16 -84.414)" fill="#d5f6ff"/>
      <path id="Trazado_716732" data-name="Trazado 716732" d="M127.792,366.573V345.555a6.169,6.169,0,0,1,6.162-6.162h4.2a2.254,2.254,0,1,1,0,4.508h-4.2a1.657,1.657,0,0,0-1.654,1.654v21.018" transform="translate(-31.787 -84.421)" fill="#d5f6ff"/>
      <path id="Trazado_716733" data-name="Trazado 716733" d="M158.169,339.312a1.507,1.507,0,0,1,1.219-.268,2.453,2.453,0,0,1,1.288.537,2.481,2.481,0,0,1,.491,3.186,2.457,2.457,0,0,1-1.067.9,1.508,1.508,0,0,1-1.244.11,5.4,5.4,0,0,0,1.122-.359,2.356,2.356,0,0,0,.882-.842,2.225,2.225,0,0,0-.419-2.722,2.365,2.365,0,0,0-1.094-.537,5.492,5.492,0,0,0-1.179-.005" transform="translate(-39.343 -84.332)" fill="#263238"/>
      <path id="Trazado_716734" data-name="Trazado 716734" d="M140.4,339.312a1.507,1.507,0,0,1,1.219-.268,2.453,2.453,0,0,1,1.288.537,2.481,2.481,0,0,1,.491,3.186,2.457,2.457,0,0,1-1.067.9,1.506,1.506,0,0,1-1.243.11,5.416,5.416,0,0,0,1.122-.359,2.356,2.356,0,0,0,.882-.842,2.225,2.225,0,0,0-.419-2.722,2.365,2.365,0,0,0-1.094-.537,5.492,5.492,0,0,0-1.179-.005" transform="translate(-34.923 -84.332)" fill="#263238"/>
    </g>
  </g>
  <g id="Grupo_1005861" data-name="Grupo 1005861">
    <g id="Grupo_1005860" data-name="Grupo 1005860" clip-path="url(#clip-path)">
      <path id="Trazado_716735" data-name="Trazado 716735" d="M339.609,380.949c0,.108-70.058.2-156.458.2-86.431,0-156.473-.087-156.473-.2s70.043-.2,156.473-.2c86.4,0,156.458.087,156.458.2" transform="translate(-6.636 -94.71)" fill="#263238"/>
      <path id="Trazado_716736" data-name="Trazado 716736" d="M339.609,375.46c0,.108-70.058.2-156.458.2-86.431,0-156.473-.087-156.473-.2s70.043-.2,156.473-.2c86.4,0,156.458.087,156.458.2" transform="translate(-6.636 -93.344)" fill="#263238"/>
    </g>
  </g>
  <g id="Grupo_1005863" data-name="Grupo 1005863">
    <g id="Grupo_1005862" data-name="Grupo 1005862" clip-path="url(#clip-path)">
      <path id="Trazado_716737" data-name="Trazado 716737" d="M116.738,94.131c-.009.026-.449-.155-1.279-.34a10.226,10.226,0,0,0-3.57-.137,9.617,9.617,0,0,0-4.811,2.075,9.976,9.976,0,0,0-3.4,5.393l-.015.059-.1.385-.148-.365a10.721,10.721,0,0,0-4.066-4.909,10.376,10.376,0,0,0-4.966-1.656,10.979,10.979,0,0,0-3.547.325c-.819.216-1.252.406-1.261.382a1.7,1.7,0,0,1,.309-.149,7.624,7.624,0,0,1,.926-.33,10.6,10.6,0,0,1,8.67,1.227,10.862,10.862,0,0,1,4.178,5.014l-.247.02c0-.02.011-.041.016-.062a10.133,10.133,0,0,1,3.5-5.519,9.687,9.687,0,0,1,4.938-2.071,9.842,9.842,0,0,1,3.617.221,7.335,7.335,0,0,1,.941.3,1.714,1.714,0,0,1,.315.14" transform="translate(-22.282 -23.232)" fill="#263238"/>
      <path id="Trazado_716738" data-name="Trazado 716738" d="M168.3,68.153c-.008.022-.252-.071-.708-.165a5.733,5.733,0,0,0-1.953-.057,5.282,5.282,0,0,0-2.618,1.143,5.457,5.457,0,0,0-1.845,2.937l-.008.033-.1.385-.148-.365a5.865,5.865,0,0,0-2.212-2.677,5.7,5.7,0,0,0-2.7-.915,6.187,6.187,0,0,0-1.943.159c-.451.112-.691.21-.7.189s.053-.04.165-.093a3.867,3.867,0,0,1,.507-.192,5.807,5.807,0,0,1,4.8.652,6,6,0,0,1,2.322,2.78l-.247.02.009-.034a5.611,5.611,0,0,1,1.947-3.064,5.424,5.424,0,0,1,4.744-1,3.7,3.7,0,0,1,.517.175c.114.05.172.08.169.088" transform="translate(-38.148 -16.843)" fill="#263238"/>
      <path id="Trazado_716739" data-name="Trazado 716739" d="M138.162,57.627c.016.017-.244.28-.687.778a16.772,16.772,0,0,0-1.675,2.262,16.487,16.487,0,0,0-2.488,8.8c0,.038,0,.076,0,.111l-.258.021a14.482,14.482,0,0,0-1.61-4.767,15.027,15.027,0,0,0-4.575-5.112c-.542-.375-.856-.564-.844-.584a1.057,1.057,0,0,1,.24.115c.151.088.385.2.66.385a13.292,13.292,0,0,1,2.2,1.756,14.541,14.541,0,0,1,4.188,8.17l-.258.022c0-.036,0-.074,0-.113a16.2,16.2,0,0,1,2.593-8.905,14.852,14.852,0,0,1,1.756-2.232c.226-.248.427-.415.554-.538a1.028,1.028,0,0,1,.207-.172" transform="translate(-31.347 -14.334)" fill="#263238"/>
    </g>
  </g>
</svg>
