<svg id="Grupo_1005915" data-name="Grupo 1005915" xmlns="http://www.w3.org/2000/svg" xmlns:xlink="http://www.w3.org/1999/xlink" width="311.046" height="265.351" viewBox="0 0 311.046 265.351">
  <defs>
    <clipPath id="clip-path">
      <rect id="Rectángulo_347901" data-name="Rectángulo 347901" width="311.046" height="265.35" fill="none"/>
    </clipPath>
    <clipPath id="clip-path-5">
      <rect id="Rectángulo_347883" data-name="Rectángulo 347883" width="117.766" height="179.889" fill="none"/>
    </clipPath>
    <clipPath id="clip-path-6">
      <rect id="Rectángulo_347884" data-name="Rectángulo 347884" width="59.819" height="168.735" fill="none"/>
    </clipPath>
    <clipPath id="clip-path-7">
      <rect id="Rectángulo_347886" data-name="Rectángulo 347886" width="1.856" height="1.857" fill="none"/>
    </clipPath>
    <clipPath id="clip-path-8">
      <rect id="Rectángulo_347887" data-name="Rectángulo 347887" width="0.928" height="0.928" fill="none"/>
    </clipPath>
    <clipPath id="clip-path-10">
      <rect id="Rectángulo_347889" data-name="Rectángulo 347889" width="12.769" height="19.945" fill="none"/>
    </clipPath>
    <clipPath id="clip-path-12">
      <rect id="Rectángulo_347891" data-name="Rectángulo 347891" width="22.678" height="32.083" fill="none"/>
    </clipPath>
    <clipPath id="clip-path-15">
      <rect id="Rectángulo_347895" data-name="Rectángulo 347895" width="1.857" height="1.857" fill="none"/>
    </clipPath>
    <clipPath id="clip-path-17">
      <rect id="Rectángulo_347897" data-name="Rectángulo 347897" width="1.712" height="11.462" fill="none"/>
    </clipPath>
    <clipPath id="clip-path-19">
      <rect id="Rectángulo_347899" data-name="Rectángulo 347899" width="7.396" height="36.309" fill="none"/>
    </clipPath>
  </defs>
  <g id="Grupo_1005914" data-name="Grupo 1005914" clip-path="url(#clip-path)">
    <g id="Grupo_1005866" data-name="Grupo 1005866">
      <g id="Grupo_1005865" data-name="Grupo 1005865" clip-path="url(#clip-path)">
        <path id="Trazado_716740" data-name="Trazado 716740" d="M393.981,356.208c-12.02-7.142-15.708-21.773-16.239-35.131-.089-2.23-.506-4.556.408-6.586s3.284-3.545,5.345-2.754c1.709.656,2.571,2.523,3.612,4.044a13.046,13.046,0,0,0,5.584,4.6c1.47.631,3.256.951,4.6.076,1.84-1.2,1.871-3.867,1.694-6.079q-.5-6.182-.99-12.362a20.673,20.673,0,0,1,.183-6.619,6.879,6.879,0,0,1,3.969-4.958c2.061-.744,4.753.277,5.357,2.409a20.507,20.507,0,0,1,.266,2.75,2.332,2.332,0,0,0,1.523,2.09,2.682,2.682,0,0,0,2.355-1.195,29.492,29.492,0,0,0,4.692-8.361,40.878,40.878,0,0,1,4.318-8.59c1.892-2.589,4.615-4.731,7.769-5.145s6.675,1.293,7.705,4.344-.553,6.357-2.347,9.028a49.521,49.521,0,0,1-9.557,10.559,4.072,4.072,0,0,0-1.583,1.976c-.372,1.51,1.134,2.872,2.625,3.249,1.69.427,3.466.124,5.205.2s3.665.7,4.437,2.28c1.073,2.194-.643,4.7-2.389,6.393a42.422,42.422,0,0,1-11.985,8.15,14.3,14.3,0,0,0-4.485,2.6c-1.228,1.241-1.873,3.287-.965,4.786s2.98,1.85,4.661,1.408a29.589,29.589,0,0,0,4.717-2.212c2.955-1.372,6.9-1.452,9.038,1.032a7.019,7.019,0,0,1,1.2,6.134,16.182,16.182,0,0,1-2.95,5.715,42.644,42.644,0,0,1-17.219,14.1c-6.871,2.966-13.356,4.11-20.553,2.065" transform="translate(-129.319 -93.959)" fill="#f5f5f5"/>
        <path id="Trazado_716741" data-name="Trazado 716741" d="M405.735,357.672c.093-5.314-.83-2.369.647-9.234a198.659,198.659,0,0,1,6.293-21.921l1.944-5.661c.643-1.857,1.279-3.7,2.014-5.461a99.343,99.343,0,0,1,4.8-9.885c1.679-3.071,3.384-5.923,5-8.578s3.176-5.1,4.691-7.265a78.772,78.772,0,0,1,7.9-9.686c1.018-1.067,1.836-1.869,2.4-2.4l.642-.6a.151.151,0,1,1,.03.03l-.613.635c-.542.554-1.34,1.374-2.34,2.455a83.275,83.275,0,0,0-7.776,9.743c-1.494,2.172-3.034,4.619-4.639,7.277s-3.292,5.516-4.958,8.584A100.342,100.342,0,0,0,417,315.552c-.728,1.754-1.358,3.579-2,5.441s-1.286,3.749-1.942,5.659a203.686,203.686,0,0,0-6.311,21.869c-1.493,6.839-.6,3.865-.726,9.159" transform="translate(-138.896 -94.796)" fill="#e0e0e0"/>
        <path id="Trazado_716742" data-name="Trazado 716742" d="M419.969,322.923a4.538,4.538,0,0,1-.286-.928c-.161-.6-.366-1.482-.6-2.572-.475-2.18-1.029-5.212-1.627-8.557s-1.193-6.363-1.7-8.528c-.251-1.084-.462-1.959-.616-2.562a4.472,4.472,0,0,1-.195-.951,4.421,4.421,0,0,1,.346.906c.2.591.456,1.458.743,2.536.581,2.156,1.224,5.175,1.823,8.525l1.509,8.573c.188,1.03.347,1.9.475,2.6a4.471,4.471,0,0,1,.131.963" transform="translate(-142.117 -102.348)" fill="#e0e0e0"/>
        <path id="Trazado_716743" data-name="Trazado 716743" d="M450.637,324.193a6.133,6.133,0,0,1-1.124.22c-.725.119-1.775.285-3.065.532-2.584.473-6.131,1.253-10.006,2.283s-7.341,2.126-9.826,2.986c-1.246.421-2.245.789-2.937,1.039a6.1,6.1,0,0,1-1.089.354,6.177,6.177,0,0,1,1.032-.5c.675-.3,1.661-.707,2.9-1.165,2.467-.932,5.932-2.069,9.818-3.111a100.558,100.558,0,0,1,10.062-2.171c1.3-.211,2.36-.334,3.094-.4a6.024,6.024,0,0,1,1.144-.06" transform="translate(-144.738 -111.032)" fill="#e0e0e0"/>
        <path id="Trazado_716744" data-name="Trazado 716744" d="M398.44,366.563a1.466,1.466,0,0,1-.221-.333l-.562-.993c-.485-.865-1.153-2.134-1.958-3.712-1.613-3.157-3.7-7.588-5.944-12.508s-4.288-9.366-5.833-12.552l-1.84-3.769c-.2-.411-.362-.75-.5-1.028a.2.2,0,1,1,.072-.039l.562.992c.485.865,1.153,2.134,1.958,3.712,1.613,3.157,3.7,7.588,5.944,12.51s4.288,9.363,5.832,12.55l1.84,3.767c.2.411.361.751.5,1.028a1.492,1.492,0,0,1,.148.372" transform="translate(-130.643 -113.47)" fill="#e0e0e0"/>
        <path id="Trazado_716745" data-name="Trazado 716745" d="M444.19,362.164a1.525,1.525,0,0,1-.364.182l-1.07.449-3.95,1.61c-3.335,1.361-7.92,3.293-12.983,5.434s-9.672,4.034-13.036,5.326c-1.682.647-3.048,1.156-4,1.489l-1.1.377a1.523,1.523,0,0,1-.393.1,1.553,1.553,0,0,1,.364-.183l1.07-.448,3.95-1.61c3.336-1.36,7.921-3.293,12.985-5.435s9.67-4.033,13.034-5.325c1.682-.646,3.048-1.155,4-1.488l1.1-.377a1.514,1.514,0,0,1,.393-.1" transform="translate(-139.5 -124.041)" fill="#e0e0e0"/>
        <path id="Trazado_716746" data-name="Trazado 716746" d="M128.194,16.392a1.793,1.793,0,0,1,.089.277l.229.819a11.916,11.916,0,0,0,.411,1.317,18.009,18.009,0,0,0,.675,1.756l.45,1.027.573,1.095a12.776,12.776,0,0,0,.673,1.166c.251.394.481.823.788,1.222a26.284,26.284,0,0,0,4.533,5.078,26.034,26.034,0,0,0,6.992,4.338,24.842,24.842,0,0,0,4.38,1.377,45.136,45.136,0,0,0,4.841.666c3.32.328,6.922.5,10.369,1.894a25.217,25.217,0,0,1,9.038,6.764,32.846,32.846,0,0,1,6.226,9.448,17.6,17.6,0,0,1,1.248,5.262,20.517,20.517,0,0,1-.329,5.173,62.014,62.014,0,0,1-2.744,9.144,43.408,43.408,0,0,0-2.181,7.976,16.612,16.612,0,0,0,.253,6.756,12.566,12.566,0,0,0,2.209,4.6,9.218,9.218,0,0,0,2.378,2.194c.627.4.993.553.981.575a6.441,6.441,0,0,1-1.018-.517,8.963,8.963,0,0,1-2.446-2.17,12.555,12.555,0,0,1-2.289-4.635,16.7,16.7,0,0,1-.308-6.84,43.226,43.226,0,0,1,2.152-8.035,62.409,62.409,0,0,0,2.7-9.108,20.236,20.236,0,0,0,.314-5.092,17.315,17.315,0,0,0-1.233-5.162,32.673,32.673,0,0,0-6.169-9.343,24.953,24.953,0,0,0-8.91-6.681c-3.374-1.366-6.945-1.555-10.273-1.89a45.183,45.183,0,0,1-4.873-.686,25.054,25.054,0,0,1-4.428-1.41,26.348,26.348,0,0,1-11.574-9.569c-.3-.406-.533-.84-.781-1.238a12.711,12.711,0,0,1-.665-1.181l-.563-1.109-.439-1.038a17.331,17.331,0,0,1-.649-1.777,11.061,11.061,0,0,1-.381-1.331c-.083-.352-.148-.627-.2-.828a1.81,1.81,0,0,1-.055-.285" transform="translate(-43.906 -5.614)" fill="#e0e0e0"/>
        <path id="Trazado_716747" data-name="Trazado 716747" d="M159.653,0s.08.063.223.2l.633.61c.272.275.583.638.963,1.057.345.447.777.939,1.182,1.552a22.412,22.412,0,0,1,2.516,4.714A22.71,22.71,0,0,1,166.7,15.04a23.291,23.291,0,0,1-.147,4.126,30.028,30.028,0,0,1-.956,4.37c-.849,2.971-2.09,6.032-2.936,9.377a23.781,23.781,0,0,0-.736,5.22,22.635,22.635,0,0,0,.554,5.465,25.505,25.505,0,0,0,5.027,10.33,28.868,28.868,0,0,0,8.923,7.29A35.119,35.119,0,0,0,186.6,64.758c3.4.623,6.693.795,9.746,1.259a24.7,24.7,0,0,1,8.2,2.479,18.416,18.416,0,0,1,5.424,4.53,17.989,17.989,0,0,1,3.75,7.806l.141.867c.029.2.036.3.036.3s-.03-.1-.07-.291c-.042-.208-.1-.493-.174-.859a20.143,20.143,0,0,0-1.049-3.191,18.951,18.951,0,0,0-2.781-4.508,18.337,18.337,0,0,0-5.391-4.439,24.576,24.576,0,0,0-8.129-2.412c-3.039-.45-6.336-.611-9.762-1.23a35.291,35.291,0,0,1-10.277-3.556,29.116,29.116,0,0,1-9.031-7.371A25.771,25.771,0,0,1,162.15,43.67a22.885,22.885,0,0,1-.553-5.546,24.006,24.006,0,0,1,.756-5.288c.863-3.374,2.115-6.43,2.969-9.379a29.854,29.854,0,0,0,.967-4.326,23.228,23.228,0,0,0,.168-4.077,23,23,0,0,0-3.913-11.559c-.394-.615-.815-1.111-1.151-1.563-.37-.423-.672-.793-.934-1.074l-.607-.633c-.135-.144-.2-.224-.2-.224" transform="translate(-54.681)" fill="#e0e0e0"/>
        <path id="Trazado_716748" data-name="Trazado 716748" d="M224.425,110.862a6.33,6.33,0,0,1-.8.725c-.527.452-1.308,1.083-2.29,1.842A94.033,94.033,0,0,1,204.844,123.6c-1.12.536-2.035.95-2.675,1.218a6.418,6.418,0,0,1-1.007.387,6.534,6.534,0,0,1,.951-.509l2.623-1.314c2.207-1.123,5.219-2.751,8.437-4.732s6.021-3.944,8.017-5.411l2.353-1.754a6.478,6.478,0,0,1,.882-.621" transform="translate(-68.898 -37.97)" fill="#e0e0e0"/>
        <path id="Trazado_716749" data-name="Trazado 716749" d="M217.78,104.384a4.838,4.838,0,0,1-.8.475l-2.221,1.2c-1.873,1.02-4.439,2.465-7.21,4.167s-5.219,3.343-6.973,4.554l-2.076,1.44a4.69,4.69,0,0,1-.783.5,4.835,4.835,0,0,1,.7-.606c.466-.374,1.154-.9,2.015-1.529,1.722-1.264,4.155-2.939,6.934-4.649s5.372-3.122,7.277-4.088c.953-.484,1.731-.861,2.274-1.109a4.9,4.9,0,0,1,.859-.354" transform="translate(-67.718 -35.751)" fill="#e0e0e0"/>
        <path id="Trazado_716750" data-name="Trazado 716750" d="M210.4,101.878a10.452,10.452,0,0,1-1.569,1.145c-1,.667-2.391,1.558-3.958,2.5s-3.009,1.756-4.065,2.322a10.387,10.387,0,0,1-1.747.848,11.428,11.428,0,0,1,1.627-1.058l4.009-2.405,4.005-2.411a11.419,11.419,0,0,1,1.7-.941" transform="translate(-68.18 -34.893)" fill="#e0e0e0"/>
        <path id="Trazado_716751" data-name="Trazado 716751" d="M200.889,88.716a6.727,6.727,0,0,1-1.19.869l-2.942,1.971-2.92,2.005a6.675,6.675,0,0,1-1.247.784,5.985,5.985,0,0,1,1.1-.979c.713-.565,1.723-1.314,2.871-2.094s2.218-1.441,3.007-1.894a5.951,5.951,0,0,1,1.318-.663" transform="translate(-65.962 -30.384)" fill="#e0e0e0"/>
        <path id="Trazado_716752" data-name="Trazado 716752" d="M196.737,76.989c.024.047-.857.519-2.252,1.327s-3.293,1.969-5.3,3.38S185.432,84.5,184.2,85.54s-1.975,1.706-2.012,1.668a2.827,2.827,0,0,1,.467-.528c.315-.325.788-.778,1.386-1.322A51.947,51.947,0,0,1,194.368,78.1c.715-.379,1.3-.67,1.714-.855a2.793,2.793,0,0,1,.655-.26" transform="translate(-62.399 -26.368)" fill="#e0e0e0"/>
        <path id="Trazado_716753" data-name="Trazado 716753" d="M190.11,67.893c.054.078-3.514,2.659-7.969,5.765s-8.111,5.562-8.165,5.484,3.513-2.658,7.97-5.765,8.11-5.562,8.164-5.484" transform="translate(-59.587 -23.253)" fill="#e0e0e0"/>
        <path id="Trazado_716754" data-name="Trazado 716754" d="M184.715,57.639a4.069,4.069,0,0,1-.685.508l-1.925,1.293c-1.627,1.089-3.863,2.608-6.295,4.34s-4.595,3.357-6.154,4.54l-1.849,1.4a4.134,4.134,0,0,1-.7.482,4.077,4.077,0,0,1,.62-.586c.413-.361,1.022-.869,1.783-1.486,1.523-1.234,3.669-2.889,6.1-4.627s4.7-3.227,6.362-4.265c.831-.519,1.51-.93,1.986-1.2a4.048,4.048,0,0,1,.756-.4" transform="translate(-57.233 -19.741)" fill="#e0e0e0"/>
        <path id="Trazado_716755" data-name="Trazado 716755" d="M177.2,51.951c.054.078-2.975,2.273-6.765,4.9s-6.907,4.7-6.961,4.622,2.975-2.272,6.766-4.9,6.906-4.7,6.96-4.621" transform="translate(-55.992 -17.793)" fill="#e0e0e0"/>
        <path id="Trazado_716756" data-name="Trazado 716756" d="M170.6,46.236a30.971,30.971,0,0,1-3.48,3,30.869,30.869,0,0,1-3.694,2.733,31.013,31.013,0,0,1,3.481-3,31.01,31.01,0,0,1,3.694-2.733" transform="translate(-55.972 -15.835)" fill="#e0e0e0"/>
        <path id="Trazado_716757" data-name="Trazado 716757" d="M161.844,31.852a10.887,10.887,0,0,1-1.482,1.374c-.949.809-2.291,1.891-3.815,3.03s-2.945,2.117-3.99,2.8a10.926,10.926,0,0,1-1.738,1.03,12.786,12.786,0,0,1,1.6-1.23c1.009-.73,2.4-1.738,3.923-2.873s2.882-2.184,3.869-2.944a12.845,12.845,0,0,1,1.634-1.185" transform="translate(-51.655 -10.909)" fill="#e0e0e0"/>
        <path id="Trazado_716758" data-name="Trazado 716758" d="M160.711,22.079a4.064,4.064,0,0,1-.675.527c-.446.322-1.1.772-1.921,1.316-1.637,1.089-3.935,2.538-6.532,4.041s-5,2.772-6.761,3.648c-.88.438-1.6.782-2.1,1.009a4.04,4.04,0,0,1-.793.322,4.121,4.121,0,0,1,.733-.441l2.046-1.1c1.729-.93,4.108-2.231,6.7-3.729s4.9-2.914,6.572-3.949l1.978-1.224a4.11,4.11,0,0,1,.748-.416" transform="translate(-48.612 -7.562)" fill="#e0e0e0"/>
        <path id="Trazado_716759" data-name="Trazado 716759" d="M155.383,11.628a4.855,4.855,0,0,1-.74.565c-.489.345-1.2.833-2.093,1.427-1.779,1.187-4.261,2.792-7.036,4.509s-5.32,3.223-7.177,4.285c-.928.531-1.684.954-2.211,1.237a4.806,4.806,0,0,1-.836.41,4.853,4.853,0,0,1,.769-.525l2.155-1.33,7.12-4.368,7.085-4.422,2.152-1.335a4.864,4.864,0,0,1,.813-.453" transform="translate(-46.337 -3.982)" fill="#e0e0e0"/>
        <path id="Trazado_716760" data-name="Trazado 716760" d="M412.921,91.8c-.062.061-1.008-.882-2.834-2.445-.913-.78-2.049-1.713-3.423-2.718a38.344,38.344,0,0,0-4.881-3.059,22.256,22.256,0,0,0-3.047-1.32,10.007,10.007,0,0,0-3.441-.612,3.9,3.9,0,0,0-1.669.4,2.553,2.553,0,0,0-1.141,1.212,4.178,4.178,0,0,0-.342,1.8,9.163,9.163,0,0,0,.249,1.982,19.433,19.433,0,0,0,1.483,3.989,34.409,34.409,0,0,0,2.251,3.891A54.068,54.068,0,0,0,409.3,108.489a34.384,34.384,0,0,0,3.822,2.368,19.47,19.47,0,0,0,3.943,1.6,9.159,9.159,0,0,0,1.973.309,4.181,4.181,0,0,0,1.811-.288,2.554,2.554,0,0,0,1.247-1.1,3.918,3.918,0,0,0,.447-1.658,10.039,10.039,0,0,0-.508-3.457,22.282,22.282,0,0,0-1.228-3.086,38.372,38.372,0,0,0-2.91-4.971c-.964-1.4-1.861-2.567-2.614-3.5-1.507-1.873-2.42-2.847-2.358-2.907.026-.026.282.191.746.628s1.122,1.108,1.927,2.012,1.76,2.04,2.783,3.428a36.57,36.57,0,0,1,3.1,4.982,22.5,22.5,0,0,1,1.335,3.172,10.723,10.723,0,0,1,.6,3.754,4.771,4.771,0,0,1-.533,2.048,3.474,3.474,0,0,1-1.665,1.516,5.09,5.09,0,0,1-2.208.389,10.07,10.07,0,0,1-2.193-.318,20.2,20.2,0,0,1-4.167-1.652,34.746,34.746,0,0,1-3.952-2.416,53.735,53.735,0,0,1-13.438-13.852,34.683,34.683,0,0,1-2.3-4.022,20.171,20.171,0,0,1-1.525-4.215,10.027,10.027,0,0,1-.252-2.2,5.1,5.1,0,0,1,.455-2.2,3.476,3.476,0,0,1,1.565-1.619,4.785,4.785,0,0,1,2.063-.471,10.732,10.732,0,0,1,3.735.718,22.469,22.469,0,0,1,3.13,1.431,36.529,36.529,0,0,1,4.887,3.248c1.356,1.064,2.465,2.051,3.342,2.885s1.525,1.516,1.953,1.988a3.392,3.392,0,0,1,.606.764" transform="translate(-133.982 -27.662)" fill="#e0e0e0"/>
        <path id="Trazado_716761" data-name="Trazado 716761" d="M404.36,93.077c.083.026-.287,1.265-.774,3.539-.242,1.137-.508,2.535-.724,4.167a35.357,35.357,0,0,0-.308,5.562,20.194,20.194,0,0,0,.331,3.191,9.4,9.4,0,0,0,1.137,3.175,3.913,3.913,0,0,0,1.138,1.21,2.681,2.681,0,0,0,1.57.422,4.113,4.113,0,0,0,1.706-.48,8.343,8.343,0,0,0,1.6-1.076,17.831,17.831,0,0,0,2.777-3.029,31.909,31.909,0,0,0,2.328-3.67,49.851,49.851,0,0,0,5.531-17.423,31.917,31.917,0,0,0,.218-4.341,17.908,17.908,0,0,0-.523-4.077,8.294,8.294,0,0,0-.686-1.8,4.107,4.107,0,0,0-1.116-1.376,2.675,2.675,0,0,0-1.525-.56,3.892,3.892,0,0,0-1.627.333,9.376,9.376,0,0,0-2.761,1.938,20.176,20.176,0,0,0-2.112,2.416,35.441,35.441,0,0,0-2.957,4.721c-.765,1.458-1.354,2.753-1.811,3.821-.915,2.139-1.327,3.364-1.41,3.337a3.2,3.2,0,0,1,.191-.924c.166-.594.429-1.465.834-2.565s.941-2.433,1.666-3.938a33.913,33.913,0,0,1,2.883-4.9,20.413,20.413,0,0,1,2.143-2.556,10.118,10.118,0,0,1,2.989-2.163,4.769,4.769,0,0,1,2-.429,3.6,3.6,0,0,1,2.053.721,5.04,5.04,0,0,1,1.4,1.665,9.246,9.246,0,0,1,.789,2A18.7,18.7,0,0,1,421.9,84.3a32.65,32.65,0,0,1-.2,4.484,49.661,49.661,0,0,1-5.656,17.81,32.431,32.431,0,0,1-2.426,3.775,18.6,18.6,0,0,1-2.967,3.176,9.238,9.238,0,0,1-1.8,1.178,5.02,5.02,0,0,1-2.1.555,3.59,3.59,0,0,1-2.092-.6,4.747,4.747,0,0,1-1.389-1.507,10.114,10.114,0,0,1-1.2-3.49,20.3,20.3,0,0,1-.276-3.324,33.792,33.792,0,0,1,.471-5.664c.275-1.647.6-3.046.91-4.178s.59-2,.8-2.577a3.2,3.2,0,0,1,.377-.865" transform="translate(-137.619 -25.894)" fill="#e0e0e0"/>
        <path id="Trazado_716762" data-name="Trazado 716762" d="M402.548,92.289c.022.084-1.227.421-3.417,1.2-1.095.392-2.423.9-3.925,1.576a35.366,35.366,0,0,0-4.892,2.665,20.028,20.028,0,0,0-2.539,1.961,9.4,9.4,0,0,0-2.1,2.638,3.9,3.9,0,0,0-.43,1.6,2.671,2.671,0,0,0,.467,1.556,4.1,4.1,0,0,0,1.306,1.2,8.344,8.344,0,0,0,1.756.794,17.9,17.9,0,0,0,4.037.768,32.05,32.05,0,0,0,4.346.048,49.868,49.868,0,0,0,17.727-4.464,32.067,32.067,0,0,0,3.806-2.1,17.873,17.873,0,0,0,3.193-2.589,8.326,8.326,0,0,0,1.17-1.531,4.1,4.1,0,0,0,.583-1.674,2.672,2.672,0,0,0-.326-1.592,3.9,3.9,0,0,0-1.139-1.21,9.4,9.4,0,0,0-3.1-1.327,20.067,20.067,0,0,0-3.166-.525,35.336,35.336,0,0,0-5.571-.03c-1.642.116-3.053.3-4.2.47-2.3.348-3.559.642-3.579.558a3.172,3.172,0,0,1,.886-.324c.592-.171,1.472-.405,2.621-.64s2.564-.48,4.225-.655a33.763,33.763,0,0,1,5.681-.126,20.313,20.313,0,0,1,3.3.477,10.1,10.1,0,0,1,3.412,1.4,4.759,4.759,0,0,1,1.42,1.479,3.591,3.591,0,0,1,.467,2.124,5.018,5.018,0,0,1-.68,2.065,9.269,9.269,0,0,1-1.286,1.723,18.622,18.622,0,0,1-3.351,2.769,32.448,32.448,0,0,1-3.916,2.193,49.661,49.661,0,0,1-18.121,4.562,32.416,32.416,0,0,1-4.487-.076,18.629,18.629,0,0,1-4.262-.851,9.2,9.2,0,0,1-1.948-.909,5.017,5.017,0,0,1-1.578-1.5,3.593,3.593,0,0,1-.6-2.092,4.771,4.771,0,0,1,.55-1.975,10.113,10.113,0,0,1,2.339-2.852,20.362,20.362,0,0,1,2.681-1.984,33.7,33.7,0,0,1,5.063-2.58c1.546-.633,2.909-1.089,4.032-1.425s2.009-.548,2.612-.677a3.179,3.179,0,0,1,.934-.135" transform="translate(-131.635 -30.988)" fill="#e0e0e0"/>
        <path id="Trazado_716763" data-name="Trazado 716763" d="M418.288,103.083a3.41,3.41,0,1,1-4.14-2.474,3.41,3.41,0,0,1,4.14,2.474" transform="translate(-140.964 -34.423)" fill="#e0e0e0"/>
        <path id="Trazado_716764" data-name="Trazado 716764" d="M50.534,161.072c-.045-.025.333-.713.916-2,.291-.642.632-1.436.974-2.375a22.5,22.5,0,0,0,.928-3.253,13.06,13.06,0,0,0,.247-1.934,5.87,5.87,0,0,0-.217-2.041,2.3,2.3,0,0,0-.5-.877,1.5,1.5,0,0,0-.871-.445,2.442,2.442,0,0,0-1.072.1,5.36,5.36,0,0,0-1.078.464,11.434,11.434,0,0,0-2.007,1.489,20.14,20.14,0,0,0-1.827,1.905,31.739,31.739,0,0,0-5.505,9.646,20.17,20.17,0,0,0-.711,2.543,11.438,11.438,0,0,0-.261,2.486,5.364,5.364,0,0,0,.149,1.164,2.449,2.449,0,0,0,.458.974,1.5,1.5,0,0,0,.826.523,2.292,2.292,0,0,0,1.008-.018,5.885,5.885,0,0,0,1.867-.851,13.047,13.047,0,0,0,1.54-1.2,22.622,22.622,0,0,0,2.329-2.454c.634-.773,1.144-1.469,1.549-2.047.81-1.156,1.21-1.83,1.255-1.8a2.007,2.007,0,0,1-.233.523c-.174.331-.441.813-.82,1.416s-.863,1.326-1.479,2.13a21.445,21.445,0,0,1-2.3,2.562,13.2,13.2,0,0,1-1.571,1.272,6.312,6.312,0,0,1-2.019.955,2.806,2.806,0,0,1-1.243.034,2.041,2.041,0,0,1-1.127-.692,2.992,2.992,0,0,1-.58-1.182,5.932,5.932,0,0,1-.179-1.289,11.842,11.842,0,0,1,.251-2.621,20.442,20.442,0,0,1,.717-2.623,31.574,31.574,0,0,1,5.618-9.844,20.332,20.332,0,0,1,1.894-1.952,11.845,11.845,0,0,1,2.128-1.548,5.874,5.874,0,0,1,1.2-.5,3.009,3.009,0,0,1,1.312-.1,2.043,2.043,0,0,1,1.169.619,2.815,2.815,0,0,1,.6,1.086,6.308,6.308,0,0,1,.205,2.224,13.174,13.174,0,0,1-.3,2,21.416,21.416,0,0,1-1.034,3.287c-.379.939-.754,1.725-1.082,2.356s-.606,1.109-.8,1.427a2.008,2.008,0,0,1-.332.466" transform="translate(-13.35 -50.544)" fill="#e0e0e0"/>
        <path id="Trazado_716765" data-name="Trazado 716765" d="M44.537,158.342c0,.051-.761.045-2.123.142-.681.049-1.513.127-2.469.272a20.812,20.812,0,0,0-3.188.736,11.835,11.835,0,0,0-1.746.708,5.5,5.5,0,0,0-1.6,1.16,2.286,2.286,0,0,0-.5.84,1.567,1.567,0,0,0,.018.954,2.412,2.412,0,0,0,.55.884,4.889,4.889,0,0,0,.868.727,10.474,10.474,0,0,0,2.163,1.072,18.758,18.758,0,0,0,2.45.713,29.28,29.28,0,0,0,10.732.274,18.792,18.792,0,0,0,2.485-.588,10.485,10.485,0,0,0,2.214-.96,4.878,4.878,0,0,0,.9-.682,2.408,2.408,0,0,0,.594-.855,1.569,1.569,0,0,0,.067-.952,2.293,2.293,0,0,0-.454-.864,5.507,5.507,0,0,0-1.544-1.241,11.694,11.694,0,0,0-1.708-.8,20.809,20.809,0,0,0-3.147-.9c-.947-.193-1.774-.314-2.451-.4-1.356-.166-2.115-.2-2.113-.25a1.875,1.875,0,0,1,.553-.043c.362,0,.9,0,1.583.052s1.526.133,2.493.3a19.887,19.887,0,0,1,3.234.826,11.969,11.969,0,0,1,1.792.792A5.941,5.941,0,0,1,55.9,161.6a2.788,2.788,0,0,1,.57,1.061,2.1,2.1,0,0,1-.071,1.276,2.946,2.946,0,0,1-.711,1.06,5.38,5.38,0,0,1-1,.772,10.965,10.965,0,0,1-2.333,1.038,19.214,19.214,0,0,1-2.562.622,29.2,29.2,0,0,1-10.971-.28,19.024,19.024,0,0,1-2.525-.752,10.945,10.945,0,0,1-2.277-1.155,5.407,5.407,0,0,1-.959-.821,2.965,2.965,0,0,1-.656-1.1,2.108,2.108,0,0,1-.006-1.278,2.8,2.8,0,0,1,.623-1.03,5.941,5.941,0,0,1,1.774-1.243,11.843,11.843,0,0,1,1.83-.7,19.791,19.791,0,0,1,3.272-.66c.974-.114,1.817-.157,2.505-.17s1.223.008,1.585.03a1.856,1.856,0,0,1,.55.071" transform="translate(-11.064 -54.197)" fill="#e0e0e0"/>
        <path id="Trazado_716766" data-name="Trazado 716766" d="M51.051,156.116c-.044.026-.438-.623-1.238-1.731-.4-.554-.9-1.22-1.53-1.957a20.752,20.752,0,0,0-2.3-2.324,11.806,11.806,0,0,0-1.521-1.112,5.529,5.529,0,0,0-1.831-.754,2.288,2.288,0,0,0-.976.02,1.569,1.569,0,0,0-.8.517,2.408,2.408,0,0,0-.462.932,4.854,4.854,0,0,0-.161,1.12,10.452,10.452,0,0,0,.226,2.4,18.725,18.725,0,0,0,.683,2.459,29.284,29.284,0,0,0,5.414,9.271,18.781,18.781,0,0,0,1.807,1.8,10.506,10.506,0,0,0,1.982,1.378,4.879,4.879,0,0,0,1.055.41,2.422,2.422,0,0,0,1.04.055,1.57,1.57,0,0,0,.845-.444,2.284,2.284,0,0,0,.5-.84,5.508,5.508,0,0,0,.242-1.966,11.736,11.736,0,0,0-.221-1.871,20.814,20.814,0,0,0-.893-3.147c-.334-.908-.667-1.674-.952-2.294-.572-1.241-.944-1.9-.9-1.928a1.878,1.878,0,0,1,.327.447c.193.306.469.764.789,1.374s.69,1.368,1.06,2.277a19.83,19.83,0,0,1,1,3.184,12.011,12.011,0,0,1,.27,1.94,5.952,5.952,0,0,1-.235,2.153,2.8,2.8,0,0,1-.6,1.043,2.106,2.106,0,0,1-1.122.611,2.958,2.958,0,0,1-1.276-.047,5.427,5.427,0,0,1-1.182-.444,10.957,10.957,0,0,1-2.109-1.438,19.011,19.011,0,0,1-1.877-1.852,29.167,29.167,0,0,1-5.534-9.477,19.032,19.032,0,0,1-.69-2.543,10.937,10.937,0,0,1-.216-2.544,5.423,5.423,0,0,1,.194-1.247,2.964,2.964,0,0,1,.586-1.134,2.109,2.109,0,0,1,1.084-.678,2.789,2.789,0,0,1,1.2-.012,5.928,5.928,0,0,1,1.991.853,11.943,11.943,0,0,1,1.557,1.189,19.769,19.769,0,0,1,2.283,2.435c.61.768,1.09,1.462,1.462,2.042s.637,1.043.809,1.362a1.874,1.874,0,0,1,.229.5" transform="translate(-13.578 -50.577)" fill="#e0e0e0"/>
        <path id="Trazado_716767" data-name="Trazado 716767" d="M50.7,165.9a2,2,0,1,1,.719-2.739A2,2,0,0,1,50.7,165.9" transform="translate(-16.334 -55.542)" fill="#e0e0e0"/>
        <path id="Trazado_716768" data-name="Trazado 716768" d="M75.818,322.98h0a1.052,1.052,0,0,0,1.053,1.053h1.872V343.1l-11.5,25.548a4.365,4.365,0,0,0,3.98,6.157H94.084a4.365,4.365,0,0,0,3.975-6.167L86.113,342.283V324.149h1.7a1.111,1.111,0,1,0,0-2.222H76.871a1.053,1.053,0,0,0-1.053,1.053" transform="translate(-22.897 -110.261)" fill="#ebebeb"/>
        <path id="Trazado_716769" data-name="Trazado 716769" d="M123.04,383.861H103.695a4.028,4.028,0,0,1-4.028-4.027V346.607h30.482l-3.082,3.062v30.165a4.027,4.027,0,0,1-4.027,4.027" transform="translate(-34.136 -118.714)" fill="#f5f5f5"/>
        <path id="Trazado_716770" data-name="Trazado 716770" d="M107.167,360.809a18.618,18.618,0,0,1-3.556.171,18.617,18.617,0,0,1-3.556-.171,18.617,18.617,0,0,1,3.556-.171,18.618,18.618,0,0,1,3.556.171" transform="translate(-34.269 -123.519)" fill="#e0e0e0"/>
        <path id="Trazado_716771" data-name="Trazado 716771" d="M103.212,354.8a7.371,7.371,0,0,1-3.157,0,7.371,7.371,0,0,1,3.157,0" transform="translate(-34.269 -121.46)" fill="#e0e0e0"/>
        <path id="Trazado_716772" data-name="Trazado 716772" d="M107.167,372.751a18.615,18.615,0,0,1-3.556.171,18.614,18.614,0,0,1-3.556-.171,18.617,18.617,0,0,1,3.556-.171,18.618,18.618,0,0,1,3.556.171" transform="translate(-34.269 -127.609)" fill="#e0e0e0"/>
        <path id="Trazado_716773" data-name="Trazado 716773" d="M103.212,366.738a7.371,7.371,0,0,1-3.157,0,7.371,7.371,0,0,1,3.157,0" transform="translate(-34.269 -125.55)" fill="#e0e0e0"/>
        <path id="Trazado_716774" data-name="Trazado 716774" d="M107.167,384.692a18.618,18.618,0,0,1-3.556.171,18.617,18.617,0,0,1-3.556-.171,18.617,18.617,0,0,1,3.556-.171,18.618,18.618,0,0,1,3.556.171" transform="translate(-34.269 -131.699)" fill="#e0e0e0"/>
        <path id="Trazado_716775" data-name="Trazado 716775" d="M103.212,378.679a7.371,7.371,0,0,1-3.157,0,7.371,7.371,0,0,1,3.157,0" transform="translate(-34.269 -129.64)" fill="#e0e0e0"/>
        <path id="Trazado_716776" data-name="Trazado 716776" d="M107.167,396.633a18.615,18.615,0,0,1-3.556.171,18.614,18.614,0,0,1-3.556-.171,18.618,18.618,0,0,1,3.556-.171,18.62,18.62,0,0,1,3.556.171" transform="translate(-34.269 -135.789)" fill="#e0e0e0"/>
        <path id="Trazado_716777" data-name="Trazado 716777" d="M103.212,390.621a7.372,7.372,0,0,1-3.157,0,7.371,7.371,0,0,1,3.157,0" transform="translate(-34.269 -133.73)" fill="#e0e0e0"/>
      </g>
    </g>
    <g id="Grupo_1005868" data-name="Grupo 1005868">
      <g id="Grupo_1005867" data-name="Grupo 1005867" clip-path="url(#clip-path)">
        <path id="Trazado_716778" data-name="Trazado 716778" d="M311.046,403.178c0,.095-69.636.171-155.515.171-85.91,0-155.53-.076-155.53-.171s69.62-.171,155.53-.171c85.88,0,155.515.076,155.515.171" transform="translate(0 -138.031)" fill="#263238"/>
      </g>
    </g>
    <g id="Grupo_1005882" data-name="Grupo 1005882">
      <g id="Grupo_1005881" data-name="Grupo 1005881" clip-path="url(#clip-path)">
        <path id="Trazado_716779" data-name="Trazado 716779" d="M335.639,126.993l-28.391-1.3c-.16-3.011,1.377-21.649,1.377-21.649s-10.731-1.668-10.864-12.4,1.728-35.367,1.728-35.367c12.42-5.338,27.551-6.244,38.263,2l1.59,1.224Z" transform="translate(-101.982 -17.87)" fill="#b78876"/>
        <path id="Trazado_716780" data-name="Trazado 716780" d="M314.248,128.753a24.949,24.949,0,0,0,13.988-3.975s-3.307,7.722-14.013,6.755Z" transform="translate(-107.622 -42.737)" fill="#aa6550"/>
        <path id="Trazado_716781" data-name="Trazado 716781" d="M357.569,84.166c.183-.08,7.372-2.18,7.138,5.155s-7.55,5.587-7.557,5.376.419-10.531.419-10.531" transform="translate(-122.325 -28.711)" fill="#b78876"/>
        <path id="Trazado_716782" data-name="Trazado 716782" d="M360.689,93.241c.033-.022.125.093.338.2a1.274,1.274,0,0,0,.954.05,3.161,3.161,0,0,0,1.554-2.79,4.223,4.223,0,0,0-.3-1.841,1.475,1.475,0,0,0-.93-1.011.65.65,0,0,0-.765.326c-.1.2-.063.35-.1.361-.021.018-.154-.128-.085-.429a.82.82,0,0,1,.3-.45.966.966,0,0,1,.713-.164,1.8,1.8,0,0,1,1.3,1.18,4.345,4.345,0,0,1,.377,2.059c-.094,1.476-.895,2.835-1.965,3.108a1.371,1.371,0,0,1-1.162-.231c-.222-.188-.254-.354-.229-.366" transform="translate(-123.534 -29.962)" fill="#aa6550"/>
        <path id="Trazado_716783" data-name="Trazado 716783" d="M303.99,83.268a1.532,1.532,0,0,0,1.477,1.546,1.465,1.465,0,0,0,1.579-1.381,1.532,1.532,0,0,0-1.475-1.547,1.466,1.466,0,0,0-1.581,1.383" transform="translate(-104.117 -28.045)" fill="#263238"/>
        <path id="Trazado_716784" data-name="Trazado 716784" d="M303.468,80.531c.19.2,1.351-.659,3-.655,1.647-.019,2.857.829,3.036.627.087-.089-.106-.45-.633-.833a4.2,4.2,0,0,0-2.43-.75,4.037,4.037,0,0,0-2.387.771c-.507.389-.679.75-.585.84" transform="translate(-103.93 -27.03)" fill="#263238"/>
        <path id="Trazado_716785" data-name="Trazado 716785" d="M328.548,83.857a1.533,1.533,0,0,0,1.477,1.546,1.465,1.465,0,0,0,1.579-1.381,1.533,1.533,0,0,0-1.476-1.547,1.467,1.467,0,0,0-1.581,1.383" transform="translate(-112.528 -28.247)" fill="#263238"/>
        <path id="Trazado_716786" data-name="Trazado 716786" d="M328.118,81c.19.2,1.353-.659,3-.655,1.647-.019,2.857.829,3.036.627.087-.089-.1-.45-.633-.834a4.2,4.2,0,0,0-2.43-.75,4.037,4.037,0,0,0-2.387.771c-.506.389-.678.75-.586.84" transform="translate(-112.373 -27.191)" fill="#263238"/>
        <path id="Trazado_716787" data-name="Trazado 716787" d="M316.842,93.279a10.891,10.891,0,0,0-2.678-.483c-.421-.043-.819-.127-.89-.414a2.143,2.143,0,0,1,.281-1.248q.594-1.529,1.245-3.206c1.729-4.564,2.98-8.318,2.8-8.386s-1.736,3.576-3.465,8.141c-.416,1.126-.814,2.2-1.193,3.225a2.437,2.437,0,0,0-.218,1.652,1.057,1.057,0,0,0,.692.615,2.867,2.867,0,0,0,.715.1,10.728,10.728,0,0,0,2.715,0" transform="translate(-107.08 -27.243)" fill="#263238"/>
        <path id="Trazado_716788" data-name="Trazado 716788" d="M323.673,102.17c-.268-.016-.272,1.774-1.8,3.044s-3.437,1.074-3.451,1.324c-.025.112.425.348,1.229.37a4.453,4.453,0,0,0,2.881-1,3.883,3.883,0,0,0,1.4-2.552c.068-.748-.131-1.192-.254-1.182" transform="translate(-109.059 -34.993)" fill="#263238"/>
        <path id="Trazado_716789" data-name="Trazado 716789" d="M327.479,71.367c.162.448,1.809.236,3.743.469,1.94.195,3.5.761,3.756.359.114-.193-.157-.614-.788-1.049a6.558,6.558,0,0,0-5.713-.631c-.71.287-1.067.638-1,.851" transform="translate(-112.159 -24.02)" fill="#263238"/>
        <path id="Trazado_716790" data-name="Trazado 716790" d="M304.381,73.223c.29.374,1.426-.014,2.792-.032,1.365-.066,2.522.251,2.788-.14.117-.191-.065-.565-.571-.92a4.04,4.04,0,0,0-4.5.139c-.483.385-.642.771-.513.953" transform="translate(-104.236 -24.494)" fill="#263238"/>
        <path id="Trazado_716791" data-name="Trazado 716791" d="M334.1,45.882c-1.416-1.015-3.109-2.06-4.711-1.7.011-2.718-4.006-5.9-7.067-6.868-3.581-1.129-8.3.617-11.863,1.8-2.249.746-4.49,1.786-6.857,1.689a16.03,16.03,0,0,1-4.6-1.172,11.733,11.733,0,0,0-4.642-.917,4.377,4.377,0,0,0-3.819,2.422,2.912,2.912,0,0,0,1.023,3.4,3.787,3.787,0,0,0-4.429,2.916A3.779,3.779,0,0,0,290,51.4a1.994,1.994,0,0,0-1.06,1.835,3.754,3.754,0,0,0,2.481,2.746c3.026,1.329,6.554.9,9.686-.149s6.037-2.7,9.143-3.828,8.306-3.163,11.423-2.065a5.579,5.579,0,0,1,1.172.6h0l.059.046a8.351,8.351,0,0,1,3.1,5.4c.01.075.02.146.03.214.415,3.028.34,6.108.784,9.131s1.492,6.1,3.727,8.182c.92.857,2.546,1.446,3.3.442a2.587,2.587,0,0,0,.378-1.387c.565-7.309,2.562-13.795,2.548-21.439a6.444,6.444,0,0,0-2.674-5.245" transform="translate(-98.335 -12.654)" fill="#263238"/>
        <path id="Trazado_716792" data-name="Trazado 716792" d="M328.32,47.859c-.02.034-.488-.293-1.429-.669a10.84,10.84,0,0,0-4.2-.706,17.468,17.468,0,0,0-6.175,1.354c-2.238.87-4.561,2.152-7.092,3.33a35.672,35.672,0,0,1-13.83,3.308,32.142,32.142,0,0,1-4.327-.148c-.51-.042-.9-.11-1.168-.147a1.827,1.827,0,0,1-.4-.079,1.843,1.843,0,0,1,.411.011c.269.014.661.061,1.17.083a37.986,37.986,0,0,0,4.307.039,36.834,36.834,0,0,0,13.7-3.377c2.514-1.17,4.851-2.449,7.121-3.313a17.3,17.3,0,0,1,6.288-1.3,10.489,10.489,0,0,1,4.249.825,6.806,6.806,0,0,1,1.043.553,1.859,1.859,0,0,1,.335.239" transform="translate(-99.223 -15.838)" fill="#455a64"/>
        <path id="Trazado_716793" data-name="Trazado 716793" d="M294.191,44.546a5.358,5.358,0,0,0,1.2.966,7.725,7.725,0,0,0,4.086.712,29.961,29.961,0,0,0,6.176-1.036,30.187,30.187,0,0,0,3.5-1.207c1.187-.488,2.375-1.093,3.6-1.711a20.357,20.357,0,0,1,7.3-2.56,10.627,10.627,0,0,1,9.308,4.255,8.4,8.4,0,0,1,.615.985,1.788,1.788,0,0,1,.173.366c-.034.019-.284-.481-.894-1.271a10.835,10.835,0,0,0-3.191-2.709,10.337,10.337,0,0,0-5.982-1.312,20.429,20.429,0,0,0-7.173,2.552c-1.222.617-2.42,1.226-3.624,1.715a29.576,29.576,0,0,1-3.544,1.2,28.908,28.908,0,0,1-6.25.974,7.616,7.616,0,0,1-4.163-.839,4.025,4.025,0,0,1-.9-.748,1.7,1.7,0,0,1-.233-.333" transform="translate(-100.761 -13.588)" fill="#455a64"/>
        <path id="Trazado_716794" data-name="Trazado 716794" d="M356.5,64.207a3.016,3.016,0,0,1-.814-.039,10.394,10.394,0,0,1-2.166-.5,12.016,12.016,0,0,1-2.948-1.494,12.19,12.19,0,0,1-1.508-1.251,7.274,7.274,0,0,1-1.324-1.65A10.415,10.415,0,0,1,346.52,55.4,10.862,10.862,0,0,1,346.6,52.1a7.831,7.831,0,0,1,.7-2.114,3.056,3.056,0,0,1,.45-.681,10.454,10.454,0,0,0-.915,2.836,11.28,11.28,0,0,0,0,3.224,10.468,10.468,0,0,0,1.2,3.734A7.091,7.091,0,0,0,349.3,60.68a12.168,12.168,0,0,0,4.3,2.756,21.443,21.443,0,0,0,2.9.771" transform="translate(-118.653 -16.887)" fill="#455a64"/>
        <path id="Trazado_716795" data-name="Trazado 716795" d="M357.627,59.1a1.7,1.7,0,0,1-.549-.124,11.628,11.628,0,0,1-1.431-.544,14.973,14.973,0,0,1-1.988-1.1c-.359-.232-.729-.484-1.109-.749a8.3,8.3,0,0,1-1.139-.907,11.133,11.133,0,0,1-2.629-4.31,7.732,7.732,0,0,1-.345-1.5,1.589,1.589,0,0,1-.009-.564c.059-.007.124.792.583,1.98a12.057,12.057,0,0,0,2.639,4.146,18.726,18.726,0,0,0,2.182,1.637,17.918,17.918,0,0,0,1.92,1.149c1.138.575,1.9.83,1.875.886" transform="translate(-119.331 -16.887)" fill="#455a64"/>
        <path id="Trazado_716796" data-name="Trazado 716796" d="M265.679,325.183l1.974,51.543H310.98l-.174-14.765,5.089,14.765h44.868l-14.418-51Z" transform="translate(-90.996 -111.376)" fill="#455a64"/>
        <path id="Trazado_716797" data-name="Trazado 716797" d="M296.773,146.944h0c-1.1.132-1.915.373-3.74.589l-.356.043a27.2,27.2,0,0,0-23.684,28.808l2.817,20.242s-5.83,66.639-5.616,75.531h81.63l.066-37.309-.019-10.155-.449-27.547,10.971-29.833c-2.277-7.657-10.471-15.95-21.857-18.132-3.615-.692-7.136-2-11.386-2.182l0,0c-7.981,6.3-20.246,6.055-28.374-.059" transform="translate(-91.17 -50.329)" fill="#ffa031"/>
        <path id="Trazado_716798" data-name="Trazado 716798" d="M339.476,183.554c0,.095-6.778.3-15.141.448s-15.147.2-15.148.106,6.776-.3,15.142-.448,15.145-.2,15.147-.105" transform="translate(-105.897 -62.851)" fill="#fafafa"/>
        <path id="Trazado_716799" data-name="Trazado 716799" d="M339.173,190.34c0,.095-6.816.018-15.218-.17s-15.214-.417-15.212-.512,6.815-.019,15.22.17,15.213.417,15.211.512" transform="translate(-105.745 -64.945)" fill="#fafafa"/>
        <path id="Trazado_716800" data-name="Trazado 716800" d="M150.376,129.979s32.678,39.182,35.266,41.4,41.088-21,41.088-21v.007c4.224-3.76,7.749-5.944,12.453-7.338l.188-.061v.006a55.51,55.51,0,0,1,8.953-1.674c.582-.069,1.116-.129,1.625-.185l-5.2,91.118.266.141s-.113.176-.3.457l-1.887,33.091H242.8l4.109,43.926H212.989l6.061-58.593c.18-1.917.347-4.191.5-6.738l4.321-43.5,1.2-9.971s-33.133,13.226-44.29,12.7c-14.462-.675-48.6-59.122-48.6-59.122Z" transform="translate(-45.273 -44.518)" fill="#d5f6ff"/>
        <path id="Trazado_716801" data-name="Trazado 716801" d="M400.811,234.544l-15.533-67.636c-2.276-7.658-10.471-15.951-21.857-18.132a86.793,86.793,0,0,0-12.36-1.832l-.19,71.69-1.316-.187-8.344,14.944,9.611,3.679-.072,27.065.258,7.616,6.085,43.927h29.878l-12.222-66.6,0-2.345,4.179,1.884a16.027,16.027,0,0,0,15.195-1.113,16.371,16.371,0,0,0,6.256-7.739,8.653,8.653,0,0,0,.428-5.223" transform="translate(-116.865 -50.329)" fill="#d5f6ff"/>
        <path id="Trazado_716802" data-name="Trazado 716802" d="M150.376,129.979s32.678,39.182,35.266,41.4,41.088-21,41.088-21v.007c4.224-3.76,7.749-5.944,12.453-7.338l.188-.061v.006a55.51,55.51,0,0,1,8.953-1.674c.582-.069,1.116-.129,1.625-.185l-5.2,91.118.266.141s-.113.176-.3.457l-1.887,33.091H242.8l4.109,43.926H212.989l6.061-58.593c.18-1.917.347-4.191.5-6.738l4.321-43.5,1.2-9.971s-33.133,13.226-44.29,12.7c-14.462-.675-48.6-59.122-48.6-59.122Z" transform="translate(-45.273 -44.518)" fill="#d5f6ff"/>
        <path id="Trazado_716803" data-name="Trazado 716803" d="M400.811,234.544l-15.533-67.636c-2.276-7.658-10.471-15.951-21.857-18.132a86.793,86.793,0,0,0-12.36-1.832l-.19,71.69-1.316-.187-8.344,14.944,9.611,3.679-.072,27.065.258,7.616,6.085,43.927h29.878l-12.222-66.6,0-2.345,4.179,1.884a16.027,16.027,0,0,0,15.195-1.113,16.371,16.371,0,0,0,6.256-7.739,8.653,8.653,0,0,0,.428-5.223" transform="translate(-116.865 -50.329)" fill="#d5f6ff"/>
        <g id="Grupo_1005871" data-name="Grupo 1005871" transform="translate(86.909 85.461)" opacity="0.8">
          <g id="Grupo_1005870" data-name="Grupo 1005870">
            <g id="Grupo_1005869" data-name="Grupo 1005869" clip-path="url(#clip-path-5)">
              <path id="Trazado_716804" data-name="Trazado 716804" d="M150.376,129.979s32.678,39.182,35.266,41.4,41.088-21,41.088-21v.007c4.224-3.76,7.749-5.944,12.453-7.338l.188-.061v.006a55.51,55.51,0,0,1,8.953-1.674c.582-.069,1.116-.129,1.625-.185l-5.2,91.118.266.141s-.113.176-.3.457l-1.887,33.091H242.8l4.109,43.926H212.989l6.061-58.593c.18-1.917.347-4.191.5-6.738l4.321-43.5,1.2-9.971s-33.133,13.226-44.29,12.7c-14.462-.675-48.6-59.122-48.6-59.122Z" transform="translate(-132.182 -129.979)" fill="#fff"/>
            </g>
          </g>
        </g>
        <g id="Grupo_1005874" data-name="Grupo 1005874" transform="translate(224.346 96.615)" opacity="0.8">
          <g id="Grupo_1005873" data-name="Grupo 1005873">
            <g id="Grupo_1005872" data-name="Grupo 1005872" clip-path="url(#clip-path-6)">
              <path id="Trazado_716805" data-name="Trazado 716805" d="M400.811,234.544l-15.533-67.636c-2.276-7.658-10.471-15.951-21.857-18.132a86.793,86.793,0,0,0-12.36-1.832l-.19,71.69-1.316-.187-8.344,14.944,9.611,3.679-.072,27.065.258,7.616,6.085,43.927h29.878l-12.222-66.6,0-2.345,4.179,1.884a16.027,16.027,0,0,0,15.195-1.113,16.371,16.371,0,0,0,6.256-7.739,8.653,8.653,0,0,0,.428-5.223" transform="translate(-341.211 -146.944)" fill="#fff"/>
            </g>
          </g>
        </g>
        <path id="Trazado_716806" data-name="Trazado 716806" d="M362.647,218.946a.551.551,0,0,1,.036-.139c.035-.105.078-.237.133-.4l.535-1.546c.464-1.35,1.126-3.324,1.857-5.836a81.717,81.717,0,0,0,2.121-9.079,51.6,51.6,0,0,0,.756-11.756l.186.152-6.442.944-.8.118.689-.429a21.188,21.188,0,0,0,4.828-3.724,8.44,8.44,0,0,0,1.207-1.745,6.766,6.766,0,0,0,.624-1.983,11.191,11.191,0,0,0-.393-4.084l-1.923-7.684c-1.242-4.892-2.465-9.27-3.606-12.911s-2.2-6.543-2.965-8.535c-.378-1-.689-1.767-.9-2.289l-.23-.6a.948.948,0,0,1-.068-.208,1.1,1.1,0,0,1,.1.195l.262.583c.229.514.56,1.275.957,2.266.8,1.979,1.9,4.875,3.072,8.511s2.422,8.015,3.681,12.906l1.943,7.684a11.489,11.489,0,0,1,.4,4.209,7.09,7.09,0,0,1-.656,2.09,8.815,8.815,0,0,1-1.256,1.819,21.421,21.421,0,0,1-4.908,3.786l-.113-.312,6.444-.933.177-.026.01.178a51.187,51.187,0,0,1-.807,11.824,78.57,78.57,0,0,1-2.2,9.089c-.76,2.509-1.454,4.475-1.95,5.815-.245.671-.45,1.182-.585,1.529l-.159.391a.535.535,0,0,1-.062.13" transform="translate(-122.716 -50.42)" fill="#263238"/>
        <path id="Trazado_716807" data-name="Trazado 716807" d="M392.188,241.023c-.094.01-1.014-8.056-2.055-18.013s-1.807-18.042-1.713-18.052,1.014,8.055,2.054,18.016,1.808,18.039,1.714,18.049" transform="translate(-133.032 -70.199)" fill="#263238"/>
        <path id="Trazado_716808" data-name="Trazado 716808" d="M378.423,284.763a.761.761,0,0,1-.162-.05l-.467-.175-1.8-.7-6.691-2.673-22.921-9.273-.139-.057.043-.145,3.349-11.206,1.478-4.933.04-.135.14.015,29.062,3.028,8.645.936,2.333.269.6.078a1.026,1.026,0,0,1,.2.037.954.954,0,0,1-.208,0l-.607-.046-2.339-.209-8.657-.833-29.073-2.918.181-.12-1.476,4.934c-1.168,3.9-2.3,7.672-3.36,11.2l-.1-.2,22.876,9.385,6.654,2.763,1.777.753.456.2a.732.732,0,0,1,.151.078" transform="translate(-118.59 -87.479)" fill="#263238"/>
        <path id="Trazado_716809" data-name="Trazado 716809" d="M297.642,234.021a1.144,1.144,0,0,1-.1-.2l-.277-.594c-.233-.527-.609-1.291-1.022-2.31a85.773,85.773,0,0,1-3.145-8.813,90.279,90.279,0,0,1-3.583-31.113l.011-.185.183.027,5.574.811.869.127-.114.315a25.535,25.535,0,0,1-4.091-2.953,8.352,8.352,0,0,1-2.605-4.144,10.1,10.1,0,0,1,.266-4.721q.554-2.241,1.149-4.359c1.589-5.649,3.354-10.624,4.893-14.77s2.876-7.465,3.792-9.758c.458-1.13.816-2.015,1.067-2.635l.285-.681a1.344,1.344,0,0,1,.108-.228,1.413,1.413,0,0,1-.076.241l-.254.694-1.008,2.658c-.878,2.308-2.172,5.64-3.689,9.793s-3.249,9.131-4.816,14.771c-.391,1.41-.771,2.863-1.135,4.349a9.794,9.794,0,0,0-.257,4.569,8.024,8.024,0,0,0,2.512,3.972,25.313,25.313,0,0,0,4.038,2.91l.708.435-.823-.12-.869-.126-5.574-.813.195-.158a91.662,91.662,0,0,0,3.463,31.028,93.31,93.31,0,0,0,3.041,8.83c.394,1.025.752,1.8.965,2.332l.248.606a1.15,1.15,0,0,1,.074.21" transform="translate(-99.036 -50.635)" fill="#263238"/>
        <rect id="Rectángulo_347885" data-name="Rectángulo 347885" width="12.668" height="4.257" transform="translate(238.019 144.12)" fill="#455a64"/>
        <path id="Trazado_716810" data-name="Trazado 716810" d="M405.457,254.836c-.018.059-.725-.168-1.9-.321a13.17,13.17,0,0,0-8.81,2c-.993.644-1.532,1.154-1.575,1.109-.016-.017.107-.156.344-.4a8.42,8.42,0,0,1,1.095-.913,12.033,12.033,0,0,1,8.983-2.037,8.441,8.441,0,0,1,1.381.352,1.547,1.547,0,0,1,.481.208" transform="translate(-134.662 -87.031)" fill="#263238"/>
        <path id="Trazado_716811" data-name="Trazado 716811" d="M277.223,171.563a3.253,3.253,0,0,1-.046.544q-.074.578-.2,1.55c-.178,1.38-.429,3.318-.737,5.7l-2.357,18.814c-.922,7.35-1.778,14-2.457,18.808-.337,2.4-.63,4.346-.845,5.686l-.262,1.541a3.181,3.181,0,0,1-.114.534,3.306,3.306,0,0,1,.047-.544l.2-1.55c.179-1.38.429-3.318.737-5.7.607-4.845,1.439-11.483,2.358-18.818s1.777-14,2.456-18.8c.338-2.4.63-4.346.846-5.687q.164-.967.262-1.541a3.244,3.244,0,0,1,.114-.534" transform="translate(-92.545 -58.761)" fill="#263238"/>
        <path id="Trazado_716812" data-name="Trazado 716812" d="M158.079,139.706c.022.029-.139.133-.332.4a2.271,2.271,0,0,0-.41,1.283,2.23,2.23,0,0,0,.759,1.761,2.095,2.095,0,0,0,3.211-2,2.232,2.232,0,0,0-1.247-1.458,2.272,2.272,0,0,0-1.333-.2c-.322.057-.486.156-.5.124a.954.954,0,0,1,.472-.253,2.241,2.241,0,0,1,1.46.1,2.438,2.438,0,0,1,1.457,1.609,1.962,1.962,0,0,1-.143,1.326,2.609,2.609,0,0,1-2.32,1.446,1.962,1.962,0,0,1-1.253-.455,2.437,2.437,0,0,1-.8-2.017,2.236,2.236,0,0,1,.549-1.357.952.952,0,0,1,.435-.312" transform="translate(-53.803 -47.705)" fill="#263238"/>
        <path id="Trazado_716813" data-name="Trazado 716813" d="M333.372,244.932l3.407-16.57H292.846l2.227,37.124s34.154-.059,33.068.043Z" transform="translate(-100.3 -78.214)" fill="#263238"/>
        <path id="Trazado_716814" data-name="Trazado 716814" d="M339.056,242.075h0a3.9,3.9,0,0,0-3.646,2.491c-.609,1.584-1.5,3.435-2.486,3.973-1.823.995-4.972,1.788-6.63.977s-8.287-6.778-9.448-6.115-2.155,2.155-.995,3.481,7.293,5.3,6.132,6.63-14.088-4.51-16.077-4-3.149,1.738-1.988,2.535,9.944,4.112,10.442,5.272c0,0-13.26-3.481-13.757-2.652s-1.326,2.155,0,2.652,12.762,3.48,13.757,3.978a24.1,24.1,0,0,0,5.111,1.491,54.607,54.607,0,0,1,5.341,1.694,11.7,11.7,0,0,0,8.246-.221l1.343-.547a5.264,5.264,0,0,0,3.268-5.19l-.272-4.521,1.447-3.73Z" transform="translate(-102.712 -82.911)" fill="#b78876"/>
        <path id="Trazado_716815" data-name="Trazado 716815" d="M135.48,124.01S129,113.048,127.468,111.9s-15.136-5.875-16.284-5.493-17.489,3.454-15.575,5.368,13.305-.387,13.305-.387l1.546.741s-9.845,1.737-11.9,2.973c-1.894,1.137-1.2,3.468.6,3.251s10.354-2.019,10.87-1.676-9.292,2.469-10.341,3.113c-1.412.866-1.512,3.4.285,3.248,1.059-.091,10.3-2.641,10.3-2.641s-7.312,2.957-7.98,3.612c-1.093,1.072-.185,2.66,1.4,2.282,1.09-.26,6.248-2.824,7.708-3.168,0,0,1.375.344,2.665,3.094s8.137,8.19,8.137,8.19Z" transform="translate(-32.693 -36.437)" fill="#b78876"/>
        <path id="Trazado_716816" data-name="Trazado 716816" d="M95.74,114.137a7.578,7.578,0,0,0,3,.776,17.715,17.715,0,0,0,3.379.085c1.25-.16,2.616-.377,4.051-.6l3.049-.5-.185-.014c4.065,1.373,7.043,2.262,7.1,2.1s-2.822-1.328-6.864-2.8l-.082-.03-.1.016-3.025.46-4,.654a21.721,21.721,0,0,1-3.272.08c-1.869-.1-3.019-.348-3.046-.233" transform="translate(-32.791 -38.758)" fill="#aa6550"/>
        <path id="Trazado_716817" data-name="Trazado 716817" d="M130.74,95.382h0a1.416,1.416,0,0,1-1.416,1.464h-1.337V132.63a4.1,4.1,0,0,1-8.2,0V96.887l-1.274.014a1.444,1.444,0,1,1-.017-2.887h10.833a1.417,1.417,0,0,1,1.416,1.368" transform="translate(-40.089 -32.2)" fill="#f5f5f5"/>
        <path id="Trazado_716818" data-name="Trazado 716818" d="M130.678,95.323c-.011,0-.009-.114-.07-.324a1.411,1.411,0,0,0-.557-.757,1.387,1.387,0,0,0-.652-.233c-.256-.011-.552,0-.865,0l-2.168.017-5.931.031-1.79.007a1.569,1.569,0,0,0-.854.166,1.361,1.361,0,0,0-.583.649,1.332,1.332,0,0,0,.5,1.625,1.464,1.464,0,0,0,.934.206l1.074-.015.132,0v.132c.011,9.2.025,21.33.041,34.59a9.072,9.072,0,0,0,.115,2.08,3.849,3.849,0,0,0,.95,1.757,3.942,3.942,0,0,0,1.669,1.061,3.932,3.932,0,0,0,4.835-2.245,4.5,4.5,0,0,0,.3-1.876q0-.982,0-1.949c.009-5.153.016-9.962.023-14.3.035-8.638.064-15.37.08-19.162v-.06h.06c.592,0,1.128.03,1.562-.005a1.371,1.371,0,0,0,.911-.559,1.612,1.612,0,0,0,.281-.84,1.247,1.247,0,0,1-.229.876,1.431,1.431,0,0,1-.947.614c-.462.047-.977.021-1.576.036l.061-.06c.015,3.792.043,10.524.079,19.162.007,4.334.015,9.143.023,14.3q0,.967,0,1.949a4.839,4.839,0,0,1-.322,2,4.271,4.271,0,0,1-5.246,2.442,4.277,4.277,0,0,1-1.815-1.151,4.2,4.2,0,0,1-1.034-1.91,4.481,4.481,0,0,1-.124-1.093v-1.068c.016-13.26.03-25.393.041-34.59l.131.13-1.073.01a1.72,1.72,0,0,1-1.072-.253,1.574,1.574,0,0,1-.585-1.924,1.591,1.591,0,0,1,.69-.758,1.8,1.8,0,0,1,.964-.187l1.79.007,5.931.031,2.168.017c.316.006.6,0,.874.016a1.461,1.461,0,0,1,.686.264,1.42,1.42,0,0,1,.551.809,1.007,1.007,0,0,1,.033.334" transform="translate(-40.027 -32.141)" fill="#263238"/>
        <path id="Trazado_716819" data-name="Trazado 716819" d="M125.917,142.94h0a3.069,3.069,0,0,0,3.069-3.069v-23.83h-6.137v23.83a3.069,3.069,0,0,0,3.069,3.069" transform="translate(-42.076 -39.744)" fill="#d5f6ff"/>
        <path id="Trazado_716820" data-name="Trazado 716820" d="M123.115,98.392a14.246,14.246,0,0,1,3.107-.171,14.245,14.245,0,0,1,3.107.171,14.245,14.245,0,0,1-3.107.171,14.247,14.247,0,0,1-3.107-.171" transform="translate(-42.167 -33.641)" fill="#263238"/>
        <path id="Trazado_716821" data-name="Trazado 716821" d="M128.98,115.533a1.072,1.072,0,0,0-.89-.922,4.107,4.107,0,0,0-1.559.083l-3.011.437a1.007,1.007,0,0,0-.567.206.349.349,0,0,0,0,.53" transform="translate(-42.071 -39.237)" fill="#d5f6ff"/>
        <g id="Grupo_1005877" data-name="Grupo 1005877" transform="translate(83.985 78.875)" opacity="0.21">
          <g id="Grupo_1005876" data-name="Grupo 1005876">
            <g id="Grupo_1005875" data-name="Grupo 1005875" clip-path="url(#clip-path-7)">
              <path id="Trazado_716822" data-name="Trazado 716822" d="M127.734,120.89a.928.928,0,1,0,.928-.928.928.928,0,0,0-.928.928" transform="translate(-127.734 -119.962)" fill="#fff"/>
            </g>
          </g>
        </g>
        <g id="Grupo_1005880" data-name="Grupo 1005880" transform="translate(83.962 83.496)" opacity="0.21">
          <g id="Grupo_1005879" data-name="Grupo 1005879">
            <g id="Grupo_1005878" data-name="Grupo 1005878" clip-path="url(#clip-path-8)">
              <path id="Trazado_716823" data-name="Trazado 716823" d="M127.7,127.455a.464.464,0,1,0,.464-.464.464.464,0,0,0-.464.464" transform="translate(-127.699 -126.991)" fill="#fff"/>
            </g>
          </g>
        </g>
        <path id="Trazado_716824" data-name="Trazado 716824" d="M145.015,127.921a2.99,2.99,0,0,1-3.485.054c-1.079-.625-1.915-1.6-2.947-2.3-3.085-2.1-7.47-1.515-10.451-3.758-.416-.313-.83-.829-.613-1.3.2-.437.788-.5,1.27-.493l12.357.092" transform="translate(-43.655 -41.142)" fill="#b78876"/>
        <path id="Trazado_716825" data-name="Trazado 716825" d="M140.967,120.039a4.944,4.944,0,0,0-1.335-.147c-.86-.049-2.1-.1-3.643-.139l-5.4-.116-1.562-.023a2.448,2.448,0,0,0-1.807.406,1.041,1.041,0,0,0-.183,1.155,2.136,2.136,0,0,0,.634.788,8.036,8.036,0,0,0,1.566.93c2.244.993,4.526,1.144,6.43,1.724a9.3,9.3,0,0,1,2.554,1.112c.727.476,1.336,1.061,1.955,1.54a4.351,4.351,0,0,0,3.493,1.171c.91-.192,1.2-.692,1.17-.694a3.6,3.6,0,0,1-1.21.422,4.211,4.211,0,0,1-3.137-1.285c-.578-.485-1.17-1.1-1.944-1.638a9.587,9.587,0,0,0-2.694-1.249c-1.974-.631-4.252-.816-6.323-1.743a7.559,7.559,0,0,1-1.42-.834c-.4-.315-.609-.748-.393-.919.206-.224.775-.22,1.3-.212h1.562l5.406-.036c1.538-.02,2.783-.049,3.644-.084a4.965,4.965,0,0,0,1.337-.128" transform="translate(-43.476 -40.966)" fill="#aa6550"/>
      </g>
    </g>
    <g id="Grupo_1005887" data-name="Grupo 1005887">
      <g id="Grupo_1005886" data-name="Grupo 1005886" clip-path="url(#clip-path)">
        <path id="Trazado_716826" data-name="Trazado 716826" d="M32.828,350.962c-.8,2.191-3.475,2.249-4.94,1.433a9.708,9.708,0,0,1-3.257-3.755c-1.973-3.285-4-6.742-4.206-10.568a6.27,6.27,0,0,1,.6-3.339,3.278,3.278,0,0,1,2.735-1.8c1.356,0,2.474,1.028,3.357,2.055a26.929,26.929,0,0,1,5.549,10.479,9.336,9.336,0,0,1,.158,5.494" transform="translate(-6.991 -114.03)" fill="#d5f6ff"/>
        <g id="Grupo_1005885" data-name="Grupo 1005885" transform="translate(13.419 218.903)" opacity="0.2">
          <g id="Grupo_1005884" data-name="Grupo 1005884">
            <g id="Grupo_1005883" data-name="Grupo 1005883" clip-path="url(#clip-path-10)">
              <path id="Trazado_716827" data-name="Trazado 716827" d="M32.828,350.962c-.8,2.191-3.475,2.249-4.94,1.433a9.708,9.708,0,0,1-3.257-3.755c-1.973-3.285-4-6.742-4.206-10.568a6.27,6.27,0,0,1,.6-3.339,3.278,3.278,0,0,1,2.735-1.8c1.356,0,2.474,1.028,3.357,2.055a26.929,26.929,0,0,1,5.549,10.479,9.336,9.336,0,0,1,.158,5.494" transform="translate(-20.41 -332.933)"/>
            </g>
          </g>
        </g>
        <path id="Trazado_716828" data-name="Trazado 716828" d="M30.251,376.427a11.591,11.591,0,0,0-7.174,1.009,5.978,5.978,0,0,0-3.024,2.448,2.557,2.557,0,0,0,.879,3.437,3.4,3.4,0,0,0,2.31-.028c1.831-.512,3.783-1.379,5.545-.665,1.005.407,1.842,1.306,2.927,1.35a2.451,2.451,0,0,0,2.295-1.853,4.185,4.185,0,0,0-.5-3.063,4.715,4.715,0,0,0-3.256-2.634" transform="translate(-6.763 -128.856)" fill="#d5f6ff"/>
        <path id="Trazado_716829" data-name="Trazado 716829" d="M44.363,352.969a6.952,6.952,0,0,1-2.694-5.9,12.327,12.327,0,0,1,2.244-6.287,20.4,20.4,0,0,1,5.524-5.616,7.229,7.229,0,0,1,2.814-1.287,3.2,3.2,0,0,1,2.874.837c1.041,1.132.8,2.9.437,4.4a51.646,51.646,0,0,1-2.556,7.705,12.063,12.063,0,0,1-3.653,5.32c-1.767,1.277-3.833,1.733-5.24.648" transform="translate(-14.271 -114.335)" fill="#d5f6ff"/>
        <path id="Trazado_716830" data-name="Trazado 716830" d="M43.345,394.991a4.187,4.187,0,0,1-.341-.807l-.834-2.23a34.272,34.272,0,0,0-1.41-3.22,26.842,26.842,0,0,0-2.278-3.637,15.136,15.136,0,0,0-2.98-3.046,7.829,7.829,0,0,0-3.126-1.445,7.428,7.428,0,0,0-2.333-.1,4.148,4.148,0,0,1-.867.1,4.086,4.086,0,0,1,.846-.24,6.765,6.765,0,0,1,2.4-.014,7.8,7.8,0,0,1,3.271,1.425,14.773,14.773,0,0,1,3.073,3.1,25.086,25.086,0,0,1,2.286,3.7,29.472,29.472,0,0,1,1.353,3.281c.332.953.569,1.733.728,2.273a4.106,4.106,0,0,1,.208.851" transform="translate(-9.993 -130.239)" fill="#263238"/>
        <path id="Trazado_716831" data-name="Trazado 716831" d="M42.28,380.938a1.732,1.732,0,0,1-.126-.383c-.078-.293-.175-.661-.294-1.114-.255-.967-.629-2.364-1.141-4.076-1.006-3.43-2.575-8.115-4.546-13.2s-4-9.594-5.6-12.788c-.391-.8-.761-1.522-1.1-2.147s-.61-1.173-.857-1.607l-.548-1.013a1.663,1.663,0,0,1-.17-.366,1.681,1.681,0,0,1,.232.329l.608.98c.266.424.566.959.911,1.58s.739,1.331,1.145,2.128a130.61,130.61,0,0,1,5.708,12.773c1.976,5.095,3.51,9.8,4.455,13.259.483,1.725.819,3.136,1.033,4.114.093.459.169.833.229,1.13a1.7,1.7,0,0,1,.056.4" transform="translate(-9.556 -117.904)" fill="#263238"/>
        <path id="Trazado_716832" data-name="Trazado 716832" d="M45.48,370.89a7.677,7.677,0,0,1-.3-1.165c-.156-.758-.342-1.865-.485-3.244a43.007,43.007,0,0,1-.2-4.863,42.054,42.054,0,0,1,.471-5.942A29.928,29.928,0,0,1,48.259,345.4a14.8,14.8,0,0,1,1-1.586c.158-.227.292-.446.439-.631l.42-.492a7.555,7.555,0,0,1,.811-.888,35.832,35.832,0,0,0-2.445,3.717,31.539,31.539,0,0,0-3.163,10.21,44.8,44.8,0,0,0-.494,5.9,48.2,48.2,0,0,0,.122,4.835c.109,1.373.256,2.479.369,3.242a7.708,7.708,0,0,1,.165,1.189" transform="translate(-15.237 -117.068)" fill="#263238"/>
      </g>
    </g>
    <g id="Grupo_1005913" data-name="Grupo 1005913">
      <g id="Grupo_1005912" data-name="Grupo 1005912" clip-path="url(#clip-path)">
        <path id="Trazado_716833" data-name="Trazado 716833" d="M164.827,217.31v2.46h3.416v22.276l-13.435,29.843a5.1,5.1,0,0,0,4.65,7.192h26.7a5.1,5.1,0,0,0,4.645-7.2l-13.954-30.787V219.906h3.28v-2.6Z" transform="translate(-52.866 -74.429)" fill="#f5f5f5"/>
        <path id="Trazado_716834" data-name="Trazado 716834" d="M164.747,217.261s.081-.006.249-.009l.755-.01,2.967-.022,11.335-.053h.094v.095c0,.8,0,1.683.007,2.6v.1h-.1l-3.28.008.108-.109c.01,5.94.022,13.13.036,21.183l-.013-.06c2.949,6.491,6.189,13.625,9.641,21.222l2.625,5.784q.665,1.466,1.339,2.952a13.673,13.673,0,0,1,.634,1.533,5.238,5.238,0,0,1,.2,1.681,5.331,5.331,0,0,1-1.207,3.147,5.254,5.254,0,0,1-2.909,1.771l-.428.084-.435.03c-.295.027-.571.015-.855.018h-5.123l-18.158,0h-2.191a7.014,7.014,0,0,1-2.2-.235,5.252,5.252,0,0,1-3.321-7.021c.552-1.279,1.126-2.512,1.678-3.748l11.855-26.249-.011.051c.028-9.882.051-17.574.064-22.276l.059.059-3.416-.02h-.039v-.038c.01-.83.017-1.446.022-1.865s.016-.594.016-.594.009.208.016.616.012,1.023.022,1.844l-.038-.038,3.416-.02h.059v.059c.014,4.7.036,12.394.064,22.276v.026l-.011.025-11.792,26.278c-.548,1.232-1.127,2.48-1.668,3.74a4.926,4.926,0,0,0,3.119,6.58,6.666,6.666,0,0,0,2.1.218h2.191l18.158,0h5.123c.281,0,.569.009.838-.018l.408-.028.4-.079a4.9,4.9,0,0,0,2.72-1.654A5,5,0,0,0,191,274.138a4.9,4.9,0,0,0-.187-1.572,13.356,13.356,0,0,0-.616-1.489l-1.337-2.953-2.619-5.787-9.6-21.239-.012-.028v-.031c.013-8.053.025-15.242.035-21.183v-.109h.109l3.28.008-.1.1c0-.914.005-1.8.007-2.6l.094.094-11.28-.053-2.988-.022-.771-.01c-.174,0-.267-.009-.267-.009" transform="translate(-52.786 -74.38)" fill="#263238"/>
        <path id="Trazado_716835" data-name="Trazado 716835" d="M161.164,287.623a4.447,4.447,0,0,1,4.472-2.7,25.027,25.027,0,0,0,4.361.32c2.531-.226,4.712-1.776,6.962-2.955s5.044-2,7.267-.77l5.649,11.207a3.9,3.9,0,0,1-3.487,5.662H162.51a3.9,3.9,0,0,1-3.6-5.422Z" transform="translate(-54.321 -96.21)" fill="#d5f6ff"/>
        <path id="Trazado_716836" data-name="Trazado 716836" d="M186.468,285.3a11.793,11.793,0,0,0-2.79,1.531c-.8.585-1.675,1.374-2.717,2.188a9.026,9.026,0,0,1-3.853,1.932,10.784,10.784,0,0,1-4.305-.257c-1.288-.3-2.422-.627-3.384-.883l-2.267-.637a4.223,4.223,0,0,1-.82-.279,4.186,4.186,0,0,1,.853.15l2.294.531c.967.225,2.116.529,3.391.81a10.843,10.843,0,0,0,4.176.228,8.954,8.954,0,0,0,3.723-1.846c1.04-.79,1.943-1.565,2.767-2.134a8.763,8.763,0,0,1,2.09-1.12,3.983,3.983,0,0,1,.619-.18c.144-.033.22-.044.223-.033" transform="translate(-56.969 -97.715)" fill="#fafafa"/>
        <path id="Trazado_716837" data-name="Trazado 716837" d="M189.707,328.124c-.817-3.5-3.1-6.8-6.437-8.141a1.817,1.817,0,0,0-1.856.039,2,2,0,0,0-.462,1.457q-.15,3.675-.3,7.351a4.951,4.951,0,0,0-1.339-2.594,1.711,1.711,0,0,0-2.557.285c-.335.7.051,1.515.306,2.252A6.786,6.786,0,0,1,175.2,335.9c-1.352,1.2-3.142,1.8-4.545,2.941a7.4,7.4,0,0,0,3.155,12.994h4.835c2.8-.057,6.071-2.772,7.822-4.958a21.925,21.925,0,0,0,3.66-7.908c.909-3.48.4-7.338-.421-10.84" transform="translate(-57.517 -109.514)" fill="#d5f6ff"/>
        <g id="Grupo_1005890" data-name="Grupo 1005890" transform="translate(110.415 210.233)" opacity="0.8">
          <g id="Grupo_1005889" data-name="Grupo 1005889">
            <g id="Grupo_1005888" data-name="Grupo 1005888" clip-path="url(#clip-path-12)">
              <path id="Trazado_716838" data-name="Trazado 716838" d="M189.707,328.124c-.817-3.5-3.1-6.8-6.437-8.141a1.817,1.817,0,0,0-1.856.039,2,2,0,0,0-.462,1.457q-.15,3.675-.3,7.351a4.951,4.951,0,0,0-1.339-2.594,1.711,1.711,0,0,0-2.557.285c-.335.7.051,1.515.306,2.252A6.786,6.786,0,0,1,175.2,335.9c-1.352,1.2-3.142,1.8-4.545,2.941a7.4,7.4,0,0,0,3.155,12.994h4.835c2.8-.057,6.071-2.772,7.822-4.958a21.925,21.925,0,0,0,3.66-7.908c.909-3.48.4-7.338-.421-10.84" transform="translate(-167.932 -319.748)" fill="#fff"/>
            </g>
          </g>
        </g>
        <path id="Trazado_716839" data-name="Trazado 716839" d="M176.176,358.832c-2.105-1.075-3.238-3.981-3.241-5.708a6.332,6.332,0,0,1,2.718-4.611c1.627-1.159,3.921-1.267,5.29-2.722,1.043-1.109,1.288-2.73,1.984-4.084a2.361,2.361,0,0,1,2.027-1.514c1.07.078,1.655,1.278,1.891,2.325.667,2.957.982,6.992-.049,9.162-1.3,2.739-2.972,6.117-6.438,7.152" transform="translate(-59.231 -116.516)" fill="#d5f6ff"/>
        <path id="Trazado_716840" data-name="Trazado 716840" d="M194.447,330.8a1.441,1.441,0,0,0-.835-.409h-.231a1.245,1.245,0,0,0-1.276,1.393,1.215,1.215,0,0,0,.922,1.039,1.482,1.482,0,0,0,1.361-.412,1.248,1.248,0,0,0,.377-.751,1.118,1.118,0,0,0-.319-.861" transform="translate(-65.795 -113.16)" fill="#d5f6ff"/>
        <rect id="Rectángulo_347892" data-name="Rectángulo 347892" width="6.783" height="16.898" transform="translate(116.595 241.828)" fill="#455a64"/>
        <path id="Trazado_716841" data-name="Trazado 716841" d="M162.793,401.22h0a4.522,4.522,0,0,1,4.522-4.522h16.9a4.522,4.522,0,0,1,4.522,4.522Z" transform="translate(-55.757 -135.87)" fill="#263238"/>
        <path id="Trazado_716842" data-name="Trazado 716842" d="M186.383,395.458H169.128a2.38,2.38,0,0,1,2.379-2.38H184a2.38,2.38,0,0,1,2.38,2.38" transform="translate(-57.927 -134.63)" fill="#455a64"/>
        <path id="Trazado_716843" data-name="Trazado 716843" d="M206.851,229.013c0,.095-10.1.171-22.557.171s-22.559-.076-22.559-.171,10.1-.171,22.559-.171,22.557.076,22.557.171" transform="translate(-55.395 -78.379)" fill="#263238"/>
        <path id="Trazado_716844" data-name="Trazado 716844" d="M232.015,338.175c-.095,0-.171-27.295-.171-60.957s.076-60.963.171-60.963.171,27.289.171,60.963-.076,60.957-.171,60.957" transform="translate(-79.407 -74.068)" fill="#263238"/>
        <path id="Trazado_716845" data-name="Trazado 716845" d="M235.339,399.75a6.753,6.753,0,1,0-13.505,0Z" transform="translate(-75.979 -134.602)" fill="#455a64"/>
        <path id="Trazado_716846" data-name="Trazado 716846" d="M230.345,223.968a3.376,3.376,0,1,0,0,6.753Z" transform="translate(-77.737 -76.709)" fill="#455a64"/>
        <path id="Trazado_716847" data-name="Trazado 716847" d="M319.1,320.616h0a1.416,1.416,0,0,0,1.416,1.464h1.337v35.783a4.1,4.1,0,1,0,8.2,0V322.12l1.274.014a1.443,1.443,0,1,0,.017-2.886H320.519a1.417,1.417,0,0,0-1.416,1.368" transform="translate(-109.293 -109.343)" fill="#f5f5f5"/>
        <path id="Trazado_716848" data-name="Trazado 716848" d="M319.1,320.556a1,1,0,0,1,.034-.334,1.414,1.414,0,0,1,.55-.809,1.462,1.462,0,0,1,.686-.264c.274-.017.558-.01.874-.016l2.168-.017,5.931-.031,1.79-.007a1.8,1.8,0,0,1,.964.187,1.594,1.594,0,0,1,.69.758,1.574,1.574,0,0,1-.585,1.924,1.72,1.72,0,0,1-1.072.253l-1.073-.01.132-.13c.01,9.2.025,21.33.041,34.59v1.068a4.48,4.48,0,0,1-.124,1.093,4.192,4.192,0,0,1-1.034,1.91,4.277,4.277,0,0,1-1.815,1.151,4.267,4.267,0,0,1-5.246-2.442,4.838,4.838,0,0,1-.322-2q0-.982,0-1.949c.009-5.153.016-9.962.023-14.3.035-8.638.063-15.37.08-19.162l.06.06c-.6-.014-1.114.012-1.576-.036a1.431,1.431,0,0,1-.947-.614,1.248,1.248,0,0,1-.229-.876,1.612,1.612,0,0,0,.281.84,1.369,1.369,0,0,0,.911.559c.433.035.969,0,1.562.005h.06v.06c.016,3.792.044,10.524.08,19.162.007,4.334.014,9.143.023,14.3q0,.967,0,1.949a4.5,4.5,0,0,0,.3,1.876,3.936,3.936,0,0,0,4.835,2.245,3.942,3.942,0,0,0,1.669-1.061,3.849,3.849,0,0,0,.95-1.757,9.072,9.072,0,0,0,.115-2.08c.015-13.26.03-25.393.041-34.59v-.132l.132,0,1.074.016a1.469,1.469,0,0,0,.934-.207,1.332,1.332,0,0,0,.5-1.624,1.36,1.36,0,0,0-.583-.65,1.569,1.569,0,0,0-.854-.166l-1.79-.007-5.931-.031-2.168-.017c-.312,0-.608-.013-.865,0a1.394,1.394,0,0,0-.652.233,1.411,1.411,0,0,0-.557.757c-.061.21-.059.325-.07.324" transform="translate(-109.288 -109.283)" fill="#263238"/>
        <path id="Trazado_716849" data-name="Trazado 716849" d="M327.863,368.172h0a3.069,3.069,0,0,1-3.069-3.069v-23.83h6.137V365.1a3.069,3.069,0,0,1-3.069,3.069" transform="translate(-111.243 -116.887)" fill="#d5f6ff"/>
        <path id="Trazado_716850" data-name="Trazado 716850" d="M330.623,323.625a28.319,28.319,0,0,1-6.214,0,28.324,28.324,0,0,1,6.214,0" transform="translate(-111.111 -110.784)" fill="#263238"/>
        <path id="Trazado_716851" data-name="Trazado 716851" d="M324.793,340.766a1.072,1.072,0,0,1,.89-.922,4.107,4.107,0,0,1,1.559.083l3.011.437a1.007,1.007,0,0,1,.567.206.349.349,0,0,1,0,.53" transform="translate(-111.242 -116.379)" fill="#d5f6ff"/>
        <g id="Grupo_1005893" data-name="Grupo 1005893" transform="translate(214.619 226.965)" opacity="0.21">
          <g id="Grupo_1005892" data-name="Grupo 1005892">
            <g id="Grupo_1005891" data-name="Grupo 1005891" clip-path="url(#clip-path-7)">
              <path id="Trazado_716852" data-name="Trazado 716852" d="M328.274,346.123a.928.928,0,1,1-.928-.928.928.928,0,0,1,.928.928" transform="translate(-326.418 -345.195)" fill="#fff"/>
            </g>
          </g>
        </g>
        <g id="Grupo_1005896" data-name="Grupo 1005896" transform="translate(215.571 231.586)" opacity="0.21">
          <g id="Grupo_1005895" data-name="Grupo 1005895">
            <g id="Grupo_1005894" data-name="Grupo 1005894" clip-path="url(#clip-path-8)">
              <path id="Trazado_716853" data-name="Trazado 716853" d="M328.792,352.687a.464.464,0,1,1-.464-.464.464.464,0,0,1,.464.464" transform="translate(-327.865 -352.223)" fill="#fff"/>
            </g>
          </g>
        </g>
        <path id="Trazado_716854" data-name="Trazado 716854" d="M351.326,320.616h0a1.416,1.416,0,0,0,1.416,1.464h1.337v35.783a4.1,4.1,0,1,0,8.2,0V322.12l1.274.014a1.443,1.443,0,1,0,.017-2.886H352.741a1.416,1.416,0,0,0-1.416,1.368" transform="translate(-120.329 -109.343)" fill="#f5f5f5"/>
        <path id="Trazado_716855" data-name="Trazado 716855" d="M351.321,320.556a1.007,1.007,0,0,1,.033-.334,1.419,1.419,0,0,1,.551-.809,1.462,1.462,0,0,1,.686-.264c.274-.017.558-.01.874-.016l2.168-.017,5.931-.031,1.79-.007a1.8,1.8,0,0,1,.964.187,1.593,1.593,0,0,1,.69.758,1.574,1.574,0,0,1-.585,1.924,1.72,1.72,0,0,1-1.072.253l-1.073-.01.132-.13c.01,9.2.025,21.33.041,34.59v1.068a4.48,4.48,0,0,1-.124,1.093,4.192,4.192,0,0,1-1.034,1.91,4.277,4.277,0,0,1-1.815,1.151,4.267,4.267,0,0,1-5.246-2.442,4.827,4.827,0,0,1-.322-2q0-.982,0-1.949c.008-5.153.016-9.962.023-14.3.035-8.638.063-15.37.079-19.162l.061.06c-.6-.014-1.114.012-1.576-.036a1.431,1.431,0,0,1-.947-.614,1.248,1.248,0,0,1-.229-.876,1.612,1.612,0,0,0,.281.84,1.369,1.369,0,0,0,.911.559c.433.035.969,0,1.562.005h.06v.06c.016,3.792.044,10.524.08,19.162.007,4.334.014,9.143.023,14.3q0,.967,0,1.949a4.5,4.5,0,0,0,.3,1.876,3.936,3.936,0,0,0,4.835,2.245,3.942,3.942,0,0,0,1.669-1.061,3.855,3.855,0,0,0,.95-1.757,9.039,9.039,0,0,0,.114-2.08c.016-13.26.03-25.393.041-34.59v-.132l.132,0,1.074.016a1.469,1.469,0,0,0,.934-.207,1.332,1.332,0,0,0,.5-1.624,1.36,1.36,0,0,0-.583-.65,1.569,1.569,0,0,0-.854-.166l-1.79-.007-5.931-.031-2.168-.017c-.312,0-.609-.013-.865,0a1.392,1.392,0,0,0-.652.233,1.411,1.411,0,0,0-.557.757c-.062.21-.059.325-.07.324" transform="translate(-120.325 -109.283)" fill="#263238"/>
        <path id="Trazado_716856" data-name="Trazado 716856" d="M360.085,368.172h0a3.069,3.069,0,0,1-3.069-3.069v-23.83h6.137V365.1a3.069,3.069,0,0,1-3.069,3.069" transform="translate(-122.279 -116.887)" fill="#d5f6ff"/>
        <path id="Trazado_716857" data-name="Trazado 716857" d="M362.846,323.625a28.319,28.319,0,0,1-6.214,0,28.324,28.324,0,0,1,6.214,0" transform="translate(-122.147 -110.784)" fill="#263238"/>
        <path id="Trazado_716858" data-name="Trazado 716858" d="M357.016,340.766a1.072,1.072,0,0,1,.89-.922,4.107,4.107,0,0,1,1.559.083l3.011.437a1.007,1.007,0,0,1,.567.206.349.349,0,0,1,0,.53" transform="translate(-122.279 -116.379)" fill="#d5f6ff"/>
        <g id="Grupo_1005899" data-name="Grupo 1005899" transform="translate(235.805 226.965)" opacity="0.21">
          <g id="Grupo_1005898" data-name="Grupo 1005898">
            <g id="Grupo_1005897" data-name="Grupo 1005897" clip-path="url(#clip-path-15)">
              <path id="Trazado_716859" data-name="Trazado 716859" d="M360.5,346.123a.928.928,0,1,1-.928-.928.928.928,0,0,1,.928.928" transform="translate(-358.64 -345.195)" fill="#fff"/>
            </g>
          </g>
        </g>
        <g id="Grupo_1005902" data-name="Grupo 1005902" transform="translate(236.756 231.586)" opacity="0.21">
          <g id="Grupo_1005901" data-name="Grupo 1005901">
            <g id="Grupo_1005900" data-name="Grupo 1005900" clip-path="url(#clip-path-8)">
              <path id="Trazado_716860" data-name="Trazado 716860" d="M361.015,352.687a.464.464,0,1,1-.464-.464.464.464,0,0,1,.464.464" transform="translate(-360.087 -352.223)" fill="#fff"/>
            </g>
          </g>
        </g>
        <g id="Grupo_1005905" data-name="Grupo 1005905" transform="translate(214.692 235.983)" opacity="0.3">
          <g id="Grupo_1005904" data-name="Grupo 1005904">
            <g id="Grupo_1005903" data-name="Grupo 1005903" clip-path="url(#clip-path-17)">
              <path id="Trazado_716861" data-name="Trazado 716861" d="M327.384,370.372c-.473,0-.856-2.566-.856-5.731s.383-5.731.856-5.731.856,2.566.856,5.731-.383,5.731-.856,5.731" transform="translate(-326.528 -358.91)" fill="#fff"/>
            </g>
          </g>
        </g>
        <g id="Grupo_1005908" data-name="Grupo 1005908" transform="translate(235.581 235.983)" opacity="0.3">
          <g id="Grupo_1005907" data-name="Grupo 1005907">
            <g id="Grupo_1005906" data-name="Grupo 1005906" clip-path="url(#clip-path-17)">
              <path id="Trazado_716862" data-name="Trazado 716862" d="M359.156,370.372c-.473,0-.857-2.566-.857-5.731s.384-5.731.857-5.731.856,2.566.856,5.731-.384,5.731-.856,5.731" transform="translate(-358.299 -358.91)" fill="#fff"/>
            </g>
          </g>
        </g>
        <path id="Trazado_716863" data-name="Trazado 716863" d="M297.133,319.247c.095,0,.171,12.206.171,27.261s-.076,27.263-.171,27.263-.171-12.2-.171-27.263.076-27.261.171-27.261" transform="translate(-101.71 -109.343)" fill="#263238"/>
        <path id="Trazado_716864" data-name="Trazado 716864" d="M417.986,319.341c.095,0,.171,12.206.171,27.261s-.076,27.263-.171,27.263-.171-12.2-.171-27.263.076-27.261.171-27.261" transform="translate(-143.102 -109.375)" fill="#263238"/>
        <path id="Trazado_716865" data-name="Trazado 716865" d="M376.529,333.833c0,.095-17.908.171-39.993.171s-40-.076-40-.171,17.9-.171,40-.171,39.993.076,39.993.171" transform="translate(-101.565 -114.28)" fill="#263238"/>
        <path id="Trazado_716866" data-name="Trazado 716866" d="M300.457,399.75a6.753,6.753,0,0,0-13.505,0Z" transform="translate(-98.282 -134.602)" fill="#455a64"/>
        <path id="Trazado_716867" data-name="Trazado 716867" d="M421.31,400.059a6.753,6.753,0,0,0-13.505,0Z" transform="translate(-139.674 -134.708)" fill="#455a64"/>
        <path id="Trazado_716868" data-name="Trazado 716868" d="M296.539,336.713a3.376,3.376,0,1,0,0-6.753Z" transform="translate(-101.565 -113.012)" fill="#455a64"/>
        <path id="Trazado_716869" data-name="Trazado 716869" d="M416.439,329.96a3.376,3.376,0,1,0,0,6.753Z" transform="translate(-141.475 -113.012)" fill="#455a64"/>
        <path id="Trazado_716870" data-name="Trazado 716870" d="M315.471,264.209s-.243.012-.717.018l-2.106.016-8.1.032-29.78.055-9.867.011-5.249.005c-.892,0-1.8-.012-2.685.053a10.441,10.441,0,0,0-2.629.624,9.24,9.24,0,0,0-2.415,1.309,10.125,10.125,0,0,0-2.013,1.936,10.621,10.621,0,0,0-1.437,2.445,11.018,11.018,0,0,0-.711,2.791c-.15,1.934.028,3.948-.151,5.984a21.448,21.448,0,0,1-1.477,6,20.2,20.2,0,0,1-8.359,9.492,19.718,19.718,0,0,1-12.921,2.529,20.024,20.024,0,0,1-17.184-19.433c0-19.19,0-37.471-.005-54.1.005-8.313.011-16.212.016-23.605a12.6,12.6,0,0,0-13.142-12.591,12.428,12.428,0,0,0-8.025,3.351A13.174,13.174,0,0,0,184,194.339a13.625,13.625,0,0,0-1.294,3.6,18.27,18.27,0,0,0-.243,3.581q0,1.741-.007,3.345c-.005,2.139-.011,4.093-.014,5.851-.014,3.51-.025,6.238-.032,8.1-.008.92-.013,1.623-.017,2.105s-.018.717-.018.717-.012-.243-.017-.717-.01-1.185-.017-2.105c-.007-1.859-.018-4.586-.032-8.1,0-1.758-.01-3.712-.015-5.851q0-1.6-.007-3.345a18.428,18.428,0,0,1,.233-3.618,13.807,13.807,0,0,1,1.3-3.666,13.4,13.4,0,0,1,2.543-3.268,12.649,12.649,0,0,1,8.163-3.433,12.857,12.857,0,0,1,13.437,12.833c0,7.394.01,15.293.016,23.605.01,16.625.02,34.9.032,54.091A19.691,19.691,0,0,0,224.9,297.177a19.4,19.4,0,0,0,12.709-2.479,19.889,19.889,0,0,0,8.234-9.333,21.165,21.165,0,0,0,1.461-5.9c.18-2,0-4,.159-5.99a11.324,11.324,0,0,1,.735-2.871,10.887,10.887,0,0,1,1.483-2.514,10.368,10.368,0,0,1,2.072-1.987,9.477,9.477,0,0,1,2.484-1.342,10.715,10.715,0,0,1,2.7-.636c.923-.065,1.82-.05,2.711-.05l5.249.005,9.867.011,29.78.055,8.1.032,2.106.017c.474.006.717.018.717.018" transform="translate(-62.434 -64.227)" fill="#263238"/>
        <path id="Trazado_716871" data-name="Trazado 716871" d="M329.026,304.156a47.829,47.829,0,0,1,0,8.081,47.651,47.651,0,0,1,0-8.081" transform="translate(-112.633 -104.174)" fill="#263238"/>
        <path id="Trazado_716872" data-name="Trazado 716872" d="M359.512,304.156a47.837,47.837,0,0,1,0,8.081,47.829,47.829,0,0,1,0-8.081" transform="translate(-123.075 -104.174)" fill="#263238"/>
        <path id="Trazado_716873" data-name="Trazado 716873" d="M77.947,192.945l3.98,4.353a6.664,6.664,0,0,1,1.475,6.376L68.369,254.819a9.7,9.7,0,0,0,9.3,12.433h28.3a10.26,10.26,0,0,0,9.8-13.292l-15.691-50.73a6.664,6.664,0,0,1,1.58-6.606l3.564-3.679Z" transform="translate(-23.28 -66.084)" fill="#f5f5f5"/>
        <path id="Trazado_716874" data-name="Trazado 716874" d="M77.867,192.886l27.28-.111h.264l-.183.19-2.712,2.808a19.306,19.306,0,0,0-1.368,1.491,6.438,6.438,0,0,0-.958,1.811,6.561,6.561,0,0,0-.018,4.2l1.356,4.366,5.991,19.307c2.134,6.885,4.4,14.186,6.756,21.8l.888,2.869q.224.721.448,1.446c.155.479.3.967.412,1.474a10.633,10.633,0,0,1,.281,3.087l-.094.777-.048.389-.092.381-.185.764-.27.74a10.383,10.383,0,0,1-9.981,6.687l-22.592,0-5.424,0a9.885,9.885,0,0,1-9.875-10.233c.034-.423.082-.847.133-1.266.1-.411.185-.826.289-1.23q.351-1.19.7-2.366l1.366-4.636,2.615-8.864c1.688-5.718,3.262-11.045,4.7-15.909l3.884-13.123,1.6-5.382c.122-.414.249-.818.341-1.213a7.068,7.068,0,0,0,.151-1.184,6.665,6.665,0,0,0-.293-2.19,6.753,6.753,0,0,0-.862-1.783,12.934,12.934,0,0,0-1.135-1.345l-1.856-2.066-1.5-1.681,1.571,1.68,1.871,2.01a12.509,12.509,0,0,1,1.147,1.335,6.739,6.739,0,0,1,1.206,4.046,7.21,7.21,0,0,1-.147,1.212c-.093.409-.218.811-.337,1.226l-1.569,5.39-3.836,13.137-4.658,15.921-2.6,8.869-1.36,4.638a20.561,20.561,0,0,0-1.1,4.787,9.563,9.563,0,0,0,9.56,9.889l5.424,0,22.592,0a10.045,10.045,0,0,0,9.664-6.468l.262-.715.18-.739.089-.369.046-.376.092-.752a10.316,10.316,0,0,0-.272-2.986c-.107-.485-.249-.97-.405-1.453l-.447-1.446q-.446-1.442-.887-2.87l-6.732-21.807c-2.123-6.888-4.119-13.361-5.956-19.318l-1.345-4.369a6.82,6.82,0,0,1,.032-4.361,6.678,6.678,0,0,1,1-1.876,19.258,19.258,0,0,1,1.392-1.509l2.721-2.8.08.189-27.28-.111" transform="translate(-23.199 -66.025)" fill="#263238"/>
        <path id="Trazado_716875" data-name="Trazado 716875" d="M54.911,331.181c-.1,0-.171-29.215-.171-65.244s.076-65.251.171-65.251.17,29.208.17,65.251-.076,65.244-.17,65.244" transform="translate(-18.749 -68.735)" fill="#263238"/>
        <path id="Trazado_716876" data-name="Trazado 716876" d="M114.972,212.51c0,.095-12.72.171-28.407.171s-28.41-.076-28.41-.171,12.717-.171,28.41-.171,28.407.076,28.407.171" transform="translate(-19.919 -72.727)" fill="#263238"/>
        <path id="Trazado_716877" data-name="Trazado 716877" d="M106.394,238.9a17.329,17.329,0,0,1-8.474-.186c-2.661-.738-5.106-2.1-7.726-2.975s-5.615-1.208-8.056.083l-8.988,32.571a8.24,8.24,0,0,0,7.943,10.432h25.366a8.24,8.24,0,0,0,7.952-10.4Z" transform="translate(-24.95 -80.475)" fill="#d5f6ff"/>
        <path id="Trazado_716878" data-name="Trazado 716878" d="M58.234,400.059a6.753,6.753,0,0,0-13.505,0Z" transform="translate(-15.32 -134.708)" fill="#455a64"/>
        <path id="Trazado_716879" data-name="Trazado 716879" d="M55,215.2a4.273,4.273,0,0,0,4.272-4.272h0A4.273,4.273,0,0,0,55,206.652Z" transform="translate(-18.838 -70.779)" fill="#455a64"/>
        <path id="Trazado_716880" data-name="Trazado 716880" d="M110.038,193.575a6.612,6.612,0,0,1-.965.507,12.1,12.1,0,0,1-1.172.515c-.465.18-.987.41-1.59.59-.6.2-1.253.411-1.974.579-.713.2-1.492.339-2.309.5a29.734,29.734,0,0,1-10.774-.137c-.813-.179-1.589-.335-2.3-.556-.717-.187-1.367-.416-1.958-.63-.6-.2-1.114-.439-1.575-.631a12.022,12.022,0,0,1-1.157-.545,6.58,6.58,0,0,1-.952-.531,6.623,6.623,0,0,1,1.009.41c.318.147.707.32,1.174.489s.982.4,1.581.579c.592.2,1.241.411,1.953.585.7.207,1.474.35,2.28.52a31.141,31.141,0,0,0,10.664.136c.81-.149,1.584-.272,2.293-.462.717-.155,1.371-.351,1.967-.535.6-.163,1.126-.375,1.6-.538s.866-.32,1.187-.459a6.671,6.671,0,0,1,1.019-.385" transform="translate(-28.536 -66.182)" fill="#263238"/>
        <g id="Grupo_1005911" data-name="Grupo 1005911" transform="translate(53.191 158.968)" opacity="0.3">
          <g id="Grupo_1005910" data-name="Grupo 1005910">
            <g id="Grupo_1005909" data-name="Grupo 1005909" clip-path="url(#clip-path-19)">
              <path id="Trazado_716881" data-name="Trazado 716881" d="M87.127,278c-.008.1-.607.191-1.623-.164a6.822,6.822,0,0,1-3.326-2.971,8.945,8.945,0,0,1-1.089-2.942,13.17,13.17,0,0,1-.128-3.539,53.648,53.648,0,0,1,1.6-7.639c2.671-10.591,5.208-19.081,5.667-18.965s-1.335,8.792-4.007,19.384a70.344,70.344,0,0,0-1.687,7.384,12.7,12.7,0,0,0-.037,3.158,8.318,8.318,0,0,0,.752,2.584,7.083,7.083,0,0,0,2.551,2.946c.809.488,1.354.629,1.332.763" transform="translate(-80.899 -241.777)" fill="#fff"/>
            </g>
          </g>
        </g>
        <path id="Trazado_716882" data-name="Trazado 716882" d="M110.661,247.043a4.764,4.764,0,0,1-.851.407c-.558.237-1.37.572-2.4.914a14.656,14.656,0,0,1-3.756.752,9.652,9.652,0,0,1-2.275-.15,12.052,12.052,0,0,1-2.331-.727c-1.539-.648-2.907-1.435-4.207-2.009a11.753,11.753,0,0,0-3.6-1.015,6.41,6.41,0,0,0-2.5.224c-.569.183-.861.355-.878.324-.006-.01.063-.059.2-.142a4.059,4.059,0,0,1,.634-.308,6.065,6.065,0,0,1,2.562-.339,11.471,11.471,0,0,1,3.71.967c1.327.568,2.7,1.347,4.213,1.982a12.021,12.021,0,0,0,2.264.713,9.524,9.524,0,0,0,2.2.164,15.324,15.324,0,0,0,3.7-.668c1.033-.309,1.856-.608,2.428-.807a5.113,5.113,0,0,1,.9-.283" transform="translate(-30.091 -83.898)" fill="#fafafa"/>
      </g>
    </g>
  </g>
</svg>
